<svg id="レイヤー_1" data-name="レイヤー 1" xmlns="http://www.w3.org/2000/svg" xmlns:xlink="http://www.w3.org/1999/xlink" viewBox="0 0 833.6 70.3"><defs><style>.cls-1{fill:none;}.cls-2{clip-path:url(#clip-path);}.cls-3{fill:#ffd4f9;}.cls-4{fill:#edbfff;}.cls-5{isolation:isolate;}</style><clipPath id="clip-path"><rect class="cls-1" x="-4" y="0.8" width="838.8" height="70.3"/></clipPath></defs><title>ご了承ください改アウトライン</title><g class="cls-2"><rect class="cls-3" x="-4.3" y="-3362.2" width="42.3" height="5119.5"/><rect class="cls-3" x="77.9" y="-3340.5" width="42.3" height="5119.5"/><rect class="cls-3" x="159.5" y="-3340.5" width="42.3" height="5119.5"/><rect class="cls-3" x="244.1" y="-3289.7" width="42.3" height="5119.5"/><rect class="cls-3" x="328" y="-3355" width="42.3" height="5119.5"/><rect class="cls-3" x="412" y="-3362.2" width="42.3" height="5119.5"/><rect class="cls-3" x="496.6" y="-3478.3" width="42.3" height="5119.5"/><rect class="cls-3" x="581.1" y="-3289.7" width="42.3" height="5119.5"/><rect class="cls-3" x="665.7" y="-3340.5" width="42.3" height="5119.5"/><rect class="cls-3" x="750.3" y="-3289.7" width="42.3" height="5119.5"/><rect class="cls-4" x="35.6" y="-3355" width="42.3" height="5119.5"/><rect class="cls-4" x="201.8" y="-3289.7" width="42.3" height="5119.5"/><rect class="cls-4" x="286.4" y="-3340.5" width="42.3" height="5119.5"/><rect class="cls-4" x="370.3" y="-3340.5" width="42.3" height="5119.5"/><rect class="cls-4" x="454.3" y="-3340.5" width="42.3" height="5119.5"/><rect class="cls-4" x="538.9" y="-3362.2" width="42.3" height="5119.5"/><rect class="cls-4" x="623.4" y="-3340.5" width="42.3" height="5119.5"/><rect class="cls-4" x="708" y="-3289.7" width="42.3" height="5119.5"/><rect class="cls-4" x="792.6" y="-3355" width="42.3" height="5119.5"/><rect class="cls-4" x="120.2" y="-3340.5" width="42.3" height="5119.5"/></g><g class="cls-2"><g class="cls-5"><path d="M63,31.5v7.9c0,1.4,0,3.1.1,5v.1c0,.2-.1.3-.4.3H60.3a.27.27,0,0,1-.3-.3v-.1c0-.4,0-1.3.1-2.7V33.8a36.32,36.32,0,0,1-6.6,4.6c-.1.1-.2.1-.4.1s-.3-.1-.5-.2a7.59,7.59,0,0,0-2.1-1.4A47.29,47.29,0,0,0,58.1,32a34.64,34.64,0,0,0,5.1-5,7.25,7.25,0,0,0,1.5-2.5,19,19,0,0,1,2.7,1.7.52.52,0,0,1,.2.4.55.55,0,0,1-.3.5,7.57,7.57,0,0,0-1.4,1.3C65,29.5,64,30.5,63,31.5Z"/><path d="M70.9,36.4a11.09,11.09,0,0,0,2.4-2c1.2-1.2,2.4-2.4,3.5-3.6A10,10,0,0,1,78,29.7a2.92,2.92,0,0,1,.9-.2,3.59,3.59,0,0,1,1.1.2,3.14,3.14,0,0,1,1,.8,72,72,0,0,0,10.8,7.8c.2.1.3.2.3.4a.37.37,0,0,1-.1.3,19.61,19.61,0,0,1-1.2,2.1c-.1.2-.2.3-.4.3a.37.37,0,0,1-.3-.1,102.67,102.67,0,0,1-10.6-8.4.5.5,0,0,0-.8,0c-.5.5-1.1,1.2-1.9,2.1s-1.6,1.8-2,2.3-.8.9-1,1.2a.54.54,0,0,1-.4.3c-.1,0-.2-.1-.3-.2C72.6,38.1,71.8,37.4,70.9,36.4ZM84,28.7l1.3-.9.1-.1c.1,0,.1,0,.2.1a9.92,9.92,0,0,1,2.3,2.6c0,.1.1.1.1.2s0,.1-.1.2l-1,.7c-.1.1-.1.1-.2.1a.22.22,0,0,1-.2-.2A13.11,13.11,0,0,0,84,28.7Zm2.2-1.6,1.2-.9c.1,0,.1-.1.2-.1s.1,0,.2.1a9.15,9.15,0,0,1,2.3,2.5c0,.1.1.1.1.2s0,.2-.1.2l-1,.7c-.1.2-.2.2-.3.2a.22.22,0,0,1-.2-.2A10.15,10.15,0,0,0,86.2,27.1Z"/><path d="M94.8,29c.4-.5,1-1.1,1.7-1.9.1-.1.2-.2.3-.2a.37.37,0,0,1,.3.1,21.67,21.67,0,0,1,4.6,3.4,1.44,1.44,0,0,1,.2.3.49.49,0,0,1-.1.3,14.28,14.28,0,0,1-1.5,1.8c-.1.1-.2.2-.3.2s-.2-.1-.3-.2A30.53,30.53,0,0,0,94.8,29Zm.5,12a22,22,0,0,0,3.2-1.2c1.5-.8,2.8-1.5,3.9-2.2a24.22,24.22,0,0,0,3-2.3,35.28,35.28,0,0,0,3.8-3.4c.9-.9,1.8-2,2.8-3.2a7.68,7.68,0,0,0,.7,2.8.9.9,0,0,1,.1.5c0,.2-.1.4-.4.7a40.14,40.14,0,0,1-5.5,5.1,56.24,56.24,0,0,1-7.2,4.7,12.68,12.68,0,0,0-1.6,1.1c-.2.2-.3.2-.4.2a.54.54,0,0,1-.4-.3A12.21,12.21,0,0,1,95.3,41Z"/><path d="M122,31.6a29.91,29.91,0,0,1,7.6,3.3c.2.1.3.2.3.4v.2a13.55,13.55,0,0,1-1,2.1q-.15.3-.3.3a.37.37,0,0,1-.3-.1,30.29,30.29,0,0,0-6.3-3.1V40c0,.9,0,2.4.1,4.7v.1c0,.2-.1.3-.4.3h-2.2c-.3,0-.5-.1-.5-.4.1-1.5.1-3.1.1-4.7V28.1a33.63,33.63,0,0,0-.2-3.6,14.39,14.39,0,0,1,3,.4c.3.1.5.2.5.4a3.93,3.93,0,0,1-.2.6,8,8,0,0,0-.2,2.3Z"/><path d="M135.4,25.2a9.07,9.07,0,0,1,2.7.9.66.66,0,0,1,.4.5,1.69,1.69,0,0,1-.2.5,5,5,0,0,0-.4,1.3,44,44,0,0,0-1.2,8.7,25.46,25.46,0,0,0,.1,3.1c.1-.3.4-.8.8-1.7.3-.6.5-1.2.7-1.6.3.6.6,1.2.8,1.5a.37.37,0,0,1,.1.3.76.76,0,0,1-.1.4,14.71,14.71,0,0,0-1.2,3.6c0,.3-.1.5-.1.7v.5h0q0,.15-.3.3a6,6,0,0,1-1.8.4h-.2q-.15,0-.3-.3a20.66,20.66,0,0,1-1-7.3,57,57,0,0,1,1-9.1c.1-.9.2-1.6.2-2.2A.45.45,0,0,0,135.4,25.2ZM146.5,38c0-1.3-.1-3.2-.1-5.5-1.1,0-2,.1-2.6.1a16.22,16.22,0,0,1-2.3-.1c-.3,0-.4-.1-.4-.3a15,15,0,0,1-.2-2.2c1.1.1,2.1.2,3.2.2a17.7,17.7,0,0,0,2.3-.1V27.6a8.52,8.52,0,0,0-.3-2.3,28.94,28.94,0,0,1,2.9.4c.3.1.4.2.4.4a.76.76,0,0,1-.1.4,1.88,1.88,0,0,0-.2.8v2.5c1.1-.1,2.2-.2,3.4-.4h.2c.1,0,.2.1.2.3a8.12,8.12,0,0,1,.1,1.7c0,.2-.1.3-.3.4a22,22,0,0,1-3.7.5c0,2.4.1,4.5.2,6.4a17.4,17.4,0,0,1,4,2.3l.2.2a.31.31,0,0,1-.1.2c-.4.7-.7,1.3-1.1,1.9a.31.31,0,0,1-.2.1c-.1,0-.1,0-.2-.1a17.42,17.42,0,0,0-2.6-1.9c-.2,2.1-1.7,3.1-4.4,3.1a4.5,4.5,0,0,1-3.3-1,3.26,3.26,0,0,1-1-2.3,3,3,0,0,1,1.3-2.6,4.52,4.52,0,0,1,2.9-.8A5.54,5.54,0,0,1,146.5,38Zm.1,2.2a7.61,7.61,0,0,0-2.1-.3c-1.2,0-1.8.4-1.8,1.1s.6,1.2,1.9,1.2a2.46,2.46,0,0,0,1.5-.5,1.39,1.39,0,0,0,.5-1Z"/><path d="M163.9,28.1a26.38,26.38,0,0,1,3,1.8,24.45,24.45,0,0,0,3.9-2.8H158.9c-.2,0-.2-.1-.2-.3V25c0-.2.1-.3.2-.3h13.4c.3,0,.5,0,.6-.1a.77.77,0,0,1,.3-.1c.2,0,.6.3,1.1.8s.9.9.9,1.2-.1.3-.4.5l-.9.6a36,36,0,0,1-5,3.6l.8.7c.1.1.1.1.1.2l-.2.2-.4.3h5.4a1.27,1.27,0,0,0,.6-.1.6.6,0,0,1,.4-.1c.3,0,.6.2,1.2.7s.8.8.8,1a.91.91,0,0,1-.3.5,3.61,3.61,0,0,0-.9.9,21.49,21.49,0,0,1-3.3,3.4c-.3.2-.4.4-.6.4s-.3-.1-.6-.4a9.91,9.91,0,0,0-1.7-1.1,15.82,15.82,0,0,0,3.2-2.8h-5.2v7.7a2.65,2.65,0,0,1-.8,2.2,3.33,3.33,0,0,1-1.5.5,16.33,16.33,0,0,1-2.5.1c-.4,0-.6,0-.7-.1s-.1-.3-.2-.6a6.78,6.78,0,0,0-.8-1.9c1.2.1,2.2.1,3,.1a1.55,1.55,0,0,0,.8-.2,1,1,0,0,0,.2-.7V35h-9.1V32.8h10.1a43.58,43.58,0,0,0-4.5-3c-.1-.1-.2-.1-.2-.2s.1-.1.2-.2l1.2-1.1c.1-.1.2-.2.3-.2Z"/><path d="M183.5,35h-3.2V32.8h9.3v-3h-4.1c-.5.7-1,1.4-1.5,2-.3.3-.4.5-.5.5s-.3-.1-.6-.4a6.09,6.09,0,0,0-1.6-1.1,14.25,14.25,0,0,0,3.2-4.4,7,7,0,0,0,.6-1.7c.6.2,1.3.4,2.1.7.3.1.5.3.5.4s-.1.2-.3.4a.92.92,0,0,0-.4.6,2.66,2.66,0,0,1-.4.8h2.9V27a25.46,25.46,0,0,0-.1-3.1,18.7,18.7,0,0,1,2.7.2c.3,0,.4.1.4.3s-.1.2-.2.5a7.67,7.67,0,0,0-.1,1.8v1h6.7c.2,0,.2.1.2.3v1.8c0,.2-.1.3-.2.3h-6.7v3h9.1v2.2H183.5Zm2.3,10.8h-2.2V37h14.7v8.6c0,.2-.1.2-.3.2h-2c-.2,0-.3-.1-.3-.2v-.9H186v1c0,.1,0,.2-.1.2C186,45.8,185.9,45.8,185.8,45.8Zm.2-6.7v3.3h9.7V39.1Z"/><path d="M212,28.5c.8-.1,1.8-.3,3-.5h.2a.22.22,0,0,1,.2.2,11.08,11.08,0,0,1,.2,1.9.27.27,0,0,1-.3.3,32.09,32.09,0,0,1-4,.6,69.52,69.52,0,0,1-4.7,10.3c-.1.2-.2.2-.3.2s-.1,0-.3-.1a12.49,12.49,0,0,1-1.7-1.2c-.1-.1-.2-.2-.2-.3a.37.37,0,0,1,.1-.3,47,47,0,0,0,4.2-8.4h-3.7c-.2,0-.3-.1-.3-.4a8.75,8.75,0,0,1-.2-2,18.55,18.55,0,0,0,2.2.1,26.2,26.2,0,0,0,2.8-.1q.3-1.05.6-2.7a11.08,11.08,0,0,0,.2-1.9c1.4.2,2.3.4,2.8.5a.37.37,0,0,1,.4.4c0,.2-.1.3-.2.5a3.92,3.92,0,0,0-.4.9,4.28,4.28,0,0,1-.3,1A4.05,4.05,0,0,1,212,28.5Zm3.9,10.1c-.1-1.2-.2-2.6-.2-4.1a8.81,8.81,0,0,0-.2-1.7,12,12,0,0,1,2.6.5c.2,0,.3.2.3.4a1.34,1.34,0,0,1-.1.5,1.7,1.7,0,0,0-.1.7v.3a31.65,31.65,0,0,0,.3,4.1,21.15,21.15,0,0,1,4.3,2.2c.1.1.2.2.2.3s0,.1-.1.2a16,16,0,0,1-1.1,1.9c-.1.1-.1.2-.2.2s-.1,0-.2-.1a20.36,20.36,0,0,0-2.9-2,3.24,3.24,0,0,1-1.4,2.8,5.7,5.7,0,0,1-3.1.7,5.33,5.33,0,0,1-3.4-1.1,3.14,3.14,0,0,1,.3-5,5,5,0,0,1,3.1-.9A6.08,6.08,0,0,1,215.9,38.6Zm0,2.3a7.87,7.87,0,0,0-2-.4,2.54,2.54,0,0,0-1.6.4,1.11,1.11,0,0,0-.5,1c0,.8.7,1.1,2,1.1a2.54,2.54,0,0,0,1.6-.5,1.66,1.66,0,0,0,.5-1.2Zm1.4-10.1c.7-1.2,1-1.8,1.1-1.9s.2-.2.3-.2h.2a15.54,15.54,0,0,1,4.7,2.3c.1.1.2.2.2.3a.37.37,0,0,1-.1.3c-.3.5-.6,1.1-1,1.8-.1.1-.1.2-.2.2s-.1,0-.2-.1A20.85,20.85,0,0,0,217.3,30.8Z"/><path d="M236.2,24.4a16.31,16.31,0,0,1,2.6,1.8.52.52,0,0,1,.2.4.55.55,0,0,1-.3.5,4.44,4.44,0,0,0-1.1.8c-2.6,2.4-4.8,4.4-6.6,6.2-.2.3-.3.4-.3.5a.54.54,0,0,0,.3.4,66.74,66.74,0,0,1,8.9,7.6c.1.1.2.2.2.3s-.1.2-.2.3a13.54,13.54,0,0,1-1.7,1.7.33.33,0,0,1-.6,0,66.31,66.31,0,0,0-8.7-8.1,2.46,2.46,0,0,1-1.3-2,1.5,1.5,0,0,1,.4-1.1,4.82,4.82,0,0,1,.8-1c.6-.7,1.7-1.8,3.2-3.4,1.2-1.2,2.1-2.3,2.9-3A6.44,6.44,0,0,0,236.2,24.4Z"/><path d="M243.4,33.7a12.94,12.94,0,0,0,3.3-3.3,3.1,3.1,0,0,0,.6-1.3,6.75,6.75,0,0,1,1.9.9c.2.1.3.2.3.4s-.1.4-.2.4a2.23,2.23,0,0,0-.7.7,18.67,18.67,0,0,1-2.8,3.3,1.55,1.55,0,0,1-.6.3c-.1,0-.3-.2-.6-.5A6.23,6.23,0,0,0,243.4,33.7Zm.8,6.6a19,19,0,0,0,4.5-2.5,16,16,0,0,0,2.6-2.6,5.42,5.42,0,0,0,.6-1.1c.7.2,1.4.4,2,.6.2.1.3.2.3.4s-.1.3-.4.4c-.1,0-.3.3-.6.7-.1.1-.2.3-.3.4h4.9c.4,0,.6,0,.7-.1a.76.76,0,0,1,.4-.1,3.4,3.4,0,0,1,1,.8c.4.5.7.8.7,1a.55.55,0,0,1-.3.5,4.35,4.35,0,0,0-.7.6,22.07,22.07,0,0,1-3,2.5,35.52,35.52,0,0,0,8.7,1.5,8.72,8.72,0,0,0-.9,1.7,3.93,3.93,0,0,0-.2.6.37.37,0,0,1-.3.1h-.4a27.93,27.93,0,0,1-9.2-2.5,28.6,28.6,0,0,1-8.8,2.6h-.4a.52.52,0,0,1-.4-.2c0-.1-.1-.2-.3-.5a6.38,6.38,0,0,0-.8-1.4,30.67,30.67,0,0,0,8.4-1.9,11.5,11.5,0,0,1-2.3-2.1,14.76,14.76,0,0,1-3.5,2.1,4.2,4.2,0,0,0-.5.2c-.1,0-.3-.2-.5-.6A5.24,5.24,0,0,0,244.2,40.3Zm2.8-5.7a9.32,9.32,0,0,0,3.3-2.3,6.31,6.31,0,0,0,.9-3.7H244v-2c0-.2.1-.2.3-.2h8.8V26a14,14,0,0,0-.2-2.3c.9,0,1.7.1,2.6.1.2,0,.4.1.4.2a.6.6,0,0,1-.1.4,4.55,4.55,0,0,0-.1,1.4v.4h9c.2,0,.3.1.3.2v1.8c0,.1,0,.2-.1.2h-6.4v4.5a2.2,2.2,0,0,1-.8,1.8,4.14,4.14,0,0,1-2.1.4h-.3a.76.76,0,0,1-.5-.2,3.93,3.93,0,0,0-.2-.6c-.2-.6-.4-1-.6-1.5a6.82,6.82,0,0,0,1.2.1c.6,0,.8-.3.8-.8V28.3h-2.4a8.75,8.75,0,0,1-1.3,4.7,8.1,8.1,0,0,1-2.9,2.5,1.55,1.55,0,0,1-.6.3c-.1,0-.3-.2-.5-.5C247.8,35.1,247.4,34.8,247,34.6Zm10.3,3.7h-5.9a16,16,0,0,0,3,2.3A10.91,10.91,0,0,0,257.3,38.3Zm4.2-8.9a16.66,16.66,0,0,1,3.2,4.1c0,.1.1.1.1.2s-.1.2-.3.3l-1.5.9a.37.37,0,0,1-.3.1l-.2-.2a19,19,0,0,0-3-4.3.31.31,0,0,1-.1-.2c0-.1.1-.1.2-.2l1.3-.7a.5.5,0,0,1,.6,0Z"/><path d="M273.5,38.3a11.9,11.9,0,0,0,2,1.9,4.19,4.19,0,0,0,.9-1.4,1.88,1.88,0,0,0,.2-.8h-6.1c-.1,0-.2,0-.2-.1V28.6h6.8V27.1h-9.3V24.8h21V27c0,.1,0,.2-.1.2h-9.4v1.5h7.1V38H279c-.1.5-.2.9-.3,1.3a10.24,10.24,0,0,1-1,2.1c2.4,1,6.4,1.5,11.8,1.6a5.18,5.18,0,0,0-.7,1.8,3.22,3.22,0,0,1-.2.6c-.1.1-.2.1-.4.1h-.3c-5.3-.2-9.2-1-11.8-2.4a17.09,17.09,0,0,1-6.6,2.6H269c-.1,0-.2-.1-.3-.2s-.1-.2-.2-.5a5.6,5.6,0,0,0-1-1.5,18.7,18.7,0,0,0,6.4-1.9c-.7-.6-1.4-1.3-2.2-2.1a.31.31,0,0,1-.1-.2c0-.1.1-.1.2-.2l1.3-.8a.37.37,0,0,1,.3-.1C273.5,38.2,273.4,38.2,273.5,38.3Zm3.6-7.7h-4.5v1.7h4.5Zm0,3.6h-4.5v1.9H277C277,35.4,277.1,34.8,277.1,34.2Zm2.2,1.9h4.9V34.2h-4.7a6.61,6.61,0,0,1-.1,1.1A2.49,2.49,0,0,0,279.3,36.1Zm.2-3.8h4.7V30.6h-4.7Z"/><path d="M296.3,32.4a2.5,2.5,0,0,1,1.8.8,2.45,2.45,0,0,1,.6,1.6,2.5,2.5,0,0,1-.8,1.8,2.45,2.45,0,0,1-1.6.6,2.5,2.5,0,0,1-1.8-.8,2.45,2.45,0,0,1-.6-1.6,2.5,2.5,0,0,1,.8-1.8A2.45,2.45,0,0,1,296.3,32.4Z"/><path d="M326,35.5a8.86,8.86,0,0,0-.8,1.7c-.2.4-.3.7-.5.7s-.2-.1-.5-.2a19.68,19.68,0,0,1-5.3-3.2,25.72,25.72,0,0,1-4.9,3.1,4.2,4.2,0,0,0-.5.2c-.1,0-.3-.2-.5-.6a3.11,3.11,0,0,0-.4-.6l-.8.3c-.1,0-.2.1-.3.1s-.1-.1-.2-.2l-.2-1-1.4.1v9.8c0,.2-.1.2-.3.2h-1.8c-.2,0-.3-.1-.3-.2V36l-2.2.2a2,2,0,0,0-.9.2c-.1.1-.2.1-.4.1s-.2-.1-.3-.4c-.1-.6-.2-1.3-.3-2a11.8,11.8,0,0,0,1.6.1h.4c.3-.4.7-.9,1.2-1.7a25.92,25.92,0,0,0-3.3-3.7c-.1-.1-.1-.1-.1-.2a1.44,1.44,0,0,1,.2-.3l.9-1.2.2-.2a.31.31,0,0,1,.2.1l.3.3.3.3a11.61,11.61,0,0,0,1.4-2.7,5,5,0,0,0,.4-1.3,8.82,8.82,0,0,1,2,.9c.2.1.3.2.3.4s-.1.2-.2.3a3.81,3.81,0,0,0-.5.6c-.8,1.4-1.5,2.5-2.1,3.4.3.3.6.7,1.2,1.4q.75-1.2,1.8-3c.3-.5.5-1.1.7-1.5a14.38,14.38,0,0,1,2,.9q.3.15.3.3a.54.54,0,0,1-.3.4c-.2.1-.4.4-.8.9a65.47,65.47,0,0,1-3.8,5.5c1.2-.1,2.2-.1,2.7-.2a9.75,9.75,0,0,0-.6-1.4v-.2c0-.1.1-.2.3-.2l1.1-.4a.35.35,0,0,0,.2-.1l.2.2a19.11,19.11,0,0,1,1.3,3.6,17.29,17.29,0,0,0,4.2-2.5,12,12,0,0,1-1.8-2.6,12.94,12.94,0,0,1-1.5,1.7c-.3.3-.4.4-.5.4s-.2-.1-.4-.4a4.73,4.73,0,0,0-1.3-1.1,15.09,15.09,0,0,0,4.1-5.8c.2-.6.3-1,.4-1.4.6.1,1.3.3,2.2.5q.3.15.3.3a.52.52,0,0,1-.2.4,3,3,0,0,0-.5.7,2.39,2.39,0,0,1-.3.7h3.9a1.27,1.27,0,0,0,.6-.1c.1,0,.2-.1.3-.1s.5.2.9.6a3,3,0,0,1,.6.9c0,.2-.1.3-.3.5s-.3.3-.6.7a19.1,19.1,0,0,1-2.8,4A26.45,26.45,0,0,0,326,35.5Zm-22.6,7.8a14.93,14.93,0,0,0,1-4.4c0-.4.1-.8.1-1.1v-.4c.7.1,1.4.2,1.9.3.3.1.4.2.4.3s0,.3-.1.3-.1.4-.2.9a18.19,18.19,0,0,1-.8,4.4q-.15.6-.3.6c-.1,0-.2-.1-.5-.3Q303.7,43.45,303.4,43.3Zm8.4-6h.2a.22.22,0,0,1,.2.2,21.16,21.16,0,0,1,1.1,4.5v.2q0,.15-.3.3l-1.3.5h-.2c-.1,0-.2-.1-.2-.3a27.24,27.24,0,0,0-1-4.6v-.2c0-.1.1-.1.3-.2Zm3.6,3.5a39.61,39.61,0,0,1,8.2,2.9c.1.1.2.1.2.2a.77.77,0,0,1-.1.3l-.8,1.5q-.15.3-.3.3a.31.31,0,0,1-.2-.1,38.25,38.25,0,0,0-8.2-3,.35.35,0,0,1-.2-.1.77.77,0,0,1,.1-.3l.8-1.4q.15-.3.3-.3C315.3,40.7,315.3,40.8,315.4,40.8Zm2.2-4.5A23.44,23.44,0,0,1,322,39l.2.2a1.24,1.24,0,0,0-.2.3l-1,1.3q-.15.3-.3.3a.31.31,0,0,1-.2-.1,21.22,21.22,0,0,0-4.3-2.8c-.1-.1-.2-.1-.2-.2a.37.37,0,0,1,.1-.3l.9-1.2q.15-.3.3-.3A.37.37,0,0,0,317.6,36.3Zm3.5-8h-4.3l-.1.1a12.88,12.88,0,0,0,2.2,3A11.59,11.59,0,0,0,321.1,28.3Z"/><path d="M332.9,42.6c1.3.1,2.4.2,3.4.2.8,0,1.1-.4,1.1-1.2V34.3a26.31,26.31,0,0,0-.2-3.3H339a39.68,39.68,0,0,0,4.9-3.5H329.4c-.1,0-.2,0-.2-.1V25h16.1a2,2,0,0,0,.9-.1.37.37,0,0,1,.3-.1c.2,0,.6.3,1.1.9s.8.9.8,1.1a.86.86,0,0,1-.3.6,4.44,4.44,0,0,0-1.1.8,55.78,55.78,0,0,1-6.9,5.1v9.1a6.05,6.05,0,0,1-.2,1.5,2.1,2.1,0,0,1-.6.8,3.85,3.85,0,0,1-1.9.6,20.24,20.24,0,0,1-2.8.1h-.3a.76.76,0,0,1-.5-.2c-.1-.1-.1-.3-.2-.6A5.22,5.22,0,0,0,332.9,42.6Z"/><path d="M362.1,28.2v-2a5.66,5.66,0,0,0-.3-1.8c1.2.1,2.1.2,2.8.3.4.1.7.2.7.5a3.93,3.93,0,0,1-.2.6,1.45,1.45,0,0,0-.2.7V28c2.1-.1,4.6-.1,7.4-.1a.37.37,0,0,1,.3.1c.1.1.1.1.1.3v1.8a.27.27,0,0,1-.3.3h-.1c-1.5,0-3-.1-4.6-.1H365v4.5a7.46,7.46,0,0,1,.4,2.4,8.56,8.56,0,0,1-4.3,7.7,4.54,4.54,0,0,1-.9.5c-.2,0-.4-.1-.7-.4a5.08,5.08,0,0,0-1.8-.9,9.25,9.25,0,0,0,3.5-2.5,7,7,0,0,0,1.4-2.7,2.65,2.65,0,0,1-2.3,1,3.25,3.25,0,0,1-2.5-1.1,3.69,3.69,0,0,1-.8-2.6,3.41,3.41,0,0,1,3.6-3.6,2.57,2.57,0,0,1,1.8.5V30.7c-3.5.2-6.2.4-8.3.7a2.54,2.54,0,0,0-.7.2.76.76,0,0,1-.4.1c-.2,0-.3-.1-.4-.3A10,10,0,0,1,352,29h.8c.2,0,1,0,2.2-.1A43,43,0,0,1,362.1,28.2Zm-1.5,6.2a1.37,1.37,0,0,0-1.1.4,1.61,1.61,0,0,0-.5,1.1,1.9,1.9,0,0,0,.5,1.3,1.78,1.78,0,0,0,1,.4,1.66,1.66,0,0,0,1.2-.5,1.59,1.59,0,0,0,.4-1.2,1.66,1.66,0,0,0-.5-1.2A1.49,1.49,0,0,0,360.6,34.4Z"/><path d="M385,28c-1.5.3-3,.6-4.6.9a6.21,6.21,0,0,0-1,.3,1.09,1.09,0,0,1-.5.1.51.51,0,0,1-.5-.4,11.62,11.62,0,0,1-.8-2.6,5.28,5.28,0,0,0,1.3.1h.9c1.6-.2,3.5-.4,5.4-.8a3.93,3.93,0,0,0,1.3-.4,1.69,1.69,0,0,1,.5-.2,1.42,1.42,0,0,1,.6.2,11.72,11.72,0,0,1,1.6,1.5.86.86,0,0,1,.3.6c0,.3-.1.4-.4.6a4.79,4.79,0,0,0-1.1.8l-2.7,2.7-2.4,2.4v.1a7.87,7.87,0,0,1,3.8-1.1,5.8,5.8,0,0,1,4.5,1.8,5.51,5.51,0,0,1,1.5,4,5.86,5.86,0,0,1-2.6,5,10.2,10.2,0,0,1-5.8,1.6,5.63,5.63,0,0,1-3.7-1.1,2.84,2.84,0,0,1-1.1-2.5,2.79,2.79,0,0,1,1.1-2.2,3.57,3.57,0,0,1,2.3-.8,4.36,4.36,0,0,1,3,1,4.82,4.82,0,0,1,1.5,2.5,3.75,3.75,0,0,0,1.9-1.5,4.65,4.65,0,0,0,.5-2.1,3.49,3.49,0,0,0-1.2-2.8,3.74,3.74,0,0,0-2.6-.9,9.26,9.26,0,0,0-6.1,2.5c-.3.3-1,1-2.1,2-.2.2-.3.3-.4.3s-.2-.1-.4-.2a12.21,12.21,0,0,1-1.4-1.6c-.1-.1-.1-.1-.1-.2s.1-.2.2-.4a53.52,53.52,0,0,0,5.7-5.3A38.22,38.22,0,0,0,385,28Zm-.2,14.8c-.3-1.4-1-2.1-2-2.1a1.4,1.4,0,0,0-.9.3.86.86,0,0,0-.3.6q0,1.2,2.1,1.2A4,4,0,0,0,384.8,42.8Z"/><path d="M402.7,36.1v1.8a.75.75,0,0,1-.1.5c-.1,0-.2.2-.5.3-1.5.8-3,1.5-4.4,2.1-.4.1-.7.3-.8.3s-.3.2-.4.2a.54.54,0,0,1-.4-.3,14.24,14.24,0,0,1-.6-2.1l2.4-.6c.1,0,.2-.1.3-.1s.2-.1.3-.1v-6h-.2l-2.2.1c-.2,0-.2-.1-.2-.3V30.1c0-.2.1-.3.2-.3h2.4V27.7a32.08,32.08,0,0,0-.2-3.6c.8,0,1.6.1,2.5.1.3,0,.4.1.4.3a1.69,1.69,0,0,1-.2.5,14.35,14.35,0,0,0-.1,2.7v2.1H403V32h-.2l-1.9-.1v5A11.19,11.19,0,0,0,402.7,36.1Zm2.6,8.2a12.94,12.94,0,0,0,5.9-5.9H410a14.94,14.94,0,0,1-5.6,5.3,1.55,1.55,0,0,1-.6.3c-.1,0-.3-.2-.6-.5a3.92,3.92,0,0,0-1-.8,14.53,14.53,0,0,0,5.4-4.3H406a12.18,12.18,0,0,1-3.2,2.8,1.55,1.55,0,0,1-.6.3c-.1,0-.3-.1-.5-.4a5.24,5.24,0,0,0-1.1-1,11.2,11.2,0,0,0,4.4-3.9,4.61,4.61,0,0,0,.5-1h-3v-2h15v2H406.8l.8.2q.3.15.3.3c0,.1-.1.2-.2.3s-.3.3-.4.4h9.2c.2,0,.3.1.3.2h0l-.2,2.4a19.36,19.36,0,0,1-.7,4.6,3,3,0,0,1-1.1,1.5,2.73,2.73,0,0,1-1.6.4H412c-.3,0-.5-.1-.5-.2s-.1-.3-.2-.6c-.2-.6-.4-1.1-.6-1.6a12.73,12.73,0,0,0,2.2.2c.3,0,.5,0,.6-.1a1.63,1.63,0,0,0,.3-.6,16.26,16.26,0,0,0,.6-4.1h-.8a15.68,15.68,0,0,1-5.9,6.9,1.55,1.55,0,0,1-.6.3c-.1,0-.3-.2-.6-.5A4.7,4.7,0,0,0,405.3,44.3Zm6.8-19.6h3.1v7.4H404.5V24.7h7.6Zm.9,1.8h-6.3v1.1H413Zm0,3.9V29.2h-6.3v1.2Z"/><path d="M442.1,32.2a5.24,5.24,0,0,0-1,1.8c-.1.4-.3.6-.4.6a3.93,3.93,0,0,1-.6-.2,30.38,30.38,0,0,1-4.7-2.7v1.9h-9.5V31.7a27.54,27.54,0,0,1-4.4,2.8,1,1,0,0,1-.6.2c-.1,0-.3-.2-.5-.6a6.45,6.45,0,0,0-1.1-1.6,22,22,0,0,0,9.2-7.3,9.47,9.47,0,0,0,.9-1.7,15.17,15.17,0,0,1,2.5.5c.3.1.4.2.4.4a.76.76,0,0,1-.2.4c-.1.1-.2.1-.2.2A21.46,21.46,0,0,0,442.1,32.2ZM425.4,45.7h-2.2V36H438v9.3c0,.1,0,.2-.1.2h-2.4v-1h-9.6v.9c0,.1,0,.2-.1.2A.6.6,0,0,1,425.4,45.7Zm.3-7.5v4.2h9.6V38.2Zm.4-6.8h8.8a21.4,21.4,0,0,1-4.4-4.6A23.85,23.85,0,0,1,426.1,31.4Z"/><path d="M450.1,30.5c.2-.9.5-1.9.7-3a12.74,12.74,0,0,0,.2-2.7,28.12,28.12,0,0,1,2.9.8c.3.1.4.2.4.5a.76.76,0,0,1-.2.4,4.05,4.05,0,0,0-.5.9c-.1.4-.3.9-.5,1.5s-.3,1.1-.4,1.4a11.48,11.48,0,0,1,1.9-.1c2.3,0,3.4,1.5,3.4,4.6a20.87,20.87,0,0,1-.4,4.3,11.19,11.19,0,0,1-.9,3.2,3.48,3.48,0,0,1-3.2,2.3,5.4,5.4,0,0,1-2.5-.4c-.3-.1-.4-.3-.4-.7a5.49,5.49,0,0,0-.5-2.2,6.71,6.71,0,0,0,2.8.6,1.69,1.69,0,0,0,1-.3,2.89,2.89,0,0,0,.6-1,17.63,17.63,0,0,0,.9-6,3.61,3.61,0,0,0-.3-1.8,1.16,1.16,0,0,0-1-.4,19.09,19.09,0,0,0-2,.2,79.79,79.79,0,0,1-4.8,11.3c-.1.2-.2.3-.4.3a.37.37,0,0,1-.3-.1,8.34,8.34,0,0,1-1.7-1.1.52.52,0,0,1-.2-.4.37.37,0,0,1,.1-.3,52.21,52.21,0,0,0,4.4-9.4c-.5.1-1.3.2-2.3.4a6.47,6.47,0,0,0-1.3.4c-.1,0-.2.1-.3.1a.51.51,0,0,1-.5-.4,16.37,16.37,0,0,1-.7-2.5c.9,0,1.9-.1,3.2-.2A9.24,9.24,0,0,0,450.1,30.5Zm8.3-.2c.9-.6,1.5-1,1.9-1.2h.2c.1,0,.2.1.3.2a17.27,17.27,0,0,1,4,5.8.35.35,0,0,0,.1.2c0,.1-.1.2-.2.3a14,14,0,0,1-1.8,1.2.35.35,0,0,0-.2.1.27.27,0,0,1-.3-.3A18.46,18.46,0,0,0,458.4,30.3Zm1.3-3.7,1.3-.9.1-.1c.1,0,.1,0,.2.1a9.92,9.92,0,0,1,2.3,2.6c0,.1.1.1.1.2s0,.1-.1.2l-1,.7c-.1.1-.1.1-.2.1a.22.22,0,0,1-.2-.2A16.32,16.32,0,0,0,459.7,26.6Zm2.2-1.6,1.2-.9c.1,0,.1-.1.2-.1s.1,0,.2.1a9.15,9.15,0,0,1,2.3,2.5c0,.1.1.1.1.2s0,.2-.1.2l-1,.8c-.1.1-.1.1-.2.1a.22.22,0,0,1-.2-.2A21.6,21.6,0,0,0,461.9,25Z"/><path d="M474.7,24.4a10.89,10.89,0,0,1,2.8.6c.3.1.4.2.4.4s0,.3-.1.4a1.22,1.22,0,0,0-.3.9,3.54,3.54,0,0,0-.1.6c0,.2-.1.4-.1.6a42.18,42.18,0,0,0,6.2-1h.2c.1,0,.2.1.2.3a5.29,5.29,0,0,1,.2,1.6c0,.3-.2.4-.5.5a55.83,55.83,0,0,1-6.8,1c-.1,1-.2,1.8-.2,2.4a12.72,12.72,0,0,1,3.7-.5,4.54,4.54,0,0,0,.4-1.8,6.09,6.09,0,0,1,2.1.9c.3.2.4.4.4.5a.37.37,0,0,1-.1.3,1.07,1.07,0,0,0-.3.5,6.66,6.66,0,0,1,3.8,2.3,5.42,5.42,0,0,1,1.1,3.5,5.68,5.68,0,0,1-2.1,4.5,10.54,10.54,0,0,1-4.5,2.2c-.2,0-.3.1-.4.1-.3,0-.5-.2-.7-.5a8,8,0,0,0-1.4-1.5,27.59,27.59,0,0,0,2.7-.8,10,10,0,0,0,1.8-.9,4.13,4.13,0,0,0,1.9-3.6,3,3,0,0,0-1-2.4,4.33,4.33,0,0,0-2-1.1,29.74,29.74,0,0,1-4.5,6.3,8.2,8.2,0,0,0,.4,1.1.35.35,0,0,0,.1.2c0,.1-.1.2-.3.4a7,7,0,0,1-1.4.8.31.31,0,0,1-.2.1.22.22,0,0,1-.2-.2c-.1-.3-.3-.6-.4-.9a7.67,7.67,0,0,1-4.2,1.7,2.26,2.26,0,0,1-2-.9,3.28,3.28,0,0,1-.6-2.1,6.87,6.87,0,0,1,1.9-4.6,11.63,11.63,0,0,1,3.7-2.9c0-.9.1-1.9.1-3h-3.9c-.3,0-.4-.2-.4-.6,0-.2-.1-.5-.1-.9V28a19.29,19.29,0,0,0,2.5.1h2.1c.1-1.2.2-2,.2-2.6A4.1,4.1,0,0,0,474.7,24.4Zm-.5,11.4a7.45,7.45,0,0,0-2.3,2.4,4.24,4.24,0,0,0-.8,2.2.91.91,0,0,0,.3.7.76.76,0,0,0,.5.2,5.5,5.5,0,0,0,2.8-1.4C474.4,38.2,474.3,36.8,474.2,35.8Zm2.7,2.5a22.86,22.86,0,0,0,2.8-4.1,9,9,0,0,0-3.1.6A19.83,19.83,0,0,0,476.9,38.3Z"/><path d="M493.8,24.7a12.85,12.85,0,0,1,2.6.7c.3.1.5.3.5.5a.76.76,0,0,1-.2.4,3.18,3.18,0,0,0-.4,1.1c-.2,1.1-.4,2.6-.7,4.6-.1,1.1-.1,1.7-.1,2v.6c.6-1,1.1-2.1,1.7-3.1a4.81,4.81,0,0,0,.8,1.6c.1.1.1.2.1.4a1.42,1.42,0,0,1-.2.6,17,17,0,0,0-1.4,3.1,1.48,1.48,0,0,0-.1.7c0,.2-.1.3-.3.4a10.5,10.5,0,0,1-1.9.3.27.27,0,0,1-.3-.3,13.74,13.74,0,0,1-.7-4.9,57.06,57.06,0,0,1,.6-6A24,24,0,0,1,493.8,24.7Zm7.6.1a20.62,20.62,0,0,1,2.7.3c.3.1.5.2.5.4v.2c0,.2-.1.6-.1,1.1.2,3,.3,5.1.3,6.2,0,3.7-.6,6.4-1.8,8.3a12.45,12.45,0,0,1-4,3.9c-.2.1-.3.2-.5.2s-.3-.1-.5-.3a5.64,5.64,0,0,0-2-1.1,13.25,13.25,0,0,0,4.1-3.2,8.86,8.86,0,0,0,1.6-3.4,17.44,17.44,0,0,0,.4-4.3,49.11,49.11,0,0,0-.3-5.7A6.77,6.77,0,0,0,501.4,24.8Z"/><path d="M517.5,38.7c-.1-1.5-.1-2.5-.1-2.9h-1.8a30.09,30.09,0,0,1-3.1-.1.37.37,0,0,1-.4-.4,11.52,11.52,0,0,1-.1-2c1.2.1,2.5.2,3.9.2h1.5V30.7H515a29.17,29.17,0,0,1-3.3-.2c-.3,0-.4-.1-.4-.3-.1-.6-.1-1.3-.2-2.2a52.76,52.76,0,0,0,6.3.2V25.9c-.1-.6-.2-1.2-.3-1.6a16.79,16.79,0,0,1,3,.4.46.46,0,0,1,.3.5.37.37,0,0,1-.1.3,5.64,5.64,0,0,0-.4,1.2v1.5a45.11,45.11,0,0,0,5.3-.7h.2c.1,0,.2.1.2.3a9.7,9.7,0,0,1,.1,1.7c0,.2-.1.4-.3.4a46.29,46.29,0,0,1-5.5.6v2.7c.7,0,2.3-.3,4.7-.6h.2a.22.22,0,0,1,.2.2c0,.9.1,1.6.1,2,0,.2-.1.3-.4.3a43.22,43.22,0,0,1-4.7.6c.1,1.6.1,2.7.2,3.4a21.76,21.76,0,0,1,6.4,2.9c.1.1.2.2.2.3v.2a4.18,4.18,0,0,1-1.1,1.8c-.1.1-.2.2-.3.2a.37.37,0,0,1-.3-.1,18.65,18.65,0,0,0-4.8-2.7,3.19,3.19,0,0,1-1.4,2.9,6.55,6.55,0,0,1-3.5.7,6.13,6.13,0,0,1-3.8-1.1,3,3,0,0,1,.4-4.9,5.82,5.82,0,0,1,3.3-.9A16.6,16.6,0,0,0,517.5,38.7Zm.1,2.2a8.92,8.92,0,0,0-2.2-.3c-1.7,0-2.6.4-2.6,1.3,0,.7.8,1.1,2.4,1.1a2.64,2.64,0,0,0,2.2-.7A4.14,4.14,0,0,0,517.6,40.9Z"/><path d="M540.2,28.2v-2a5.66,5.66,0,0,0-.3-1.8c1.2.1,2.1.2,2.8.3.4.1.7.2.7.5a3.93,3.93,0,0,1-.2.6,1.45,1.45,0,0,0-.2.7V28c2.1-.1,4.6-.1,7.4-.1a.37.37,0,0,1,.3.1c.1.1.1.1.1.3v1.8a.27.27,0,0,1-.3.3h-.1c-1.5,0-3-.1-4.6-.1h-2.7v4.5a7.46,7.46,0,0,1,.4,2.4,8.56,8.56,0,0,1-4.3,7.7,4.54,4.54,0,0,1-.9.5c-.2,0-.4-.1-.7-.4a5.08,5.08,0,0,0-1.8-.9,9.25,9.25,0,0,0,3.5-2.5,7,7,0,0,0,1.4-2.7,2.65,2.65,0,0,1-2.3,1,3.25,3.25,0,0,1-2.5-1.1,3.69,3.69,0,0,1-.8-2.6,3.41,3.41,0,0,1,3.6-3.6,2.57,2.57,0,0,1,1.8.5V30.7c-3.5.2-6.2.4-8.3.7a2.54,2.54,0,0,0-.7.2.76.76,0,0,1-.4.1c-.2,0-.3-.1-.4-.3a10,10,0,0,1-.6-2.4h.8c.2,0,1,0,2.2-.1A43,43,0,0,1,540.2,28.2Zm-1.5,6.2a1.37,1.37,0,0,0-1.1.4,1.61,1.61,0,0,0-.5,1.1,1.9,1.9,0,0,0,.5,1.3,1.78,1.78,0,0,0,1,.4,1.66,1.66,0,0,0,1.2-.5,1.59,1.59,0,0,0,.4-1.2,1.66,1.66,0,0,0-.5-1.2A1.49,1.49,0,0,0,538.7,34.4Z"/><path d="M556.5,39.4a3.63,3.63,0,0,1,2.6,1.1,3.34,3.34,0,0,1,.9,2.3,3.63,3.63,0,0,1-1.1,2.6,3.34,3.34,0,0,1-2.3.9,3.63,3.63,0,0,1-2.6-1.1,3.34,3.34,0,0,1-.9-2.3,3.63,3.63,0,0,1,1.1-2.6A3.17,3.17,0,0,1,556.5,39.4Zm0,1.5a2,2,0,0,0-1.5.6,2.11,2.11,0,0,0-.5,1.3,2,2,0,0,0,.6,1.5,2.11,2.11,0,0,0,1.3.5,2,2,0,0,0,1.5-.6,2.11,2.11,0,0,0,.5-1.3,2,2,0,0,0-.6-1.5A1.54,1.54,0,0,0,556.5,40.9Z"/><path d="M573.1,28.1a26.38,26.38,0,0,1,3,1.8,24.45,24.45,0,0,0,3.9-2.8H568.1c-.2,0-.2-.1-.2-.3V25c0-.2.1-.3.2-.3h13.4c.3,0,.5,0,.6-.1a.77.77,0,0,1,.3-.1c.2,0,.6.3,1.1.8s.9.9.9,1.2-.1.3-.4.5l-.9.6a36,36,0,0,1-5,3.6l.9.8c.1.1.1.1.1.2l-.2.2-.4.3h5.4a1.27,1.27,0,0,0,.6-.1.6.6,0,0,1,.4-.1c.3,0,.6.2,1.2.7s.8.8.8,1a.91.91,0,0,1-.3.5,3.61,3.61,0,0,0-.9.9,21.49,21.49,0,0,1-3.3,3.4c-.3.2-.4.4-.6.4s-.3-.1-.6-.4a9.91,9.91,0,0,0-1.7-1.1,15.82,15.82,0,0,0,3.2-2.8h-5.2v7.7a2.65,2.65,0,0,1-.8,2.2,3.33,3.33,0,0,1-1.5.5,16.33,16.33,0,0,1-2.5.1c-.4,0-.6,0-.7-.1s-.1-.3-.2-.6A6.78,6.78,0,0,0,571,43c1.2.1,2.2.1,3,.1a1.55,1.55,0,0,0,.8-.2,1,1,0,0,0,.2-.7V35.1h-9.1V32.8H576a43.58,43.58,0,0,0-4.5-3c-.1-.1-.2-.1-.2-.2s.1-.1.2-.2l1.2-1.1c.1-.1.2-.2.3-.2Z"/><path d="M600.5,29.7a15.43,15.43,0,0,0,.7-2.9,4.48,4.48,0,0,0,.1-1.1v-.6a9.13,9.13,0,0,1,2.8,1c.3.1.4.3.4.4s-.1.2-.2.4a4.05,4.05,0,0,0-.5.9c-.3.7-.5,1.3-.7,1.9a8,8,0,0,1,4.9,2.5,6.86,6.86,0,0,1,1.6,4.5c0,4.1-2.5,6.8-7.4,8h-.4c-.2,0-.4-.2-.6-.5a4.89,4.89,0,0,0-1.6-1.6q7.2-1.5,7.2-6.3a4.08,4.08,0,0,0-1.3-3.2,5.15,5.15,0,0,0-3-1.3,41.23,41.23,0,0,1-3.5,7c.4.5.7.9,1,1.2a6.9,6.9,0,0,1-1.5,1.5.5.5,0,0,1-.6,0l-.7-.7c-1.4,1.5-2.8,2.3-4,2.3a2.85,2.85,0,0,1-2.4-1.2,4.55,4.55,0,0,1-.8-2.7,9.19,9.19,0,0,1,3.4-6.9c-.1-.3-.3-1.3-.8-3.2a17,17,0,0,0-.7-2.3,8.54,8.54,0,0,1,2.7.4.67.67,0,0,1,.5.7,6.15,6.15,0,0,0,.1,1.4,13.88,13.88,0,0,0,.3,1.7A13.17,13.17,0,0,1,600.5,29.7Zm-6.3,5.1a6.45,6.45,0,0,0-1.7,4.2,2,2,0,0,0,.3,1.1.72.72,0,0,0,.6.4c.7,0,1.5-.6,2.5-1.7A23.54,23.54,0,0,1,594.2,34.8Zm1.9-1.6a23.42,23.42,0,0,0,1.3,3.5,33,33,0,0,0,2.3-4.9A10.75,10.75,0,0,0,596.1,33.2Z"/><path d="M615.1,35.6c.6.3,1.2.6,1.9,1,.1.1.2.1.2.2s0,.1-.1.2a3.49,3.49,0,0,0-.6,1.8q0,1.2,1.5,1.8a14,14,0,0,0,4.2.5,28.15,28.15,0,0,0,6.5-.7h.2c.2,0,.3.1.3.2a15.72,15.72,0,0,1,.4,2.3h0c0,.2-.1.3-.4.3a37.28,37.28,0,0,1-7,.6c-5.5,0-8.3-1.6-8.3-4.9A5.53,5.53,0,0,1,615.1,35.6Zm.5-9a31.31,31.31,0,0,0,6.7.6c1.5,0,3.1-.1,5-.2h.1a.27.27,0,0,1,.3.3,15,15,0,0,1,.2,2c0,.3-.1.5-.4.5a16,16,0,0,0-5.9,2.4,1.42,1.42,0,0,1-.6.2.9.9,0,0,1-.5-.1,5.31,5.31,0,0,0-1.7-.8c1.3-.9,2.4-1.5,3.1-2-.4,0-.9.1-1.7.1a21.19,21.19,0,0,1-4.4-.4c-.2,0-.3-.2-.3-.4S615.5,27.7,615.6,26.6Zm12-1.2,1.3-.9.1-.1c.1,0,.1,0,.2.1a9.92,9.92,0,0,1,2.3,2.6c0,.1.1.1.1.2s0,.1-.1.2l-1,.8c-.1,0-.1.1-.2.1s-.1-.1-.2-.2A13.81,13.81,0,0,0,627.6,25.4Zm2.2-1.6L631,23c.1,0,.1-.1.2-.1s.1,0,.2.1a9.15,9.15,0,0,1,2.3,2.5c0,.1.1.1.1.2s0,.2-.1.2l-1,.8c-.1,0-.1.1-.2.1s-.1-.1-.2-.2A11.17,11.17,0,0,0,629.8,23.8Z"/><path d="M641.1,42.6c1.3.1,2.4.2,3.4.2.8,0,1.1-.4,1.1-1.2V34.3a26.31,26.31,0,0,0-.2-3.3l1.8.1a39.68,39.68,0,0,0,4.9-3.5H637.6c-.1,0-.2,0-.2-.1V25.1h16.1a2,2,0,0,0,.9-.1.37.37,0,0,1,.3-.1c.2,0,.6.3,1.1.9s.8.9.8,1.1a.86.86,0,0,1-.3.6,4.44,4.44,0,0,0-1.1.8,55.78,55.78,0,0,1-6.9,5.1v9.1a6.05,6.05,0,0,1-.2,1.5,2.1,2.1,0,0,1-.6.8,3.85,3.85,0,0,1-1.9.6,20.24,20.24,0,0,1-2.8.1h-.3a.76.76,0,0,1-.5-.2c-.1-.1-.1-.3-.2-.6A4,4,0,0,0,641.1,42.6Z"/><path d="M659.2,41.9a14.32,14.32,0,0,0,3.1-4.2,19.49,19.49,0,0,0,1.7-5h-4V30.5h4.3a1.08,1.08,0,0,0,.6-.1.76.76,0,0,1,.4-.1c.2,0,.4.2.9.6s.7.7.7.9a.52.52,0,0,1-.2.4,1.61,1.61,0,0,0-.4.7,21.87,21.87,0,0,1-4.8,10.4c-.2.3-.4.4-.5.4s-.3-.2-.5-.5A5.35,5.35,0,0,0,659.2,41.9ZM674,32c.2,0,.2.1.2.3v1.5c0,.2-.1.2-.2.2h-2.2v1.5h2.9v1.9h-2.9v1.4H676v2h-.2l-2.9-.1h-1.1v2a4.51,4.51,0,0,1-.1,1.3,2.18,2.18,0,0,1-.5.8,2.23,2.23,0,0,1-1.3.5,14.17,14.17,0,0,1-2.3.1c-.4,0-.6,0-.7-.1a1.54,1.54,0,0,1-.3-.7,4.47,4.47,0,0,0-.8-1.7,21.75,21.75,0,0,0,2.5.1c.7,0,1.1-.3,1.1-.8V40.6h-1l-2.9.1h-.3V39c0-.1,0-.2.1-.2h4.1V37.4h-2.9V35.5h2.9V34h-2.3V32.1h2.3v-.4a16.54,16.54,0,0,0-.2-2.7l1.4.2a16.78,16.78,0,0,0,3-2.1H663V24.8h12c.3,0,.6,0,.7-.1s.2-.1.3-.1.5.3,1,.8.8.9.8,1.2-.1.3-.4.4a4.89,4.89,0,0,0-1.1.7,41,41,0,0,1-4.6,3.1V32H674Zm8,9.7a10.61,10.61,0,0,0-1.5,1.5,1.2,1.2,0,0,1-.4.4c-.1,0-.3-.1-.5-.4a17.75,17.75,0,0,1-3.4-5.8,36.31,36.31,0,0,1-1.7-6.7v-.1c0-.1.1-.2.4-.3l1.5-.4h.2c.1,0,.1.1.1.2a15.94,15.94,0,0,0,.6,3,19.93,19.93,0,0,0,1.9-2.4,6.73,6.73,0,0,0,.7-1.1,11.22,11.22,0,0,1,1.6,1.3.91.91,0,0,1,.3.5.54.54,0,0,1-.3.4,2.58,2.58,0,0,0-.9.9,23.48,23.48,0,0,1-2.6,2.9A16.54,16.54,0,0,0,682,41.7Z"/><path d="M693.7,24.4a16.31,16.31,0,0,1,2.6,1.8.52.52,0,0,1,.2.4.55.55,0,0,1-.3.5,4.44,4.44,0,0,0-1.1.8c-2.6,2.4-4.8,4.4-6.6,6.2-.2.3-.3.4-.3.5a.54.54,0,0,0,.3.4,66.74,66.74,0,0,1,8.9,7.6c.1.1.2.2.2.3s-.1.2-.2.3a13.54,13.54,0,0,1-1.7,1.7.33.33,0,0,1-.6,0,66.31,66.31,0,0,0-8.7-8.1,2.46,2.46,0,0,1-1.3-2,1.5,1.5,0,0,1,.4-1.1,4.82,4.82,0,0,1,.8-1c.6-.7,1.7-1.8,3.2-3.4,1.2-1.2,2.1-2.3,2.9-3A9.22,9.22,0,0,0,693.7,24.4Z"/><path d="M709.9,28.9a32.14,32.14,0,0,0,3.4-.8h.1c.1,0,.2.1.2.3a11.14,11.14,0,0,1,.2,1.7v.1c0,.2-.1.3-.4.4a31.48,31.48,0,0,1-4.2.9c-1.6,5.2-3.1,9.5-4.4,13q-.15.3-.3.3h-.2a8.49,8.49,0,0,1-1.9-.9c-.1-.1-.2-.2-.2-.3v-.1a87.48,87.48,0,0,0,4.2-11.4,37.29,37.29,0,0,1-4.2.3c-.3,0-.5-.1-.5-.4a19.47,19.47,0,0,1-.3-2.2,7.67,7.67,0,0,0,1.8.1c1.3,0,2.6-.1,3.9-.2a26,26,0,0,0,.6-3,16.2,16.2,0,0,0,.1-2.2,9.29,9.29,0,0,1,3,.7c.2.1.3.2.3.4a.6.6,0,0,1-.1.4,4.54,4.54,0,0,0-.5.9,13,13,0,0,0-.3,1.3C710,28.4,710,28.7,709.9,28.9Zm.4,11a13.62,13.62,0,0,1,2-.4c.2,0,.3.1.4.3a2.32,2.32,0,0,0,1.2,1.9,5.4,5.4,0,0,0,2.5.4,39.44,39.44,0,0,0,4-.3h.1a.22.22,0,0,1,.2.2,18.32,18.32,0,0,1,.2,2.1v.1c0,.2-.1.2-.4.3a20.2,20.2,0,0,1-3.3.3,12.94,12.94,0,0,1-3.8-.4,4.33,4.33,0,0,1-2-1.1A5.68,5.68,0,0,1,710.3,39.9Zm1.9-4.5c-.1-1.1-.1-1.9-.1-2.2s0-.3.1-.4a.37.37,0,0,1,.3-.1,21.58,21.58,0,0,1,4.7-.6,26.35,26.35,0,0,1,2.8.2.35.35,0,0,1,.4.4v1.9c0,.3-.1.5-.3.5h-.2a15.26,15.26,0,0,0-3-.3A35.37,35.37,0,0,0,712.2,35.4Zm4.2-8.1,1.3-.9c.1,0,.1-.1.2-.1s.1,0,.2.1a9.92,9.92,0,0,1,2.3,2.6c0,.1.1.1.1.2s0,.1-.1.2l-1,.7c-.1.1-.1.1-.2.1a.22.22,0,0,1-.2-.2A16.88,16.88,0,0,0,716.4,27.3Zm2.2-1.6,1.2-.9c.1,0,.1-.1.2-.1s.1,0,.2.1a9.15,9.15,0,0,1,2.3,2.5c0,.1.1.1.1.2s0,.2-.1.2l-1,.7c-.1.1-.1.1-.2.1a.22.22,0,0,1-.2-.2A30.7,30.7,0,0,0,718.6,25.7Z"/><path d="M732.3,29.3c-.5-1.1-.9-2-1.1-2.5a7.82,7.82,0,0,0-1.2-1.9,14.79,14.79,0,0,1,2.8-.4c.5,0,.8.2.8.5v.6a5.64,5.64,0,0,0,.4,1.2c.4,1,.7,1.6.8,1.9a27.06,27.06,0,0,0,5-1.5.35.35,0,0,0,.2-.1.22.22,0,0,1,.2.2,5.93,5.93,0,0,1,.6,1.9v.1c0,.1-.1.2-.2.3a49.26,49.26,0,0,1-4.8,1.4,27.29,27.29,0,0,0,3.7,5.1,3.81,3.81,0,0,0,.6.5c.2.1.2.2.2.3a.6.6,0,0,1-.1.4,8.94,8.94,0,0,1-.9,1.6c-.2.2-.3.4-.5.4s-.2-.1-.4-.2a6.42,6.42,0,0,0-1-.6,11.25,11.25,0,0,0-5.1-1.2c-2.7,0-4,.8-4,2.3,0,1.7,2,2.5,6,2.5a24.33,24.33,0,0,0,3.8-.3,17.17,17.17,0,0,1-.5,2.6.46.46,0,0,1-.5.3,18.7,18.7,0,0,1-2.7.2c-3,0-5.3-.5-6.8-1.5a4,4,0,0,1-1.9-3.5,3.86,3.86,0,0,1,1.9-3.5,7.38,7.38,0,0,1,4.4-1.1,13.52,13.52,0,0,1,4.3.6,16.43,16.43,0,0,1-3.1-4.3,38.71,38.71,0,0,1-4.6.6c-1.1.1-1.9.1-2.4.1-.2,0-.3-.1-.4-.4a21.78,21.78,0,0,1-.6-2.2h3A20.28,20.28,0,0,0,732.3,29.3Z"/><path d="M745.5,27.3a9.15,9.15,0,0,1,3,.8c.3.1.4.3.4.4a4.08,4.08,0,0,1-.2.7,11,11,0,0,0-.2,2.4,31.6,31.6,0,0,0,.4,5.5c.4,2.4,1.1,3.5,2,3.5a1.71,1.71,0,0,0,1.2-.8,12.64,12.64,0,0,0,1.1-2.5,12.45,12.45,0,0,0,1.5,1.9c.2.1.2.3.2.5a.76.76,0,0,1-.1.4,6.38,6.38,0,0,1-1.9,2.9,3.16,3.16,0,0,1-2.2.8,3.63,3.63,0,0,1-2.9-1.8,10.38,10.38,0,0,1-1.6-4.4,40.49,40.49,0,0,1-.6-7A8.62,8.62,0,0,0,745.5,27.3Zm12.3,3.4a14.43,14.43,0,0,1,1.9-1.1.5.5,0,0,1,.6,0,14.21,14.21,0,0,1,3.1,4,14.49,14.49,0,0,1,1.6,4.2v.1a.54.54,0,0,1-.3.4,7,7,0,0,1-1.9,1h-.2a.27.27,0,0,1-.3-.3,15,15,0,0,0-1.8-4.8A17.3,17.3,0,0,0,757.8,30.7Z"/></g></g><g class="cls-5"><path d="M778.4,39.4a3.63,3.63,0,0,1,2.6,1.1,3.34,3.34,0,0,1,.9,2.3,3.63,3.63,0,0,1-1.1,2.6,3.34,3.34,0,0,1-2.3.9,3.63,3.63,0,0,1-2.6-1.1,3.34,3.34,0,0,1-.9-2.3,3.63,3.63,0,0,1,1.1-2.6A3.52,3.52,0,0,1,778.4,39.4Zm0,1.5a2,2,0,0,0-1.5.6,2.11,2.11,0,0,0-.5,1.3,2,2,0,0,0,.6,1.5,2.11,2.11,0,0,0,1.3.5,2,2,0,0,0,1.5-.6,2.11,2.11,0,0,0,.5-1.3,2,2,0,0,0-.6-1.5A1.43,1.43,0,0,0,778.4,40.9Z"/></g></svg>