<svg id="レイヤー_1" data-name="レイヤー 1" xmlns="http://www.w3.org/2000/svg" viewBox="0 0 1090 173"><defs><style>.cls-1{fill:#8c82af;}.cls-2{fill:#3db58f;}.cls-3{fill:#d13c49;}.cls-4{fill:#e9e39f;}.cls-5{fill:#c65681;}.cls-6{fill:#54b5c6;}.cls-7{fill:#e9ce2f;}.cls-8{fill:#fff;}.cls-9{font-size:20.42px;font-family:YuGothic-Bold, Yu Gothic;font-weight:700;}.cls-10{letter-spacing:-0.5em;}</style></defs><title>キャンペーンアウトライン</title><path class="cls-1" d="M840.61,101q16.6-1.31,34.41-1.78c37.35-1,79.07.85,109.53-4.32,26.49-4.5,34.91-12.94,34.37-20.61s-8-15.32-4.94-23,44.5-15.74,75.79-18V173H575c21.2-1.76,42.83-11.44,60.5-14.71,33.24-6.16,46.87-16.28,65.07-25.25C729.33,118.86,778.49,105.83,840.61,101Z"/><path class="cls-2" d="M1089.77,0V33.33c-31.29,2.22-72.7,10.32-75.79,18s4.4,15.3,4.94,23c-77,16.78-228.18,9.48-278.18.71a369.73,369.73,0,0,1-52.18-13.13c-21.85-7.13-40.57-15-46.7-23.7s-.46-25.86,76-38.14Z"/><path class="cls-3" d="M1018.92,74.26c.54,7.67-7.88,16.11-34.37,20.61C954.09,100,912.37,98.22,875,99.19q-17.78.47-34.41,1.78c-35.54-3-189.52-14.89-227.05-15.84s-77.41.37-108.42,5.42c-19,3.09-33.63,7.39-48,11.63-26.65-6.81-88.84-15.92-143.18-21,30.59-1.07,100.37-9.2,118.75-15,20.43-6.49,11.77-16.41-13.55-21.87s-62.72-7-96.68-5.69c-35.62,1.31-70.33,5.34-106.06,4.18-35.42-1.15-66.28-7.89-73.72-16.1S176.8,4.43,207.16,0H717.85c-76.45,12.28-82.11,29.48-76,38.14s24.85,16.57,46.7,23.7A369.73,369.73,0,0,0,740.74,75C790.74,83.74,941.92,91,1018.92,74.26Z"/><path class="cls-4" d="M613.56,85.13C651.09,86.08,805.07,98,840.61,101c-62.12,4.86-111.28,17.89-140.05,32.07-18.2,9-31.83,19.09-65.07,25.25-17.67,3.27-39.3,13-60.5,14.71H510.84c-9.56-10.37-70-30.87-112.11-34.7-2.75-10.14,31.46-28.17,58.41-36.12,14.37-4.24,29-8.54,48-11.63C536.15,85.5,576,84.18,613.56,85.13Z"/><path class="cls-5" d="M510.84,173H.16V115.33c3.34-2.6,35.93-6,47.51-5.87,27,.39,53,3.82,68.36,9.06,19.28,6.56,23.78,15.92,52.81,20.06,28.4,4,64.46.93,96.59-1.07,43.69-2.71,91.16-3,133.3.79S501.28,162.63,510.84,173Z"/><path class="cls-6" d="M419.16,44.32c25.32,5.46,34,15.38,13.55,21.87-18.38,5.84-88.16,14-118.75,15-23.53-2.17-45.58-3.59-62.64-3.72C218,77.25,184.8,78.83,151.42,79S24.34,64.14.16,58.73V0h207C176.8,4.43,135.27,18.5,142.7,26.71s38.3,14.95,73.72,16.1c35.73,1.16,70.44-2.87,106.06-4.18C356.44,37.37,393.85,38.86,419.16,44.32Z"/><path class="cls-7" d="M457.14,102.18c-26.95,7.95-61.16,26-58.41,36.12-42.14-3.83-89.61-3.5-133.3-.79-32.13,2-68.19,5.12-96.59,1.07-29-4.14-33.53-13.5-52.81-20.06-15.37-5.24-41.33-8.67-68.36-9.06C36.09,109.3,3.5,112.73.16,115.33V58.73C24.34,64.14,118.05,79.14,151.42,79s66.53-1.73,99.9-1.47c17.06.13,39.11,1.55,62.64,3.72C368.3,86.26,430.49,95.37,457.14,102.18Z"/><rect class="cls-8" x="81.84" y="51.05" width="937.04" height="77.71"/><text class="cls-9" transform="translate(189.83 97.67)">イベントは予告なく変更・終了する場合があります。予めご了承ください<tspan class="cls-10" x="673.86" y="0">。</tspan></text></svg>