<svg id="レイヤー_1" data-name="レイヤー 1" xmlns="http://www.w3.org/2000/svg" xmlns:xlink="http://www.w3.org/1999/xlink" viewBox="0 0 1923 246"><defs><style>.cls-1,.cls-18{fill:none;}.cls-2{clip-path:url(#clip-path);}.cls-3{fill:#ffd4f9;}.cls-4{fill:#edbfff;}.cls-5{fill:#fff;}.cls-11,.cls-6,.cls-8{fill:#78bee9;}.cls-6,.cls-7{stroke:#fff;}.cls-11,.cls-18,.cls-6,.cls-7{stroke-miterlimit:10;}.cls-7,.cls-9{fill:#f0e776;}.cls-10{fill:#8c82af;}.cls-11{stroke:#78bee9;stroke-width:3px;}.cls-12{clip-path:url(#clip-path-2);}.cls-13{fill:#f3d623;}.cls-14{fill:#092738;}.cls-15{fill:#b24982;}.cls-16{fill:#d95498;}.cls-17{fill:#333;}.cls-18{stroke:#595757;stroke-linecap:round;stroke-width:2.06px;}</style><clipPath id="clip-path"><rect class="cls-1" x="4" y="-11" width="1917" height="254"/></clipPath><clipPath id="clip-path-2"><circle class="cls-1" cx="454.11" cy="184.66" r="12.69"/></clipPath></defs><title>カミングスーン</title><g class="cls-2"><rect class="cls-3" x="-1" y="-18.33" width="96.8" height="294.17"/><rect class="cls-3" x="187.15" y="-17.08" width="96.8" height="294.17"/><rect class="cls-3" x="373.93" y="-17.08" width="96.8" height="294.17"/><rect class="cls-3" x="567.53" y="-14.17" width="96.8" height="294.17"/><rect class="cls-3" x="759.77" y="-17.92" width="96.8" height="294.17"/><rect class="cls-3" x="952" y="-18.33" width="96.8" height="294.17"/><rect class="cls-3" x="1145.6" y="-25" width="96.8" height="294.17"/><rect class="cls-3" x="1339.2" y="-14.17" width="96.8" height="294.17"/><rect class="cls-3" x="1532.8" y="-17.08" width="96.8" height="294.17"/><rect class="cls-3" x="1726.4" y="-14.17" width="96.8" height="294.17"/><rect class="cls-4" x="90.35" y="-17.92" width="96.8" height="294.17"/><rect class="cls-4" x="470.73" y="-14.17" width="96.8" height="294.17"/><rect class="cls-4" x="664.33" y="-17.08" width="96.8" height="294.17"/><rect class="cls-4" x="856.56" y="-17.08" width="96.8" height="294.17"/><rect class="cls-4" x="1048.8" y="-17.08" width="96.8" height="294.17"/><rect class="cls-4" x="1242.4" y="-18.33" width="96.8" height="294.17"/><rect class="cls-4" x="1436" y="-17.08" width="96.8" height="294.17"/><rect class="cls-4" x="1629.6" y="-14.17" width="96.8" height="294.17"/><rect class="cls-4" x="1823.2" y="-17.92" width="96.8" height="294.17"/><rect class="cls-4" x="283.95" y="-17.08" width="96.8" height="294.17"/><rect class="cls-5" x="590" y="57" width="879" height="140"/><path class="cls-6" d="M495.37,40.18c-9.65,5-14.36,19.69-10.06,24s14.28,1,22-6.65c4.85-4.85,8.11-18.19,9.08-23.36.57-3-3.21,1.35-1.26.21C520.26,31.38,508.63,33.26,495.37,40.18Z"/><path class="cls-7" d="M490.37,52.2c-4.82,2.52-7.18,9.85-5,12s7.14.52,11-3.33c2.42-2.42,4.06-9.09,4.54-11.67.28-1.52-1.6.67-.63.1C502.81,47.81,497,48.74,490.37,52.2Z"/><path class="cls-8" d="M514.21,34.53c.18.32,1.06.86,1.44.33s.77-1.22.59-1.53-1.11-.25-1.67.08A.78.78,0,0,0,514.21,34.53Z"/><path class="cls-9" d="M499,50c.16.27,1.24,1,1.44.5.25-.69.51-1.29.35-1.56s-1-.22-1.47.07A.7.7,0,0,0,499,50Z"/><path class="cls-6" d="M413.19,40.18c9.64,5,14.36,19.69,10.06,24s-14.29,1-22-6.65c-4.85-4.85-8.12-18.19-9.08-23.36-.57-3,3.2,1.35,1.25.21C388.3,31.38,399.93,33.26,413.19,40.18Z"/><path class="cls-7" d="M418.19,52.2c4.82,2.52,7.18,9.85,5,12s-7.14.52-11-3.33c-2.42-2.42-4.06-9.09-4.54-11.67-.28-1.52,1.6.67.63.1C405.75,47.81,411.56,48.74,418.19,52.2Z"/><path class="cls-8" d="M394.35,34.53c-.18.32-1.06.86-1.45.33s-.76-1.22-.58-1.53,1.1-.25,1.67.08A.78.78,0,0,1,394.35,34.53Z"/><path class="cls-9" d="M409.6,50c-.15.27-1.24,1-1.43.5-.25-.69-.51-1.29-.35-1.56s1-.22,1.46.07A.68.68,0,0,1,409.6,50Z"/><ellipse class="cls-6" cx="454.14" cy="164.97" rx="9.4" ry="10.99"/><path class="cls-6" d="M480.21,221.36l7.42-11.45a.57.57,0,0,0,.07-.36l-1.24-7.36a.51.51,0,0,0-.5-.42l-64,0a.5.5,0,0,0-.49.43l-1.23,7.38a.52.52,0,0,0,.08.36l7.47,11.45a.48.48,0,0,0,.42.23h3.76a.5.5,0,0,1,.49.39l1.59,7a.5.5,0,0,1-.49.61h0a.54.54,0,0,0-.46.29l-1.54,3.28a.5.5,0,0,0,.45.72h1.7A.5.5,0,0,0,434,233l-.93-.93a.5.5,0,0,1,0-.71l1.57-1.57a.5.5,0,0,1,.71,0l1.57,1.57a.5.5,0,0,1,0,.71L436,233a.51.51,0,0,0,.36.86h4.13a.5.5,0,0,0,.35-.86l-.92-.93a.5.5,0,0,1,0-.71l1.57-1.57a.5.5,0,0,1,.71,0l1.57,1.57a.51.51,0,0,1,0,.71l-.93.93a.5.5,0,0,0,.36.86h4.12a.5.5,0,0,0,.36-.86l-.93-.93a.51.51,0,0,1,0-.71l1.57-1.57a.5.5,0,0,1,.71,0l1.57,1.57a.5.5,0,0,1,0,.71l-.92.93a.5.5,0,0,0,.35.86h1.7a.5.5,0,0,0,.45-.72l-1.56-3.28a.49.49,0,0,0-.45-.29h0a.5.5,0,0,1-.5-.61l1.58-7a.49.49,0,0,1,.49-.39h4.47a.5.5,0,0,1,.49.39l1.73,7.57h-.17a.51.51,0,0,0-.45.29l-1.55,3.28a.5.5,0,0,0,.45.72h1.7a.5.5,0,0,0,.36-.86l-.93-.93a.5.5,0,0,1,0-.71l1.57-1.57a.5.5,0,0,1,.71,0l1.57,1.57a.5.5,0,0,1,0,.71l-.93.93a.51.51,0,0,0,.36.86h4.13a.51.51,0,0,0,.36-.86l-.93-.93a.5.5,0,0,1,0-.71l1.57-1.57a.5.5,0,0,1,.71,0l1.57,1.57a.51.51,0,0,1,0,.71l-.93.93a.5.5,0,0,0,.36.86h4.13a.5.5,0,0,0,.35-.86l-.93-.93a.51.51,0,0,1,0-.71l1.57-1.57a.5.5,0,0,1,.71,0l1.57,1.57a.5.5,0,0,1,0,.71l-.92.93a.5.5,0,0,0,.35.86h1.7a.5.5,0,0,0,.45-.72l-1.56-3.28a.49.49,0,0,0-.45-.29h-.5a.5.5,0,0,1-.5-.61l1.58-7a.49.49,0,0,1,.49-.39h3.81A.48.48,0,0,0,480.21,221.36Z"/><rect class="cls-10" x="428.79" y="157.75" width="49.6" height="50.63"/><path class="cls-11" d="M473.83,223.71c3.91.66,8-2.29,10.6-6.58a17.52,17.52,0,0,0,2.9-11,16.06,16.06,0,0,0-.76-3.57h0Z"/><path class="cls-10" d="M490.44,208.45l-13.51-.12-.15-45a68,68,0,0,1,11.72,24.22,61.52,61.52,0,0,1,1.76,18.13"/><path class="cls-11" d="M433.81,223.85C426,225,417.9,211.67,421.56,202.41h0Z"/><path class="cls-10" d="M417.26,208.39h12.6l.53-45a70,70,0,0,0-11.14,24.11,65.54,65.54,0,0,0-1.8,18.12"/><g class="cls-12"><path class="cls-5" d="M441.42,193.65V171.93a.6.6,0,0,1,.61-.59h22.15a.59.59,0,0,1,.43,1l-22.15,21.72A.61.61,0,0,1,441.42,193.65Z"/><path class="cls-5" d="M469.84,178.78v19.33c0,.44-.52.79-1.17.79H455.28c-.86,0-1.42-.6-1.06-1.12L465,175.68C465.56,174.91,469.84,177.94,469.84,178.78Z"/><path class="cls-5" d="M534.83,202.9v19.33c0,.44-.53.79-1.18.79H520.27c-.86,0-1.43-.6-1.07-1.12L530,199.79C530.55,199,534.83,202.05,534.83,202.9Z"/><ellipse class="cls-13" cx="451.82" cy="191.44" rx="3.99" ry="1.6"/><polygon class="cls-13" points="446.54 190.08 441.08 177.66 450.54 186.16 446.54 190.08"/><polygon class="cls-14" points="442.19 180.17 439.85 185.97 443.95 192.6 446.54 190.08 442.19 180.17"/></g><circle class="cls-15" cx="454.14" cy="130.61" r="10.73"/><rect class="cls-8" x="447.03" y="212.17" width="13.59" height="13.59"/><path class="cls-10" d="M465.93,178.14c3.22,0,3.22-5,0-5s-3.22,5,0,5Z"/><path class="cls-10" d="M435.88,187.22c3.22,0,3.22-5,0-5s-3.22,5,0,5Z"/><path class="cls-6" d="M464,204.91l-5.24-2.23a6.48,6.48,0,0,1-3.43-8.48l6.31-14.87c1.39-3.28,16.17-19.92,19.45-18.53l-.25,4.45a75.62,75.62,0,0,1,3.06,7.46,2.74,2.74,0,0,1-.05,2l-11.36,26.76A6.49,6.49,0,0,1,464,204.91Z"/><path class="cls-6" d="M443.6,204.91l5.25-2.23a6.48,6.48,0,0,0,3.43-8.48L446,179.33c-1.39-3.28-16.17-19.92-19.45-18.53l.24,4.45a78.17,78.17,0,0,0-3.06,7.46,2.79,2.79,0,0,0,.06,2l11.35,26.76A6.5,6.5,0,0,0,443.6,204.91Z"/><path class="cls-5" d="M423.16,173.46c3.21,0,3.22-5,0-5s-3.23,5,0,5Z"/><path class="cls-6" d="M499.52,116.83c-.71-.45-1.48-.88-2.29-1.29A80.72,80.72,0,0,0,500,96c0-26.38-20.57-40.42-45.93-40.42s-45.93,12.89-45.93,39.27a84.24,84.24,0,0,0,3.28,21.51,25.41,25.41,0,0,0-3.79,2.63c-5.69,4.78-6.29,13.61-6.29,19.82,0,16.56,23.6,30,52.71,30h0c29.1,0,52.68-13.43,52.68-30C506.79,131.12,507.81,122.13,499.52,116.83Z"/><circle class="cls-15" cx="454.14" cy="130.61" r="10.73"/><path class="cls-16" d="M453.88,97.07l-10.27,29.7a.36.36,0,0,0,.34.48h20.54a.36.36,0,0,0,.34-.48l-10.27-29.7A.36.36,0,0,0,453.88,97.07Z"/><circle class="cls-16" cx="454.14" cy="128.63" r="10.73"/><path class="cls-17" d="M432.07,116.59c0,5,8.67,5,8.71,0a1.25,1.25,0,0,0-2.5,0c0,1.81-3.7,1.8-3.71,0a1.25,1.25,0,0,0-2.5,0Z"/><path class="cls-17" d="M467.66,116.59c0,5,8.67,5,8.7,0a1.25,1.25,0,0,0-2.5,0c0,1.81-3.7,1.8-3.7,0a1.25,1.25,0,0,0-2.5,0Z"/><path class="cls-18" d="M461,144.33c-2.18,4-5.28,4.76-6.95,4.65-3.33-.22-5.42-4.58-5.42-4.58"/><path class="cls-16" d="M734,120l-11.11,2.54q-1.6-10.14-8.84-10.13-11.21,0-11.2,17.77T714.08,148q7.9,0,9.55-10.48l10.66,2.93q-1.95,8.26-7.86,12.35a21.56,21.56,0,0,1-12.62,3.56q-11.37,0-17.42-7.82-5.24-6.86-5.24-18.22,0-13,6.93-20.13,6-6.18,15.73-6.18,8.63,0,14,4.71A20.17,20.17,0,0,1,734,120Z"/><path class="cls-16" d="M764,104q10.93,0,17.11,7.87,5.46,7,5.46,18.17,0,12.93-7,20.13-6,6.18-15.64,6.18-11,0-17.15-7.87-5.41-6.93-5.42-18.17,0-12.89,7.06-20.13Q754.51,104,764,104Zm0,8.27q-10.93,0-10.93,17.86t10.84,17.95q10.94,0,10.93-17.95T764,112.29Z"/><path class="cls-16" d="M809.25,105.13v8.76Q815.66,104,825,104a12.4,12.4,0,0,1,8.58,3,12.69,12.69,0,0,1,3.73,6.76q6.45-9.78,15.82-9.78,6.61,0,10.31,4.45,3.33,3.94,3.33,10.57v36H855.29V122.24q0-8.4-6.94-8.4a9.42,9.42,0,0,0-6.17,2.67,17.59,17.59,0,0,0-4.27,5.82v32.75H826.63V122.24q0-8.4-6.18-8.4a9.94,9.94,0,0,0-6.31,2.62,18,18,0,0,0-4.53,5.87v32.75H798.32v-50Z"/><path class="cls-16" d="M893.1,84.47V96.2H880.7V84.47Zm-.49,20.66v50H881.15v-50Z"/><path class="cls-16" d="M918.38,105.13v8.76a23.84,23.84,0,0,1,7.82-7.51,17.13,17.13,0,0,1,8.58-2.36q6.79,0,10.71,4.45,3.56,4,3.55,10.57v36H937.31V122.24q0-8.4-6.93-8.4a10.92,10.92,0,0,0-6.58,2.58,21.27,21.27,0,0,0-5.06,5.91v32.75H907.27v-50Z"/><path class="cls-16" d="M1006.58,98.2l-.71,9.2a19.19,19.19,0,0,0-5.82.67,9.2,9.2,0,0,0-3.11,1.91,13.85,13.85,0,0,1,4.09,10q0,8.19-6.22,12.67-5.25,3.83-13.42,3.82a24.19,24.19,0,0,1-6.49-.84q-3.64,1.81-3.64,4.35a2.6,2.6,0,0,0,1.51,2.53,16.54,16.54,0,0,0,5.42,1.11l11.29.94q10,1,14.08,4.62,3.2,3,3.2,8.31,0,7.23-7.33,11.42-6.7,3.76-17.77,3.77-11.38,0-17.42-3.77-5.07-3.21-5.07-8.36,0-6.39,9.2-9.73-7-1.55-7-7.2T969,133.26a14.7,14.7,0,0,1-7.11-13.2,14.17,14.17,0,0,1,6.22-12.17Q973.4,104,981.48,104a22.09,22.09,0,0,1,10.62,2.4,15.19,15.19,0,0,1,6.22-6.57A17.83,17.83,0,0,1,1006.58,98.2Zm-31.32,54q-6.72,2.13-6.71,6.8,0,3.47,4.26,5.33a23.73,23.73,0,0,0,9.47,1.6q7.46,0,11.42-2.22c2.1-1.19,3.15-2.65,3.15-4.4a4.42,4.42,0,0,0-2-4.09c-1.37-.8-3.75-1.38-7.16-1.73Zm6.17-41.41a8.91,8.91,0,0,0-6.8,2.75,9.08,9.08,0,0,0-2.26,6.36q0,5,2.89,7.64a8.84,8.84,0,0,0,6.17,2.18,8.71,8.71,0,0,0,6.85-2.8,10.24,10.24,0,0,0,2.26-6.94,8.86,8.86,0,0,0-3-7.1A9,9,0,0,0,981.43,110.78Z"/><path class="cls-16" d="M1078.39,116.78l-10.84,3.11q-1.87-8.06-8.89-8a9.25,9.25,0,0,0-6,1.78,4.4,4.4,0,0,0-1.82,3.6,5.59,5.59,0,0,0,2,4.71q1.86,1.42,6.89,2.75l4.17,1.12q9.06,2.4,12.49,6.17,3,3.33,3,9a13.34,13.34,0,0,1-5.73,11.55q-5.29,3.83-14.49,3.83-16.31,0-20.84-12.49l10.67-3.73q2.4,8.4,10.44,8.4,9.11,0,9.11-6.45a5.24,5.24,0,0,0-2.14-4.66,31.94,31.94,0,0,0-7.51-2.85l-4.17-1.15q-8.67-2.31-11.87-6c-1.86-2.2-2.8-5.25-2.8-9.16a12.4,12.4,0,0,1,5.47-10.62q5-3.6,13.29-3.6Q1074.08,104,1078.39,116.78Z"/><path class="cls-16" d="M1110.51,104q10.93,0,17.11,7.87,5.46,7,5.46,18.17,0,12.93-7,20.13-6,6.18-15.64,6.18-11,0-17.15-7.87-5.41-6.93-5.42-18.17,0-12.89,7.07-20.13Q1101,104,1110.51,104Zm0,8.27q-10.92,0-10.93,17.86t10.84,17.95q10.93,0,10.93-17.95T1110.51,112.29Z"/><path class="cls-16" d="M1164.46,104q10.92,0,17.1,7.87,5.48,7,5.47,18.17,0,12.93-7,20.13-6,6.18-15.64,6.18-11,0-17.16-7.87-5.42-6.93-5.42-18.17,0-12.89,7.07-20.13Q1155,104,1164.46,104Zm0,8.27q-10.93,0-10.94,17.86t10.85,17.95q10.92,0,10.93-17.95T1164.46,112.29Z"/><path class="cls-16" d="M1209.87,105.13v8.76a23.84,23.84,0,0,1,7.82-7.51,17.07,17.07,0,0,1,8.57-2.36q6.79,0,10.71,4.45,3.55,4,3.56,10.57v36h-11.74V122.24q0-8.4-6.93-8.4a10.89,10.89,0,0,0-6.57,2.58,21.13,21.13,0,0,0-5.07,5.91v32.75h-11.46v-50Z"/><path class="cls-16" d="M1266.83,142.5v12.58h-13V142.5Z"/><path class="cls-16" d="M1292.2,142.5v12.58h-13V142.5Z"/><path class="cls-16" d="M1317.57,142.5v12.58h-13V142.5Z"/><path class="cls-16" d="M1342.94,142.5v12.58h-13V142.5Z"/><path class="cls-16" d="M1368.31,142.5v12.58h-13V142.5Z"/><path class="cls-16" d="M1393.69,142.5v12.58h-13V142.5Z"/></g></svg>