<?xml version="1.0" encoding="utf-8"?>
<!-- Generator: Adobe Illustrator 23.0.3, SVG Export Plug-In . SVG Version: 6.00 Build 0)  -->
<svg version="1.1" id="レイヤー_1" xmlns="http://www.w3.org/2000/svg" xmlns:xlink="http://www.w3.org/1999/xlink" x="0px"
	 y="0px" viewBox="0 0 1921 1896.83" style="enable-background:new 0 0 1921 1896.83;" xml:space="preserve">
<style type="text/css">
	.st0{clip-path:url(#SVGID_2_);}
	.st1{fill:#FFD4F9;}
	.st2{fill:#EDBFFF;}
	.st3{fill:#FFFFFF;}
	.st4{fill:#FFFFFF;stroke:#006837;stroke-width:9;stroke-miterlimit:10;}
	.st5{fill:#006837;}
	.st6{fill:#F0E776;}
	.st7{opacity:0.71;}
	.st8{opacity:0.59;fill:url(#);stroke:#78BEE9;stroke-width:4.1505;stroke-miterlimit:10;}
	.st9{opacity:0.57;fill:url(#);stroke:#78BEE9;stroke-width:6.4094;stroke-miterlimit:10;}
	.st10{fill:#FFFFFF;stroke:#D95498;stroke-width:29;stroke-miterlimit:10;}
	.st11{fill:#FFFFFF;stroke:#4D4D4D;stroke-width:6.272;stroke-miterlimit:10;}
	.st12{opacity:0.78;fill:#8C82AF;}
	.st13{fill:url(#);}
	.st14{opacity:0.56;fill:#006837;}
	.st15{opacity:0.73;fill:#F0E776;}
	.st16{opacity:0.83;fill:url(#);}
	.st17{opacity:0.61;fill:url(#);}
	.st18{fill:#FBB03B;}
	.st19{opacity:0.64;fill:#8C82AF;}
	.st20{fill:#FEBFFF;}
	.st21{opacity:0.85;fill:url(#);}
	.st22{fill:#D95498;}
	.st23{fill:#176283;}
	.st24{fill:#78BEE9;stroke:#FFFFFF;stroke-width:0.1719;stroke-miterlimit:10;}
	.st25{fill:#78BEE9;}
	.st26{fill:#FFFFFF;stroke:#78BEE9;stroke-width:3;stroke-miterlimit:10;}
	.st27{fill:#FFFFFF;stroke:#78BEE9;stroke-width:5;stroke-miterlimit:10;}
	.st28{fill:#8C82AF;}
	.st29{fill:#FFFFFF;stroke:#000000;stroke-width:0.8707;stroke-miterlimit:10;}
	.st30{fill:#78BEE9;stroke:#FFFFFF;stroke-width:0.8707;stroke-miterlimit:10;}
	.st31{fill:#8C82AF;stroke:#FFFFFF;stroke-width:0.8707;stroke-miterlimit:10;}
	.st32{fill:#78BEE9;stroke:#78BEE9;stroke-width:2.6121;stroke-miterlimit:10;}
	.st33{clip-path:url(#SVGID_4_);fill:#FFFFFF;}
	.st34{clip-path:url(#SVGID_4_);fill:#F3D623;}
	.st35{clip-path:url(#SVGID_4_);fill:none;}
	.st36{clip-path:url(#SVGID_4_);fill:#092738;}
	.st37{fill:#F0E776;stroke:#FFFFFF;stroke-width:0.8707;stroke-miterlimit:10;}
	.st38{fill:#3E3A39;}
	.st39{fill:#B24982;}
	.st40{fill:none;stroke:#595757;stroke-width:1.7958;stroke-linecap:round;stroke-miterlimit:10;}
	.st41{fill:#8C82AF;stroke:#FFFFFF;stroke-width:1.0062;stroke-miterlimit:10;}
	.st42{fill:#78BEE9;stroke:#FFFFFF;stroke-width:1.5126;stroke-miterlimit:10;}
	.st43{fill:#F0E776;stroke:#FFFFFF;stroke-width:1.5126;stroke-miterlimit:10;}
	.st44{fill:#78BEE9;stroke:#78BEE9;stroke-width:4.5379;stroke-miterlimit:10;}
	.st45{clip-path:url(#SVGID_6_);fill:#FFFFFF;}
	.st46{clip-path:url(#SVGID_6_);fill:#F3D623;}
	.st47{clip-path:url(#SVGID_6_);fill:none;}
	.st48{clip-path:url(#SVGID_6_);fill:#092738;}
	.st49{fill:none;stroke:#595757;stroke-width:3.1198;stroke-linecap:round;stroke-miterlimit:10;}
	.st50{fill:#8C82AF;stroke:#FFFFFF;stroke-width:1.7481;stroke-miterlimit:10;}
	.st51{fill:#595757;}
	.st52{fill:#78BEE9;stroke:#FFFFFF;stroke-miterlimit:10;}
	.st53{fill:#F0E776;stroke:#FFFFFF;stroke-miterlimit:10;}
	.st54{clip-path:url(#SVGID_8_);fill:#FFFFFF;}
	.st55{clip-path:url(#SVGID_8_);fill:#F3D623;}
	.st56{clip-path:url(#SVGID_8_);fill:none;}
	.st57{clip-path:url(#SVGID_8_);fill:#092738;}
	.st58{fill:none;stroke:#595757;stroke-width:2.0625;stroke-linecap:round;stroke-miterlimit:10;}
	.st59{fill:#C65782;}
	.st60{fill:#072737;}
	.st61{fill:#8C83B0;}
	.st62{fill:#FFFFFF;stroke:#000000;stroke-width:3;}
	.st63{fill:#FFFFFF;stroke:#595757;stroke-width:0.506;stroke-miterlimit:10;}
	.st64{fill:none;}
	.st65{fill:none;stroke:#595757;stroke-width:0.1929;stroke-miterlimit:10;}
	.st66{clip-path:url(#SVGID_10_);}
	.st67{fill:none;stroke:#EACF30;stroke-width:0.2239;stroke-miterlimit:10;}
	.st68{fill:none;stroke:#C65681;stroke-width:0.2239;stroke-miterlimit:10;}
	.st69{clip-path:url(#SVGID_10_);fill:#C65782;}
	.st70{clip-path:url(#SVGID_10_);fill:#3CB590;}
	.st71{clip-path:url(#SVGID_10_);fill:#EACF30;}
	.st72{clip-path:url(#SVGID_10_);fill:#D13C49;}
	.st73{clip-path:url(#SVGID_10_);fill:#54B5C6;}
	.st74{clip-path:url(#SVGID_10_);fill:#8C82AF;}
	.st75{fill:none;stroke:#54B5C6;stroke-width:0.2239;stroke-miterlimit:10;}
	.st76{fill:none;stroke:#3CB590;stroke-width:0.2239;stroke-miterlimit:10;}
	.st77{fill:#3CB590;}
	.st78{fill:#E9E4A0;}
	.st79{fill:#54B6C7;}
	.st80{fill:#D13C49;}
	.st81{fill:#EACF30;}
	.st82{fill:#C65681;}
	.st83{fill:#54B5C6;}
	.st84{fill:#3DB58F;}
	.st85{clip-path:url(#SVGID_12_);}
	.st86{clip-path:url(#SVGID_14_);}
	.st87{fill:#FFFFFF;stroke:#EACF30;stroke-width:1.1197;stroke-miterlimit:10;}
	.st88{clip-path:url(#SVGID_16_);fill:#8C82AF;}
	.st89{clip-path:url(#SVGID_16_);fill:#F3D623;}
	.st90{clip-path:url(#SVGID_16_);fill:none;}
	.st91{clip-path:url(#SVGID_16_);fill:#092738;}
	.st92{fill:none;stroke:#8C82AF;stroke-width:0.2239;stroke-miterlimit:10;}
	.st93{fill:#FFFFFF;stroke:#EACF30;stroke-width:1.2485;stroke-miterlimit:10;}
	.st94{fill:none;stroke:#EACF30;stroke-width:0.2772;stroke-miterlimit:10;}
	.st95{fill:#78BEE9;stroke:#FFFFFF;stroke-width:0.0392;stroke-miterlimit:10;}
	.st96{fill:#F0E776;stroke:#FFFFFF;stroke-width:0.0392;stroke-miterlimit:10;}
	.st97{fill:#78BEE9;stroke:#78BEE9;stroke-width:0.1176;stroke-miterlimit:10;}
	.st98{clip-path:url(#SVGID_18_);fill:#FFFFFF;}
	.st99{clip-path:url(#SVGID_18_);fill:#F3D623;}
	.st100{clip-path:url(#SVGID_18_);fill:none;}
	.st101{clip-path:url(#SVGID_18_);fill:#092738;}
	.st102{fill:none;stroke:#595757;stroke-width:0.0808;stroke-linecap:round;stroke-miterlimit:10;}
	.st103{fill:#8C82AF;stroke:#FFFFFF;stroke-width:0.0453;stroke-miterlimit:10;}
	.st104{fill:#78BEE9;stroke:#FFFFFF;stroke-width:1.0672;stroke-miterlimit:10;}
	.st105{fill:#78BEE9;stroke:#FFFFFF;stroke-width:0.8431;stroke-miterlimit:10;}
	.st106{fill:#F0E776;stroke:#FFFFFF;stroke-width:0.8431;stroke-miterlimit:10;}
	.st107{fill:#78BEE9;stroke:#FFFFFF;stroke-width:1.1197;stroke-miterlimit:10;}
	.st108{fill:#78BEE9;stroke:#78BEE9;stroke-width:3.3591;stroke-miterlimit:10;}
	.st109{clip-path:url(#SVGID_22_);fill:#FFFFFF;}
	.st110{clip-path:url(#SVGID_22_);fill:#F3D623;}
	.st111{clip-path:url(#SVGID_22_);fill:none;}
	.st112{clip-path:url(#SVGID_22_);fill:#092738;}
	.st113{fill:none;stroke:#595757;stroke-width:2.2011;stroke-linecap:round;stroke-miterlimit:10;}
	.st114{fill:#78BEE9;stroke:#78BEE9;stroke-width:3.2016;stroke-miterlimit:10;}
	.st115{fill:#F0E776;stroke:#FFFFFF;stroke-width:1.0672;stroke-miterlimit:10;}
	.st116{fill:#8C82AF;stroke:#FFFFFF;stroke-width:1.5043;stroke-miterlimit:10;}
	.st117{fill:#FFFFFF;stroke:#595757;stroke-width:0.5642;stroke-miterlimit:10;}
	.st118{clip-path:url(#SVGID_24_);}
	.st119{clip-path:url(#SVGID_24_);fill:#C65782;}
	.st120{clip-path:url(#SVGID_24_);fill:#3CB590;}
	.st121{clip-path:url(#SVGID_24_);fill:#EACF30;}
	.st122{clip-path:url(#SVGID_24_);fill:#D13C49;}
	.st123{clip-path:url(#SVGID_24_);fill:#54B5C6;}
	.st124{clip-path:url(#SVGID_24_);fill:#8C82AF;}
	.st125{clip-path:url(#SVGID_26_);}
	.st126{clip-path:url(#SVGID_28_);}
	.st127{clip-path:url(#SVGID_30_);fill:#8C82AF;}
	.st128{clip-path:url(#SVGID_30_);fill:#F3D623;}
	.st129{clip-path:url(#SVGID_30_);fill:none;}
	.st130{clip-path:url(#SVGID_30_);fill:#092738;}
	.st131{clip-path:url(#SVGID_32_);fill:#FFFFFF;}
	.st132{clip-path:url(#SVGID_32_);fill:#F3D623;}
	.st133{clip-path:url(#SVGID_32_);fill:none;}
	.st134{clip-path:url(#SVGID_32_);fill:#092738;}
	.st135{fill:#78BEE9;stroke:#FFFFFF;stroke-width:1.3012;stroke-miterlimit:10;}
	.st136{fill:#78BEE9;stroke:#FFFFFF;stroke-width:1.0279;stroke-miterlimit:10;}
	.st137{fill:#F0E776;stroke:#FFFFFF;stroke-width:1.0279;stroke-miterlimit:10;}
	.st138{fill:#78BEE9;stroke:#FFFFFF;stroke-width:1.3652;stroke-miterlimit:10;}
	.st139{fill:#78BEE9;stroke:#78BEE9;stroke-width:4.0955;stroke-miterlimit:10;}
	.st140{clip-path:url(#SVGID_36_);fill:#FFFFFF;}
	.st141{clip-path:url(#SVGID_36_);fill:#F3D623;}
	.st142{clip-path:url(#SVGID_36_);fill:none;}
	.st143{clip-path:url(#SVGID_36_);fill:#092738;}
	.st144{fill:none;stroke:#595757;stroke-width:2.6836;stroke-linecap:round;stroke-miterlimit:10;}
	.st145{fill:#78BEE9;stroke:#78BEE9;stroke-width:3.9035;stroke-miterlimit:10;}
	.st146{fill:#F0E776;stroke:#FFFFFF;stroke-width:1.3012;stroke-miterlimit:10;}
	.st147{fill:#8C82AF;stroke:#FFFFFF;stroke-width:1.834;stroke-miterlimit:10;}
	.st148{fill:#FFFFFF;stroke:#595757;stroke-width:0.6584;stroke-miterlimit:10;}
	.st149{fill:none;stroke:#595757;stroke-width:0.2511;stroke-miterlimit:10;}
	.st150{clip-path:url(#SVGID_38_);}
	.st151{fill:none;stroke:#EACF30;stroke-width:0.2914;stroke-miterlimit:10;}
	.st152{fill:none;stroke:#C65681;stroke-width:0.2914;stroke-miterlimit:10;}
	.st153{clip-path:url(#SVGID_38_);fill:#C65782;}
	.st154{clip-path:url(#SVGID_38_);fill:#3CB590;}
	.st155{clip-path:url(#SVGID_38_);fill:#EACF30;}
	.st156{clip-path:url(#SVGID_38_);fill:#D13C49;}
	.st157{clip-path:url(#SVGID_38_);fill:#54B5C6;}
	.st158{clip-path:url(#SVGID_38_);fill:#8C82AF;}
	.st159{fill:none;stroke:#54B5C6;stroke-width:0.2914;stroke-miterlimit:10;}
	.st160{fill:none;stroke:#3CB590;stroke-width:0.2914;stroke-miterlimit:10;}
	.st161{clip-path:url(#SVGID_40_);}
	.st162{clip-path:url(#SVGID_42_);}
	.st163{fill:#FFFFFF;stroke:#EACF30;stroke-width:1.4569;stroke-miterlimit:10;}
	.st164{clip-path:url(#SVGID_44_);fill:#8C82AF;}
	.st165{clip-path:url(#SVGID_44_);fill:#F3D623;}
	.st166{clip-path:url(#SVGID_44_);fill:none;}
	.st167{clip-path:url(#SVGID_44_);fill:#092738;}
	.st168{fill:none;stroke:#8C82AF;stroke-width:0.2914;stroke-miterlimit:10;}
	.st169{fill:#FFFFFF;stroke:#EACF30;stroke-width:1.6245;stroke-miterlimit:10;}
	.st170{fill:none;stroke:#EACF30;stroke-width:0.3606;stroke-miterlimit:10;}
	.st171{fill:#78BEE9;stroke:#FFFFFF;stroke-width:0.051;stroke-miterlimit:10;}
	.st172{fill:#F0E776;stroke:#FFFFFF;stroke-width:0.051;stroke-miterlimit:10;}
	.st173{fill:#78BEE9;stroke:#78BEE9;stroke-width:0.153;stroke-miterlimit:10;}
	.st174{clip-path:url(#SVGID_46_);fill:#FFFFFF;}
	.st175{clip-path:url(#SVGID_46_);fill:#F3D623;}
	.st176{clip-path:url(#SVGID_46_);fill:none;}
	.st177{clip-path:url(#SVGID_46_);fill:#092738;}
	.st178{fill:none;stroke:#595757;stroke-width:0.1052;stroke-linecap:round;stroke-miterlimit:10;}
	.st179{fill:#8C82AF;stroke:#FFFFFF;stroke-width:0.0589;stroke-miterlimit:10;}
	.st180{fill:#78BEE9;stroke:#FFFFFF;stroke-width:1.3886;stroke-miterlimit:10;}
	.st181{fill:#78BEE9;stroke:#FFFFFF;stroke-width:1.0969;stroke-miterlimit:10;}
	.st182{fill:#F0E776;stroke:#FFFFFF;stroke-width:1.0969;stroke-miterlimit:10;}
	.st183{fill:#78BEE9;stroke:#FFFFFF;stroke-width:1.4569;stroke-miterlimit:10;}
	.st184{fill:#78BEE9;stroke:#78BEE9;stroke-width:4.3707;stroke-miterlimit:10;}
	.st185{clip-path:url(#SVGID_50_);fill:#FFFFFF;}
	.st186{clip-path:url(#SVGID_50_);fill:#F3D623;}
	.st187{clip-path:url(#SVGID_50_);fill:none;}
	.st188{clip-path:url(#SVGID_50_);fill:#092738;}
	.st189{fill:none;stroke:#595757;stroke-width:2.8639;stroke-linecap:round;stroke-miterlimit:10;}
	.st190{fill:#78BEE9;stroke:#78BEE9;stroke-width:4.1658;stroke-miterlimit:10;}
	.st191{fill:#F0E776;stroke:#FFFFFF;stroke-width:1.3886;stroke-miterlimit:10;}
	.st192{fill:#8C82AF;stroke:#FFFFFF;stroke-width:1.9573;stroke-miterlimit:10;}
	.st193{fill:#FFFFFF;stroke:#595757;stroke-width:0.7341;stroke-miterlimit:10;}
	.st194{fill:#A38A77;}
	.st195{fill:#78BEE9;stroke:#FFFFFF;stroke-width:2.5146;stroke-miterlimit:10;}
	.st196{fill:#8C82AF;stroke:#FFFFFF;stroke-width:2.5146;stroke-miterlimit:10;}
	.st197{fill:#78BEE9;stroke:#78BEE9;stroke-width:7.5437;stroke-miterlimit:10;}
	.st198{clip-path:url(#SVGID_52_);fill:#FFFFFF;}
	.st199{clip-path:url(#SVGID_52_);fill:#F3D623;}
	.st200{clip-path:url(#SVGID_52_);fill:none;}
	.st201{clip-path:url(#SVGID_52_);fill:#092738;}
	.st202{fill:#8C82AF;stroke:#FFFFFF;stroke-width:2.906;stroke-miterlimit:10;}
	.st203{fill:#A03344;}
	.st204{fill:#E3007F;stroke:#FFFFFF;stroke-width:1.4324;stroke-miterlimit:10;}
	.st205{fill:none;stroke:#595757;stroke-width:0.3431;stroke-miterlimit:10;}
	.st206{fill:#FFFFFF;stroke:#595757;stroke-width:0.7753;stroke-miterlimit:10;}
	.st207{fill:none;stroke:#595757;stroke-width:0.2651;stroke-miterlimit:10;}
	.st208{clip-path:url(#SVGID_54_);}
	.st209{fill:none;stroke:#EACF30;stroke-width:0.3431;stroke-miterlimit:10;}
	.st210{fill:none;stroke:#C65681;stroke-width:0.3431;stroke-miterlimit:10;}
	.st211{clip-path:url(#SVGID_54_);fill:#C65782;}
	.st212{clip-path:url(#SVGID_54_);fill:#3CB590;}
	.st213{clip-path:url(#SVGID_54_);fill:#EACF30;}
	.st214{clip-path:url(#SVGID_54_);fill:#D13C49;}
	.st215{clip-path:url(#SVGID_54_);fill:#54B5C6;}
	.st216{clip-path:url(#SVGID_54_);fill:#8C82AF;}
	.st217{fill:none;stroke:#54B5C6;stroke-width:0.3431;stroke-miterlimit:10;}
	.st218{fill:none;stroke:#3CB590;stroke-width:0.3431;stroke-miterlimit:10;}
	.st219{clip-path:url(#SVGID_56_);}
	.st220{clip-path:url(#SVGID_58_);}
	.st221{fill:#FFFFFF;stroke:#EACF30;stroke-width:1.7155;stroke-miterlimit:10;}
	.st222{clip-path:url(#SVGID_60_);fill:#8C82AF;}
	.st223{clip-path:url(#SVGID_60_);fill:#F3D623;}
	.st224{clip-path:url(#SVGID_60_);fill:none;}
	.st225{clip-path:url(#SVGID_60_);fill:#092738;}
	.st226{fill:none;stroke:#8C82AF;stroke-width:0.3431;stroke-miterlimit:10;}
	.st227{fill:none;stroke:#EACF30;stroke-width:0.3808;stroke-miterlimit:10;}
	.st228{fill:#78BEE9;stroke:#FFFFFF;stroke-width:0.0539;stroke-miterlimit:10;}
	.st229{fill:#F0E776;stroke:#FFFFFF;stroke-width:0.0539;stroke-miterlimit:10;}
	.st230{fill:#78BEE9;stroke:#78BEE9;stroke-width:0.1616;stroke-miterlimit:10;}
	.st231{clip-path:url(#SVGID_62_);fill:#FFFFFF;}
	.st232{clip-path:url(#SVGID_62_);fill:#F3D623;}
	.st233{clip-path:url(#SVGID_62_);fill:none;}
	.st234{clip-path:url(#SVGID_62_);fill:#092738;}
	.st235{fill:none;stroke:#595757;stroke-width:0.1111;stroke-linecap:round;stroke-miterlimit:10;}
	.st236{fill:#8C82AF;stroke:#FFFFFF;stroke-width:0.0622;stroke-miterlimit:10;}
	.st237{fill:none;stroke:#595757;stroke-width:0.2608;stroke-miterlimit:10;}
	.st238{fill:#FFFFFF;stroke:#595757;stroke-width:0.5892;stroke-miterlimit:10;}
	.st239{fill:none;stroke:#595757;stroke-width:0.2015;stroke-miterlimit:10;}
	.st240{clip-path:url(#SVGID_66_);}
	.st241{fill:none;stroke:#EACF30;stroke-width:0.2608;stroke-miterlimit:10;}
	.st242{fill:none;stroke:#C65681;stroke-width:0.2608;stroke-miterlimit:10;}
	.st243{clip-path:url(#SVGID_66_);fill:#C65782;}
	.st244{clip-path:url(#SVGID_66_);fill:#3CB590;}
	.st245{clip-path:url(#SVGID_66_);fill:#EACF30;}
	.st246{clip-path:url(#SVGID_66_);fill:#D13C49;}
	.st247{clip-path:url(#SVGID_66_);fill:#54B5C6;}
	.st248{clip-path:url(#SVGID_66_);fill:#8C82AF;}
	.st249{fill:none;stroke:#54B5C6;stroke-width:0.2608;stroke-miterlimit:10;}
	.st250{fill:none;stroke:#3CB590;stroke-width:0.2608;stroke-miterlimit:10;}
	.st251{clip-path:url(#SVGID_68_);}
	.st252{clip-path:url(#SVGID_70_);}
	.st253{fill:#FFFFFF;stroke:#EACF30;stroke-width:1.3038;stroke-miterlimit:10;}
	.st254{clip-path:url(#SVGID_72_);fill:#8C82AF;}
	.st255{clip-path:url(#SVGID_72_);fill:#F3D623;}
	.st256{clip-path:url(#SVGID_72_);fill:none;}
	.st257{clip-path:url(#SVGID_72_);fill:#092738;}
	.st258{fill:none;stroke:#8C82AF;stroke-width:0.2608;stroke-miterlimit:10;}
	.st259{fill:none;stroke:#EACF30;stroke-width:0.2894;stroke-miterlimit:10;}
	.st260{fill:#78BEE9;stroke:#FFFFFF;stroke-width:0.0409;stroke-miterlimit:10;}
	.st261{fill:#F0E776;stroke:#FFFFFF;stroke-width:0.0409;stroke-miterlimit:10;}
	.st262{fill:#78BEE9;stroke:#78BEE9;stroke-width:0.1228;stroke-miterlimit:10;}
	.st263{clip-path:url(#SVGID_74_);fill:#FFFFFF;}
	.st264{clip-path:url(#SVGID_74_);fill:#F3D623;}
	.st265{clip-path:url(#SVGID_74_);fill:none;}
	.st266{clip-path:url(#SVGID_74_);fill:#092738;}
	.st267{fill:none;stroke:#595757;stroke-width:0.0844;stroke-linecap:round;stroke-miterlimit:10;}
	.st268{fill:#8C82AF;stroke:#FFFFFF;stroke-width:0.0473;stroke-miterlimit:10;}
	.st269{clip-path:url(#SVGID_78_);}
	.st270{clip-path:url(#SVGID_78_);fill:#C65782;}
	.st271{clip-path:url(#SVGID_78_);fill:#3CB590;}
	.st272{clip-path:url(#SVGID_78_);fill:#EACF30;}
	.st273{clip-path:url(#SVGID_78_);fill:#D13C49;}
	.st274{clip-path:url(#SVGID_78_);fill:#54B5C6;}
	.st275{clip-path:url(#SVGID_78_);fill:#8C82AF;}
	.st276{clip-path:url(#SVGID_80_);}
	.st277{clip-path:url(#SVGID_82_);}
	.st278{clip-path:url(#SVGID_84_);fill:#8C82AF;}
	.st279{clip-path:url(#SVGID_84_);fill:#F3D623;}
	.st280{clip-path:url(#SVGID_84_);fill:none;}
	.st281{clip-path:url(#SVGID_84_);fill:#092738;}
	.st282{clip-path:url(#SVGID_86_);fill:#FFFFFF;}
	.st283{clip-path:url(#SVGID_86_);fill:#F3D623;}
	.st284{clip-path:url(#SVGID_86_);fill:none;}
	.st285{clip-path:url(#SVGID_86_);fill:#092738;}
	.st286{clip-path:url(#SVGID_90_);}
	.st287{clip-path:url(#SVGID_90_);fill:#C65782;}
	.st288{clip-path:url(#SVGID_90_);fill:#3CB590;}
	.st289{clip-path:url(#SVGID_90_);fill:#EACF30;}
	.st290{clip-path:url(#SVGID_90_);fill:#D13C49;}
	.st291{clip-path:url(#SVGID_90_);fill:#54B5C6;}
	.st292{clip-path:url(#SVGID_90_);fill:#8C82AF;}
	.st293{clip-path:url(#SVGID_92_);}
	.st294{clip-path:url(#SVGID_94_);}
	.st295{clip-path:url(#SVGID_96_);fill:#8C82AF;}
	.st296{clip-path:url(#SVGID_96_);fill:#F3D623;}
	.st297{clip-path:url(#SVGID_96_);fill:none;}
	.st298{clip-path:url(#SVGID_96_);fill:#092738;}
	.st299{clip-path:url(#SVGID_98_);fill:#FFFFFF;}
	.st300{clip-path:url(#SVGID_98_);fill:#F3D623;}
	.st301{clip-path:url(#SVGID_98_);fill:none;}
	.st302{clip-path:url(#SVGID_98_);fill:#092738;}
	.st303{clip-path:url(#SVGID_102_);}
	.st304{clip-path:url(#SVGID_102_);fill:#C65782;}
	.st305{clip-path:url(#SVGID_102_);fill:#3CB590;}
	.st306{clip-path:url(#SVGID_102_);fill:#EACF30;}
	.st307{clip-path:url(#SVGID_102_);fill:#D13C49;}
	.st308{clip-path:url(#SVGID_102_);fill:#54B5C6;}
	.st309{clip-path:url(#SVGID_102_);fill:#8C82AF;}
	.st310{clip-path:url(#SVGID_104_);}
	.st311{clip-path:url(#SVGID_106_);}
	.st312{clip-path:url(#SVGID_108_);fill:#8C82AF;}
	.st313{clip-path:url(#SVGID_108_);fill:#F3D623;}
	.st314{clip-path:url(#SVGID_108_);fill:none;}
	.st315{clip-path:url(#SVGID_108_);fill:#092738;}
	.st316{clip-path:url(#SVGID_110_);fill:#FFFFFF;}
	.st317{clip-path:url(#SVGID_110_);fill:#F3D623;}
	.st318{clip-path:url(#SVGID_110_);fill:none;}
	.st319{clip-path:url(#SVGID_110_);fill:#092738;}
	.st320{fill:#E3007F;stroke:#FFFFFF;stroke-width:0.5643;stroke-miterlimit:10;}
	.st321{fill:none;stroke:#595757;stroke-width:0.2822;stroke-miterlimit:10;}
	.st322{fill:#2F343D;}
	.st323{fill:#C8BB9B;stroke:#C8BB9B;stroke-width:2.5146;stroke-miterlimit:10;}
	.st324{fill:#C8BB9B;}
	.st325{fill:#F0E776;stroke:#FFFFFF;stroke-width:2.5146;stroke-miterlimit:10;}
	.st326{fill:#3D3A39;}
	.st327{clip-path:url(#SVGID_114_);fill:#FFFFFF;}
	.st328{clip-path:url(#SVGID_114_);fill:#F3D623;}
	.st329{clip-path:url(#SVGID_114_);fill:none;}
	.st330{clip-path:url(#SVGID_114_);fill:#092738;}
	.st331{clip-path:url(#SVGID_116_);}
	.st332{clip-path:url(#SVGID_116_);fill:#C65782;}
	.st333{clip-path:url(#SVGID_116_);fill:#3CB590;}
	.st334{clip-path:url(#SVGID_116_);fill:#EACF30;}
	.st335{clip-path:url(#SVGID_116_);fill:#D13C49;}
	.st336{clip-path:url(#SVGID_116_);fill:#54B5C6;}
	.st337{clip-path:url(#SVGID_116_);fill:#8C82AF;}
	.st338{clip-path:url(#SVGID_118_);}
	.st339{clip-path:url(#SVGID_120_);}
	.st340{clip-path:url(#SVGID_122_);fill:#8C82AF;}
	.st341{clip-path:url(#SVGID_122_);fill:#F3D623;}
	.st342{clip-path:url(#SVGID_122_);fill:none;}
	.st343{clip-path:url(#SVGID_122_);fill:#092738;}
	.st344{clip-path:url(#SVGID_124_);fill:#FFFFFF;}
	.st345{clip-path:url(#SVGID_124_);fill:#F3D623;}
	.st346{clip-path:url(#SVGID_124_);fill:none;}
	.st347{clip-path:url(#SVGID_124_);fill:#092738;}
	.st348{clip-path:url(#SVGID_128_);}
	.st349{clip-path:url(#SVGID_128_);fill:#C65782;}
	.st350{clip-path:url(#SVGID_128_);fill:#3CB590;}
	.st351{clip-path:url(#SVGID_128_);fill:#EACF30;}
	.st352{clip-path:url(#SVGID_128_);fill:#D13C49;}
	.st353{clip-path:url(#SVGID_128_);fill:#54B5C6;}
	.st354{clip-path:url(#SVGID_128_);fill:#8C82AF;}
	.st355{clip-path:url(#SVGID_130_);}
	.st356{clip-path:url(#SVGID_132_);}
	.st357{clip-path:url(#SVGID_134_);fill:#8C82AF;}
	.st358{clip-path:url(#SVGID_134_);fill:#F3D623;}
	.st359{clip-path:url(#SVGID_134_);fill:none;}
	.st360{clip-path:url(#SVGID_134_);fill:#092738;}
	.st361{clip-path:url(#SVGID_136_);fill:#FFFFFF;}
	.st362{clip-path:url(#SVGID_136_);fill:#F3D623;}
	.st363{clip-path:url(#SVGID_136_);fill:none;}
	.st364{clip-path:url(#SVGID_136_);fill:#092738;}
	.st365{clip-path:url(#SVGID_140_);}
	.st366{clip-path:url(#SVGID_140_);fill:#C65782;}
	.st367{clip-path:url(#SVGID_140_);fill:#3CB590;}
	.st368{clip-path:url(#SVGID_140_);fill:#EACF30;}
	.st369{clip-path:url(#SVGID_140_);fill:#D13C49;}
	.st370{clip-path:url(#SVGID_140_);fill:#54B5C6;}
	.st371{clip-path:url(#SVGID_140_);fill:#8C82AF;}
	.st372{clip-path:url(#SVGID_142_);}
	.st373{clip-path:url(#SVGID_144_);}
	.st374{clip-path:url(#SVGID_146_);fill:#8C82AF;}
	.st375{clip-path:url(#SVGID_146_);fill:#F3D623;}
	.st376{clip-path:url(#SVGID_146_);fill:none;}
	.st377{clip-path:url(#SVGID_146_);fill:#092738;}
	.st378{clip-path:url(#SVGID_148_);fill:#FFFFFF;}
	.st379{clip-path:url(#SVGID_148_);fill:#F3D623;}
	.st380{clip-path:url(#SVGID_148_);fill:none;}
	.st381{clip-path:url(#SVGID_148_);fill:#092738;}
	.st382{clip-path:url(#SVGID_152_);}
	.st383{clip-path:url(#SVGID_152_);fill:#C65782;}
	.st384{clip-path:url(#SVGID_152_);fill:#3CB590;}
	.st385{clip-path:url(#SVGID_152_);fill:#EACF30;}
	.st386{clip-path:url(#SVGID_152_);fill:#D13C49;}
	.st387{clip-path:url(#SVGID_152_);fill:#54B5C6;}
	.st388{clip-path:url(#SVGID_152_);fill:#8C82AF;}
	.st389{clip-path:url(#SVGID_154_);}
	.st390{clip-path:url(#SVGID_156_);}
	.st391{clip-path:url(#SVGID_158_);fill:#8C82AF;}
	.st392{clip-path:url(#SVGID_158_);fill:#F3D623;}
	.st393{clip-path:url(#SVGID_158_);fill:none;}
	.st394{clip-path:url(#SVGID_158_);fill:#092738;}
	.st395{clip-path:url(#SVGID_160_);fill:#FFFFFF;}
	.st396{clip-path:url(#SVGID_160_);fill:#F3D623;}
	.st397{clip-path:url(#SVGID_160_);fill:none;}
	.st398{clip-path:url(#SVGID_160_);fill:#092738;}
	.st399{clip-path:url(#SVGID_164_);}
	.st400{clip-path:url(#SVGID_164_);fill:#C65782;}
	.st401{clip-path:url(#SVGID_164_);fill:#3CB590;}
	.st402{clip-path:url(#SVGID_164_);fill:#EACF30;}
	.st403{clip-path:url(#SVGID_164_);fill:#D13C49;}
	.st404{clip-path:url(#SVGID_164_);fill:#54B5C6;}
	.st405{clip-path:url(#SVGID_164_);fill:#8C82AF;}
	.st406{clip-path:url(#SVGID_166_);}
	.st407{clip-path:url(#SVGID_168_);}
	.st408{clip-path:url(#SVGID_170_);fill:#8C82AF;}
	.st409{clip-path:url(#SVGID_170_);fill:#F3D623;}
	.st410{clip-path:url(#SVGID_170_);fill:none;}
	.st411{clip-path:url(#SVGID_170_);fill:#092738;}
	.st412{clip-path:url(#SVGID_172_);fill:#FFFFFF;}
	.st413{clip-path:url(#SVGID_172_);fill:#F3D623;}
	.st414{clip-path:url(#SVGID_172_);fill:none;}
	.st415{clip-path:url(#SVGID_172_);fill:#092738;}
	.st416{fill:#78BEE9;stroke:#FFFFFF;stroke-width:1.29;stroke-miterlimit:10;}
	.st417{fill:#F0E776;stroke:#FFFFFF;stroke-width:1.29;stroke-miterlimit:10;}
	.st418{fill:#78BEE9;stroke:#78BEE9;stroke-width:3.87;stroke-miterlimit:10;}
	.st419{fill:none;stroke:#FFFFFF;stroke-width:1.29;stroke-miterlimit:10;}
	.st420{clip-path:url(#SVGID_176_);fill:#FFFFFF;}
	.st421{clip-path:url(#SVGID_176_);fill:#F3D623;}
	.st422{clip-path:url(#SVGID_176_);fill:none;}
	.st423{clip-path:url(#SVGID_176_);fill:#092738;}
	.st424{fill:none;stroke:#595757;stroke-width:2.6606;stroke-linecap:round;stroke-miterlimit:10;}
	.st425{clip-path:url(#SVGID_178_);fill:#FFFFFF;}
	.st426{clip-path:url(#SVGID_178_);fill:#F3D623;}
	.st427{clip-path:url(#SVGID_178_);fill:none;}
	.st428{clip-path:url(#SVGID_178_);fill:#092738;}
	.st429{fill:#78BEE9;stroke:#FFFFFF;stroke-width:0.7033;stroke-miterlimit:10;}
	.st430{fill:#F0E776;stroke:#FFFFFF;stroke-width:0.7033;stroke-miterlimit:10;}
	.st431{fill:#78BEE9;stroke:#FFFFFF;stroke-width:0.833;stroke-miterlimit:10;}
	.st432{fill:#8C82AF;stroke:#FFFFFF;stroke-width:0.8915;stroke-miterlimit:10;}
	.st433{fill:#8C82AF;stroke:#FFFFFF;stroke-width:0.7617;stroke-miterlimit:10;}
	.st434{fill:#2ED8FF;}
	.st435{fill:#78BEE9;stroke:#FFFFFF;stroke-width:0.5423;stroke-miterlimit:10;}
	.st436{fill:#F0E776;stroke:#FFFFFF;stroke-width:0.5423;stroke-miterlimit:10;}
	.st437{fill:#78BEE9;stroke:#78BEE9;stroke-width:1.6269;stroke-miterlimit:10;}
	.st438{clip-path:url(#SVGID_180_);fill:#FFFFFF;}
	.st439{clip-path:url(#SVGID_180_);fill:#F3D623;}
	.st440{clip-path:url(#SVGID_180_);fill:none;}
	.st441{clip-path:url(#SVGID_180_);fill:#092738;}
	.st442{fill:none;stroke:#595757;stroke-width:1.1184;stroke-linecap:round;stroke-miterlimit:10;}
	.st443{fill:#8C6239;}
	.st444{fill:#CAE7EC;stroke:#B28146;stroke-width:18.3418;stroke-miterlimit:10;}
	.st445{fill:none;stroke:#B28146;stroke-width:18.3418;stroke-miterlimit:10;}
	.st446{fill:#B3B3B3;stroke:#333333;stroke-width:24.4558;stroke-miterlimit:10;}
	.st447{fill:#333333;stroke:#333333;stroke-width:24.4558;stroke-miterlimit:10;}
	.st448{fill:#C69C6D;}
	.st449{fill:#C7B299;}
	.st450{fill:#78BEE9;stroke:#FFFFFF;stroke-width:1.2228;stroke-miterlimit:10;}
	.st451{fill:#8C82AF;stroke:#FFFFFF;stroke-width:1.2228;stroke-miterlimit:10;}
	.st452{fill:#78BEE9;stroke:#78BEE9;stroke-width:3.6684;stroke-miterlimit:10;}
	.st453{fill:#F0E776;stroke:#FFFFFF;stroke-width:1.2228;stroke-miterlimit:10;}
	.st454{clip-path:url(#SVGID_182_);fill:#FFFFFF;}
	.st455{clip-path:url(#SVGID_182_);fill:#F3D623;}
	.st456{clip-path:url(#SVGID_182_);fill:none;}
	.st457{clip-path:url(#SVGID_182_);fill:#092738;}
	.st458{fill:none;stroke:#595757;stroke-width:2.5219;stroke-linecap:round;stroke-miterlimit:10;}
	.st459{fill:#FFFF00;}
	.st460{fill:#F7931E;}
	.st461{fill:#A67C52;}
	.st462{fill:#ED1C24;}
	.st463{fill:#8CC63F;}
	.st464{fill:#3FA9F5;}
	.st465{fill:#FF7BAC;}
	.st466{fill:#F15A24;}
	.st467{fill:#FCEE21;}
	.st468{fill:#754C24;}
	.st469{fill:none;stroke:#595757;stroke-width:0.6503;stroke-miterlimit:10;}
	.st470{fill:#FFFFFF;stroke:#595757;stroke-width:1.4694;stroke-miterlimit:10;}
	.st471{fill:none;stroke:#595757;stroke-width:0.5025;stroke-miterlimit:10;}
	.st472{clip-path:url(#SVGID_184_);}
	.st473{fill:none;stroke:#EACF30;stroke-width:0.6503;stroke-miterlimit:10;}
	.st474{fill:none;stroke:#C65681;stroke-width:0.6503;stroke-miterlimit:10;}
	.st475{clip-path:url(#SVGID_184_);fill:#C65782;}
	.st476{clip-path:url(#SVGID_184_);fill:#3CB590;}
	.st477{clip-path:url(#SVGID_184_);fill:#EACF30;}
	.st478{clip-path:url(#SVGID_184_);fill:#D13C49;}
	.st479{clip-path:url(#SVGID_184_);fill:#54B5C6;}
	.st480{clip-path:url(#SVGID_184_);fill:#8C82AF;}
	.st481{fill:none;stroke:#54B5C6;stroke-width:0.6503;stroke-miterlimit:10;}
	.st482{fill:none;stroke:#3CB590;stroke-width:0.6503;stroke-miterlimit:10;}
	.st483{clip-path:url(#SVGID_186_);}
	.st484{clip-path:url(#SVGID_188_);}
	.st485{fill:#FFFFFF;stroke:#EACF30;stroke-width:3.2516;stroke-miterlimit:10;}
	.st486{clip-path:url(#SVGID_190_);fill:#8C82AF;}
	.st487{clip-path:url(#SVGID_190_);fill:#F3D623;}
	.st488{clip-path:url(#SVGID_190_);fill:none;}
	.st489{clip-path:url(#SVGID_190_);fill:#092738;}
	.st490{fill:none;stroke:#8C82AF;stroke-width:0.6503;stroke-miterlimit:10;}
	.st491{fill:none;stroke:#EACF30;stroke-width:0.7218;stroke-miterlimit:10;}
	.st492{fill:#78BEE9;stroke:#FFFFFF;stroke-width:0.1021;stroke-miterlimit:10;}
	.st493{fill:#F0E776;stroke:#FFFFFF;stroke-width:0.1021;stroke-miterlimit:10;}
	.st494{fill:#78BEE9;stroke:#78BEE9;stroke-width:0.3062;stroke-miterlimit:10;}
	.st495{clip-path:url(#SVGID_192_);fill:#FFFFFF;}
	.st496{clip-path:url(#SVGID_192_);fill:#F3D623;}
	.st497{clip-path:url(#SVGID_192_);fill:none;}
	.st498{clip-path:url(#SVGID_192_);fill:#092738;}
	.st499{fill:none;stroke:#595757;stroke-width:0.2105;stroke-linecap:round;stroke-miterlimit:10;}
	.st500{fill:#8C82AF;stroke:#FFFFFF;stroke-width:0.118;stroke-miterlimit:10;}
	.st501{clip-path:url(#SVGID_196_);}
	.st502{clip-path:url(#SVGID_196_);fill:#C65782;}
	.st503{clip-path:url(#SVGID_196_);fill:#3CB590;}
	.st504{clip-path:url(#SVGID_196_);fill:#EACF30;}
	.st505{clip-path:url(#SVGID_196_);fill:#D13C49;}
	.st506{clip-path:url(#SVGID_196_);fill:#54B5C6;}
	.st507{clip-path:url(#SVGID_196_);fill:#8C82AF;}
	.st508{clip-path:url(#SVGID_198_);}
	.st509{clip-path:url(#SVGID_200_);}
	.st510{clip-path:url(#SVGID_202_);fill:#8C82AF;}
	.st511{clip-path:url(#SVGID_202_);fill:#F3D623;}
	.st512{clip-path:url(#SVGID_202_);fill:none;}
	.st513{clip-path:url(#SVGID_202_);fill:#092738;}
	.st514{clip-path:url(#SVGID_204_);fill:#FFFFFF;}
	.st515{clip-path:url(#SVGID_204_);fill:#F3D623;}
	.st516{clip-path:url(#SVGID_204_);fill:none;}
	.st517{clip-path:url(#SVGID_204_);fill:#092738;}
	.st518{fill:#4D4D4D;}
	.st519{fill:#FF94F4;}
	.st520{fill:#78BEE9;stroke:#78BEE9;stroke-width:3;stroke-miterlimit:10;}
	.st521{clip-path:url(#SVGID_208_);fill:#FFFFFF;}
	.st522{clip-path:url(#SVGID_208_);fill:#F3D623;}
	.st523{clip-path:url(#SVGID_208_);fill:none;}
	.st524{clip-path:url(#SVGID_208_);fill:#092738;}
	.st525{fill:#333333;}
	.st526{fill:#78BEE9;stroke:#FFFFFF;stroke-width:0.5818;stroke-miterlimit:10;}
	.st527{fill:#F0E776;stroke:#FFFFFF;stroke-width:0.5818;stroke-miterlimit:10;}
	.st528{fill:#78BEE9;stroke:#78BEE9;stroke-width:1.7453;stroke-miterlimit:10;}
	.st529{clip-path:url(#SVGID_210_);fill:#FFFFFF;}
	.st530{clip-path:url(#SVGID_210_);fill:#F3D623;}
	.st531{clip-path:url(#SVGID_210_);fill:none;}
	.st532{clip-path:url(#SVGID_210_);fill:#092738;}
	.st533{fill:none;stroke:#595757;stroke-width:1.1998;stroke-linecap:round;stroke-miterlimit:10;}
	.st534{clip-path:url(#SVGID_212_);fill:#FFFFFF;}
	.st535{clip-path:url(#SVGID_212_);fill:#F3D623;}
	.st536{clip-path:url(#SVGID_212_);fill:none;}
	.st537{clip-path:url(#SVGID_212_);fill:#092738;}
	.st538{fill:#78BEE9;stroke:#FFFFFF;stroke-width:5.6238;stroke-miterlimit:10;}
	.st539{fill:#F0E776;stroke:#FFFFFF;stroke-width:5.6238;stroke-miterlimit:10;}
	.st540{fill:#78BEE9;stroke:#78BEE9;stroke-width:16.8714;stroke-miterlimit:10;}
	.st541{clip-path:url(#SVGID_214_);fill:#FFFFFF;}
	.st542{clip-path:url(#SVGID_214_);fill:#F3D623;}
	.st543{clip-path:url(#SVGID_214_);fill:none;}
	.st544{clip-path:url(#SVGID_214_);fill:#092738;}
	.st545{fill:none;stroke:#595757;stroke-width:11.5988;stroke-linecap:round;stroke-miterlimit:10;}
	.st546{fill:#C1272D;stroke:#595757;stroke-width:0.5705;stroke-linecap:round;stroke-miterlimit:10;}
	.st547{fill:#C69C6D;stroke:#595757;stroke-width:0.5705;stroke-linecap:round;stroke-miterlimit:10;}
	.st548{fill:#FFFFFF;stroke:#595757;stroke-width:0.343;stroke-linecap:round;stroke-miterlimit:10;}
	.st549{fill:#FF0000;stroke:#595757;stroke-width:0.343;stroke-linecap:round;stroke-miterlimit:10;}
	.st550{fill:#8C82AF;stroke:#FFFFFF;stroke-width:1.1557;stroke-miterlimit:10;}
	.st551{fill:#78BEE9;stroke:#FFFFFF;stroke-width:1.7549;stroke-miterlimit:10;}
	.st552{fill:#78BEE9;stroke:#78BEE9;stroke-width:5.2647;stroke-miterlimit:10;}
	.st553{fill:#78BEE9;stroke:#FFFFFF;stroke-width:0.796;stroke-miterlimit:10;}
	.st554{fill:#8C82AF;stroke:#FFFFFF;stroke-width:0.92;stroke-miterlimit:10;}
	.st555{fill:#78BEE9;stroke:#78BEE9;stroke-width:2.3881;stroke-miterlimit:10;}
	.st556{fill:#78BEE9;stroke:#FFFFFF;stroke-width:0.6942;stroke-miterlimit:10;}
	.st557{fill:#F0E776;stroke:#FFFFFF;stroke-width:0.6942;stroke-miterlimit:10;}
	.st558{fill:#78BEE9;stroke:#78BEE9;stroke-width:2.0826;stroke-miterlimit:10;}
	.st559{clip-path:url(#SVGID_216_);fill:#FFFFFF;}
	.st560{clip-path:url(#SVGID_216_);fill:#F3D623;}
	.st561{clip-path:url(#SVGID_216_);fill:none;}
	.st562{clip-path:url(#SVGID_216_);fill:#092738;}
	.st563{fill:none;stroke:#595757;stroke-width:1.4318;stroke-linecap:round;stroke-miterlimit:10;}
	.st564{fill:#FF3000;}
	.st565{fill:#F0E776;stroke:#F0E776;stroke-width:0.0891;stroke-miterlimit:10;}
	.st566{fill:#FFFFFF;stroke:#F0E776;stroke-width:0.0891;stroke-miterlimit:10;}
	.st567{fill:#FFFFFF;stroke:#C69C6D;stroke-width:13.8504;stroke-miterlimit:10;}
	.st568{fill:#C1272D;stroke:#C69C6D;stroke-width:0.531;stroke-miterlimit:10;}
	.st569{fill:#C1272D;stroke:#C69C6D;stroke-width:0.3833;stroke-miterlimit:10;}
	.st570{fill:#78BEE9;stroke:#FFFFFF;stroke-width:1.3897;stroke-miterlimit:10;}
	.st571{fill:#78BEE9;stroke:#78BEE9;stroke-width:4.1692;stroke-miterlimit:10;}
	.st572{fill:#78BEE9;stroke:#FFFFFF;stroke-width:1.2171;stroke-miterlimit:10;}
	.st573{fill:#78BEE9;stroke:#78BEE9;stroke-width:3.6513;stroke-miterlimit:10;}
</style>
<g>
	<defs>
		<rect id="SVGID_1_" width="1922" height="1888"/>
	</defs>
	<clipPath id="SVGID_2_">
		<use xlink:href="#SVGID_1_"  style="overflow:visible;"/>
	</clipPath>
	<g class="st0">
		<rect x="1" y="-29.39" class="st1" width="96.8" height="909.35"/>
		<rect x="189.15" y="-25.53" class="st1" width="96.8" height="909.35"/>
		<rect x="375.93" y="-25.53" class="st1" width="96.8" height="909.35"/>
		<rect x="569.53" y="-16.51" class="st1" width="96.8" height="909.35"/>
		<rect x="761.77" y="-28.1" class="st1" width="96.8" height="909.35"/>
		<rect x="954" y="-29.39" class="st1" width="96.8" height="909.35"/>
		<rect x="1147.6" y="-50" class="st1" width="96.8" height="909.35"/>
		<rect x="1341.2" y="-16.51" class="st1" width="96.8" height="909.35"/>
		<rect x="1534.8" y="-25.53" class="st1" width="96.8" height="909.35"/>
		<rect x="1728.4" y="-16.51" class="st1" width="96.8" height="909.35"/>
		<rect x="92.35" y="-28.1" class="st2" width="96.8" height="909.35"/>
		<rect x="472.73" y="-16.51" class="st2" width="96.8" height="909.35"/>
		<rect x="666.33" y="-25.53" class="st2" width="96.8" height="909.35"/>
		<rect x="858.56" y="-25.53" class="st2" width="96.8" height="909.35"/>
		<rect x="1050.8" y="-25.53" class="st2" width="96.8" height="909.35"/>
		<rect x="1244.4" y="-29.39" class="st2" width="96.8" height="909.35"/>
		<rect x="1438" y="-25.53" class="st2" width="96.8" height="909.35"/>
		<rect x="1631.6" y="-16.51" class="st2" width="96.8" height="909.35"/>
		<rect x="1825.2" y="-28.1" class="st2" width="96.8" height="909.35"/>
		<rect x="285.95" y="-25.53" class="st2" width="96.8" height="909.35"/>
	</g>
	<g class="st0">
		<polygon class="st3" points="837,249 810.79,265.32 826,284 934,298 993,293 1044.96,284.03 1060.5,265.5 1033.5,251.5 
			926.5,235.5 		"/>
		<path class="st4" d="M1057,263c-0.44,3.78-1.61,9.01-5,14c-9.22,13.56-28.22,15.51-59,16c-72.04,1.15-60.5,5.5-102.5,0.5
			c-4.45-0.53-33.3-2.87-46.5-5.5c-16-3.18-27.66-18.87-35.5-24.5"/>
		<rect x="930" y="-81" class="st5" width="9" height="237"/>
		<path class="st5" d="M905,173c2.51,6.9,4.99,17.27,0,25c-3.42,5.3-8.99,7.26-11,8c-24.33,8.96-87.94,51.92-86,58
			c0.61,1.92,10.72-5.84,15.06-6.65c26.78-5.02,53.96-7.55,80.94-11.35c3.45-0.48,4.54-0.63,5.31-0.71c0.05-0.01,0.4-0.04,0.89-0.09
			c0.75-0.07,1.3-0.13,1.31-0.13C949.59,241.11,994,250,994,250c46.61,9.43,66.08,21.9,69,17c3.36-5.64-19.46-26.16-38-39
			c-23.92-16.57-47.05-24.72-63-29l2-26H905z"/>
		<polygon class="st5" points="908,156 934,148 960,156 960,167 913,167 908,167 		"/>
		<path class="st6" d="M912,245c-0.65,3.12-3.45,14.59-4,20c-1.61,15.93-2.68,26.6,3,36c4.54,7.51,14.42,15.91,26,15
			c11.66-0.92,18.71-10.8,21-14c13.59-19.03,3.22-53.89,2-57"/>
	</g>
</g>
<ellipse class="st3" cx="954.5" cy="577" rx="889.5" ry="232"/>
<g>
	<rect y="870.61" class="st1" width="96.8" height="909.35"/>
	<rect x="188.15" y="874.47" class="st1" width="96.8" height="909.35"/>
	<rect x="374.93" y="874.47" class="st1" width="96.8" height="909.35"/>
	<rect x="568.53" y="883.49" class="st1" width="96.8" height="909.35"/>
	<rect x="760.77" y="871.9" class="st1" width="96.8" height="909.35"/>
	<rect x="953" y="870.61" class="st1" width="96.8" height="909.35"/>
	<rect x="1146.6" y="850" class="st1" width="96.8" height="909.35"/>
	<rect x="1340.2" y="883.49" class="st1" width="96.8" height="909.35"/>
	<rect x="1533.8" y="874.47" class="st1" width="96.8" height="909.35"/>
	<rect x="1727.4" y="883.49" class="st1" width="96.8" height="909.35"/>
	<rect x="91.35" y="871.9" class="st2" width="96.8" height="909.35"/>
	<rect x="471.73" y="883.49" class="st2" width="96.8" height="909.35"/>
	<rect x="665.33" y="874.47" class="st2" width="96.8" height="909.35"/>
	<rect x="857.56" y="874.47" class="st2" width="96.8" height="909.35"/>
	<rect x="1049.8" y="874.47" class="st2" width="96.8" height="909.35"/>
	<rect x="1243.4" y="870.61" class="st2" width="96.8" height="909.35"/>
	<rect x="1437" y="874.47" class="st2" width="96.8" height="909.35"/>
	<rect x="1630.6" y="883.49" class="st2" width="96.8" height="909.35"/>
	<rect x="1824.2" y="871.9" class="st2" width="96.8" height="909.35"/>
	<rect x="284.95" y="874.47" class="st2" width="96.8" height="909.35"/>
</g>
<rect y="1756.16" class="st443" width="1921" height="141.84"/>
<ellipse class="st3" cx="984.44" cy="1830.24" rx="460.99" ry="43.41"/>
<ellipse class="st444" cx="251.4" cy="1141.85" rx="116.05" ry="160.04"/>
<line class="st445" x1="135.12" y1="1141.71" x2="367.45" y2="1141.71"/>
<line class="st445" x1="251.28" y1="1301.89" x2="251.28" y2="981.52"/>
<g>
	<rect x="1405.65" y="1454.13" class="st446" width="254.83" height="147.59"/>
	<rect x="1478.55" y="1605.45" class="st447" width="110.26" height="19.3"/>
	<rect x="1450.37" y="1633.47" class="st447" width="166.01" height="19.3"/>
	<path class="st448" d="M1657.58,1747.43h-249.02c-18.52,0-33.54-15.01-33.54-33.54v-21.35c0-18.52,15.01-33.54,33.54-33.54h249.02
		c18.52,0,33.54,15.01,33.54,33.54v21.35C1691.12,1732.42,1676.1,1747.43,1657.58,1747.43z"/>
	<rect x="1392.18" y="1675.82" class="st443" width="130.48" height="55.42"/>
	<rect x="1542.87" y="1675.82" class="st443" width="131.09" height="55.42"/>
	<rect x="1397.08" y="1738.09" class="st448" width="17.15" height="53.55"/>
	<rect x="1651.91" y="1738.09" class="st448" width="17.15" height="53.55"/>
</g>
<g>
	<path class="st448" d="M328.33,1509.15H110.65c-9.11,0-16.5-7.39-16.5-16.5v-7.35c0-9.11,7.39-16.5,16.5-16.5h217.67
		c9.11,0,16.5,7.39,16.5,16.5v7.35C344.83,1501.77,337.44,1509.15,328.33,1509.15z"/>
	<rect x="122.28" y="1501.82" class="st448" width="23.23" height="277.57"/>
	
		<rect x="208.49" y="1476.75" transform="matrix(6.123234e-17 -1 1 6.123234e-17 -1348.3568 1788.5604)" class="st448" width="23.23" height="183.42"/>
	
		<rect x="212.15" y="1547.67" transform="matrix(6.123234e-17 -1 1 6.123234e-17 -1415.6101 1863.1505)" class="st448" width="23.23" height="183.42"/>
	
		<rect x="212.15" y="1618.59" transform="matrix(6.123234e-17 -1 1 6.123234e-17 -1486.5319 1934.0723)" class="st448" width="23.23" height="183.42"/>
	<rect x="294.69" y="1501.82" class="st448" width="23.23" height="277.57"/>
	<rect x="145.51" y="1509.15" class="st449" width="149.18" height="47.69"/>
	<rect x="145.51" y="1580.08" class="st449" width="149.18" height="47.69"/>
	<rect x="145.51" y="1651" class="st449" width="149.18" height="47.69"/>
	<circle class="st443" cx="218.88" cy="1532.39" r="11.01"/>
	<circle class="st443" cx="220.1" cy="1604.53" r="11.01"/>
	<circle class="st443" cx="220.1" cy="1677.9" r="11.01"/>
</g>
<g>
	<path class="st450" d="M1137.03,1693.04l19.81-8.41c12.37-5.25,18.19-19.67,12.94-32.04l-23.82-56.13
		c-5.25-12.37-61.05-75.2-73.41-69.95l0.93,16.79c-6.74,15.13-7.36,16.51-11.56,28.17c-0.89,2.46-0.82,5.19,0.2,7.6L1105,1680.1
		C1110.25,1692.47,1124.66,1698.29,1137.03,1693.04z"/>
	<path class="st450" d="M836.23,1693.04l-19.81-8.41c-12.37-5.25-18.19-19.67-12.94-32.04l23.82-56.13
		c5.25-12.37,61.05-75.2,73.41-69.95l-0.93,16.79c6.74,15.13,7.36,16.51,11.56,28.17c0.89,2.46,0.82,5.19-0.2,7.6l-42.88,101.01
		C863.02,1692.47,848.6,1698.29,836.23,1693.04z"/>
</g>
<path class="st451" d="M837.97,1585.17l51.09,16.79c1.3,0.43,2.68-0.34,3.01-1.67l22.8-52.14c0.31-1.26-8.97-9.36-10.24-9.66
	c-26.15-6.33-55.82,12.05-68.12,43.64C836.02,1583.36,836.71,1584.75,837.97,1585.17z"/>
<path class="st451" d="M1133.72,1584.82l-51.22,16.82c-1.3,0.43-2.68-0.35-3.01-1.67l-14.09-58.3c-0.31-1.26,0.48-2.53,1.74-2.84
	c26.2-6.36,55.84,11.71,68.05,42.94C1135.67,1583.01,1134.98,1584.41,1133.72,1584.82z"/>
<ellipse class="st450" cx="988.7" cy="1553.44" rx="35.48" ry="41.5"/>
<path class="st450" d="M1087.12,1766.33l27.99-43.24c0.26-0.4,0.36-0.88,0.28-1.35l-4.68-27.77c-0.15-0.91-0.95-1.58-1.87-1.58
	l-241.75-0.11c-0.93,0-1.72,0.67-1.88,1.59l-4.61,27.88c-0.08,0.47,0.02,0.95,0.28,1.35l28.2,43.25c0.35,0.54,0.95,0.86,1.59,0.86
	h14.19c0.89,0,1.66,0.61,1.85,1.48l5.99,26.25c0.27,1.19-0.63,2.32-1.85,2.32h-0.13c-0.74,0-1.4,0.42-1.72,1.09l-5.85,12.38
	c-0.6,1.26,0.32,2.71,1.72,2.71h6.43c1.69,0,2.54-2.05,1.34-3.24l-3.5-3.5c-0.74-0.74-0.74-1.95,0-2.69l5.93-5.93
	c0.74-0.74,1.95-0.74,2.69,0l5.93,5.93c0.74,0.74,0.74,1.95,0,2.69l-3.5,3.5c-1.2,1.2-0.35,3.24,1.34,3.24h15.59
	c1.69,0,2.54-2.05,1.34-3.24l-3.5-3.5c-0.74-0.74-0.74-1.95,0-2.69l5.93-5.93c0.74-0.74,1.95-0.74,2.69,0l5.93,5.93
	c0.74,0.74,0.74,1.95,0,2.69l-3.5,3.5c-1.2,1.2-0.35,3.24,1.34,3.24h15.59c1.69,0,2.54-2.05,1.34-3.24l-3.5-3.5
	c-0.74-0.74-0.74-1.95,0-2.69l5.93-5.93c0.74-0.74,1.95-0.74,2.69,0l5.93,5.93c0.74,0.74,0.74,1.95,0,2.69l-3.5,3.5
	c-1.2,1.2-0.35,3.24,1.34,3.24h6.41c1.4,0,2.32-1.46,1.71-2.72l-5.91-12.38c-0.32-0.66-0.98-1.08-1.72-1.08l0,0
	c-1.22,0-2.12-1.13-1.85-2.32l5.93-26.25c0.2-0.87,0.97-1.48,1.85-1.48h16.88c0.89,0,1.66,0.61,1.85,1.48l6.52,28.58h-0.62
	c-0.74,0-1.4,0.42-1.72,1.09l-5.85,12.38c-0.6,1.26,0.32,2.71,1.72,2.71h6.43c1.69,0,2.54-2.05,1.34-3.24l-3.5-3.5
	c-0.74-0.74-0.74-1.95,0-2.69l5.93-5.93c0.74-0.74,1.95-0.74,2.69,0l5.93,5.93c0.74,0.74,0.74,1.95,0,2.69l-3.5,3.5
	c-1.2,1.2-0.35,3.24,1.34,3.24h15.59c1.69,0,2.54-2.05,1.34-3.24l-3.5-3.5c-0.74-0.74-0.74-1.95,0-2.69l5.93-5.93
	c0.74-0.74,1.95-0.74,2.69,0l5.93,5.93c0.74,0.74,0.74,1.95,0,2.69l-3.5,3.5c-1.2,1.2-0.35,3.24,1.34,3.24h15.59
	c1.69,0,2.54-2.05,1.34-3.24l-3.5-3.5c-0.74-0.74-0.74-1.95,0-2.69l5.93-5.93c0.74-0.74,1.95-0.74,2.69,0l5.93,5.93
	c0.74,0.74,0.74,1.95,0,2.69l-3.5,3.5c-1.2,1.2-0.35,3.24,1.34,3.24h6.41c1.4,0,2.32-1.46,1.71-2.72l-5.91-12.38
	c-0.32-0.66-0.98-1.08-1.71-1.08h-1.89c-1.22,0-2.12-1.13-1.85-2.32l5.93-26.25c0.2-0.87,0.97-1.48,1.85-1.48h14.39
	C1086.17,1767.2,1086.77,1766.87,1087.12,1766.33z"/>
<rect x="904.54" y="1526.21" class="st28" width="165.91" height="191.14"/>
<path class="st452" d="M911.96,1775.72c-29.65,4.36-60.08-45.97-46.24-80.94h0L911.96,1775.72z"/>
<path class="st452" d="M1063.03,1775.18c14.77,2.52,30.05-8.63,40.01-24.81c1.38-2.25,13.09-18.94,10.94-41.58
	c-0.53-5.59-1.77-10.19-2.87-13.47v0L1063.03,1775.18z"/>
<path class="st450" d="M1144.35,1082.38c-36.42,19.02-54.22,74.33-37.97,90.58s53.91,3.92,82.96-25.14"/>
<path class="st453" d="M1125.47,1127.77c-18.21,9.51-27.11,37.16-18.98,45.29s26.95,1.96,41.48-12.57
	c9.14-9.14,15.31-34.34,17.14-44.08c1.07-5.74-6.05,2.54-2.37,0.4C1172.44,1111.16,1150.49,1114.7,1125.47,1127.77z"/>
<path class="st6" d="M1157.88,1119.47c0.6,1.04,4.68,3.92,5.42,1.89c0.94-2.59,1.92-4.85,1.32-5.89s-3.67-0.81-5.53,0.26
	S1157.28,1118.44,1157.88,1119.47z"/>
<path class="st450" d="M834.11,1082.38c36.42,19.02,54.22,74.33,37.97,90.58c-16.25,16.25-53.91,3.92-82.96-25.14
	c-18.29-18.29-30.63-68.67-34.27-88.16"/>
<path class="st453" d="M852.99,1127.77c18.21,9.51,27.11,37.16,18.98,45.29c-8.13,8.13-26.95,1.96-41.48-12.57
	c-9.14-9.14-15.31-34.34-17.14-44.08c-1.07-5.74,6.05,2.54,2.37,0.4C806.02,1111.16,827.97,1114.7,852.99,1127.77z"/>
<path class="st6" d="M820.58,1119.47c-0.6,1.04-4.68,3.92-5.42,1.89c-0.94-2.59-1.92-4.85-1.32-5.89s3.67-0.81,5.53,0.26
	S821.18,1118.44,820.58,1119.47z"/>
<path class="st450" d="M1187.46,1442.96c0-28.9,3.86-62.83-27.46-82.84c-2.67-1.7-5.57-3.31-8.65-4.85
	c6.86-26.52,10.61-52.05,10.61-73.93c0-99.59-77.63-152.58-173.38-152.58s-173.38,48.67-173.38,148.26c0,23.7,4.4,51.93,12.4,81.19
	c-5.23,3.01-10.04,6.3-14.33,9.91c-21.45,18.07-23.71,51.39-23.71,74.84c0,62.52,89.07,113.2,198.95,113.2c0.02,0,0.04,0,0.06,0
	c0.01,0,0.01,0,0.01,0c0.01,0,0.02,0,0.03,0C1098.44,1556.13,1187.46,1505.46,1187.46,1442.96"/>
<g>
	<g>
		<circle class="st38" cx="919.29" cy="1370.1" r="16.05"/>
		<circle class="st3" cx="914.86" cy="1364.84" r="2.23"/>
	</g>
	<g>
		<circle class="st38" cx="1058.11" cy="1370.1" r="16.05"/>
		<circle class="st3" cx="1053.69" cy="1364.84" r="2.23"/>
	</g>
</g>
<g>
	<defs>
		<circle id="SVGID_181_" cx="988.58" cy="1627.77" r="47.89"/>
	</defs>
	<clipPath id="SVGID_4_">
		<use xlink:href="#SVGID_181_"  style="overflow:visible;"/>
	</clipPath>
	<path class="st33" d="M940.7,1661.7v-81.97c0-1.24,1.02-2.24,2.29-2.24h83.64c2.04,0,3.06,2.41,1.62,3.82l-83.64,81.97
		C943.16,1664.7,940.7,1663.7,940.7,1661.7z"/>
	<path class="st33" d="M1047.97,1605.59v72.98c0,1.65-1.98,2.98-4.42,2.98h-50.54c-3.24,0-5.38-2.26-4.01-4.24l40.82-83.44
		C1031.83,1590.98,1047.97,1602.4,1047.97,1605.59z"/>
	<ellipse class="st34" cx="979.94" cy="1653.37" rx="15.06" ry="6.06"/>
	<polygon class="st34" points="959.99,1648.24 939.41,1601.35 975.11,1633.43 	"/>
	<polygon class="st36" points="943.58,1610.84 934.77,1632.73 950.22,1657.76 959.99,1648.24 	"/>
</g>
<circle class="st39" cx="988.7" cy="1423.76" r="40.5"/>
<g>
	<path class="st22" d="M988.66,1294.41l-40.18,116.18c-0.08,0.23,0.09,0.48,0.34,0.48h80.36c0.25,0,0.42-0.24,0.34-0.48
		l-40.18-116.18C989.22,1294.09,988.77,1294.09,988.66,1294.41z"/>
	<circle class="st22" cx="988.7" cy="1416.25" r="40.5"/>
</g>
<path class="st458" d="M1012.34,1469.24c-8.22,15.17-19.94,17.97-26.23,17.55c-12.56-0.84-20.45-17.31-20.45-17.31"/>
<rect x="961.85" y="1731.63" class="st25" width="51.3" height="51.3"/>
<g>
	<g>
		<path class="st28" d="M1033.2,1596.79c3.93,0,3.94-6.11,0-6.11C1029.27,1590.67,1029.26,1596.79,1033.2,1596.79L1033.2,1596.79z"
			/>
	</g>
</g>
<g>
	<g>
		<path class="st28" d="M919.77,1631.08c3.93,0,3.94-6.11,0-6.11C915.84,1624.97,915.83,1631.08,919.77,1631.08L919.77,1631.08z"/>
	</g>
</g>
<g>
	<g>
		<path class="st3" d="M888.12,1679.22c3.93,0,3.94-6.11,0-6.11C884.18,1673.11,884.17,1679.22,888.12,1679.22L888.12,1679.22z"/>
	</g>
</g>
<path class="st28" d="M856.76,1717.35l47.56,0l2.02-169.71c-14.15,19.83-32.28,50.61-42.07,91.02c-6.42,26.49-7.52,49.97-6.79,68.38
	"/>
<path class="st28" d="M1121.18,1717.6l-50.99-0.48l-0.56-169.72c14.99,19.97,34.13,50.94,44.24,91.45
	c6.63,26.56,7.59,50.04,6.64,68.45"/>
<path class="st450" d="M1221.32,1058.02c19.42-11.29-24.48-4.22-74.53,21.92c-36.42,19.02-54.22,74.33-37.97,90.58
	c16.25,16.25,53.91,3.92,82.96-25.14c18.29-18.29,30.63-68.67,34.27-88.16"/>
<path class="st453" d="M1125.47,1127.77c-18.21,9.51-27.11,37.16-18.98,45.29s26.95,1.96,41.48-12.57
	c9.14-9.14,15.31-34.34,17.14-44.08c1.07-5.74-6.05,2.54-2.37,0.4C1172.44,1111.16,1150.49,1114.7,1125.47,1127.77z"/>
<path class="st450" d="M760.8,1061.68c-19.42-11.29,24.48-4.22,74.53,21.92c36.42,19.02,54.22,74.33,37.97,90.58
	c-16.25,16.25-53.91,3.92-82.96-25.14c-18.29-18.29-30.63-68.67-34.27-88.16"/>
<path class="st453" d="M852.99,1127.77c18.21,9.51,27.11,37.16,18.98,45.29c-8.13,8.13-26.95,1.96-41.48-12.57
	c-9.14-9.14-15.31-34.34-17.14-44.08c-1.07-5.74,6.05,2.54,2.37,0.4C806.02,1111.16,827.97,1114.7,852.99,1127.77z"/>
<g>
	<g>
		<path class="st5" d="M220.31,1386.06c-2.71-17.58-3.77-35.33-3.34-53.11c0.1-3.94-6.02-3.93-6.11,0
			c-0.44,18.34,0.77,36.61,3.56,54.74C215.01,1391.56,220.9,1389.92,220.31,1386.06L220.31,1386.06z"/>
	</g>
</g>
<g>
	<g>
		<path class="st5" d="M209.89,1389.68c-9.54-15.01-17.77-30.8-24.51-47.26c-1.47-3.59-7.39-2.02-5.9,1.63
			c6.95,16.97,15.29,33.25,25.13,48.73C206.72,1396.08,212.01,1393.02,209.89,1389.68L209.89,1389.68z"/>
	</g>
</g>
<g>
	<g>
		<path class="st5" d="M234.42,1397.51c12.52-13.41,23.61-28.03,33.15-43.71c2.05-3.37-3.24-6.45-5.28-3.09
			c-9.27,15.24-20.01,29.43-32.19,42.47C227.41,1396.06,231.73,1400.39,234.42,1397.51L234.42,1397.51z"/>
	</g>
</g>
<g>
	<path class="st459" d="M210.02,1325.14c-3.8,6.91-13.08,8.07-20.96,8.29c-4.5,0.13-9.32,0.12-13.05-2.4
		c-6.52-4.42-6.12-15.09-0.58-20.68s14.29-6.79,22.05-5.42c-1.61-6.31-6.73-11.29-8.22-17.62c-2.03-8.62,4.32-18.28,13.03-19.84
		s18.02,5.3,19.1,14.09c-1.04-2.3,1.21-4.71,3.34-6.06c6.4-4.05,14.9-6,21.49-2.28c6.59,3.72,8.69,14.57,2.45,18.86
		c4.55-1.11,9.41,1.52,12.02,5.41c4.12,6.14,0.82,17.05-6.57,16.66c-3.38-0.18-6.92-2.59-9.88-0.94c-4.06,2.27-1.68,8.33-1.43,12.98
		c0.38,7.12-6.47,13.37-13.59,13.49c-7.13,0.12-13.7-4.94-16.66-11.43"/>
	<g>
		<path class="st3" d="M209.36,1324.76c-3.51,5.66-10.06,7.17-16.28,7.7c-6.26,0.54-14.86,1.27-19-4.44
			c-3.88-5.36-2.18-13.28,2.42-17.63c5.5-5.19,13.65-5.82,20.76-4.72c0.54,0.08,1.12-0.33,0.94-0.94
			c-3.18-10.58-13.62-19.43-5.07-30.57c8.45-11.01,25.26-5.5,27.5,7.61c0.49-0.14,0.98-0.27,1.47-0.41
			c-0.91-4.95,7.95-7.98,11.24-8.75c4.46-1.05,9.47-0.89,13.32,1.86c5.41,3.87,7.04,12.64,1.46,17.06
			c-0.67,0.53,0.09,1.38,0.74,1.28c6.2-1.01,12.23,3.66,12.8,9.92c0.37,4.05-1.36,9.24-5.67,10.46c-4.61,1.31-11.91-4.67-14.48,2.21
			c-0.83,2.2-0.25,4.71,0.04,6.96c0.63,4.82,0.52,8.96-3.28,12.64c-8.55,8.28-20.51,1.97-25.07-7.15c-0.44-0.88-1.76-0.11-1.32,0.77
			c4.07,8.13,13.51,14.57,22.71,10.62c3.47-1.49,6.49-4.27,7.98-7.77c0.92-2.15,1.09-4.28,0.87-6.6c-0.35-3.69-2.42-8.62,1.63-10.6
			c4.4-2.15,9.14,2.43,13.74-0.77c2.58-1.8,3.91-4.93,4.3-7.96c1.06-8.4-6.29-15.58-14.65-14.22c0.25,0.43,0.5,0.85,0.74,1.28
			c7.18-5.68,3.76-17.31-3.95-20.73c-5.32-2.36-11.48-1.5-16.68,0.72c-3.91,1.68-8.84,4.25-7.93,9.16c0.18,0.97,1.64,0.55,1.47-0.41
			c-2.06-12.04-16.53-19.26-26.74-11.61c-4.41,3.31-7.28,8.75-7.26,14.29c0.03,7.91,6.43,13.82,8.62,21.09
			c0.31-0.31,0.63-0.63,0.94-0.94c-7.89-1.22-16.9-0.4-22.79,5.61c-4.34,4.43-5.89,11.95-3.02,17.56
			c3.74,7.32,12.74,7.15,19.85,6.71c7.23-0.44,14.88-2,18.95-8.56C211.2,1324.69,209.88,1323.92,209.36,1324.76L209.36,1324.76z"/>
	</g>
</g>
<g>
	<path class="st459" d="M255.7,1368.29c-2.65,5.35-9.11,6.24-14.6,6.42c-3.13,0.1-6.49,0.09-9.09-1.86c-4.54-3.42-4.26-11.67-0.4-16
		s9.95-5.25,15.35-4.19c-1.12-4.88-4.69-8.73-5.73-13.64c-1.41-6.67,3.01-14.14,9.08-15.35c6.07-1.21,12.55,4.1,13.3,10.9
		c-0.72-1.78,0.84-3.65,2.33-4.69c4.45-3.13,10.38-4.65,14.97-1.77c4.59,2.88,6.05,11.27,1.71,14.59c3.17-0.86,6.56,1.18,8.37,4.18
		c2.87,4.75,0.57,13.19-4.58,12.89c-2.35-0.14-4.82-2.01-6.88-0.73c-2.83,1.76-1.17,6.45-1,10.04c0.27,5.51-4.5,10.35-9.47,10.44
		c-4.96,0.09-9.54-3.82-11.6-8.84"/>
	<g>
		<path class="st3" d="M255.04,1367.91c-4.04,6.9-21.46,9.6-24.9,1.02c-4.37-10.91,7.58-17.01,16.62-15.53
			c0.55,0.09,1.11-0.33,0.94-0.94c-2.14-7.57-8.75-13.98-4.4-22.19c5.39-10.17,17.87-5.62,19.58,4.52c0.14,0.84,1.6,0.65,1.5-0.2
			c-0.77-6.9,12.18-8.42,16.15-5.8c4.29,2.83,5.43,9.83,1.55,13.39c-0.62,0.57,0.06,1.38,0.74,1.28c5.32-0.77,8.85,4.3,8.64,8.97
			c-0.24,5.15-3.71,6.76-8.39,5.76c-2.37-0.51-4.51-0.19-5.56,2.24c-1.86,4.31,1.59,8.94-0.87,13.43
			c-5.02,9.18-15.18,3.64-18.52-3.53c-0.41-0.89-1.73-0.12-1.32,0.77c2.75,5.91,9.25,11.5,16.08,8.3c2.58-1.21,4.69-3.47,5.72-6.14
			c0.6-1.55,0.74-3.12,0.64-4.76c-0.04-0.71-0.16-1.4-0.25-2.1c-0.36-3.03-0.95-3.21,2.01-5.07c2.93-1.84,1.97-1.28,4.49-0.91
			c0.66,0.1,1.23,0.21,1.9,0.1c0.85-0.13,1.58-0.45,2.28-0.94c2.07-1.45,3-4.16,3.24-6.56c0.62-6.18-4.09-11.94-10.51-11.02
			c0.25,0.43,0.5,0.85,0.74,1.28c4.82-4.43,3.09-13.11-2.5-16.13c-5.23-2.82-18.67-0.26-17.81,7.46c0.5-0.07,1-0.14,1.5-0.2
			c-1.44-8.55-11.1-15.42-18.85-9.19c-3.28,2.64-5.27,6.95-5.3,11.15c-0.04,6.08,4.43,10.9,6.02,16.53
			c0.31-0.31,0.63-0.63,0.94-0.94c-5.71-0.93-12.05-0.21-16.1,4.39c-3.05,3.46-4.08,8.92-2.38,13.24c2.26,5.74,8.29,6.2,13.7,5.87
			c5.58-0.33,10.99-1.63,13.98-6.74C256.86,1367.83,255.54,1367.06,255.04,1367.91L255.04,1367.91z"/>
	</g>
</g>
<g>
	<path class="st459" d="M183.56,1370.74c-2.65,5.35-9.11,6.24-14.6,6.42c-3.13,0.1-6.49,0.09-9.09-1.86
		c-4.54-3.42-4.26-11.67-0.4-16c3.86-4.33,9.95-5.25,15.35-4.19c-1.12-4.88-4.69-8.73-5.73-13.64c-1.41-6.67,3.01-14.14,9.08-15.35
		c6.07-1.21,12.55,4.1,13.3,10.9c-0.72-1.78,0.84-3.65,2.33-4.69c4.45-3.13,10.38-4.65,14.97-1.77c4.59,2.88,6.05,11.27,1.71,14.59
		c3.17-0.86,6.56,1.18,8.37,4.18c2.87,4.75,0.57,13.19-4.58,12.89c-2.35-0.14-4.82-2.01-6.88-0.73c-2.83,1.76-1.17,6.45-1,10.04
		c0.27,5.51-4.5,10.35-9.47,10.44c-4.96,0.09-9.54-3.82-11.6-8.84"/>
	<g>
		<path class="st3" d="M182.9,1370.35c-4.04,6.9-21.46,9.6-24.9,1.02c-4.37-10.91,7.58-17.01,16.62-15.53
			c0.55,0.09,1.11-0.33,0.94-0.94c-2.14-7.57-8.75-13.98-4.4-22.19c5.39-10.17,17.87-5.62,19.58,4.52c0.14,0.84,1.6,0.65,1.5-0.2
			c-0.77-6.9,12.18-8.42,16.15-5.8c4.29,2.83,5.43,9.83,1.55,13.39c-0.62,0.57,0.06,1.38,0.74,1.28c5.32-0.77,8.85,4.3,8.64,8.97
			c-0.24,5.15-3.71,6.76-8.39,5.76c-2.37-0.51-4.51-0.19-5.56,2.24c-1.86,4.31,1.59,8.94-0.87,13.43
			c-5.02,9.18-15.18,3.64-18.52-3.53c-0.41-0.89-1.73-0.12-1.32,0.77c2.75,5.91,9.25,11.5,16.08,8.3c2.58-1.21,4.69-3.47,5.72-6.14
			c0.6-1.55,0.74-3.12,0.64-4.76c-0.04-0.71-0.16-1.4-0.25-2.1c-0.36-3.03-0.95-3.21,2.01-5.07c2.93-1.84,1.97-1.28,4.49-0.91
			c0.66,0.1,1.23,0.21,1.9,0.1c0.85-0.13,1.58-0.45,2.28-0.94c2.07-1.45,3-4.16,3.24-6.56c0.62-6.18-4.09-11.94-10.51-11.02
			c0.25,0.43,0.5,0.85,0.74,1.28c4.82-4.43,3.09-13.11-2.5-16.13c-5.23-2.82-18.67-0.26-17.81,7.46c0.5-0.07,1-0.14,1.5-0.2
			c-1.44-8.55-11.1-15.42-18.85-9.19c-3.28,2.64-5.27,6.95-5.3,11.15c-0.04,6.08,4.43,10.9,6.02,16.53
			c0.31-0.31,0.63-0.63,0.94-0.94c-5.71-0.93-12.05-0.21-16.1,4.39c-3.05,3.46-4.08,8.92-2.38,13.24c2.26,5.74,8.29,6.2,13.7,5.87
			c5.58-0.33,10.99-1.63,13.98-6.74C184.72,1370.27,183.4,1369.5,182.9,1370.35L182.9,1370.35z"/>
	</g>
</g>
<circle class="st460" cx="220.85" cy="1303.12" r="13.26"/>
<circle class="st460" cx="188.78" cy="1354.2" r="9.31"/>
<circle class="st460" cx="262.15" cy="1352.98" r="9.31"/>
<path class="st3" d="M178.68,1386.49h82.31v48.65c0,18.59-15.07,33.66-33.66,33.66h-15c-18.59,0-33.66-15.07-33.66-33.66V1386.49z"
	/>
<g>
	<rect x="1414.77" y="1082.63" class="st461" width="272.68" height="14.21"/>
	<path class="st448" d="M1519.11,1143.95l-14.82-8.44c-26.28-6.31-34.5,20.52-36.96,19.73v1.58c0-15.47-16.1-59.99,0-59.99
		l179.87-1.58c16.1,0,9.86,48.15,0,59.99l-15.61-15c-9.37-6.4-20.05-9.59-28.75-2.37c-4.53,3.76-6.58,8.6-14.78,9.47
		c-14.78,1.58-27.1-21.31-29.57-21.31c-2.16,0-15.26,17.48-23.47,19.81C1529.68,1147.38,1523.91,1146.68,1519.11,1143.95z"/>
	<path class="st461" d="M1661.84,1176.56h-9.57c-2.8,0-5.07-2.27-5.07-5.07v-71.15c0-2.8,2.27-5.07,5.07-5.07h9.57
		c2.8,0,5.07,2.27,5.07,5.07v71.15C1666.91,1174.28,1664.64,1176.56,1661.84,1176.56z"/>
	<path class="st461" d="M1462.67,1176.56h-10.39c-2.57,0-4.66-2.01-4.66-4.48v-72.34c0-2.47,2.09-4.48,4.66-4.48h10.39
		c2.57,0,4.66,2.01,4.66,4.48v56.94v15.4C1467.33,1174.55,1465.24,1176.56,1462.67,1176.56z"/>
	<polygon class="st462" points="1465.21,1083.49 1444.1,1072.88 1481.77,1003.64 1502.88,1014.24 	"/>
	<polygon class="st463" points="1517.44,1084.12 1494.09,1079.63 1510.03,1003.01 1533.39,1007.49 	"/>
	<polygon class="st464" points="1548.58,1084.22 1526.08,1076.7 1552.82,1002.9 1575.31,1010.43 	"/>
	<rect x="1574.93" y="1004.49" class="st465" width="23.82" height="78.14"/>
	<rect x="1598.74" y="1004.49" class="st466" width="23.82" height="78.14"/>
	<rect x="1622.56" y="1004.49" class="st467" width="23.82" height="78.14"/>
</g>
<g>
	<rect x="415.14" y="1675.78" class="st468" width="297.67" height="25.49"/>
	<rect x="407.56" y="1721.94" class="st468" width="305.25" height="12.4"/>
	
		<rect x="352.07" y="1713.47" transform="matrix(0.2749 -0.9615 0.9615 0.2749 -1360.1785 1640.049)" class="st468" width="110.27" height="16.61"/>
	
		<rect x="662.83" y="1720.36" transform="matrix(-0.2195 -0.9756 0.9756 -0.2195 -810.9717 2808.5293)" class="st468" width="110.27" height="16.61"/>
	<ellipse class="st443" cx="564.32" cy="1671.64" rx="192.59" ry="17.23"/>
</g>
<polygon class="st449" points="564.93,1654.67 371.73,1671.78 564.93,1688.9 756.91,1671.78 "/>
<g>
	<path class="st449" d="M1813.47,1790.39h-30.52c-32.56,0-58.96-26.4-58.96-58.96v-81.26h150.36v79.33
		C1874.36,1763.13,1847.1,1790.39,1813.47,1790.39z"/>
	<ellipse class="st461" cx="1799.18" cy="1650.64" rx="75.18" ry="20.76"/>
	<path class="st463" d="M1788.74,1672.32l2.24-62.65l-2.24-62.65v-33.56l-15.66-26.85l-21.2-40.28c-0.78-1.48-1.76-2.85-2.91-4.07
		l-36.3-38.44l36.08,8.02c2.71,0.6,5.1,2.16,6.74,4.4l20.48,27.93c1.05,1.43,1.9,3.01,2.53,4.67l19.2,51.19l-4.47,46.99v42.51v44.75
		v38.04H1788.74z"/>
	<path class="st463" d="M1798.72,1671.11h6.71v-55.94v-46.99l8.95-98.45l38.04-35.8l44.75-38.04l6.71-6.71l-22.72,8.26
		c-1.26,0.46-2.47,1.05-3.6,1.77l-38.64,24.59c-5.82,3.71-10.61,8.83-13.92,14.89l-8.39,15.37l-6.71,17.9l-4.47,44.75l-2.24,40.27
		l-2.24,60.41L1798.72,1671.11z"/>
	<path class="st5" d="M1789.05,1564.74l-32.54-16.5c-3.18-1.61-6.14-3.6-8.83-5.94l-29.51-25.58l46.99,13.42l-11.19-17.9
		l-17.9-24.61l-29.09-26.85l-13.42-17.9l24.63,2.05c1.45,0.12,2.85,0.62,4.05,1.45l24.47,16.94c1.84,1.28,3.44,2.88,4.71,4.73
		l20.71,30.12c1.31,1.91,2.35,3.99,3.08,6.19l7.85,23.54l4.47,17.9"/>
	<polygon class="st5" points="1798.72,1671.11 1800.96,1568.19 1800.96,1518.97 1800.96,1480.93 1825.57,1427.23 1839,1395.91 
		1852.42,1375.77 1870.32,1351.16 1841.23,1364.58 1818.86,1391.43 1800.96,1436.18 1796.48,1469.74 1796.48,1527.92 
		1796.48,1659.92 	"/>
	<polygon class="st5" points="1792.01,1458.55 1778.58,1440.66 1753.97,1417.6 1740.55,1389.19 1722.65,1348.92 1767.4,1384.72 
		1785.3,1402.62 1794.25,1433.94 1796.48,1461.85 	"/>
	<polygon class="st5" points="1812.84,1486.72 1852.42,1456.32 1888.22,1431.71 1859.13,1471.98 1850.18,1487.64 1836.76,1498.83 
		1809.58,1522.59 	"/>
	<polygon class="st5" points="1809.91,1583.85 1825.57,1563.71 1845.71,1554.76 1861.37,1552.53 1841.23,1572.66 1823.33,1592.8 
		1812.15,1599.51 1805.43,1597.4 	"/>
	<path class="st463" d="M1807.18,1547.82l11.8-9.82c1.79-0.7,3.45-1.69,4.92-2.93l12.97-10.97c0.35-0.3,0.7-0.61,1.03-0.93l7.8-7.47
		l15.66-15.66l8.95-6.71l-9.62,28.86c-2.47,7.4-7.33,13.76-13.81,18.08l-10.13,6.75l-13.01,8.67c-4.54,3.03-10.15,4-15.44,2.68
		l-3.54-0.88L1807.18,1547.82z"/>
	<path class="st463" d="M1789.95,1578.5l-20.14-10.31l-23.22-8.44c-0.92-0.33-1.89-0.5-2.87-0.5h-9.71l14.27,16.31
		c0.92,1.05,2.06,1.88,3.34,2.43l13.72,5.88l13.42,2.24h11.19V1578.5z"/>
</g>
<g>
	<path class="st518" d="M331.46,500.55l-7.07,0.11c-0.37,0-0.56-0.2-0.56-0.61v-4.29c0-0.33,0.04-0.54,0.11-0.61
		c0.06-0.06,0.2-0.08,0.45-0.08l7.07,0.11h14.5v-5.57h-7.32l-7.99,0.11c-0.3,0-0.47-0.04-0.53-0.11c-0.06-0.07-0.08-0.25-0.08-0.53
		l0.11-6.01v-12.16l-0.11-6.01c0-0.32,0.04-0.5,0.11-0.56c0.07-0.06,0.24-0.08,0.5-0.08l7.99,0.11h21.4l7.96-0.11
		c0.32,0,0.5,0.04,0.56,0.11c0.06,0.07,0.08,0.25,0.08,0.53l-0.11,6.01v12.16l0.11,6.01c0,0.3-0.03,0.48-0.1,0.54
		s-0.25,0.1-0.54,0.1l-7.96-0.11h-7.93v5.57h15.28l7.07-0.11c0.28,0,0.45,0.05,0.5,0.14c0.06,0.07,0.08,0.26,0.08,0.56v4.29
		c0,0.41-0.19,0.61-0.58,0.61l-7.07-0.11h-15.28v5.18l0.11,7.77c0,0.3-0.04,0.47-0.11,0.53c-0.07,0.06-0.24,0.08-0.5,0.08h-5.15
		c-0.3,0-0.47-0.04-0.53-0.11c-0.06-0.07-0.08-0.24-0.08-0.5l0.11-7.77v-5.18H331.46z M362.61,469.55h-26.58v4.84h26.58V469.55z
		 M362.61,484.49v-5.09h-26.58v5.09H362.61z"/>
	<path class="st518" d="M395.62,462.31c1.39,1.3,2.48,2.44,3.26,3.42c0.33,0.41,0.5,0.75,0.5,1.03c0,0.46-0.32,0.7-0.97,0.7
		c-0.24,0-0.83,0.17-1.75,0.5c-0.06,0.02-0.56,0.21-1.5,0.58c-0.52,0.2-0.97,0.37-1.36,0.5v8.49l4.79-0.11
		c0.3,0,0.48,0.04,0.56,0.11c0.06,0.07,0.08,0.25,0.08,0.53v3.98c0,0.32-0.05,0.5-0.14,0.56c-0.06,0.06-0.22,0.08-0.5,0.08
		c-0.02,0-0.46-0.02-1.31-0.06c-0.89-0.02-1.9-0.04-3.03-0.06c1.69,2.97,3.61,5.4,5.76,7.29c-0.74,1.08-1.4,2.46-1.98,4.15
		c-0.24,0.65-0.44,0.97-0.58,0.97c-0.15,0-0.44-0.31-0.86-0.92c-1.26-1.87-2.25-3.58-2.95-5.12c0.02,5.97,0.09,11.95,0.22,17.92
		c0.04,1.3,0.08,2.97,0.14,5.01c0.02,0.91,0.03,1.44,0.03,1.59c0,0.3-0.05,0.47-0.14,0.53c-0.07,0.06-0.25,0.08-0.53,0.08h-4.65
		c-0.3,0-0.47-0.04-0.53-0.11c-0.06-0.07-0.08-0.24-0.08-0.5c0-0.09,0.03-1.29,0.08-3.59c0.19-6.74,0.29-13.16,0.31-19.29
		c-1.45,4.56-3.33,8.5-5.65,11.8c-0.43,0.61-0.72,0.92-0.89,0.92c-0.2,0-0.4-0.32-0.58-0.97c-0.5-1.73-1.12-3.21-1.86-4.45
		c3.52-4.19,6.18-9.3,7.96-15.31h-0.72l-5.54,0.11c-0.3,0-0.47-0.04-0.53-0.11c-0.06-0.07-0.08-0.25-0.08-0.53v-3.98
		c0-0.32,0.04-0.5,0.11-0.56c0.06-0.06,0.22-0.08,0.5-0.08l5.54,0.11h1.53v-6.76c-0.61,0.17-1.79,0.46-3.53,0.89
		c-0.61,0.13-1.01,0.19-1.2,0.19c-0.32,0-0.55-0.13-0.7-0.39c-0.11-0.15-0.28-0.54-0.5-1.17c-0.58-1.35-1.16-2.44-1.75-3.26
		c4.66-0.72,8.87-1.85,12.64-3.4C394.03,463.29,394.84,462.85,395.62,462.31z M426.32,461.86c1.45,1.04,2.73,2.18,3.84,3.42
		c0.33,0.39,0.5,0.77,0.5,1.14c0,0.45-0.31,0.67-0.92,0.67c-0.37,0-1.35,0.19-2.95,0.56c-6.98,1.86-14.84,3.11-23.6,3.76
		c-0.43,0.04-0.71,0.06-0.83,0.06c-0.45,0-0.75-0.13-0.92-0.39c-0.11-0.17-0.27-0.62-0.47-1.36c-0.39-1.09-0.9-2.21-1.53-3.34
		c8.2-0.32,15.63-1.27,22.29-2.87C423.73,463.04,425.26,462.5,426.32,461.86z M405.25,472.91c1.24,1.76,2.38,4.03,3.4,6.79
		c0.09,0.24,0.14,0.4,0.14,0.47c0,0.17-0.23,0.35-0.7,0.56l-3.42,1.31c-0.37,0.13-0.61,0.19-0.72,0.19c-0.15,0-0.27-0.15-0.36-0.45
		c-0.95-2.76-2.01-5.11-3.2-7.04c-0.13-0.2-0.19-0.35-0.19-0.45c0-0.15,0.22-0.31,0.67-0.47l3.15-1.14c0.35-0.13,0.58-0.19,0.7-0.19
		C404.88,472.5,405.06,472.64,405.25,472.91z M400.18,483.63c2.39,0.07,4.22,0.23,5.48,0.47c0.61,0.06,0.92,0.26,0.92,0.61
		c0,0.15-0.06,0.38-0.17,0.7c-0.13,0.32-0.21,0.54-0.25,0.67c-0.15,0.72-0.22,2.53-0.22,5.43v14.7l0.11,7.18
		c0,0.3-0.04,0.48-0.11,0.56c-0.09,0.06-0.29,0.08-0.58,0.08h-4.29c-0.3,0-0.47-0.04-0.53-0.11c-0.06-0.07-0.08-0.25-0.08-0.53
		l0.11-7.18v-14.64C400.57,488.35,400.44,485.71,400.18,483.63z M414.54,514.02h-4.06c-0.3,0-0.47-0.04-0.53-0.11
		c-0.06-0.07-0.08-0.24-0.08-0.5l0.11-12.44v-7.01l-0.11-9.3c0-0.3,0.04-0.47,0.11-0.53c0.07-0.06,0.25-0.08,0.53-0.08l5.96,0.11
		h7.21l5.98-0.11c0.3,0,0.47,0.04,0.53,0.11c0.06,0.07,0.08,0.24,0.08,0.5l-0.11,8.27v7.82l0.11,12.41c0,0.39-0.2,0.58-0.61,0.58
		h-4.17c-0.37,0-0.56-0.19-0.56-0.58v-1.75h-9.77v2c0,0.3-0.04,0.47-0.11,0.53C414.97,513.99,414.8,514.02,414.54,514.02z
		 M416.02,471.88c0.98,1.69,1.91,3.95,2.78,6.79c0.07,0.17,0.11,0.3,0.11,0.39c0,0.2-0.24,0.38-0.72,0.53l-3.48,1.25
		c-0.33,0.11-0.56,0.17-0.67,0.17c-0.15,0-0.27-0.19-0.36-0.58c-0.78-2.76-1.63-5.02-2.56-6.76c-0.11-0.19-0.17-0.33-0.17-0.45
		c0-0.19,0.22-0.34,0.67-0.47l3.2-1.09c0.33-0.11,0.56-0.17,0.67-0.17C415.66,471.49,415.83,471.62,416.02,471.88z M415.16,489.17
		v5.98h9.77v-5.98H415.16z M415.16,506.4h9.77v-6.35h-9.77V506.4z M420.39,481.12c1.85-2.75,3.32-5.58,4.4-8.49
		c0.33-1.09,0.6-2.18,0.81-3.26c1.84,0.5,3.49,1.1,4.95,1.78c0.57,0.28,0.86,0.58,0.86,0.89c0,0.37-0.17,0.68-0.5,0.92
		c-0.48,0.41-0.9,0.97-1.25,1.7c-0.98,2.15-2.25,4.42-3.79,6.79c-0.56,0.83-0.96,1.25-1.2,1.25c-0.13,0-0.6-0.19-1.42-0.56
		C422.42,481.73,421.46,481.38,420.39,481.12z"/>
	<path class="st518" d="M446.3,512.83h-4.93c-0.28,0-0.45-0.03-0.52-0.1c-0.06-0.07-0.1-0.24-0.1-0.52l0.11-20.29v-10.97
		l-0.11-14.95c0-0.3,0.04-0.47,0.11-0.53c0.07-0.06,0.25-0.08,0.53-0.08l7.74,0.11h28.72l7.77-0.11c0.3,0,0.47,0.04,0.53,0.11
		c0.06,0.07,0.08,0.24,0.08,0.5l-0.11,13.25v12.66l0.11,20.23c0,0.3-0.04,0.47-0.11,0.53c-0.07,0.06-0.24,0.08-0.5,0.08h-4.9
		c-0.32,0-0.5-0.04-0.56-0.11c-0.06-0.07-0.08-0.24-0.08-0.5v-3.15h-33.18v3.2c0,0.3-0.04,0.47-0.11,0.53
		C446.73,512.8,446.56,512.83,446.3,512.83z M446.91,470.94v13.44h13.39v-13.44H446.91z M446.91,503.58h13.39v-13.83h-13.39V503.58z
		 M480.09,470.94h-13.92v13.44h13.92V470.94z M466.17,503.58h13.92v-13.83h-13.92V503.58z"/>
	<path class="st518" d="M547.61,486.69c-0.74,0.87-1.46,2.19-2.14,3.95c-0.33,1.02-0.66,1.53-0.97,1.53c-0.11,0-0.53-0.13-1.25-0.39
		c-4.53-2.08-8.6-4.95-12.22-8.63v4.01c0,0.3-0.04,0.47-0.11,0.53c-0.07,0.06-0.26,0.08-0.56,0.08l-5.71-0.11h-7.82l-5.68,0.11
		c-0.3,0-0.48-0.04-0.56-0.11c-0.06-0.07-0.08-0.24-0.08-0.5v-2.45c-3.45,3.04-7.55,5.69-12.3,7.93c-0.74,0.3-1.2,0.45-1.36,0.45
		c-0.26,0-0.6-0.45-1.03-1.36c-0.58-1.17-1.28-2.22-2.12-3.15c3.19-1.19,6.11-2.63,8.77-4.34c-0.93-1.19-1.95-2.3-3.06-3.34
		c-0.19-0.19-0.28-0.33-0.28-0.45c0-0.15,0.17-0.34,0.5-0.58l2.06-1.53c0.28-0.22,0.46-0.33,0.56-0.33c0.15,0,0.34,0.11,0.58,0.33
		c1.19,0.95,2.26,2,3.23,3.17c0.96-0.78,1.85-1.6,2.64-2.45c-0.96-1.09-2.01-2.15-3.15-3.17c-0.19-0.17-0.28-0.31-0.28-0.42
		c0-0.13,0.17-0.33,0.5-0.61l1.84-1.56c0.28-0.24,0.49-0.36,0.64-0.36c0.13,0,0.32,0.08,0.56,0.25c1.11,0.83,2.06,1.68,2.84,2.53
		c1.3-1.71,2.38-3.39,3.26-5.04h-7.18c-2.69,3.3-5.75,6.21-9.18,8.71c-0.74,0.5-1.18,0.75-1.31,0.75c-0.22,0-0.58-0.42-1.09-1.25
		c-0.59-0.95-1.34-1.8-2.23-2.56c4.81-2.76,8.72-6.54,11.75-11.33c0.52-0.85,1.05-2.05,1.59-3.59c1.69,0.28,3.32,0.63,4.9,1.06
		c0.54,0.17,0.81,0.4,0.81,0.7c0,0.15-0.2,0.44-0.61,0.86c-0.26,0.24-0.71,0.93-1.36,2.06h4.73c0.85,0,1.36-0.06,1.53-0.19
		c0.45-0.15,0.71-0.22,0.78-0.22c0.46,0,1.21,0.51,2.23,1.53c0.5,0.5,0.83,0.84,0.97,1.03c-0.56-1.45-0.99-2.76-1.31-3.92
		c-0.06-0.19-0.08-0.32-0.08-0.42c0-0.22,0.18-0.37,0.53-0.45l3.73-0.83c0.22-0.06,0.38-0.08,0.47-0.08c0.22,0,0.38,0.18,0.47,0.53
		c1.58,5.14,3.99,9.58,7.24,13.33c1.93-1.85,3.63-3.94,5.09-6.26h-2.92l-4.9,0.11c-0.3,0-0.47-0.04-0.53-0.11
		c-0.06-0.07-0.08-0.25-0.08-0.53v-3.51c0-0.33,0.04-0.54,0.11-0.61c0.07-0.06,0.24-0.08,0.5-0.08l4.9,0.11h4.12
		c0.65,0,1.12-0.06,1.42-0.17c0.3-0.15,0.55-0.22,0.75-0.22c0.56,0,1.37,0.53,2.45,1.59c1.06,1,1.59,1.74,1.59,2.23
		c0,0.35-0.23,0.7-0.7,1.03c-0.11,0.07-0.75,0.91-1.92,2.5c-1.71,2.5-3.78,5.03-6.21,7.57C539.32,482.88,543.21,485.1,547.61,486.69
		z M507.14,498.91c0.96,0.39,2.54,1.22,4.73,2.5c0.46,0.22,0.7,0.53,0.7,0.92c0,0.32-0.25,0.62-0.75,0.92
		c-0.35,0.17-0.83,0.58-1.42,1.25c-2.32,2.65-5.34,4.95-9.07,6.9c-0.56,0.33-0.97,0.5-1.25,0.5c-0.33,0-0.75-0.42-1.25-1.25
		c-0.8-1.32-1.67-2.35-2.62-3.09c3.62-1.58,6.66-3.57,9.13-5.98C506.09,500.82,506.7,499.93,507.14,498.91z M508.11,497.27
		l-7.82,0.11c-0.3,0-0.47-0.04-0.53-0.11c-0.06-0.07-0.08-0.24-0.08-0.5v-4.01c0-0.3,0.04-0.47,0.11-0.53
		c0.07-0.06,0.24-0.08,0.5-0.08l7.82,0.11h25.63l7.82-0.11c0.3,0,0.47,0.04,0.53,0.11c0.06,0.07,0.08,0.24,0.08,0.5v4.01
		c0,0.28-0.03,0.45-0.1,0.51c-0.07,0.07-0.24,0.1-0.52,0.1l-7.82-0.11h-9.91v4.45l0.17,6.54c0,2.04-0.61,3.49-1.84,4.34
		c-0.98,0.69-3.62,1.03-7.9,1.03c-0.95,0-1.49-0.07-1.64-0.19c-0.17-0.15-0.31-0.58-0.42-1.28c-0.26-1.58-0.71-3.04-1.36-4.4
		c1.54,0.22,3.17,0.33,4.9,0.33c0.93,0,1.54-0.16,1.84-0.47c0.22-0.26,0.33-0.71,0.33-1.34v-9.02H508.11z M521.22,470.41
		c-0.15,0.09-0.93,1.4-2.34,3.92c-1.67,3.04-3.76,5.82-6.26,8.32c0.61,0.04,2.01,0.06,4.2,0.06h7.82l5.82-0.11
		c-3.62-3.79-6.48-8.12-8.6-13C521.81,469.92,521.59,470.19,521.22,470.41z M545.52,506.95c-1.02,1-1.92,2.2-2.7,3.59
		c-0.41,0.8-0.78,1.2-1.11,1.2c-0.28,0-0.71-0.17-1.28-0.5c-4.42-2.38-8.07-5.47-10.97-9.3c-0.15-0.19-0.22-0.32-0.22-0.42
		c0-0.15,0.18-0.33,0.53-0.56l3.03-1.89c0.32-0.19,0.55-0.28,0.7-0.28c0.11,0,0.28,0.11,0.5,0.33
		C536.67,502.01,540.51,504.61,545.52,506.95z"/>
	<path class="st518" d="M550.64,485.86c7.37-4.51,12.86-10.74,16.48-18.7c0.45-0.93,0.84-2.16,1.2-3.7c2.36,0.67,4.23,1.34,5.62,2
		c0.57,0.26,0.86,0.58,0.86,0.97c0,0.32-0.17,0.59-0.5,0.83c-0.45,0.32-0.88,0.91-1.31,1.78c-4.29,8.7-9.87,15.69-16.75,20.96
		c-0.67,0.54-1.1,0.81-1.31,0.81c-0.22,0-0.58-0.42-1.09-1.25C552.77,487.79,551.7,486.56,550.64,485.86z M587.13,491.34
		c4.14,5.12,8.18,11.2,12.13,18.23c0.11,0.2,0.17,0.35,0.17,0.45c0,0.17-0.22,0.38-0.67,0.64l-4.29,2.45
		c-0.32,0.19-0.55,0.28-0.7,0.28c-0.19,0-0.35-0.15-0.5-0.45c-0.56-1.15-1.45-2.89-2.67-5.2c-9.04,1.35-19.04,2.5-30,3.42
		c-0.91,0.09-1.62,0.31-2.14,0.64c-0.37,0.26-0.7,0.39-0.97,0.39c-0.39,0-0.68-0.31-0.86-0.92c-0.5-1.54-0.96-3.55-1.36-6.04
		c0.65,0.02,1.22,0.03,1.73,0.03c1.32,0,2.9-0.05,4.76-0.14l1.61-0.06c3.36-7.33,5.81-13.48,7.35-18.45
		c0.8-2.47,1.31-4.46,1.53-5.98c3.3,0.76,5.33,1.25,6.1,1.48c0.72,0.26,1.09,0.58,1.09,0.97c0,0.32-0.15,0.66-0.45,1.03
		c-0.46,0.48-0.96,1.39-1.5,2.73c-2.54,6.81-4.97,12.72-7.29,17.73c6.09-0.48,11.94-1.04,17.56-1.67c-2.04-3.19-3.98-6-5.82-8.43
		c-0.13-0.17-0.19-0.3-0.19-0.39c0-0.15,0.22-0.36,0.67-0.64l3.59-2.14c0.37-0.2,0.59-0.31,0.67-0.31
		C586.73,490.98,586.89,491.1,587.13,491.34z M604.55,484.94c-0.98,0.78-2.04,2.21-3.17,4.29c-0.45,0.83-0.81,1.25-1.09,1.25
		c-0.19,0-0.58-0.25-1.2-0.75c-8.26-6.27-14.45-14.12-18.59-23.55c-0.07-0.19-0.11-0.32-0.11-0.42c0-0.17,0.23-0.36,0.7-0.58
		l3.81-1.61c0.3-0.13,0.51-0.19,0.64-0.19c0.17,0,0.33,0.17,0.5,0.5c1.99,4.66,4.79,8.95,8.41,12.89
		C597.53,480.09,600.9,482.82,604.55,484.94z"/>
	<path class="st518" d="M617.97,478.34l-7.32,0.11c-0.26,0-0.42-0.03-0.47-0.1c-0.06-0.06-0.08-0.26-0.08-0.6v-4.48
		c0-0.35,0.03-0.56,0.08-0.61s0.21-0.08,0.47-0.08l7.32,0.11h20.46l-0.06-2.34c0-3.06-0.16-5.78-0.47-8.15
		c2.89,0.07,4.96,0.19,6.21,0.33c0.61,0.07,0.92,0.31,0.92,0.7c0,0.09-0.11,0.49-0.33,1.2c-0.2,0.58-0.31,1.76-0.31,3.56
		c0,0.46,0.01,1.2,0.03,2.2v2.5h7.01l7.29-0.11c0.3,0,0.47,0.05,0.53,0.14c0.06,0.07,0.08,0.26,0.08,0.56v4.48
		c0,0.33-0.04,0.54-0.11,0.61c-0.06,0.06-0.22,0.08-0.5,0.08l-7.29-0.11h-6.79c0.43,7.94,1.51,14.44,3.26,19.51
		c1.82,5.62,3.52,8.43,5.12,8.43c1.35,0,2.21-2.78,2.56-8.35c0.8,0.82,2.03,1.68,3.7,2.59c0.69,0.37,1.1,0.64,1.25,0.81
		c0.19,0.19,0.28,0.45,0.28,0.78c0,0.17-0.04,0.53-0.11,1.09c-1.08,6.94-3.37,10.38-6.87,10.33c-4.66-0.06-8.39-4.24-11.19-12.55
		c-1.99-5.71-3.29-13.26-3.92-22.63H617.97z M629.41,490.98h-2.23v11.19c4.32-1.06,8.02-2.12,11.1-3.2
		c-0.11,1.04-0.17,2.24-0.17,3.59c0,0.98-0.08,1.58-0.25,1.78c-0.15,0.17-0.63,0.37-1.45,0.61c-6.74,2.23-13.54,4.07-20.4,5.54
		c-1.17,0.28-1.97,0.57-2.39,0.86c-0.48,0.26-0.83,0.39-1.03,0.39c-0.37,0-0.64-0.25-0.81-0.75c-0.35-1.06-0.84-2.98-1.48-5.76
		c1.54-0.04,3.36-0.26,5.46-0.67l5.48-1.03v-12.55h-1.95l-6.76,0.14c-0.43,0-0.64-0.19-0.64-0.58v-4.26c0-0.33,0.04-0.54,0.11-0.61
		c0.07-0.06,0.25-0.08,0.53-0.08l6.76,0.11h10.1l6.74-0.11c0.32,0,0.51,0.05,0.58,0.14c0.06,0.07,0.08,0.26,0.08,0.56v4.26
		c0,0.28-0.04,0.45-0.11,0.5c-0.09,0.06-0.28,0.08-0.56,0.08L629.41,490.98z M651.42,463.17c1.85,1.5,3.49,3.25,4.9,5.23
		c0.13,0.19,0.19,0.34,0.19,0.47c0,0.19-0.19,0.41-0.58,0.67l-2.7,1.84c-0.33,0.22-0.58,0.33-0.72,0.33c-0.17,0-0.34-0.15-0.53-0.45
		c-1.15-1.93-2.63-3.74-4.45-5.43c-0.19-0.19-0.28-0.33-0.28-0.45c0-0.15,0.18-0.34,0.53-0.58l2.39-1.64
		c0.33-0.22,0.56-0.33,0.67-0.33C651,462.84,651.2,462.95,651.42,463.17z"/>
	<path class="st518" d="M696.34,497.6c1.67,1.67,3.34,3.57,5.01,5.71c0.26,0.32,0.39,0.59,0.39,0.83c0,0.28-0.17,0.58-0.5,0.92
		c-1.41,1.41-2.65,2.53-3.73,3.37c-0.32,0.19-0.56,0.28-0.72,0.28c-0.22,0-0.46-0.17-0.7-0.5c-5.38-6.94-11.48-12.85-18.29-17.73
		c1.89-1.8,3.26-3.07,4.09-3.81c0.26-0.19,0.47-0.28,0.64-0.28c0.13,0,0.4,0.13,0.81,0.39c3.8,2.78,6.49,4.91,8.07,6.37
		c4.21-3.64,8.61-8.12,13.19-13.44l-24.02,0.11c-4.17,0-7.71,0.14-10.6,0.42c-0.56,0-0.89-0.34-1-1.03c-0.35-2.02-0.58-4.05-0.7-6.1
		c2.58,0.26,6.72,0.39,12.41,0.39h23.38c2.41,0,3.99-0.18,4.73-0.53c0.32-0.19,0.58-0.28,0.81-0.28c0.33,0,0.65,0.15,0.95,0.45
		c1.56,1.39,2.93,2.91,4.12,4.56c0.3,0.5,0.45,0.92,0.45,1.25c0,0.48-0.25,0.88-0.75,1.2c-1.43,1.04-2.34,1.76-2.73,2.17
		C706.57,487.94,701.46,493.04,696.34,497.6z"/>
	<path class="st518" d="M754.79,488.72c5.31,3.93,10.57,8.53,15.78,13.78c0.3,0.3,0.45,0.57,0.45,0.81c0,0.24-0.13,0.52-0.39,0.83
		c-1.21,1.47-2.48,2.77-3.81,3.9c-0.24,0.22-0.47,0.33-0.7,0.33s-0.49-0.15-0.81-0.45c-4.29-5.03-9.22-9.74-14.81-14.14
		c-5.96,6.22-12.34,11.23-19.15,15.06c-0.69,0.3-1.12,0.45-1.31,0.45c-0.37,0-0.7-0.17-0.97-0.5c-1.06-1.32-2.65-2.56-4.79-3.73
		c4.58-2.32,8.52-4.71,11.8-7.18c2.67-2,5.43-4.45,8.27-7.35c4.06-4.21,7.64-8.98,10.72-14.31l-14.7,0.06
		c-2.93,0-5.94,0.12-9.02,0.36c-0.37,0.04-0.62-0.29-0.75-0.97c-0.33-1.43-0.5-3.4-0.5-5.93c2.04,0.15,5.25,0.22,9.63,0.22h15.67
		c1.99,0,3.29-0.18,3.92-0.53c0.2-0.15,0.42-0.22,0.64-0.22c0.19,0,0.51,0.15,0.97,0.45c1.22,0.96,2.46,2.3,3.7,4.01
		c0.19,0.32,0.28,0.56,0.28,0.72c0,0.39-0.25,0.77-0.75,1.14c-0.78,0.69-1.48,1.53-2.09,2.53
		C759.95,481.68,757.52,485.23,754.79,488.72z"/>
	<path class="st518" d="M816.6,497.21v-18.65h-19.9c-3.71,0-6.56,0.11-8.54,0.33c-0.58,0-0.86-0.32-0.86-0.97
		c-0.19-1.71-0.28-3.73-0.28-6.07c2.65,0.26,5.83,0.39,9.52,0.39h16.92c1.99,0,4.99-0.07,9.02-0.22c0.76,0,1.14,0.27,1.14,0.81
		c0,0.02,0,0.07,0,0.17l-0.11,8.99v13.64c0,2.69,0.07,6.12,0.22,10.3c0,0.48-0.34,0.75-1.03,0.81c-0.78,0.06-1.61,0.08-2.5,0.08
		s-1.73-0.03-2.5-0.08c-0.5-0.04-0.81-0.11-0.92-0.22s-0.17-0.36-0.17-0.75v-2.28h-19.59c-1.48,0-3.26,0.04-5.32,0.11
		c-2.26,0.07-3.61,0.11-4.04,0.11c-0.48,0-0.75-0.29-0.81-0.86c-0.19-1.63-0.28-3.6-0.28-5.9c2.97,0.19,6.47,0.28,10.49,0.28H816.6z
		"/>
	<path class="st518" d="M844.44,482.71c1.11-0.61,2.62-1.36,4.51-2.25c0.22-0.11,0.43-0.17,0.61-0.17c0.3,0,0.58,0.19,0.86,0.56
		c2.28,2.88,3.91,5.69,4.9,8.43c0.15,0.54,0.22,0.83,0.22,0.86c0,0.24-0.22,0.51-0.67,0.81c-1.19,0.69-2.41,1.27-3.67,1.75
		c-0.19,0.07-0.35,0.11-0.5,0.11c-0.39,0-0.7-0.3-0.92-0.89C848.41,488.42,846.63,485.35,844.44,482.71z M873.86,478.45
		c2.88,0.89,5,1.8,6.37,2.73c0.5,0.37,0.75,0.7,0.75,0.97c0,0.32-0.2,0.66-0.61,1.03c-0.46,0.39-1.04,1.35-1.73,2.89
		c-2.47,5.84-5.33,10.9-8.6,15.17c-3.54,4.53-7.46,8.2-11.75,11.02c-0.56,0.41-1.01,0.61-1.36,0.61c-0.35,0-0.66-0.13-0.92-0.39
		c-1.26-1.02-2.88-1.82-4.84-2.39c3.67-2.43,6.52-4.54,8.54-6.32c1.84-1.63,3.54-3.48,5.12-5.54c3.34-4.34,5.91-8.92,7.71-13.75
		C873.23,482.51,873.67,480.49,873.86,478.45z M855.9,479.82c2.43-1.15,3.95-1.85,4.56-2.09c0.22-0.11,0.42-0.17,0.58-0.17
		c0.32,0,0.61,0.2,0.89,0.61c1.89,2.47,3.36,5.24,4.4,8.32c0.09,0.28,0.14,0.5,0.14,0.67c0,0.32-0.24,0.6-0.72,0.86
		c-1.1,0.63-2.4,1.22-3.92,1.75c-0.15,0.06-0.27,0.08-0.36,0.08c-0.3,0-0.56-0.31-0.78-0.92C859.3,485.36,857.7,482.32,855.9,479.82
		z"/>
	<path class="st518" d="M917.61,480.26c7.16,2.25,13.2,4.83,18.12,7.77c0.5,0.26,0.75,0.58,0.75,0.97c0,0.15-0.04,0.32-0.11,0.5
		c-0.71,1.78-1.52,3.43-2.45,4.95c-0.24,0.43-0.49,0.64-0.75,0.64c-0.22,0-0.44-0.09-0.64-0.28c-5.34-3.43-10.34-5.87-14.97-7.32
		v12.61c0,2.08,0.07,5.8,0.22,11.16c0,0.07,0,0.13,0,0.17c0,0.46-0.34,0.7-1.03,0.7c-0.85,0.06-1.7,0.08-2.53,0.08
		c-0.85,0-1.7-0.03-2.53-0.08c-0.72,0-1.09-0.29-1.09-0.86c0.15-3.67,0.22-7.41,0.22-11.22V472c0-3.47-0.19-6.28-0.56-8.43
		c3.34,0.22,5.71,0.53,7.13,0.92c0.72,0.15,1.09,0.47,1.09,0.97c0,0.32-0.16,0.75-0.47,1.31c-0.26,0.5-0.39,2.28-0.39,5.34V480.26z"
		/>
	<path class="st518" d="M970.43,475.53l-0.72-3.65c-0.56-2.76-1.32-5.14-2.28-7.13c2.3-0.15,4.04-0.22,5.23-0.22
		c0.8,0,1.52,0.03,2.17,0.08c0.76,0.06,1.14,0.33,1.14,0.83l-0.11,1.78c0,0.71,0.07,1.48,0.22,2.31l0.86,4.79l4.68-0.78
		c4.94-0.87,8.33-1.56,10.19-2.06c0.32,0,0.53,0.21,0.64,0.64c0.43,1.39,0.81,3.02,1.14,4.9c0,0.35-0.29,0.56-0.86,0.61
		c-0.65,0.11-2.32,0.39-5.01,0.83c-1.99,0.33-3.49,0.59-4.51,0.78l-5.01,0.89l1.42,7.32l8.27-1.45c3.56-0.59,6.54-1.21,8.93-1.86
		c0.17-0.04,0.31-0.06,0.42-0.06c0.33,0,0.52,0.23,0.56,0.7c0.46,1.63,0.79,3.15,0.97,4.54c0,0.59-0.29,0.92-0.86,0.97
		c-1.28,0.17-4.33,0.66-9.16,1.48l-7.88,1.36l1.31,6.35c0.5,2.32,1.35,5.75,2.53,10.3c0,0.04,0,0.06,0,0.08
		c0,0.2-0.25,0.39-0.75,0.56c-1.54,0.5-3.27,0.9-5.18,1.2c-0.09,0-0.16,0-0.19,0c-0.58,0-0.9-0.23-0.97-0.7
		c-0.07-0.41-0.23-1.29-0.47-2.64c-0.52-3.04-0.96-5.41-1.34-7.1l-1.42-6.74l-7.77,1.39c-3.79,0.67-6.86,1.32-9.24,1.95
		c-0.17,0.06-0.32,0.08-0.47,0.08c-0.39,0-0.67-0.24-0.83-0.72c-0.45-1.3-0.97-3.18-1.59-5.65c2.93-0.33,6.47-0.84,10.6-1.53
		l7.99-1.31l-1.45-7.38l-5.34,0.86c-3.39,0.56-6.22,1.13-8.49,1.73c-0.15,0.04-0.28,0.06-0.39,0.06c-0.3,0-0.53-0.21-0.7-0.64
		c-0.56-1.41-1.09-3.31-1.59-5.71c2.84-0.2,6.22-0.62,10.13-1.25L970.43,475.53z"/>
	<path class="st518" d="M1027.63,491.51l-3.34,0.86c-1.99,0.5-4.08,1.24-6.29,2.23c-0.5,0.19-0.85,0.28-1.03,0.28
		c-0.37,0-0.69-0.27-0.95-0.81c-0.54-0.96-1.21-2.63-2-5.01c1.78-0.22,4.67-0.85,8.66-1.89l3.42-0.92l-1.25-4.79
		c-0.61-2.23-1.39-4.15-2.34-5.76c3.43-0.41,5.65-0.61,6.65-0.61c0.82,0,1.22,0.3,1.22,0.89c0,0.07-0.01,0.16-0.03,0.25
		c-0.06,0.35-0.08,0.72-0.08,1.11c0,0.8,0.15,1.79,0.45,2.98l1.09,4.29l12.36-3.15c1.34-0.33,2.29-0.75,2.87-1.25
		c0.22-0.22,0.45-0.33,0.67-0.33c0.24,0,0.57,0.17,0.97,0.5c1.56,1.17,2.68,2.13,3.37,2.87c0.3,0.3,0.45,0.58,0.45,0.86
		c0,0.33-0.21,0.71-0.64,1.14c-0.35,0.35-0.65,0.75-0.89,1.2c-2.41,4.68-4.56,8.25-6.43,10.72c-0.3,0.33-0.58,0.5-0.86,0.5
		c-0.24,0-0.53-0.09-0.86-0.28c-1.19-0.71-2.71-1.28-4.56-1.73c2.56-2.86,4.57-5.76,6.04-8.71l-10.99,2.89l2.62,10.33
		c0.32,1.13,0.8,2.89,1.45,5.26c0.5,1.8,0.89,3.24,1.17,4.31c0.06,0.2,0.08,0.38,0.08,0.53c0,0.45-0.27,0.78-0.81,1
		c-0.93,0.43-2.18,0.81-3.76,1.14c-0.22,0.06-0.41,0.08-0.56,0.08c-0.45,0-0.73-0.31-0.86-0.92c-0.43-1.93-1.19-5.1-2.28-9.52
		L1027.63,491.51z"/>
	<path class="st518" d="M1071.13,477.95c2.89,0.3,6.39,0.45,10.49,0.45h19.54c1.28,0,2.29-0.21,3.03-0.64
		c0.28-0.22,0.52-0.33,0.72-0.33c0.24,0,0.53,0.13,0.86,0.39c1.52,1.21,2.8,2.38,3.84,3.53c0.37,0.39,0.56,0.79,0.56,1.2
		c0,0.41-0.21,0.77-0.64,1.09c-0.71,0.59-1.35,1.48-1.92,2.67c-3.04,6.48-6.51,11.72-10.41,15.73c-3.43,3.54-7.72,6.71-12.86,9.49
		c-0.54,0.26-0.92,0.39-1.14,0.39c-0.37,0-0.79-0.22-1.25-0.67c-1.22-1.1-2.99-2.09-5.29-2.98c6.01-2.78,11.08-6.24,15.2-10.38
		c3.99-4.01,6.9-8.47,8.74-13.39l-19.46,0.06c-3.17,0-6.02,0.07-8.54,0.22c-0.45,0-0.72-0.36-0.83-1.09
		C1071.58,482.94,1071.37,481.03,1071.13,477.95z M1076.08,465.79c2.71,0.26,5.83,0.39,9.35,0.39h10.27c2.3,0,5.28-0.09,8.93-0.28
		c0.46,0,0.7,0.3,0.7,0.89c0.06,0.74,0.08,1.48,0.08,2.23c0,0.76-0.03,1.5-0.08,2.23c0,0.76-0.27,1.14-0.81,1.14
		c-0.04,0-0.11,0-0.22,0l-8.04-0.11h-11.27c-3.12,0-5.72,0.07-7.82,0.22c-0.48,0-0.75-0.42-0.81-1.25
		C1076.18,469.93,1076.08,468.11,1076.08,465.79z"/>
	<path class="st518" d="M1147.64,473.14l10.24-0.22c1.26-0.04,2.22-0.27,2.87-0.7c0.19-0.15,0.43-0.22,0.72-0.22
		c0.28,0,0.58,0.11,0.92,0.33c1.3,0.83,2.59,1.86,3.87,3.09c0.5,0.45,0.75,0.88,0.75,1.31c0,0.41-0.23,0.81-0.7,1.2
		c-0.71,0.56-1.33,1.37-1.87,2.45c-3.58,7.27-7.35,13.15-11.3,17.62c-2.6,2.93-5.59,5.76-8.99,8.49c-2.91,2.34-5.69,4.24-8.32,5.71
		c-0.3,0.19-0.6,0.28-0.92,0.28c-0.41,0-0.84-0.2-1.31-0.61c-1.43-1.13-3.24-2-5.43-2.62c4.62-2.56,8.4-4.99,11.33-7.29
		c2.43-1.95,4.98-4.37,7.65-7.26c2.45-2.71,4.45-5.29,6.01-7.74c1.45-2.26,2.96-5.07,4.54-8.43l-13.8,0.39
		c-4.56,5.66-8.16,9.56-10.77,11.69c-0.41,0.43-0.81,0.64-1.2,0.64c-0.28,0-0.56-0.11-0.83-0.33c-1.73-1.24-3.55-2.07-5.48-2.48
		c6.36-5.19,11.48-10.84,15.33-16.92c1.74-2.97,2.87-5.54,3.37-7.71c3.23,1.15,5.45,2.16,6.65,3.03c0.39,0.28,0.58,0.6,0.58,0.97
		c0,0.39-0.21,0.71-0.64,0.97c-0.24,0.15-0.71,0.66-1.42,1.53C1149.1,470.95,1148.47,471.89,1147.64,473.14z"/>
	<path class="st518" d="M1213.96,492.42c2.49,2,4.54,3.92,6.15,5.73c0.22,0.24,0.33,0.51,0.33,0.81c0,0.26-0.11,0.51-0.33,0.75
		c-1.17,1.41-2.35,2.61-3.53,3.59c-0.26,0.19-0.49,0.28-0.7,0.28c-0.19,0-0.39-0.11-0.61-0.33c-1.56-1.82-3.41-3.66-5.54-5.54
		c-5.44,5.86-11.49,10.61-18.17,14.25c-0.61,0.33-1.09,0.5-1.42,0.5s-0.7-0.17-1.09-0.5c-1.5-1.22-3.31-2.19-5.43-2.89
		c4.75-2.43,8.77-4.88,12.05-7.35c2.97-2.24,5.95-4.94,8.93-8.1c-2.41-1.97-5.15-3.76-8.21-5.37c2.28-2.49,3.54-3.84,3.76-4.06
		c0.26-0.26,0.51-0.39,0.75-0.39c0.07,0,0.26,0.07,0.56,0.22c1.63,0.78,4.08,2.3,7.35,4.56c2.52-3.25,4.75-7,6.68-11.27l-14.14,0.28
		c-4.55,5.81-8.61,10.08-12.19,12.83c-0.48,0.33-0.86,0.5-1.14,0.5c-0.35,0-0.66-0.13-0.92-0.39c-1.34-0.96-2.93-1.84-4.79-2.62
		c4.03-3.19,7.39-6.37,10.1-9.55c2.1-2.41,4.11-5.19,6.04-8.35c1.63-2.78,2.65-5.12,3.06-7.01c3.45,1.21,5.68,2.13,6.68,2.78
		c0.41,0.2,0.61,0.51,0.61,0.92c0,0.43-0.23,0.81-0.7,1.14c-0.43,0.28-0.82,0.68-1.17,1.2c-0.45,0.78-1.04,1.73-1.78,2.84
		l10.05-0.22c1.22-0.04,2.26-0.32,3.12-0.86c0.39-0.26,0.71-0.39,0.97-0.39s0.6,0.15,1.03,0.45c1.21,0.72,2.51,1.88,3.9,3.48
		c0.3,0.32,0.45,0.66,0.45,1.03c0,0.35-0.21,0.71-0.64,1.09c-0.72,0.65-1.29,1.37-1.7,2.17
		C1219.54,484.15,1216.75,488.75,1213.96,492.42z"/>
	<path class="st518" d="M1238.98,484.55c2.97,0.46,7.07,0.7,12.3,0.7h18.37c1.8,0,4.12-0.03,6.96-0.08
		c3.62-0.06,5.67-0.09,6.15-0.11c0.09,0,0.19,0,0.28,0c0.5,0,0.75,0.27,0.75,0.81c0.06,0.87,0.08,1.77,0.08,2.7
		c0,0.91-0.03,1.8-0.08,2.67c0,0.58-0.27,0.86-0.81,0.86h-0.22c-5.7-0.07-9.94-0.11-12.72-0.11h-20.51l-8.38,0.7
		c-0.72,0-1.16-0.4-1.31-1.2C1239.51,489.98,1239.22,487.67,1238.98,484.55z"/>
</g>
<g>
	<path class="st22" d="M352.63,549.55c7.85,0.83,13.02,1.59,15.51,2.29c1.92,0.52,2.88,1.46,2.88,2.81c0,0.48-0.15,1.11-0.46,1.9
		c-0.57,1.4-1,3.32-1.31,5.76c-0.04,0.92-0.15,2.73-0.33,5.43c-0.13,2.4-0.26,4.6-0.39,6.61l1.11-0.39
		c0.35-0.17,0.65-0.26,0.92-0.26c1,0,2.2,1.03,3.6,3.08c1.44,1.92,2.16,3.32,2.16,4.19c0,0.74-0.76,1.99-2.29,3.73
		c-2.66,3.4-5.02,6.61-7.07,9.62v4.19c12.69-10.47,25.52-15.7,38.47-15.7c10.77,0,19.24,3.56,25.39,10.67
		c5.32,6.11,7.98,13.89,7.98,23.36c0,20.2-11.89,34.59-35.66,43.18c-0.7,0.35-1.46,0.52-2.29,0.52c-1.35,0-2.51-0.63-3.47-1.9
		c-2.84-3.36-6.37-6.3-10.6-8.83c11.04-2.97,20.02-7.39,26.96-13.28c6.06-5.41,9.09-12.15,9.09-20.22c0-6.85-1.96-12.1-5.89-15.77
		c-3.49-3.31-8.18-4.97-14.07-4.97c-6.28,0-12.56,1.66-18.84,4.97c-4.97,2.62-10.67,6.67-17.08,12.17
		c0.04,6.8,0.17,15.81,0.39,27.02c0.22,12.26,0.35,20.39,0.39,24.41c0,1.09-0.59,1.64-1.77,1.64c-3.93,0.35-7.9,0.52-11.91,0.52
		c-1,0-1.5-0.48-1.5-1.44c0-0.13,0-0.28,0-0.46c0.13-10.29,0.37-24.1,0.72-41.42c-6.06,9.07-12.1,17.93-18.12,26.56
		c-0.74,0.87-1.35,1.31-1.83,1.31c-0.44,0-0.94-0.26-1.5-0.79c-2.84-2.49-5.56-5.17-8.18-8.05c-0.52-0.39-0.79-0.89-0.79-1.5
		c0-0.52,0.26-1.05,0.79-1.57c12-14.57,21.83-27.11,29.51-37.62c0-4.67,0.04-7.85,0.13-9.55c-7.68,2.4-12.78,4.06-15.31,4.97
		c-0.74,0.31-1.7,0.83-2.88,1.57c-0.74,0.48-1.24,0.72-1.5,0.72c-1,0-1.9-0.81-2.68-2.42c-2.14-4.06-3.93-7.98-5.37-11.78
		c2.92-0.26,5.95-0.72,9.09-1.37c5.8-1.31,12.15-2.9,19.04-4.78c0.17-3.84,0.26-9.66,0.26-17.47
		C353.94,557.14,353.51,553.26,352.63,549.55z"/>
	<path class="st22" d="M532.37,584.49c0.09-4.45,0.13-10.73,0.13-18.84c0-5.8-0.59-10.9-1.77-15.31c8.16,0.96,13.59,1.85,16.29,2.68
		c1.7,0.48,2.55,1.33,2.55,2.55c0,0.7-0.28,1.59-0.85,2.68c-0.83,2.57-1.29,4.58-1.37,6.02c-0.17,5.54-0.35,11.8-0.52,18.78
		c9.12-0.7,17.84-1.2,26.17-1.5c1.05,0,1.57,0.46,1.57,1.37c0.09,2.92,0.13,5.04,0.13,6.35c0,1.61-0.04,3.16-0.13,4.65
		c0,0.87-0.11,1.42-0.33,1.64c-0.22,0.13-0.68,0.2-1.37,0.2c-8.38,0-17.27,0.37-26.7,1.11c-0.44,9.64-0.98,16.51-1.64,20.61
		c-1.4,9.95-7.24,14.92-17.54,14.92c-3.66,0-6.43-0.13-8.31-0.39c-1.79-0.13-2.68-1.29-2.68-3.47c-0.26-4.14-1.24-8.18-2.94-12.1
		c3.93,1.09,7.72,1.64,11.38,1.64c2.05,0,3.53-0.44,4.45-1.31c0.92-0.87,1.53-2.36,1.83-4.45c0.48-3.71,0.81-8.46,0.98-14.26
		c-11.08,0.83-21.98,2.09-32.71,3.79c-0.09,8.2-0.13,13.59-0.13,16.16c0,5.71,0.11,10.4,0.33,14.07c0.44,5.85,2.05,9.53,4.84,11.06
		c2.53,1.4,7.63,2.09,15.31,2.09c11.08,0,22.64-0.89,34.68-2.68c0.3,0,0.57,0,0.79,0c1.09,0,1.72,0.59,1.9,1.77
		c0.57,2.79,0.85,6.54,0.85,11.25c0,1.44-0.59,2.22-1.77,2.36c-8.86,1.35-20.07,2.03-33.63,2.03c-14.22,0-23.86-1.92-28.92-5.76
		c-4.36-3.31-6.91-9.12-7.66-17.4c-0.61-6.76-0.92-17.67-0.92-32.71c-5.41,0.74-10.82,1.7-16.23,2.88c-2.62,0.7-4.62,1.35-6.02,1.96
		c-0.52,0.26-1,0.39-1.44,0.39c-0.83,0-1.53-0.61-2.09-1.83c-1.7-3.58-2.94-8.05-3.73-13.41c3.14,0,7.92-0.46,14.33-1.37
		c1.44-0.17,3.99-0.59,7.66-1.24s6.17-1.09,7.52-1.31v-14.33c-0.22-5.41-0.85-10.14-1.9-14.2c6.59,0.52,11.95,1.29,16.1,2.29
		c1.88,0.35,2.81,1.29,2.81,2.81c0,0.65-0.28,1.59-0.85,2.81c-0.74,1.92-1.18,3.88-1.31,5.89c-0.04,1.18-0.09,3.32-0.13,6.41
		c-0.04,2.92-0.09,5.08-0.13,6.48C501.88,587.94,512.91,586.67,532.37,584.49z"/>
	<path class="st22" d="M641.64,575c5.54-1,11.89-2.51,19.04-4.51c0.26-0.09,0.5-0.13,0.72-0.13c0.83,0,1.29,0.48,1.37,1.44
		c0.52,3.58,0.85,6.78,0.98,9.62c0,0.22,0,0.42,0,0.59c0,1-0.68,1.66-2.03,1.96c-7.68,2.14-15.44,3.84-23.29,5.1
		c-8.86,28.88-17.03,53.04-24.54,72.5c-0.39,1.05-0.94,1.57-1.64,1.57c-0.26,0-0.7-0.09-1.31-0.26c-4.58-1.83-8.16-3.49-10.73-4.97
		c-0.83-0.48-1.24-1.11-1.24-1.9c0-0.26,0.04-0.52,0.13-0.79c9.38-21.46,17.12-42.62,23.23-63.47c-9.47,1-17.27,1.5-23.42,1.5
		c-1.66,0-2.6-0.72-2.81-2.16c-0.48-2.36-1.11-6.43-1.9-12.24c1.88,0.31,5.19,0.46,9.95,0.46c7.02,0,14.24-0.46,21.66-1.37
		c1.05-4.1,2.18-9.68,3.4-16.75c0.52-4.01,0.79-8.11,0.79-12.3c8.11,1.22,13.72,2.46,16.82,3.73c1,0.35,1.5,1.07,1.5,2.16
		c0,0.79-0.22,1.5-0.65,2.16c-1.7,2.92-2.64,4.69-2.81,5.3c-0.48,1.75-1.09,4.21-1.83,7.39C642.4,572.17,641.94,573.96,641.64,575z
		 M644.06,636.51c5.19-1.35,8.99-2.03,11.38-2.03c1.22,0,1.9,0.63,2.03,1.9c0.52,5.02,2.7,8.46,6.54,10.34
		c3.05,1.53,7.7,2.29,13.94,2.29c5.02,0,12.52-0.63,22.51-1.9c0.17-0.04,0.33-0.07,0.46-0.07c0.7,0,1.09,0.42,1.18,1.24
		c0.7,4.67,1.05,8.57,1.05,11.71c0.04,0.3,0.07,0.52,0.07,0.65c0,0.87-0.72,1.35-2.16,1.44c-6.72,1-12.93,1.5-18.65,1.5
		c-9.16,0-16.27-0.76-21.33-2.29c-4.49-1.35-8.16-3.49-10.99-6.41C646.37,651.14,644.36,645.01,644.06,636.51z M654.53,611.19
		c-0.39-6.32-0.59-10.38-0.59-12.17c0-1,0.17-1.66,0.52-1.96c0.3-0.3,0.94-0.54,1.9-0.72c9.95-2.05,18.65-3.08,26.11-3.08
		c5.23,0,10.47,0.44,15.7,1.31c1.05,0.17,1.68,0.37,1.9,0.59c0.26,0.22,0.39,0.7,0.39,1.44c0.13,1.83,0.2,3.88,0.2,6.15
		c0,1.35-0.02,2.86-0.07,4.51c0,1.7-0.52,2.55-1.57,2.55c-0.31,0-0.63-0.04-0.98-0.13c-5.37-1.05-10.91-1.57-16.62-1.57
		C673.74,608.11,664.78,609.14,654.53,611.19z M677.82,565.78l7.07-4.97c0.3-0.22,0.59-0.33,0.85-0.33c0.3,0,0.7,0.2,1.18,0.59
		c4.58,3.53,8.81,8.31,12.69,14.33c0.26,0.39,0.39,0.72,0.39,0.98c0,0.44-0.24,0.83-0.72,1.18l-5.63,4.12
		c-0.39,0.31-0.74,0.46-1.05,0.46c-0.44,0-0.85-0.28-1.24-0.85C687.18,574.92,682.66,569.75,677.82,565.78z M690.12,556.95
		l6.74-4.84c0.3-0.22,0.59-0.33,0.85-0.33c0.3,0,0.68,0.2,1.11,0.59c5.15,3.88,9.4,8.48,12.76,13.81c0.26,0.39,0.39,0.76,0.39,1.11
		c0,0.44-0.26,0.87-0.79,1.31l-5.37,4.12c-0.39,0.31-0.74,0.46-1.05,0.46c-0.44,0-0.85-0.28-1.24-0.85
		C699.78,566.35,695.31,561.22,690.12,556.95z"/>
	<path class="st22" d="M814.44,583.05h4.71c7.33,0,14.07-0.13,20.22-0.39c0.17,0,0.28,0,0.33,0c0.92,0,1.44,0.72,1.57,2.16
		c0.13,1.7,0.2,3.45,0.2,5.23c0,1.83-0.07,3.6-0.2,5.3c-0.13,1.44-0.72,2.16-1.77,2.16c-0.09,0-0.26,0-0.52,0l-19.3-0.13h-5.5
		c-0.44,10.08-1.55,18.43-3.34,25.06c-1.57,5.67-3.9,11.08-7,16.23c-6.37,10.6-16.9,18.91-31.6,24.93
		c-1.88,0.79-3.14,1.18-3.79,1.18c-0.7,0-1.53-0.5-2.49-1.5c-3.53-3.62-7.24-6.28-11.12-7.98c10.08-3.14,17.99-6.72,23.75-10.73
		c5.06-3.53,9.2-7.87,12.43-13.02c2.75-4.54,4.73-9.62,5.95-15.25c1.05-4.97,1.68-11.28,1.9-18.91h-28.53v4.84
		c0,10.08,0.13,17.47,0.39,22.18c0.09,1.13-0.68,1.77-2.29,1.9c-1.7,0.13-3.6,0.2-5.69,0.2s-4.04-0.07-5.82-0.2
		c-1.61-0.13-2.42-0.65-2.42-1.57c0-0.09,0-0.2,0-0.33c0.48-7.59,0.72-14.9,0.72-21.92v-5.1h-4.06c-7.76,0-15.14,0.22-22.12,0.65
		c-0.92,0-1.44-0.85-1.57-2.55c-0.26-1.4-0.57-5.71-0.92-12.96c6.24,0.44,14.44,0.65,24.6,0.65h4.06v-9.75
		c0-6.94-0.55-13.5-1.64-19.69c8.9,0.83,14.35,1.53,16.36,2.09c1.35,0.26,2.03,0.89,2.03,1.9c0,0.48-0.26,1.42-0.79,2.81
		c-0.65,1.61-0.98,5.91-0.98,12.89v9.75H799l0.13-13.15c0.04-0.61,0.07-1.53,0.07-2.75c0-6.32-0.42-11.52-1.24-15.57
		c8.2,0.87,13.43,1.64,15.7,2.29c1.61,0.35,2.42,1.05,2.42,2.09c0,0.65-0.2,1.46-0.59,2.42c-0.7,1.96-1.05,5.89-1.05,11.78V583.05z"
		/>
	<path class="st22" d="M933.52,589.33v44.36c0,7.85,0.13,17.14,0.39,27.87c0,0.22,0,0.35,0,0.39c0,1.26-0.68,1.9-2.03,1.9
		c-2.18,0.13-4.41,0.2-6.67,0.2c-2.27,0-4.49-0.07-6.67-0.2c-1.27,0-1.9-0.57-1.9-1.7c0-0.09,0-0.24,0-0.46
		c0.04-2.09,0.15-7.04,0.33-14.85c0.13-5.1,0.2-9.31,0.2-12.63v-31.21c-13.48,11.34-25.76,19.91-36.84,25.71
		c-0.61,0.35-1.29,0.52-2.03,0.52c-0.96,0-1.9-0.44-2.81-1.31c-2.53-2.53-6.37-5.17-11.52-7.92c15.83-8.16,29.9-17.32,42.2-27.48
		c10.9-8.94,20.41-18.28,28.53-28c3.93-4.58,6.76-9.18,8.51-13.81c7.07,3.97,12.02,7.11,14.85,9.42c0.7,0.48,1.05,1.13,1.05,1.96
		c0,1.18-0.63,2.16-1.9,2.94c-1.96,1.31-4.62,3.77-7.98,7.39C944.6,577.99,939.36,583.62,933.52,589.33z"/>
	<path class="st22" d="M1062.81,549.94c6.15,3.62,11.08,7.02,14.79,10.21c0.7,0.57,1.05,1.27,1.05,2.09c0,1.18-0.63,2.03-1.9,2.55
		c-2.09,1.09-4.23,2.66-6.41,4.71c-14.7,13.17-26.89,24.78-36.57,34.81c-1.18,1.44-1.77,2.42-1.77,2.94c0,0.7,0.59,1.5,1.77,2.42
		c20.5,14.83,37.12,28.9,49.86,42.2c0.61,0.79,0.92,1.37,0.92,1.77c0,0.44-0.31,0.96-0.92,1.57c-3.58,3.88-6.67,6.98-9.29,9.29
		c-0.83,0.7-1.44,1.05-1.83,1.05s-0.94-0.39-1.64-1.18c-14.96-16.79-31.21-31.89-48.74-45.28c-4.76-3.62-7.13-7.39-7.13-11.32
		c0-2.14,0.65-4.21,1.96-6.22c0.83-1.31,2.36-3.16,4.58-5.56c3.45-3.66,9.49-10.03,18.13-19.11c6.67-6.94,11.99-12.56,15.96-16.88
		C1058.93,556.44,1061.32,553.09,1062.81,549.94z"/>
	<path class="st22" d="M1176.59,551.97c6.8,2.75,11.8,5.23,14.98,7.46c1.26,0.87,1.9,1.81,1.9,2.81c0,0.83-0.5,1.72-1.5,2.68
		c-1.31,1.44-2.68,3.36-4.12,5.76c-10.91,20.94-18.65,35.16-23.23,42.66l0.13,0.26c5.54-4.58,10.99-6.87,16.36-6.87
		c6.98,0,12.06,2.94,15.25,8.83c2.05,3.79,3.49,9.29,4.32,16.49c0.61,5.5,1.48,9.23,2.62,11.19c1.18,2.01,2.9,3.01,5.17,3.01
		c4.41,0,8.61-2.14,12.63-6.41c5.98-6.32,10.47-13.61,13.48-21.85c1.79,4.01,4.38,7.72,7.79,11.12c1,0.87,1.5,1.81,1.5,2.81
		c0,0.83-0.17,1.59-0.52,2.29c-2.71,5.63-6.54,11.17-11.52,16.62c-6.98,7.5-15.2,11.25-24.67,11.25c-7.2,0-12.41-2.27-15.64-6.8
		c-2.79-3.97-4.6-10.38-5.43-19.24c-0.61-6.8-1.75-11.52-3.4-14.13c-1.31-2.09-3.12-3.14-5.43-3.14c-5.54,0-11.17,3.79-16.88,11.38
		c-4.71,6.28-9.95,16.23-15.7,29.84c-0.52,1.22-1.16,1.83-1.9,1.83c-0.35,0-0.79-0.09-1.31-0.26c-4.1-1.66-7.55-3.58-10.34-5.76
		c-0.79-0.52-1.18-1.09-1.18-1.7c0-0.52,0.22-1.16,0.65-1.9c18.23-35.68,31.32-62.57,39.26-80.67
		C1173.47,563.34,1175.72,556.81,1176.59,551.97z"/>
	<path class="st22" d="M1322.01,579.44c-3.06,22.6-8.14,40.11-15.25,52.54c-5.36,9.37-12.29,14.06-20.79,14.06
		c-6.16,0-11.36-3.1-15.61-9.29c-3.97-5.88-5.96-13.22-5.96-22.04c0-11.95,4.59-22.54,13.76-31.75
		c10.4-10.4,23.63-15.61,39.67-15.61c15.29,0,27.2,4.53,35.74,13.58c7.15,7.63,10.72,17.2,10.72,28.71
		c0,22.08-12.53,36.89-37.59,44.44c-0.71,0.2-1.31,0.3-1.79,0.3c-1.19,0-2.34-0.83-3.46-2.5c-1.75-2.74-4.59-5.3-8.52-7.68
		c12.55-2.98,21.68-7.17,27.4-12.57c6.27-5.92,9.41-13.88,9.41-23.89c0-8.14-2.84-15.01-8.52-20.61
		c-5.16-5.12-11.42-7.68-18.76-7.68H1322.01z M1307.83,580.15c-8.7,1.75-15.65,5.44-20.85,11.08c-6.35,7.15-9.53,14.67-9.53,22.58
		c0,5.6,1.01,10.11,3.04,13.52c1.59,2.62,3.34,3.93,5.24,3.93c3.34,0,6.39-2.48,9.17-7.45c2.98-5.44,5.7-12.43,8.16-20.97
		C1305.29,595.1,1306.88,587.54,1307.83,580.15z"/>
	<path class="st22" d="M1399.71,607.91l-16.57,0.25c-0.84,0-1.26-0.46-1.26-1.39v-9.32c0-0.92,0.42-1.39,1.26-1.39l16.57,0.25h18.71
		c1.8-4.62,3.38-9.53,4.72-14.74c0.46-1.6,0.82-3.74,1.07-6.42c4.75,0.88,8.48,1.74,11.21,2.58c1.3,0.42,1.95,0.99,1.95,1.7
		c0,0.67-0.34,1.34-1.01,2.02c-0.63,0.63-1.2,1.64-1.7,3.02c-1.26,3.99-2.73,7.94-4.41,11.84l14.55-0.25c0.71,0,1.13,0.08,1.26,0.25
		c0.13,0.17,0.19,0.55,0.19,1.13v9.32c0,0.67-0.08,1.07-0.25,1.2c-0.17,0.13-0.57,0.19-1.2,0.19l-16.38-0.25H1399.71z
		 M1401.98,573.27l-15.81,0.25c-0.71,0-1.13-0.08-1.26-0.25c-0.13-0.17-0.19-0.55-0.19-1.13v-9.07c0-0.71,0.08-1.15,0.25-1.32
		c0.17-0.13,0.57-0.19,1.2-0.19l15.81,0.25h5.86v-2.33c0-4.79-0.27-8.36-0.82-10.71c2.73,0.08,7.08,0.38,13.04,0.88
		c1.39,0.17,2.08,0.57,2.08,1.2c0,0.5-0.29,1.37-0.88,2.58c-0.38,0.8-0.57,2.86-0.57,6.17v2.2h6.61l15.75-0.25
		c0.67,0,1.07,0.08,1.2,0.25c0.13,0.17,0.19,0.59,0.19,1.26v9.07c0,0.67-0.08,1.07-0.25,1.2c-0.17,0.13-0.55,0.19-1.13,0.19
		l-15.75-0.25H1401.98z M1401.03,665.48h-9.95c-0.97,0-1.45-0.44-1.45-1.32l0.25-21.73v-9.32l-0.25-14.42c0-0.67,0.08-1.07,0.25-1.2
		s0.57-0.19,1.2-0.19l14.3,0.25h18.58l14.3-0.25c0.76,0,1.22,0.08,1.39,0.25c0.13,0.17,0.19,0.55,0.19,1.13l-0.25,12.66v10.65
		l0.25,21.67c0,0.76-0.11,1.22-0.32,1.39c-0.17,0.13-0.59,0.19-1.26,0.19h-9.89c-0.71,0-1.13-0.11-1.26-0.31
		c-0.13-0.17-0.19-0.59-0.19-1.26v-5.92h-24.5v6.42C1402.42,665.04,1401.96,665.48,1401.03,665.48z M1393.35,579.06
		c-0.17-0.42-0.25-0.73-0.25-0.94c0-0.34,0.57-0.67,1.7-1.01l7.05-1.89c0.54-0.13,0.94-0.19,1.2-0.19c0.5,0,0.92,0.4,1.26,1.2
		c1.93,4.96,3.32,9.68,4.16,14.17c0.04,0.34,0.06,0.59,0.06,0.76c0,0.42-0.55,0.82-1.64,1.2l-7.62,2.2
		c-0.59,0.17-1.01,0.25-1.26,0.25c-0.5,0-0.84-0.52-1.01-1.57C1396.08,587.57,1394.86,582.84,1393.35,579.06z M1402.42,628.76v17.64
		h24.5v-17.64H1402.42z M1467.11,637.9c0.29,0,0.73,0,1.32,0c11.09,0,16.63-3.53,16.63-10.58c0-4.54-1.24-8.78-3.72-12.72
		c-2.44-3.91-6.74-8.69-12.91-14.36c4.91-10.25,9.34-21.52,13.29-33.82h-18.08v72.25l0.25,26.96c0,0.67-0.08,1.07-0.25,1.2
		c-0.17,0.13-0.55,0.19-1.13,0.19h-10.39c-0.71,0-1.16-0.08-1.32-0.25c-0.13-0.17-0.19-0.55-0.19-1.13l0.25-26.83v-55.74
		l-0.25-27.15c0-0.71,0.1-1.13,0.32-1.26c0.17-0.13,0.59-0.19,1.26-0.19l11.46,0.25h20.66c1.6,0,2.67-0.13,3.21-0.38
		c0.8-0.25,1.45-0.38,1.95-0.38c1.01,0,2.81,1.3,5.42,3.91c2.06,2.35,3.09,4.09,3.09,5.23c0,0.8-0.4,1.57-1.2,2.33
		c-0.76,0.55-1.66,2.14-2.71,4.79c-3.86,10.25-7.77,19.57-11.72,27.97c6.59,5.96,11,11.46,13.23,16.5
		c1.68,3.82,2.52,8.38,2.52,13.67c0,13.23-7.58,20.56-22.74,21.98c-1.09,0.08-1.81,0.13-2.14,0.13c-0.92,0-1.53-0.29-1.83-0.88
		c-0.17-0.42-0.38-1.47-0.63-3.15C1470.13,642.79,1468.91,639.95,1467.11,637.9z"/>
	<path class="st22" d="M1538.22,612.57c6.38,0.17,10.94,0.25,13.67,0.25c2.35-3.32,4.51-7.1,6.49-11.34h-23.87
		c-0.42,10.54-1.32,19.82-2.71,27.84c-2.44,13.56-6.13,24.44-11.09,32.63c-1.05,1.55-1.74,2.33-2.08,2.33
		c-0.38,0-1.2-0.69-2.46-2.08c-2.73-3.11-5.56-5.58-8.5-7.43c5.37-7.73,9.11-17.74,11.21-30.05c1.89-11.25,2.83-25.49,2.83-42.71
		l-0.25-27.02c0-0.76,0.08-1.22,0.25-1.39c0.13-0.13,0.46-0.19,1.01-0.19l17.83,0.25h60.28l17.76-0.25c0.71,0,1.13,0.11,1.26,0.31
		c0.13,0.17,0.19,0.59,0.19,1.26l-0.25,8.88v9.89l0.25,8.76c0,0.71-0.08,1.13-0.25,1.26c-0.17,0.13-0.57,0.19-1.2,0.19l-17.76-0.25
		h-66.08v7.18h69.29l17.76-0.25c0.76,0,1.22,0.08,1.38,0.25c0.13,0.17,0.19,0.55,0.19,1.13v8.31c0,0.67-0.08,1.07-0.25,1.2
		c-0.21,0.13-0.65,0.19-1.32,0.19l-17.76-0.25h-4.03c5.58,4.62,11.78,10.77,18.58,18.46c0.38,0.46,0.57,0.82,0.57,1.07
		c0,0.34-0.44,0.8-1.32,1.39l-6.55,4.47c-0.88,0.63-1.45,0.94-1.7,0.94c-0.34,0-0.67-0.31-1.01-0.94l-5.04-6.55
		c-18.35,1.47-36.93,2.6-55.74,3.4c-2.02,0.08-3.4,0.29-4.16,0.63c-0.84,0.34-1.47,0.5-1.89,0.5c-0.88,0-1.45-0.57-1.7-1.7
		C1539.42,620.26,1538.81,616.73,1538.22,612.57z M1548.05,663.41l-17.57,0.25c-0.67,0-1.07-0.11-1.2-0.31
		c-0.13-0.17-0.19-0.57-0.19-1.2v-8.31c0-0.63,0.07-1.02,0.22-1.17c0.15-0.15,0.54-0.22,1.17-0.22l17.57,0.25h21.42v-8.76h-10.58
		l-17.38,0.25c-0.71,0-1.13-0.08-1.26-0.25c-0.13-0.17-0.19-0.57-0.19-1.2V635c0-0.71,0.08-1.15,0.25-1.32
		c0.17-0.13,0.57-0.19,1.2-0.19l17.38,0.25h10.58v-0.25c0-4.03-0.21-7.18-0.63-9.45c3.91,0.13,7.94,0.4,12.09,0.82
		c1.72,0.13,2.58,0.59,2.58,1.39c0,0.59-0.25,1.45-0.76,2.58c-0.42,1.18-0.63,2.69-0.63,4.54v0.38h14.93l17.32-0.25
		c0.71,0,1.16,0.11,1.32,0.31c0.13,0.17,0.19,0.57,0.19,1.2v7.75c0,0.67-0.07,1.08-0.22,1.23c-0.15,0.15-0.58,0.22-1.29,0.22
		l-17.32-0.25h-14.93v8.76h24.5l17.51-0.25c0.67,0,1.09,0.08,1.26,0.25c0.13,0.17,0.19,0.55,0.19,1.13v8.31
		c0,0.71-0.08,1.15-0.25,1.32c-0.17,0.13-0.57,0.19-1.2,0.19l-17.51-0.25H1548.05z M1606.5,573.4v-9.13h-71.74v9.13H1606.5z
		 M1590.63,606.65c-0.5-0.46-0.76-0.8-0.76-1.01c0-0.25,0.38-0.61,1.13-1.07l5.92-3.09h-25.13c-2.14,4.28-4.3,7.98-6.49,11.09
		c13.69-0.55,23.64-1.05,29.86-1.51L1590.63,606.65z"/>
</g>
</svg>
