<?xml version="1.0" standalone="no"?>
<!DOCTYPE svg PUBLIC "-//W3C//DTD SVG 20010904//EN"
 "http://www.w3.org/TR/2001/REC-SVG-20010904/DTD/svg10.dtd">
<svg version="1.0" xmlns="http://www.w3.org/2000/svg"
 width="400.000000pt" height="400.000000pt" viewBox="0 0 400.000000 400.000000"
 preserveAspectRatio="xMidYMid meet">
<metadata>
Created by potrace 1.11, written by Peter Selinger 2001-2013
</metadata>
<g transform="translate(0.000000,400.000000) scale(0.100000,-0.100000)"
fill="#000000" stroke="none">
<path d="M0 2000 l0 -2000 2000 0 2000 0 0 2000 0 2000 -2000 0 -2000 0 0
-2000z m1695 1170 l155 155 152 -153 153 -152 152 152 153 153 738 -738 737
-737 -585 -585 -585 -585 -152 152 -153 153 -155 -155 -155 -155 -153 153
-152 152 -153 -153 -152 -152 -737 737 -738 738 73 72 72 73 665 -665 665
-665 79 79 79 79 -71 83 c-84 97 -125 162 -174 274 -65 150 -89 353 -62 520
15 100 71 251 125 343 39 65 92 126 267 303 119 121 217 225 217 230 0 5 -34
43 -75 84 l-75 75 -155 -155 -155 -155 -153 153 -152 152 -355 -355 c-195
-195 -359 -355 -365 -355 -5 0 -40 30 -77 67 l-68 68 432 432 433 433 152
-152 153 -153 155 155z"/>
<path d="M2378 2953 l-76 -78 72 -82 c83 -95 124 -160 173 -273 65 -150 89
-353 62 -520 -15 -100 -71 -251 -125 -343 -39 -65 -92 -126 -266 -303 -120
-121 -218 -225 -218 -230 0 -5 34 -43 75 -84 l75 -75 155 155 155 155 153
-153 152 -152 440 440 440 440 -590 590 c-324 325 -592 590 -595 590 -3 0 -40
-35 -82 -77z"/>
<path d="M1944 2518 c-227 -229 -273 -291 -320 -428 -86 -256 -30 -531 153
-746 l66 -76 199 198 c221 220 279 297 327 431 95 260 41 539 -145 757 -36 42
-66 76 -67 76 -2 0 -98 -96 -213 -212z m126 -345 c54 -76 73 -143 68 -246 -5
-122 -34 -175 -165 -309 l-107 -108 -32 31 c-18 17 -45 59 -61 93 -25 54 -28
72 -28 161 0 136 21 180 157 325 56 61 108 110 115 110 6 0 30 -26 53 -57z"/>
</g>
</svg>
