<svg xmlns="http://www.w3.org/2000/svg" viewBox="0 0 916.67 850.29"><defs><style>.cls-1{fill:#62bfad;}</style></defs><title>left-lime</title><g id="レイヤー_2" data-name="レイヤー 2"><g id="レイヤー_1-2" data-name="レイヤー 1"><polygon class="cls-1" points="174.37 850.29 374.98 850.29 274.68 676.55 174.37 850.29"/><polygon class="cls-1" points="274.66 676.55 174.35 502.81 74.04 676.55 274.66 676.55"/><polygon class="cls-1" points="174.35 502.81 174.37 502.81 74.06 329.07 0 457.35 0 502.81 174.35 502.81"/><polygon class="cls-1" points="415.18 502.81 535.41 502.81 475.29 398.69 415.18 502.81"/><polygon class="cls-1" points="515.47 676.55 635.7 676.55 575.59 572.42 515.47 676.55"/><polygon class="cls-1" points="615.79 850.29 736.02 850.29 675.91 746.16 615.79 850.29"/><polygon class="cls-1" points="184.99 502.81 364.36 502.81 274.68 347.48 184.99 502.81"/><polygon class="cls-1" points="374.97 521.22 285.29 676.55 464.65 676.55 374.97 521.22"/><polygon class="cls-1" points="385.61 850.29 564.97 850.29 475.29 694.96 385.61 850.29"/><polygon class="cls-1" points="74.04 329.07 0 200.82 0 329.07 74.04 329.07"/><polygon class="cls-1" points="435.09 329.07 374.97 224.95 314.85 329.07 435.09 329.07"/><polygon class="cls-1" points="264.05 329.07 174.37 173.74 84.69 329.07 264.05 329.07"/><polygon class="cls-1" points="585.56 276.81 555.38 329.07 615.73 329.07 585.56 276.81"/><polygon class="cls-1" points="685.88 450.55 655.71 502.81 716.05 502.81 685.88 450.55"/><polygon class="cls-1" points="756 676.55 816.34 676.55 786.17 624.29 756 676.55"/><polygon class="cls-1" points="886.5 798.03 856.32 850.29 916.67 850.29 886.5 798.03"/><polygon class="cls-1" points="274.49 51.21 214.38 155.33 334.61 155.33 274.49 51.21"/><polygon class="cls-1" points="163.57 155.33 73.89 0 0 127.98 0 155.33 163.57 155.33"/><polygon class="cls-1" points="485.08 103.08 454.91 155.33 515.25 155.33 485.08 103.08"/><polygon class="cls-1" points="0 676.55 73.89 676.55 74.04 676.55 0 548.3 0 676.55"/><polygon class="cls-1" points="73.89 676.55 0 804.53 0 850.29 174.2 850.29 73.89 676.55"/></g></g></svg>