<svg xmlns="http://www.w3.org/2000/svg" viewBox="0 0 932.17 850.01"><defs><style>.cls-1{fill:#df4742;}</style></defs><title>right-pink</title><g id="レイヤー_2" data-name="レイヤー 2"><g id="レイヤー_1-2" data-name="レイヤー 1"><polygon class="cls-1" points="742.22 155.28 641.95 328.96 842.33 328.96 842.5 328.96 742.22 155.28"/><polygon class="cls-1" points="341.12 224.87 281.02 328.96 401.22 328.96 341.12 224.87"/><polygon class="cls-1" points="452.01 328.96 631.31 328.96 541.66 173.68 452.01 328.96"/><polygon class="cls-1" points="100.44 328.96 160.77 328.96 130.6 276.72 100.44 328.96"/><polygon class="cls-1" points="910.64 328.96 910.64 210.94 842.5 328.96 910.64 328.96"/><polygon class="cls-1" points="742.05 502.65 910.64 502.65 910.64 447.28 842.33 328.96 742.05 502.65"/><polygon class="cls-1" points="441.23 398.56 381.13 502.65 501.33 502.65 441.23 398.56"/><polygon class="cls-1" points="552.13 502.65 731.43 502.65 641.78 347.36 552.13 502.65"/><polygon class="cls-1" points="200.55 502.65 260.87 502.65 230.71 450.41 200.55 502.65"/><polygon class="cls-1" points="631.16 0 541.5 155.28 742.05 155.28 652.4 0 631.16 0"/><polygon class="cls-1" points="240.68 51.19 180.58 155.28 300.78 155.28 240.68 51.19"/><polygon class="cls-1" points="530.87 155.28 441.21 0 351.56 155.28 530.87 155.28"/><polygon class="cls-1" points="0 155.28 60.32 155.28 30.16 103.04 0 155.28"/><polygon class="cls-1" points="742.05 155.28 742.22 155.28 910.64 155.28 910.64 47.67 883.12 0 831.71 0 742.05 155.28"/><polygon class="cls-1" points="581.87 850.01 702.06 850.01 641.96 745.92 581.87 850.01"/><polygon class="cls-1" points="842.51 694.73 752.86 850.01 910.64 850.01 910.64 812.73 842.51 694.73"/><polygon class="cls-1" points="401.28 850.01 461.61 850.01 431.44 797.77 401.28 850.01"/><polygon class="cls-1" points="910.64 558.04 842.35 676.33 910.64 676.33 910.64 558.04"/><polygon class="cls-1" points="541.52 572.24 481.42 676.33 601.62 676.33 541.52 572.24"/><polygon class="cls-1" points="742.07 521.05 652.42 676.33 831.72 676.33 742.07 521.05"/><polygon class="cls-1" points="300.84 676.33 361.16 676.33 331 624.09 300.84 676.33"/><polygon class="cls-1" points="910.64 850.01 932.17 850.01 910.64 812.73 910.64 850.01"/></g></g></svg>