<svg xmlns="http://www.w3.org/2000/svg" viewBox="0 0 386.68 264.34"><defs><style>.cls-1{fill:#8c82af;}.cls-2{fill:#e5e144;}</style></defs><title>wasedasai_logo</title><g id="レイヤー_2" data-name="レイヤー 2"><g id="レイヤー_1-2" data-name="レイヤー 1"><path class="cls-1" d="M239.24,0,208.62,30.62,178,0,147.45,30.56,116.89,0,30.51,86.38l14.24,14.25,72.14-72.14L133.2,44.8l14.25,14.25L161.69,44.8,178,28.49l16.37,16.37L159.32,79.91a95.52,95.52,0,0,0,0,135.07l4.5,4.49-16.37,16.38L14.32,102.57,0,116.89,147.45,264.34l30.61-30.62,30.62,30.62,30.56-30.56,30.56,30.56L386.68,147.45ZM173.57,200.74a75.37,75.37,0,0,1,0-106.58l35.05-35,4.5,4.49a75.46,75.46,0,0,1,0,106.58l-35.06,35Zm79.91,18.79-14.24-14.24L225,219.53l-16.31,16.32-16.37-16.38,35.05-35.05a95.49,95.49,0,0,0,0-135.06l-4.49-4.5,16.37-16.37,119,119-88.39,88.4Z"/><path class="cls-2" d="M177.74,179.32a38.43,38.43,0,0,1,0-53.32l17.08-17.53,2.19,2.24A38.47,38.47,0,0,1,197,164l-17.08,17.53Z"/></g></g></svg>