<svg xmlns="http://www.w3.org/2000/svg" viewBox="0 0 350.63 55.02"><defs><style>.cls-1{fill:#8c82af;}</style></defs><title>wasedasai_catchcopy</title><g id="レイヤー_2" data-name="レイヤー 2"><g id="レイヤー_1-2" data-name="レイヤー 1"><polygon class="cls-1" points="0 0 0 52.48 6.69 52.48 6.69 6.75 20.38 6.75 20.38 0 0 0"/><path class="cls-1" d="M45.45,45.88a46.66,46.66,0,0,0-4.35-6,39,39,0,0,1-8,10l-5.75-3.53A32.76,32.76,0,0,0,36.87,35.5a24.36,24.36,0,0,0-3.48-2.6c-.22.7-.27.87-.65,1.9l-6.36-1.25a94.76,94.76,0,0,0,4.78-16.68h-4V11.44h5A71.62,71.62,0,0,0,32.9,3l6.79.49c.22,0,1,.11,1,.7,0,.22,0,.38-.54.55s-.6.43-.71.76c-.27,1.74-.7,4-1.08,5.92h8.47C47.08,22.9,46.1,27.36,44,33.66A46.9,46.9,0,0,1,50.28,41Zm-8.15-29c-1.19,5.6-1.63,7.5-2.17,9.72a45.49,45.49,0,0,1,4.13,2.94,43.58,43.58,0,0,0,2-12.66ZM63,28.28V44.85c0,3.53-3.1,4.94-6.25,4.94H53.44l-3-7.28c.32.06,1.9.38,2.28.49a9.23,9.23,0,0,0,1.74.16c1.46,0,2.06-.38,2.06-2.6V28.28H47.46V22.36h9.07V14.7l2.77.76a25.05,25.05,0,0,0,4.08-4.78H48.27V5.14H69.79l3.42,3.31C69.41,12.91,64.68,18,63,19.7v2.66H73.81v5.92Z"/><path class="cls-1" d="M107.43,23.34a58.43,58.43,0,0,0,7.18,11.29l-3.32,4.13c-2.61-1.41-8-4.13-14.23-4.13-3.59,0-6.57,1.53-6.57,4.46,0,4.62,7.06,4.62,8.91,4.62a39.66,39.66,0,0,0,10.86-1.47l-.54,6.41a54.54,54.54,0,0,1-8.59.65c-9.77,0-16.51-3.09-16.51-10.27,0-7.44,5.87-9.45,12-9.45a41.37,41.37,0,0,1,7.77.87c-1.3-2.33-1.79-3.31-2.82-5.32a70.31,70.31,0,0,1-17.44,2.39L82.23,22c7.71-.05,11.24-.38,17.11-1.63-.81-1.84-1.41-3.2-2-4.45a62.5,62.5,0,0,1-12.93,1.46L82.77,12.2a66.19,66.19,0,0,0,12.66-1.09C94.18,7.75,93.58,6,92.71,3.45l6.2-.7c.43-.06,1.79-.22,1.79.43,0,.27-.16.44-.44.71-.43.43-.48.6-.48.76a46.78,46.78,0,0,0,1.63,5,52.62,52.62,0,0,0,9.28-4.19l1.2,5.27a35.88,35.88,0,0,1-8.58,3.7c.7,1.68.92,2.22,1.79,4.13A63.11,63.11,0,0,0,115,13.67l1,5.43A40.65,40.65,0,0,1,107.43,23.34Z"/><polygon class="cls-1" points="136.36 2.54 136.36 48.28 122.67 48.28 122.67 55.02 123.25 55.02 143.05 55.02 143.05 2.54 136.36 2.54"/><path class="cls-1" d="M161,46.84l-3.18,1.25a12.07,12.07,0,0,1-1.49-3.18,35,35,0,0,1-1.65-10.59,71.49,71.49,0,0,1,.6-7.92,79.52,79.52,0,0,1,1.69-9.18l4.11,1.49c.28.12,1,.4,1,.73a.47.47,0,0,1-.2.36l-.68.28c-.61.36-2.34,7.64-2.34,13.72a21.84,21.84,0,0,0,.57,5.51c.48-.84.72-1.24,1.61-2.81l2.37,1.28A35.51,35.51,0,0,0,161,46.84Zm14.4-1.17c-7.32,0-8.85-2-9-8.77l4.38-.6c0,3.82.45,4.91,4.51,4.91A32.93,32.93,0,0,0,184.47,40v5A55.44,55.44,0,0,1,175.37,45.67ZM172.15,25c-.32,0-2.17,0-4.3-.2V20.36a35.45,35.45,0,0,0,5.15.44,27.82,27.82,0,0,0,9.53-1.65v4.67A54.09,54.09,0,0,1,172.15,25Z"/><path class="cls-1" d="M199.11,14.86a52.92,52.92,0,0,1-2.22,11.46l-5.11-1.46a51,51,0,0,0,2.5-12.66l5.05.92c1,.17,1.09.49,1.09.76C200.42,14.48,199.77,14.7,199.11,14.86Zm10.81,8.2v-4.4a20.25,20.25,0,0,0-3.25-4.29V49.63h-6V2.91l6.84.76c.38.06.92.16.92.65s-.43.71-.76.87-1,.49-1,1.09v6.63l2.22-2.29a20,20,0,0,1,4.89,5.17l-3.53,2.82h11.68V16.49h-7.88V12.42h7.88V10.24H210.85V6.12h11.08V3l6.63.48c.27,0,.7.22.7.44s-.21.43-.38.6a1.57,1.57,0,0,0-.81,1.63h12.55v4.12H228.07v2.18h9v4.07h-9v2.12h12.76v4.45Zm19.24,27.11-2.56-5.65a20.6,20.6,0,0,0,3.32.44c1.19,0,1.57-.55,1.57-1.42V42H218.62v7.61H212.7V25.24h24.77V45.83C237.47,49.84,233.72,50.12,229.16,50.17Zm2.33-20.53H218.62v2h12.87Zm0,6H218.62v2.28h12.87Z"/><path class="cls-1" d="M260.94,42a28.29,28.29,0,0,1-7.34,8.53l-4.89-4.13a25.13,25.13,0,0,0,7.77-8.58l5.27,2.44c.33.17.87.49.87,1S261.7,42,260.94,42Zm31.67-4c-.27,0-4.89-.54-6.3-8.47l-1.74,2.12a36.53,36.53,0,0,0-2.72-2.88A31.37,31.37,0,0,1,276.42,38l-4.84-3.09.6-.49c-3.85.59-7.77,1.14-11.68,1.57-.81.11-4.61.38-5.48.49s-2.12.16-2.45.6c-.54.6-.6.7-.81.7-.49,0-.71-.92-.76-1.24L250.18,32c2.17,0,4.4-.11,9.18-.43v-1.9h-7.44V25.51h1.85l-3.43-3.42c3-1.25,4.73-2.45,5.55-5.06h-5.44V12.8h9.07v-2h-7.44V6.77h7.44V3.45l5.49.33c.22,0,1.63.05,1.63.71,0,.38-.54.54-1.09,1V6.77H273v4.07h-7.45v2h8.53l-.16-1.69,5.49-.38c-.11-2.71-.17-4.34-.55-8l5.33.66c1,.1,1.52.38,1.52.92,0,.22-.11.32-.22.49-.6.54-.65.54-.71.76,0,.05,0,4.13,0,4.89L293,9.76a43.57,43.57,0,0,0-1.74,12.81c0,1.31,0,6.69,1.3,6.69.49,0,.82-1.8,1-2.83l4,3.15C296.84,32.62,295.38,38,292.61,38ZM263.06,21.11V17h-6l3.47,1.47c.22.11.82.33.82.87,0,.38-.49.49-1.14.54a10.78,10.78,0,0,1-5.54,5.6h4.72V22.85l4.62.27A2.49,2.49,0,0,1,263.06,21.11Zm2.44,28.25a36.59,36.59,0,0,0-2-9.73l5.82-.92a54.72,54.72,0,0,1,2.33,9.61ZM274,22.52c-.6.71-1.2,1.25-3.37,1.25h-3.8a7.55,7.55,0,0,1-1.25-.11v1.85h6.46v4.13h-6.46v1.52c2.06-.16,3.91-.33,6.84-.71l.27,3.42a23.57,23.57,0,0,0,5-8.74A29.43,29.43,0,0,0,274,22.52Zm.32-6.35V17h-6.13V18.5c0,1,.32,1.14,1.3,1.14,1.3,0,1.36-.32,1.68-1.63l4,1.09a13.34,13.34,0,0,1-.49,2.12L277,18.45c.38.27,1.35,1,2.06,1.52a23.87,23.87,0,0,0,.33-4.13Zm2.23,32.91a32.45,32.45,0,0,0-2.5-9l5.27-1.47a36.37,36.37,0,0,1,3,8.91Zm7.93-33.57a57.14,57.14,0,0,1-1,8c.76.71,1.63,1.47,2.55,2.45,0-3,.06-5.27.28-10.6Zm6.85,34.33a45.57,45.57,0,0,0-7.44-9.34l4.88-3.37A43.26,43.26,0,0,1,296.25,46Z"/><path class="cls-1" d="M325.53,34.19c0,1.57.08,6.56.08,7.93H321c.12-2.3.16-4.27.2-6-1.53.76-5.72,2.86-5.72,5.67,0,2.62,3.1,3.14,6,3.14a46.78,46.78,0,0,0,10.26-1.28v4.54a65.9,65.9,0,0,1-9.58.61c-2.25,0-6.92,0-9.45-2.7a5.5,5.5,0,0,1-1.53-3.94c0-5,3.7-6.89,9.73-10-.24-1.21-.72-2.66-3-2.66-4,0-6.36,3.66-8.57,7.28l-3.95-2.45a53.59,53.59,0,0,0,7.93-11.07c-2.29.12-3.54.16-5.23.16l-.49-4.18a57,57,0,0,0,7.69.16,30.53,30.53,0,0,0,2-5.35l5,.88c.12,0,.81.12.81.41s-.16.36-.4.44-.89.4-.93.4-1.05,2.29-1.25,2.74a34,34,0,0,0,7.89-2.06l-.28,4.51a83.06,83.06,0,0,1-9.62,1.53c-1.29,2.38-1.61,2.94-2.29,4a7.8,7.8,0,0,1,3.46-.84c2.77,0,4.54,1.41,5.47,4.06,4.71-2.21,5.23-2.45,7.12-3.3l1.37,4.59C330.44,32.38,328.51,33.06,325.53,34.19Z"/><path class="cls-1" d="M350.63,43.12a6.22,6.22,0,1,1-6.2-6.2A6.27,6.27,0,0,1,350.63,43.12Zm-10.5,0a4.29,4.29,0,1,0,4.3-4.26A4.3,4.3,0,0,0,340.13,43.12Z"/></g></g></svg>