<?xml version="1.0" encoding="utf-8"?>
<!-- Generator: Adobe Illustrator 23.0.3, SVG Export Plug-In . SVG Version: 6.00 Build 0)  -->
<svg version="1.1" id="レイヤー_1" xmlns="http://www.w3.org/2000/svg" xmlns:xlink="http://www.w3.org/1999/xlink" x="0px"
	 y="0px" viewBox="0 0 1920 1200" style="enable-background:new 0 0 1920 1200;" xml:space="preserve">
<style type="text/css">
	.st0{fill:#8C82AF;}
	.st1{fill:#3DB58F;}
	.st2{fill:#D13C49;}
	.st3{fill:#E9E39F;}
	.st4{fill:#C65681;}
	.st5{fill:#54B5C6;}
	.st6{fill:#E9CE2F;}
</style>
<title>background_whole_white</title>
<g>
	<g id="XMLID_1_">
		<g>
			<path class="st0" d="M1582.63,706.2c23.21-6.07,47.29-10.32,72.14-12.46c78.31-6.77,165.77,5.97,229.61-30.21
				c55.53-31.46,73.2-90.46,72.06-144.13c-1.13-53.68-16.81-107.19-10.36-160.63c6.47-53.45,93.28-110.16,158.89-125.67V1210
				H1025.81c44.45-12.33,89.79-80.02,126.82-102.91c69.69-43.06,98.25-113.84,136.42-176.61
				C1349.35,831.31,1452.4,740.19,1582.63,706.2z"/>
			<path class="st1" d="M2104.97,0v233.1c-65.61,15.51-152.42,72.22-158.89,125.67c-6.45,53.43,9.23,106.95,10.36,160.63
				c-161.42,117.35-478.35,66.33-583.17,4.97c-42.99-25.16-78.06-57.69-109.39-91.82c-45.79-49.87-85.04-105.16-97.88-165.75
				S1165.02,85.89,1325.28,0H2104.97z"/>
			<path class="st2" d="M1956.44,519.39c1.13,53.68-16.53,112.67-72.06,144.13c-63.84,36.18-151.3,23.44-229.61,30.21
				c-24.85,2.15-48.93,6.39-72.14,12.46c-74.51-20.98-397.28-104.13-475.96-110.77c-78.69-6.62-162.28,2.56-227.3,37.92
				c-39.74,21.6-70.49,51.69-100.62,81.34c-55.87-47.66-186.24-111.35-300.15-146.52c64.13-7.52,210.41-64.37,248.95-105.22
				c42.84-45.4,24.67-114.77-28.4-152.97c-53.07-38.19-131.48-48.6-202.67-39.83c-74.69,9.21-147.44,37.37-222.35,29.26
				c-74.24-8.03-138.95-55.19-154.54-112.62C104,129.38,191.05,30.99,254.71,0h1070.57c-160.26,85.9-172.12,206.21-159.29,266.8
				s52.09,115.88,97.88,165.75c31.33,34.13,66.4,66.66,109.39,91.82C1478.09,585.72,1795.01,636.74,1956.44,519.39z"/>
			<path class="st3" d="M1582.63,706.2c-130.23,33.99-233.28,125.1-293.58,224.27c-38.17,62.77-66.73,133.55-136.42,176.61
				c-37.03,22.89-82.38,90.58-126.82,102.91H891.33c-20.04-72.5-146.67-215.92-235.03-242.69
				c-5.76-70.91,65.95-197.01,122.45-252.61c30.14-29.65,60.88-59.74,100.62-81.34c65.02-35.36,148.6-44.55,227.3-37.92
				C1185.34,602.07,1508.12,685.22,1582.63,706.2z"/>
			<path class="st4" d="M891.33,1210H-179.23V806.67c7-18.23,75.32-42.18,99.6-41.04c56.66,2.67,111.07,26.71,143.3,63.31
				c40.42,45.91,49.85,111.37,110.72,140.34c59.54,28.32,135.12,6.45,202.48-7.48c91.59-18.95,191.09-21.26,279.44,5.51
				C744.66,994.08,871.29,1137.5,891.33,1210z"/>
			<path class="st5" d="M699.14,309.98c53.07,38.2,71.24,107.57,28.4,152.97C689,503.8,542.73,560.65,478.59,568.17
				c-49.32-15.23-95.55-25.12-131.32-26.06c-69.94-1.82-139.44,9.22-209.41,10.31c-69.95,1.08-266.41-103.83-317.1-141.62V0h433.95
				c-63.66,31-150.71,129.38-135.13,186.8c15.59,57.43,80.3,104.58,154.54,112.62c74.91,8.11,147.66-20.05,222.35-29.26
				C567.66,261.38,646.07,271.79,699.14,309.98z"/>
			<path class="st6" d="M778.75,714.7c-56.5,55.59-128.21,181.7-122.45,252.61c-88.35-26.76-187.85-24.46-279.44-5.51
				c-67.36,13.93-142.94,35.8-202.48,7.48c-60.86-28.97-70.29-94.43-110.72-140.34c-32.23-36.61-86.64-60.65-143.3-63.31
				c-24.29-1.14-92.6,22.8-99.6,41.04V410.8c50.69,37.78,247.15,142.7,317.1,141.62c69.97-1.08,139.47-12.13,209.41-10.31
				c35.77,0.93,81.99,10.83,131.32,26.06C592.51,603.35,722.88,667.03,778.75,714.7z"/>
		</g>
		<g>
		</g>
	</g>
</g>
</svg>
