<svg xmlns="http://www.w3.org/2000/svg" viewBox="0 0 687.9 364.4"><defs><style>.cls-1{fill:#8c82af;}.cls-2{fill:#3db58f;}.cls-3{fill:#d13c49;}.cls-4{fill:#e9e39f;}.cls-5{fill:#c65681;}.cls-6{fill:#54b5c6;}.cls-7{fill:#e9ce2f;}</style></defs><title>アセット 2</title><g id="レイヤー_2" data-name="レイヤー 2"><g id="レイヤー_1-2" data-name="レイヤー 1"><path class="cls-1" d="M530.84,212.93a130.12,130.12,0,0,1,21.73-3.76c23.58-2,49.92,1.8,69.14-9.1,16.73-9.47,22-27.24,21.71-43.41s-5.07-32.27-3.12-48.37,28.09-33.17,47.85-37.84v294.2h-325c13.39-3.72,27-24.11,38.2-31,21-13,29.58-34.28,41.08-53.18C460.59,250.6,491.62,223.16,530.84,212.93Z" transform="translate(-0.25 -0.25)"/><path class="cls-2" d="M688.15.25v70.2c-19.76,4.67-45.91,21.75-47.85,37.84s2.77,32.21,3.12,48.37c-48.62,35.35-144.06,20-175.63,1.51-12.94-7.58-23.51-17.38-32.94-27.66-13.79-15-25.61-31.66-29.48-49.92s-.29-54.47,48-80.34Z" transform="translate(-0.25 -0.25)"/><path class="cls-3" d="M643.42,156.66c.34,16.17-5,33.94-21.71,43.41-19.22,10.9-45.56,7.06-69.14,9.1a130.12,130.12,0,0,0-21.73,3.76c-22.44-6.32-119.64-31.36-143.34-33.36s-48.87.77-68.45,11.42c-12,6.51-21.22,15.56-30.3,24.49-16.82-14.35-56.09-33.53-90.39-44.12,19.31-2.27,63.36-19.39,75-31.69,12.9-13.67,7.43-34.57-8.55-46.07s-39.6-14.64-61-12c-22.49,2.77-44.41,11.25-67,8.81C114.42,88,94.93,73.8,90.24,56.51S111.76,9.59,130.94.25h322.4c-48.26,25.87-51.83,62.1-48,80.34s15.69,34.91,29.48,49.92c9.43,10.28,20,20.08,32.94,27.66C499.36,176.64,594.8,192,643.42,156.66Z" transform="translate(-0.25 -0.25)"/><path class="cls-4" d="M530.84,212.93c-39.22,10.23-70.25,37.67-88.41,67.54-11.5,18.9-20.1,40.22-41.08,53.18-11.16,6.89-24.81,27.28-38.2,31H322.66c-6-21.84-44.18-65-70.79-73.09-1.73-21.36,19.86-59.34,36.88-76.08,9.08-8.93,18.33-18,30.3-24.49,19.58-10.65,44.75-13.42,68.45-11.42S508.4,206.61,530.84,212.93Z" transform="translate(-0.25 -0.25)"/><path class="cls-5" d="M322.66,364.65H.25V243.18c2.11-5.49,22.68-12.7,30-12.36,17.06.8,33.45,8,43.15,19.07,12.17,13.83,15,33.54,33.34,42.26,17.93,8.53,40.7,2,61-2.25,27.58-5.71,57.55-6.4,84.15,1.66S316.62,342.81,322.66,364.65Z" transform="translate(-0.25 -0.25)"/><path class="cls-6" d="M264.78,93.6c16,11.5,21.45,32.4,8.55,46.07-11.61,12.3-55.66,29.42-75,31.69-14.86-4.59-28.78-7.57-39.55-7.85-21.06-.55-42,2.78-63.06,3.11S15.52,135.34.25,124V.25H130.94c-19.18,9.34-45.39,39-40.7,56.26S114.42,88,136.78,90.42c22.55,2.44,44.47-6,67-8.81C225.18,79,248.79,82.1,264.78,93.6Z" transform="translate(-0.25 -0.25)"/><path class="cls-7" d="M288.75,215.48c-17,16.74-38.61,54.72-36.88,76.08-26.6-8.06-56.57-7.37-84.15-1.66-20.28,4.2-43,10.78-61,2.25-18.33-8.72-21.17-28.43-33.34-42.26-9.7-11-26.09-18.27-43.15-19.07-7.32-.34-27.89,6.87-30,12.36V124c15.27,11.38,74.43,43,95.5,42.66s42-3.66,63.06-3.11c10.77.28,24.69,3.26,39.55,7.85C232.66,182,271.93,201.13,288.75,215.48Z" transform="translate(-0.25 -0.25)"/></g></g></svg>