<svg id="レイヤー_1" data-name="レイヤー 1" xmlns="http://www.w3.org/2000/svg" viewBox="0 0 454.31 82.37"><defs><style>.cls-1{fill:#8e84b1;}</style></defs><title>名称未設定-1</title><path class="cls-1" d="M87.72,330.24a18.72,18.72,0,0,1,6.08,1.57q.78.35.78.87a4,4,0,0,1-.4,1.33,17.66,17.66,0,0,0-.42,4.7,64.54,64.54,0,0,0,.86,10.93q1.25,7,3.93,7c.81,0,1.59-.56,2.32-1.69a26.57,26.57,0,0,0,2.27-5,20.22,20.22,0,0,0,3.06,3.7,1.33,1.33,0,0,1,.49,1,2.27,2.27,0,0,1-.14.75,13.51,13.51,0,0,1-3.79,5.8A6.6,6.6,0,0,1,98.41,363q-3.18,0-5.73-3.65a21.31,21.31,0,0,1-3.23-8.84,84.71,84.71,0,0,1-1.14-13.95A29.3,29.3,0,0,0,87.72,330.24ZM112.26,337c1.58-1,2.83-1.73,3.77-2.2a1.48,1.48,0,0,1,.54-.19.77.77,0,0,1,.51.28,28.28,28.28,0,0,1,6.2,8,28.83,28.83,0,0,1,3.18,8.44,1.11,1.11,0,0,1,.05.28,1,1,0,0,1-.56.77,17.3,17.3,0,0,1-3.74,1.92,1.42,1.42,0,0,1-.43.07c-.31,0-.5-.2-.58-.61a38.55,38.55,0,0,0-3.53-9.63A32.41,32.41,0,0,0,112.26,337Z" transform="translate(-87.72 -323.53)"/><path class="cls-1" d="M149.14,353c-.13-3-.21-4.9-.24-5.71-1.34,0-2.55,0-3.62,0q-3.37,0-6.25-.25c-.47,0-.73-.27-.77-.8a23.89,23.89,0,0,1-.28-4.07,63.55,63.55,0,0,0,7.72.44c1,0,2,0,3.06-.07l-.09-5.49c-1.9.06-3.51.09-4.82.09a59.53,59.53,0,0,1-6.65-.33c-.49,0-.77-.22-.81-.68-.14-1.17-.25-2.6-.33-4.3a123.21,123.21,0,0,0,12.56.47c0-.92,0-2.47-.09-4.66a15.14,15.14,0,0,0-.59-3.2,28,28,0,0,1,6,.86.88.88,0,0,1,.68.91,1,1,0,0,1-.14.52,5.78,5.78,0,0,0-.73,2.32c0,.35,0,.84,0,1.45s0,1.24-.05,1.61a85.59,85.59,0,0,0,10.48-1.45,1.82,1.82,0,0,1,.35,0c.28,0,.44.21.47.63a26.46,26.46,0,0,1,.23,3.49c0,.47-.17.73-.51.77a99.81,99.81,0,0,1-11.07,1.24l0,5.43c1.45-.09,4.58-.51,9.38-1.24a1.46,1.46,0,0,1,.4-.07c.22,0,.34.15.37.44.1,1.83.14,3.14.14,3.94,0,.4-.24.63-.72.67-3.36.55-6.48.93-9.38,1.15.14,3.23.24,5.48.32,6.76a43.92,43.92,0,0,1,12.71,5.78,1,1,0,0,1,.42.68,1.78,1.78,0,0,1-.1.47,10.67,10.67,0,0,1-2.1,3.55.7.7,0,0,1-1.15.14,38.52,38.52,0,0,0-9.52-5.45q0,4.08-2.76,5.8c-1.54,1-3.87,1.48-7,1.48q-4.92,0-7.56-2.11a5.59,5.59,0,0,1-2.22-4.58,5.84,5.84,0,0,1,3-5.1,11.88,11.88,0,0,1,6.62-1.71C146.11,352.82,147.64,352.88,149.14,353Zm.09,4.53a19.56,19.56,0,0,0-4.45-.56c-3.44,0-5.17.85-5.17,2.53,0,1.43,1.59,2.15,4.75,2.15,2.16,0,3.61-.47,4.36-1.43A5,5,0,0,0,149.23,357.54Z" transform="translate(-87.72 -323.53)"/><path class="cls-1" d="M193.23,329.27a23.57,23.57,0,0,1,4.73,1.17.7.7,0,0,1,.5.71.73.73,0,0,1-.28.61,3.2,3.2,0,0,0-.71,1c-.06.14-.14.34-.26.61-.25.58-.48,1.13-.71,1.65a70.69,70.69,0,0,0,7.56-1.3,1.06,1.06,0,0,1,.24,0c.22,0,.36.15.43.44a14.66,14.66,0,0,1,.42,3v.13c0,.29-.23.48-.71.54q-4.84.72-9.73,1.26a53.4,53.4,0,0,1-3.1,4.6l0,.08a7.52,7.52,0,0,1,4.16-1.27c3,0,4.67,1.49,5,4.48,2.84-1.31,4.88-2.29,6.13-2.92a12.32,12.32,0,0,0,3.14-2.23,22.38,22.38,0,0,1,2.92,3.65,1.72,1.72,0,0,1,.33.91c0,.31-.21.51-.63.59a13.28,13.28,0,0,0-2.54.63q-6.1,2.15-8.92,3.3v6.69c0,.42-.26.67-.79.75a19.36,19.36,0,0,1-2.94.21c-.36,0-.55-.23-.55-.67,0-2.38,0-4.07,0-5a12.56,12.56,0,0,0-4,2.9,4,4,0,0,0-1,2.61q0,2.86,5.76,2.86a74.59,74.59,0,0,0,10.34-.83h.13c.27,0,.41.16.44.47a15.36,15.36,0,0,1,.39,3.4v.14c0,.42-.16.63-.47.63a80.63,80.63,0,0,1-10.28.55q-10.43,0-10.42-6.85a8.07,8.07,0,0,1,2.31-5.66,23.85,23.85,0,0,1,6.45-4.46,4,4,0,0,0-.63-2.29,2,2,0,0,0-1.62-.59h-.25c-1.6.07-3.52,1.07-5.73,3-1.29,1.26-2.67,2.77-4.16,4.52-.2.25-.37.37-.51.37s-.25-.1-.44-.29a17.73,17.73,0,0,1-2.38-2.73.77.77,0,0,1-.16-.39.59.59,0,0,1,.29-.44,42.72,42.72,0,0,0,8.69-10.3q-2.9.12-6.65.12c-.31,0-.5-.23-.58-.67s-.23-1.67-.41-3.43c1.32.06,2.72.08,4.18.08,1.75,0,3.55,0,5.37-.14a35.44,35.44,0,0,0,1.24-3.57A10.68,10.68,0,0,0,193.23,329.27Z" transform="translate(-87.72 -323.53)"/><path class="cls-1" d="M239.58,361.57q0,.38-.09.45c-.05.06-.2.09-.43.09H235.6c-.31,0-.47-.18-.47-.54v-2.11h-4.42v3.79c0,.35-.16.52-.47.52h-3.56c-.24,0-.39,0-.44-.1a.76.76,0,0,1-.07-.42l.09-14.76V338.06l-.09-11.51q0-.37.09-.45a.87.87,0,0,1,.45-.07l4.09.09h4.14l4.12-.09q.38,0,.45.09a1,1,0,0,1,.07.43l-.1,9.68v11Zm-4.45-31.09h-4.42v9.92h4.42Zm-4.42,24.63h4.42V344.75h-4.42Zm17.17-12.75-6.43.09c-.28,0-.45,0-.49-.11a.84.84,0,0,1-.07-.45v-3.32c0-.25,0-.4.09-.44a.91.91,0,0,1,.47-.07l6.43.09h3.44v-4.94h-2.25l-6,.1c-.28,0-.45,0-.52-.1a.94.94,0,0,1-.07-.44v-3.35c0-.26,0-.43.12-.49a1,1,0,0,1,.47-.07l6,.1h2.25a51.17,51.17,0,0,0-.33-5.43c1.61,0,3.25.16,4.94.35.51.05.77.2.77.47a3.8,3.8,0,0,1-.3,1,14.18,14.18,0,0,0-.24,3.61h3.21l6.08-.1c.27,0,.42,0,.47.1a.86.86,0,0,1,.07.46v3.35c0,.26,0,.42-.09.47a1,1,0,0,1-.45.07l-6.08-.1h-3.21v4.94h5.08l6.43-.09a.8.8,0,0,1,.49.09.76.76,0,0,1,.07.42v3.32a.8.8,0,0,1-.09.49.91.91,0,0,1-.47.07l-6.43-.09Zm.19,9-6.39.09c-.28,0-.44,0-.49-.09a.76.76,0,0,1-.07-.42v-3.37q0-.37.09-.45a1.07,1.07,0,0,1,.47-.07l6.39.1h9.43c0-1.34-.14-2.75-.33-4.21,2,.1,3.6.25,4.82.42.54.11.82.29.82.53a1.93,1.93,0,0,1-.24.82,7.59,7.59,0,0,0-.23,2.44l4.8-.1a.75.75,0,0,1,.49.1.87.87,0,0,1,.07.42V351c0,.23,0,.38-.09.43a.83.83,0,0,1-.47.08l-.64,0c-1.24,0-2.63-.06-4.16-.07v4.75l.05,5.89c0,1.92-.57,3.28-1.69,4.07s-3.1,1.06-6.22,1.06a2.57,2.57,0,0,1-1.38-.21,3.24,3.24,0,0,1-.45-1.24,11.07,11.07,0,0,0-1.42-3.49c1.48.13,3,.19,4.68.19q1.59,0,1.59-1.5v-9.52Zm.19,1.38a38.31,38.31,0,0,1,4.39,5.52.74.74,0,0,1,.19.4q0,.21-.42.51l-2.92,2a1.43,1.43,0,0,1-.57.28c-.12,0-.25-.1-.39-.32a42,42,0,0,0-4.22-5.9.73.73,0,0,1-.23-.4c0-.12.16-.28.47-.46l2.69-1.69a1.17,1.17,0,0,1,.54-.21A.83.83,0,0,1,248.26,352.75Z" transform="translate(-87.72 -323.53)"/><path class="cls-1" d="M296.43,335a41.15,41.15,0,0,0,1.38-5.85,18.8,18.8,0,0,0,.16-2.13,8.16,8.16,0,0,0-.07-1.15,20.42,20.42,0,0,1,5.66,1.92c.52.24.77.53.77.87a1.65,1.65,0,0,1-.32.82,7.27,7.27,0,0,0-1,1.77c-.5,1.31-1,2.59-1.36,3.84a15.59,15.59,0,0,1,9.69,5,13.24,13.24,0,0,1,3.11,8.89q0,12.38-14.72,16a4.07,4.07,0,0,1-.72.09c-.44,0-.85-.3-1.24-.91a9.25,9.25,0,0,0-3.12-3.16Q309,358.11,309,348.4a8.56,8.56,0,0,0-2.65-6.46,9.88,9.88,0,0,0-6-2.6,91.1,91.1,0,0,1-7,14,16.42,16.42,0,0,0,2.06,2.44,15.36,15.36,0,0,1-3,2.94,1.15,1.15,0,0,1-.68.24,1.13,1.13,0,0,1-.66-.28c-.51-.52-1-1-1.31-1.41q-4.28,4.55-8,4.54a5.5,5.5,0,0,1-4.7-2.36,8.78,8.78,0,0,1-1.57-5.4q0-7.59,6.81-13.74c-.16-.51-.66-2.62-1.5-6.31a25.57,25.57,0,0,0-1.43-4.52,20.07,20.07,0,0,1,5.41.77,1.24,1.24,0,0,1,.91,1.38,17.77,17.77,0,0,0,.19,2.74c.26,1.54.49,2.67.68,3.39A25.46,25.46,0,0,1,296.43,335Zm-12.57,10.2a12.71,12.71,0,0,0-3.34,8.33,4.12,4.12,0,0,0,.51,2.17,1.36,1.36,0,0,0,1.17.75c1.4,0,3.07-1.16,5-3.48A50.66,50.66,0,0,1,283.86,345.24Zm3.93-3.16a34.33,34.33,0,0,0,2.69,7,60,60,0,0,0,4.54-9.69A17.33,17.33,0,0,0,287.79,342.08Z" transform="translate(-87.72 -323.53)"/><path class="cls-1" d="M341.93,324.63a36.34,36.34,0,0,1,5.29,3.65.93.93,0,0,1,.38.75,1,1,0,0,1-.68.91,10.54,10.54,0,0,0-2.3,1.68q-7.87,7.06-13.07,12.45a2.43,2.43,0,0,0-.64,1.05c0,.25.22.54.64.87a130.72,130.72,0,0,1,17.82,15.09,1.25,1.25,0,0,1,.33.63.91.91,0,0,1-.33.56,44.74,44.74,0,0,1-3.32,3.32,1.29,1.29,0,0,1-.65.38c-.14,0-.34-.14-.59-.42a123.79,123.79,0,0,0-17.43-16.19q-2.55-2-2.55-4.05a4,4,0,0,1,.7-2.22,16.52,16.52,0,0,1,1.64-2q1.84-2,6.48-6.83c2.39-2.48,4.29-4.5,5.71-6A14.65,14.65,0,0,0,341.93,324.63Z" transform="translate(-87.72 -323.53)"/><path class="cls-1" d="M361,350.6a99.06,99.06,0,0,0,19.28-8.36H368.33l-5.95.1c-.24,0-.39,0-.44-.1a.76.76,0,0,1-.07-.42v-3.46c0-.31.17-.47.51-.47l5.95.1H378.5V333.4h-4.37l-6.08.09a.4.4,0,0,1-.54-.51v-3.42c0-.25,0-.39.09-.44a.84.84,0,0,1,.45-.07l6.08.09h4.37v-.68a25,25,0,0,0-.37-4.93c2,.06,3.72.18,5.17.35.51.05.77.2.77.47a2.74,2.74,0,0,1-.23,1,9.25,9.25,0,0,0-.35,3.29v.54h1.42l6-.09c.28,0,.44,0,.49.09a.65.65,0,0,1,.1.42v3.65a47.49,47.49,0,0,0,3.43-3.88,15.28,15.28,0,0,0,2.16-3.56,28.32,28.32,0,0,1,4.11,2.41,1.06,1.06,0,0,1,.59.87c0,.26-.18.48-.54.65a6.33,6.33,0,0,0-2,1.78,72.35,72.35,0,0,1-6.55,6.51h5.4l6-.1a.42.42,0,0,1,.47.47v3.46c0,.35-.16.52-.47.52l-6-.1H387.89q-2.91,2-5.83,3.79h9.31l6.44-.09c.26,0,.42,0,.49.12a1,1,0,0,1,.07.47l-.1,6.45v4.8l.1,8.75q0,.35-.12.42a.82.82,0,0,1-.44.07h-4c-.36,0-.54-.16-.54-.49V365h-16v1.73c0,.25,0,.4-.11.44s-.19.07-.42.07h-4c-.27,0-.42,0-.47-.09a.76.76,0,0,1-.07-.42l.09-9v-6.57q-4.74,2.14-7.13,3.09a8.91,8.91,0,0,1-1.05.32c-.27,0-.62-.39-1.06-1.19A10.21,10.21,0,0,0,361,350.6Zm32.33-.59h-16v3.51h16Zm-16,11h16V357.4h-16ZM391,333.49l-6-.09h-1.42V338h2.69a43.57,43.57,0,0,0,5.05-4.5Z" transform="translate(-87.72 -323.53)"/><path class="cls-1" d="M429.13,333.59q3-.54,6.81-1.62a.82.82,0,0,1,.26,0c.29,0,.46.17.49.51.18,1.28.3,2.43.35,3.44v.21c0,.36-.24.59-.73.7a74.08,74.08,0,0,1-8.33,1.83q-4.74,15.48-8.77,25.92c-.14.37-.33.56-.58.56a2,2,0,0,1-.47-.09,31.83,31.83,0,0,1-3.84-1.78.78.78,0,0,1-.44-.68.9.9,0,0,1,0-.28,188.65,188.65,0,0,0,8.31-22.69,81.79,81.79,0,0,1-8.38.53c-.59,0-.92-.25-1-.77-.17-.84-.4-2.3-.68-4.37a25.88,25.88,0,0,0,3.56.16,62.6,62.6,0,0,0,7.74-.49c.37-1.47.78-3.46,1.22-6a35.23,35.23,0,0,0,.28-4.4,29.59,29.59,0,0,1,6,1.34.74.74,0,0,1,.54.77,1.32,1.32,0,0,1-.24.77,13.53,13.53,0,0,0-1,1.9q-.25.93-.66,2.64C429.4,332.57,429.24,333.21,429.13,333.59Zm.87,22a18.5,18.5,0,0,1,4.07-.73.66.66,0,0,1,.72.68,4.28,4.28,0,0,0,2.34,3.7,11.55,11.55,0,0,0,5,.82,70.73,70.73,0,0,0,8-.68.56.56,0,0,1,.17,0c.25,0,.39.14.42.44a29.13,29.13,0,0,1,.37,4.19,1.58,1.58,0,0,1,0,.23c0,.31-.26.49-.78.52a44.18,44.18,0,0,1-6.52.53,29,29,0,0,1-7.77-.81,8.92,8.92,0,0,1-3.93-2.3C430.82,360.81,430.11,358.62,430,355.58Zm3.74-9.05c-.14-2.27-.21-3.72-.21-4.36a.92.92,0,0,1,.19-.7,1.39,1.39,0,0,1,.67-.26,47.32,47.32,0,0,1,9.34-1.1,34.26,34.26,0,0,1,5.61.47,1.75,1.75,0,0,1,.68.21c.1.08.14.25.14.52,0,.65.07,1.39.07,2.2,0,.48,0,1,0,1.61s-.19.91-.56.91a1.45,1.45,0,0,1-.35,0,30.53,30.53,0,0,0-5.94-.56A49.29,49.29,0,0,0,433.74,346.53Z" transform="translate(-87.72 -323.53)"/><path class="cls-1" d="M468.61,333.63c.14-.88.34-2.35.59-4.39.07-.88.11-1.63.11-2.27a13.2,13.2,0,0,0-.21-2.39,32.72,32.72,0,0,1,5.76,1c.64.2,1,.49,1,.86a1.35,1.35,0,0,1-.33.77,3.88,3.88,0,0,0-.82,1.76c-.33,1.78-.55,3.09-.68,3.93a76,76,0,0,0,9-1.78,2.26,2.26,0,0,1,.51-.09c.27,0,.43.19.49.58a21,21,0,0,1,.33,3.54.69.69,0,0,1-.58.77q-6.21,1.38-10.72,2-1,5.73-2.2,10.55a20.26,20.26,0,0,1,13.74-5.07,11,11,0,0,1,8.09,3,8.15,8.15,0,0,1,2.6,6,10.93,10.93,0,0,1-5.48,9.69q-3.88,2.52-12.21,3.83a23.12,23.12,0,0,1-3.53.33c-.49,0-.88-.38-1.19-1.15a10.12,10.12,0,0,0-2.6-3.41,62.38,62.38,0,0,0,8.47-1,31.53,31.53,0,0,0,5.28-1.66q5.46-2.26,5.46-6.76a4.18,4.18,0,0,0-1.55-3.4,6.15,6.15,0,0,0-3.91-1.16,16.53,16.53,0,0,0-7.67,1.84,14.56,14.56,0,0,0-4.94,4.1l-1.33,1.82c-.3.49-.56.73-.79.73h-.12a11.6,11.6,0,0,1-3.6-1.06c-.71-.31-1.06-.63-1.06-.95a3.24,3.24,0,0,1,.19-1c.16-.55.37-1.31.63-2.27q1.26-5,2.55-12.54-5.85.42-8.05.42a.82.82,0,0,1-.91-.68,38.25,38.25,0,0,1-.68-4.16Q463.1,334.06,468.61,333.63Z" transform="translate(-87.72 -323.53)"/><path class="cls-1" d="M504.46,349.42a15.2,15.2,0,0,0,3.65-2.25q2.52-2,7.44-6.43a5.55,5.55,0,0,1,3.61-1.74,4.52,4.52,0,0,1,1.91.38,9.36,9.36,0,0,1,1.7,1.16q8.49,6.79,9,7.14a109.24,109.24,0,0,0,9.82,6.1c.32.14.48.33.48.59a.5.5,0,0,1-.08.28,16.24,16.24,0,0,1-2,3.92c-.2.27-.38.4-.54.4a1.15,1.15,0,0,1-.59-.2,92.89,92.89,0,0,1-9-6.39q-3.09-2.33-8.72-7.36a2.83,2.83,0,0,0-1.83-.95c-.31,0-.78.29-1.42.87l-7,6.83a14.23,14.23,0,0,0-1.48,1.83.92.92,0,0,1-.75.51,1.11,1.11,0,0,1-.79-.37A32.13,32.13,0,0,1,504.46,349.42Z" transform="translate(-87.72 -323.53)"/><path class="cls-1" d="M142.33,382.14h4.52l4.35,16.69h.07l5.2-16.69h4.06l5.1,16.69h.07l4.54-16.69h4.19l-6.74,23.17h-3.93l-5.36-17.64h-.07L153,405.31h-3.8Z" transform="translate(-87.72 -323.53)"/><path class="cls-1" d="M187.78,382.14h3.57l10,23.17h-4.71l-2.16-5.3H184.41l-2.09,5.3H177.7ZM193,396.47l-3.57-9.42-3.63,9.42Z" transform="translate(-87.72 -323.53)"/><path class="cls-1" d="M219.85,387.11a3.88,3.88,0,0,0-1.75-1.39,6.2,6.2,0,0,0-2.31-.44,5.81,5.81,0,0,0-1.39.17,3.76,3.76,0,0,0-1.21.52,2.77,2.77,0,0,0-.87.93,2.69,2.69,0,0,0-.33,1.36,2.13,2.13,0,0,0,.82,1.8,8.39,8.39,0,0,0,2,1.08c.81.31,1.69.6,2.65.88a11.14,11.14,0,0,1,2.65,1.18,6.56,6.56,0,0,1,2,2,5.89,5.89,0,0,1,.82,3.3,7.28,7.28,0,0,1-.69,3.26,6.63,6.63,0,0,1-1.85,2.3,7.84,7.84,0,0,1-2.7,1.38,11.43,11.43,0,0,1-3.24.46,12.12,12.12,0,0,1-4.15-.72,8.06,8.06,0,0,1-3.44-2.42l3.11-3a5.17,5.17,0,0,0,2,1.79,5.65,5.65,0,0,0,2.6.64,5.5,5.5,0,0,0,1.44-.2,4.45,4.45,0,0,0,1.31-.59,3,3,0,0,0,.95-1,2.64,2.64,0,0,0,.36-1.39,2.4,2.4,0,0,0-.82-2,6.93,6.93,0,0,0-2-1.16c-.8-.32-1.69-.62-2.65-.9a11.5,11.5,0,0,1-2.65-1.16,6.46,6.46,0,0,1-2-2,5.89,5.89,0,0,1-.81-3.29,6.21,6.21,0,0,1,.73-3.1,6.75,6.75,0,0,1,1.93-2.18,8.39,8.39,0,0,1,2.73-1.29,11.63,11.63,0,0,1,6.7.13,8.28,8.28,0,0,1,3.09,1.83Z" transform="translate(-87.72 -323.53)"/><path class="cls-1" d="M232.51,382.14h15.35v3.73H236.63v5.69h10.64v3.73H236.63v6.29h11.81v3.73H232.51Z" transform="translate(-87.72 -323.53)"/><path class="cls-1" d="M258.39,382.14h9.13a14.24,14.24,0,0,1,4.42.7A10.72,10.72,0,0,1,275.7,385a10.54,10.54,0,0,1,2.62,3.61,12.44,12.44,0,0,1,1,5.12,10.77,10.77,0,0,1-4,8.76,12.23,12.23,0,0,1-4,2.12,13.79,13.79,0,0,1-4.27.71h-8.64Zm7.2,19.44a14.84,14.84,0,0,0,3.65-.44,8.84,8.84,0,0,0,3-1.38,6.52,6.52,0,0,0,2-2.42,8,8,0,0,0,.74-3.62,9.15,9.15,0,0,0-.65-3.6,6.33,6.33,0,0,0-1.82-2.43,7.66,7.66,0,0,0-2.75-1.38,13.15,13.15,0,0,0-3.48-.44h-3.77v15.71Z" transform="translate(-87.72 -323.53)"/><path class="cls-1" d="M292,382.14h3.56l10,23.17h-4.71L298.7,400h-10l-2.1,5.3H282Zm5.23,14.33-3.56-9.42-3.64,9.42Z" transform="translate(-87.72 -323.53)"/><path class="cls-1" d="M324.09,387.11a3.82,3.82,0,0,0-1.75-1.39,6.19,6.19,0,0,0-2.3-.44,5.75,5.75,0,0,0-1.39.17,3.67,3.67,0,0,0-1.21.52,2.77,2.77,0,0,0-.87.93,2.69,2.69,0,0,0-.33,1.36,2.1,2.1,0,0,0,.82,1.8,8.2,8.2,0,0,0,2,1.08c.8.31,1.69.6,2.65.88a11.14,11.14,0,0,1,2.65,1.18,6.67,6.67,0,0,1,2,2,6,6,0,0,1,.81,3.3,7.28,7.28,0,0,1-.68,3.26,6.74,6.74,0,0,1-1.85,2.3,8,8,0,0,1-2.7,1.38,11.53,11.53,0,0,1-3.24.46,12.22,12.22,0,0,1-4.16-.72,8,8,0,0,1-3.43-2.42l3.11-3a5.17,5.17,0,0,0,2,1.79,5.62,5.62,0,0,0,2.6.64,5.5,5.5,0,0,0,1.44-.2,4.57,4.57,0,0,0,1.31-.59,3,3,0,0,0,.95-1,2.64,2.64,0,0,0,.36-1.39,2.44,2.44,0,0,0-.82-2,7.06,7.06,0,0,0-2-1.16c-.81-.32-1.69-.62-2.65-.9a11.5,11.5,0,0,1-2.65-1.16,6.36,6.36,0,0,1-2-2,5.81,5.81,0,0,1-.82-3.29,6.21,6.21,0,0,1,.74-3.1,6.64,6.64,0,0,1,1.93-2.18,8.29,8.29,0,0,1,2.73-1.29,11.6,11.6,0,0,1,6.69.13,8.13,8.13,0,0,1,3.09,1.83Z" transform="translate(-87.72 -323.53)"/><path class="cls-1" d="M342.94,382.14h3.57l10,23.17h-4.72l-2.15-5.3H339.57l-2.09,5.3h-4.62Zm5.24,14.33-3.57-9.42L341,396.47Z" transform="translate(-87.72 -323.53)"/><path class="cls-1" d="M366.17,382.14h4.12v23.17h-4.12Z" transform="translate(-87.72 -323.53)"/><path class="cls-1" d="M383.22,401.15l9-8.7.82-.84a7.52,7.52,0,0,0,.76-.93,6.17,6.17,0,0,0,.58-1,2.93,2.93,0,0,0,.23-1.13,2.86,2.86,0,0,0-.28-1.27,2.9,2.9,0,0,0-.74-.95,3.1,3.1,0,0,0-1.06-.61,4,4,0,0,0-1.29-.21,3.5,3.5,0,0,0-2.43.85,3.62,3.62,0,0,0-1.14,2.29l-4.12-.33a7.17,7.17,0,0,1,.77-2.83,6.14,6.14,0,0,1,1.65-2,7.15,7.15,0,0,1,2.35-1.25,9.77,9.77,0,0,1,2.92-.42,10.15,10.15,0,0,1,2.92.41,7,7,0,0,1,2.38,1.21,5.6,5.6,0,0,1,1.6,2,6.79,6.79,0,0,1,.59,2.92,6.87,6.87,0,0,1-1,3.77,14.9,14.9,0,0,1-2.57,3L388,401.77h10.73v3.54H383.22Z" transform="translate(-87.72 -323.53)"/><path class="cls-1" d="M408,393.72a21.17,21.17,0,0,1,.44-4.69,12.56,12.56,0,0,1,1.16-3.27,7.65,7.65,0,0,1,1.62-2.13,7.07,7.07,0,0,1,1.83-1.21,7.34,7.34,0,0,1,1.8-.54,10,10,0,0,1,1.52-.13,9.84,9.84,0,0,1,1.52.13,7.34,7.34,0,0,1,1.8.54,7,7,0,0,1,1.84,1.21,7.65,7.65,0,0,1,1.62,2.13,13.33,13.33,0,0,1,1.16,3.27,25.27,25.27,0,0,1,0,9.39,13.33,13.33,0,0,1-1.16,3.27,7.8,7.8,0,0,1-1.62,2.13,7,7,0,0,1-1.84,1.21,7.34,7.34,0,0,1-1.8.54,9.84,9.84,0,0,1-1.52.13,10,10,0,0,1-1.52-.13A7.34,7.34,0,0,1,413,405a7.07,7.07,0,0,1-1.83-1.21,7.8,7.8,0,0,1-1.62-2.13,12.56,12.56,0,0,1-1.16-3.27A21.21,21.21,0,0,1,408,393.72Zm3.92,0a24.37,24.37,0,0,0,.15,2.51,11.79,11.79,0,0,0,.6,2.7,5.83,5.83,0,0,0,1.35,2.16,3.59,3.59,0,0,0,4.71,0,5.81,5.81,0,0,0,1.34-2.16,11.29,11.29,0,0,0,.6-2.7,21,21,0,0,0,0-5,11.29,11.29,0,0,0-.6-2.7,5.81,5.81,0,0,0-1.34-2.16,3.59,3.59,0,0,0-4.71,0,5.83,5.83,0,0,0-1.35,2.16,11.79,11.79,0,0,0-.6,2.7A24.19,24.19,0,0,0,411.88,393.72Z" transform="translate(-87.72 -323.53)"/><path class="cls-1" d="M440.12,386.66l-4.35,4L433.48,388l7-5.83h3.57v23.17h-3.93Z" transform="translate(-87.72 -323.53)"/><path class="cls-1" d="M459.75,405.31l5.56-8.58-.06-.06a2.94,2.94,0,0,1-1,.29,6.91,6.91,0,0,1-1.19.1,6.49,6.49,0,0,1-2.81-.59,6.68,6.68,0,0,1-2.21-1.6,7.27,7.27,0,0,1-1.44-2.36,7.9,7.9,0,0,1-.51-2.84,8.48,8.48,0,0,1,.62-3.28,7.39,7.39,0,0,1,1.72-2.5,7.61,7.61,0,0,1,2.62-1.59,9.51,9.51,0,0,1,3.29-.55,9.88,9.88,0,0,1,3.32.54,7.57,7.57,0,0,1,2.61,1.55,7.09,7.09,0,0,1,1.71,2.49,8.66,8.66,0,0,1,.6,3.3A8.86,8.86,0,0,1,472,393a21.21,21.21,0,0,1-1.56,3l-5.92,9.33Zm8.74-15.61a4.21,4.21,0,0,0-1.23-3,4,4,0,0,0-1.34-.9,4.29,4.29,0,0,0-3.3,0,3.9,3.9,0,0,0-1.35.9,4.16,4.16,0,0,0-.9,1.34,4.24,4.24,0,0,0,.9,4.64,3.9,3.9,0,0,0,1.35.9,4.29,4.29,0,0,0,3.3,0,4,4,0,0,0,1.34-.9,4.27,4.27,0,0,0,.9-1.34A4.12,4.12,0,0,0,468.49,389.7Z" transform="translate(-87.72 -323.53)"/></svg>