<svg id="レイヤー_1" data-name="レイヤー 1" xmlns="http://www.w3.org/2000/svg" viewBox="0 0 600 600" width="600" height="600"><defs><style>.cls-1{fill:#c8465e;}.cls-2{fill:#dbd849;}.cls-3{fill:none;}</style></defs><title>logo_square</title><path class="cls-1" d="M359.34,61.66l-39.59,39.59-18.42,18.42L256,165a123.49,123.49,0,0,0,0,174.65l5.81,5.81,18.42,18.42,39.59,39.59,39.51-39.51,39.51,39.51L550,252.31Zm18.42,283.86L359.34,327.1l-18.42,18.42-21.09,21.09-21.17-21.17L280.24,327l-5.81-5.81a97.45,97.45,0,0,1,0-137.81l45.32-45.32,18.42-18.42L359.34,98.5,513.16,252.31l-114.3,114.3Z"/><path class="cls-2" d="M279.83,293.53l2.83,2.91,22.08-22.68a49.74,49.74,0,0,0,0-68.95l-2.83-2.91-22.08,22.68a49.68,49.68,0,0,0,0,68.95Z"/><path class="cls-1" d="M344,300.12a123.5,123.5,0,0,0,0-174.65l-5.81-5.81-18.42-18.42L280.17,61.66l-39.51,39.51L201.14,61.66,89.45,173.35l18.42,18.42L201.14,98.5l21.09,21.09L240.66,138l18.42-18.42L280.17,98.5l21.17,21.17,18.42,18.42,5.81,5.81a97.56,97.56,0,0,1,0,137.81L280.24,327l-18.42,18.42-21.17,21.17L68.52,194.28,50,212.8,240.66,403.46l39.59-39.59,18.42-18.42Z"/><polygon class="cls-1" points="77.1 423.46 77.1 491.33 85.75 491.33 85.75 432.19 103.45 432.19 103.45 423.46 77.1 423.46"/><path class="cls-1" d="M135.87,482.79a60.63,60.63,0,0,0-5.62-7.8,50.69,50.69,0,0,1-10.4,12.92l-7.45-4.57a42.29,42.29,0,0,0,12.36-14,31.22,31.22,0,0,0-4.5-3.37c-.28.91-.35,1.12-.84,2.46l-8.22-1.62a123.49,123.49,0,0,0,6.18-21.56h-5.2v-7h6.39a92,92,0,0,0,1.05-10.89l8.78.63c.28,0,1.33.14,1.33.91,0,.28-.07.49-.7.7s-.77.56-.91,1c-.35,2.25-.91,5.2-1.4,7.66h11c.28,14.82-1,20.58-3.72,28.73a61,61,0,0,1,8.15,9.55Zm-10.54-37.51c-1.55,7.23-2.11,9.69-2.81,12.57a57,57,0,0,1,5.34,3.79,56,56,0,0,0,2.53-16.37ZM158.56,460v21.42c0,4.57-4,6.39-8.08,6.39h-4.28l-3.86-9.41c.42.07,2.46.49,3,.63a12.14,12.14,0,0,0,2.25.21c1.9,0,2.67-.49,2.67-3.37V460H138.47v-7.66H150.2v-9.9l3.58,1a31.64,31.64,0,0,0,5.27-6.18H139.52v-7.16h27.82l4.42,4.28c-4.92,5.76-11,12.29-13.21,14.54v3.44h14V460Z"/><path class="cls-1" d="M216,453.64c4.36,8.29,6.6,11.31,9.27,14.61L221,473.59c-3.37-1.83-10.33-5.34-18.4-5.34-4.64,0-8.5,2-8.5,5.76,0,6,9.13,6,11.52,6a51.24,51.24,0,0,0,14-1.9l-.7,8.29a70.6,70.6,0,0,1-11.1.84c-12.64,0-21.35-4-21.35-13.28,0-9.62,7.59-12.22,15.52-12.22a53.64,53.64,0,0,1,10,1.12c-1.69-3-2.32-4.28-3.65-6.88A90.62,90.62,0,0,1,185.88,459L183.43,452c10-.07,14.54-.49,22.13-2.11-1.05-2.39-1.83-4.14-2.53-5.76a80.65,80.65,0,0,1-16.72,1.9l-2.18-6.74a86.58,86.58,0,0,0,16.37-1.4c-1.62-4.35-2.39-6.6-3.51-9.9l8-.91c.56-.07,2.32-.28,2.32.56,0,.35-.21.56-.56.91-.56.56-.63.77-.63,1a61.23,61.23,0,0,0,2.11,6.46,67.8,67.8,0,0,0,12-5.41l1.55,6.81a46.26,46.26,0,0,1-11.1,4.78c.91,2.18,1.19,2.88,2.32,5.34a80.05,80.05,0,0,0,12.78-6.32l1.26,7A52,52,0,0,1,216,453.64Z"/><polygon class="cls-1" points="253.42 426.75 253.42 485.89 235.72 485.89 235.72 494.61 236.46 494.61 262.07 494.61 262.07 426.75 253.42 426.75"/><path class="cls-1" d="M285.23,484l-4.11,1.61a15.91,15.91,0,0,1-1.93-4.11,45.33,45.33,0,0,1-2.13-13.68,92,92,0,0,1,.78-10.25A102.59,102.59,0,0,1,280,445.73l5.31,1.93c.36.16,1.35.52,1.35.94a.62.62,0,0,1-.26.47l-.88.36c-.78.47-3,9.89-3,17.74a28.61,28.61,0,0,0,.73,7.13c.62-1.09.94-1.61,2.08-3.64l3.07,1.66A46.18,46.18,0,0,0,285.23,484Zm18.63-1.51c-9.47,0-11.45-2.55-11.6-11.34l5.67-.78c.05,4.94.57,6.35,5.83,6.35a42.48,42.48,0,0,0,11.86-1.61v6.45A71.16,71.16,0,0,1,303.86,482.52Zm-4.16-26.75c-.42,0-2.81,0-5.57-.26v-5.72a45.8,45.8,0,0,0,6.66.57,36.34,36.34,0,0,0,12.33-2.13v6A69.87,69.87,0,0,1,299.7,455.78Z"/><path class="cls-1" d="M334.56,442.68a68.37,68.37,0,0,1-2.88,14.82l-6.6-1.9a65.81,65.81,0,0,0,3.23-16.37l6.53,1.19c1.33.21,1.4.63,1.4,1C336.25,442.19,335.41,442.47,334.56,442.68Zm14,10.61V447.6a26.39,26.39,0,0,0-4.21-5.55v45.59h-7.8V427.23l8.85,1c.49.07,1.19.21,1.19.84s-.56.91-1,1.12-1.26.63-1.26,1.41v8.57l2.88-2.95a26.15,26.15,0,0,1,6.32,6.67L349,447.53h15.1v-2.74H353.88v-5.27h10.18v-2.81H349.73v-5.34h14.33V427.3l8.57.63c.35,0,.91.28.91.56s-.28.56-.49.77a2,2,0,0,0-1.05,2.11h16.23v5.34H372v2.81h11.66v5.27H372v2.74h16.51v5.76Zm24.87,35.05L370.1,481a26,26,0,0,0,4.28.56c1.55,0,2-.7,2-1.83v-2H359.78v9.83h-7.66V456.1h32v26.62C384.15,487.92,379.31,488.27,373.41,488.34Zm3-26.55H359.78v2.6h16.65Zm0,7.73H359.78v3h16.65Z"/><path class="cls-1" d="M414.5,477.8a36.55,36.55,0,0,1-9.48,11l-6.32-5.34a32.65,32.65,0,0,0,10-11.1l6.81,3.16c.42.21,1.12.63,1.12,1.33S415.48,477.73,414.5,477.8Zm41-5.2c-.35,0-6.32-.7-8.15-11l-2.25,2.74a47.84,47.84,0,0,0-3.51-3.72,40.59,40.59,0,0,1-7,11.94l-6.25-4L429,468c-5,.77-10,1.48-15.1,2-1.05.14-6,.49-7.09.63s-2.74.21-3.16.77c-.7.77-.77.91-1.05.91-.63,0-.91-1.19-1-1.62l-1.05-5.9c2.81,0,5.69-.14,11.87-.56v-2.46h-9.62v-5.34h2.39L400.81,452c3.93-1.62,6.11-3.16,7.16-6.53h-7V440h11.73v-2.53h-9.62v-5.27h9.62v-4.28l7.09.42c.28,0,2.11.07,2.11.91,0,.49-.7.7-1.4,1.26v1.69h9.62v5.27h-9.62V440h11l-.21-2.18,7.09-.49c-.14-3.51-.21-5.62-.7-10.4l6.88.84c1.26.14,2,.49,2,1.19a1,1,0,0,1-.28.63c-.77.7-.84.7-.91,1,0,.07-.07,5.34-.07,6.32l10.68-.84a56.4,56.4,0,0,0-2.25,16.58c0,1.69,0,8.64,1.69,8.64.63,0,1.05-2.32,1.26-3.65l5.13,4.07C460.93,465.65,459,472.6,455.45,472.6Zm-38.21-21.85v-5.27h-7.8l4.5,1.9c.28.14,1.05.42,1.05,1.12,0,.49-.63.63-1.48.7a13.94,13.94,0,0,1-7.16,7.23h6.11V453l6,.35A3.22,3.22,0,0,1,417.24,450.76Zm3.16,36.53a47.21,47.21,0,0,0-2.53-12.57l7.52-1.19a70.46,70.46,0,0,1,3,12.43Zm11-34.7c-.77.91-1.54,1.62-4.35,1.62h-4.92a10.73,10.73,0,0,1-1.62-.14v2.39h8.36v5.34h-8.36v2c2.67-.21,5.06-.42,8.85-.91l.35,4.42A30.55,30.55,0,0,0,436.21,456,37.94,37.94,0,0,0,431.43,452.58Zm.42-8.22v1.12h-7.94v1.9c0,1.26.42,1.48,1.69,1.48,1.69,0,1.76-.42,2.18-2.11l5.13,1.4a17.42,17.42,0,0,1-.63,2.74l3-3.58c.49.35,1.76,1.33,2.67,2a30.57,30.57,0,0,0,.42-5.34Zm2.88,42.57a42.37,42.37,0,0,0-3.23-11.66l6.81-1.9a47.35,47.35,0,0,1,3.93,11.52ZM445,443.52a74.84,74.84,0,0,1-1.33,10.4c1,.91,2.11,1.9,3.3,3.16-.07-3.86.07-6.81.35-13.7Zm8.85,44.39a58.69,58.69,0,0,0-9.62-12.08l6.32-4.35a55.7,55.7,0,0,1,9.62,11.45Z"/><path class="cls-1" d="M498,467.67c0,2,.1,8.48.1,10.25h-6c.16-3,.21-5.52.26-7.81-2,1-7.39,3.69-7.39,7.34,0,3.38,4,4.06,7.81,4.06A60.16,60.16,0,0,0,506,479.85v5.88a86.13,86.13,0,0,1-12.38.78c-2.91,0-9,0-12.23-3.49a7.12,7.12,0,0,1-2-5.1c0-6.45,4.79-8.9,12.59-12.9-.31-1.56-.94-3.43-4-3.43-5.1,0-8.22,4.73-11.08,9.42l-5.1-3.17a69.17,69.17,0,0,0,10.25-14.31c-3,.16-4.58.21-6.76.21l-.62-5.41a73.24,73.24,0,0,0,9.94.21,40.32,40.32,0,0,0,2.6-6.92l6.5,1.14c.16.05,1,.16,1,.52s-.21.47-.52.57c-.1.05-1.14.52-1.2.52s-1.35,3-1.61,3.54a43.92,43.92,0,0,0,10.2-2.65l-.36,5.83a109.48,109.48,0,0,1-12.44,2c-1.67,3.07-2.08,3.8-3,5.15a10.06,10.06,0,0,1,4.47-1.09c3.59,0,5.88,1.82,7.08,5.26,6.09-2.86,6.76-3.17,9.21-4.27l1.77,5.93C504.37,465.33,501.88,466.21,498,467.67Z"/><path class="cls-1" d="M530.48,479.22a8,8,0,1,1-8-8A8.09,8.09,0,0,1,530.48,479.22Zm-13.58,0a5.54,5.54,0,1,0,5.57-5.52A5.56,5.56,0,0,0,516.9,479.22Z"/><path class="cls-3" d="M344,300.12l-45.32,45.32,21.17,21.17,21.09-21.09,18.42-18.42,18.42,18.42,21.09,21.09,114.3-114.3L359.34,98.5l-21.17,21.17,5.81,5.81A123.5,123.5,0,0,1,344,300.12Z"/><path class="cls-3" d="M245.89,252.31a96.81,96.81,0,0,0,28.54,68.9l5.81,5.81,45.32-45.32a97.56,97.56,0,0,0,0-137.81l-5.81-5.81-45.32,45.32A96.81,96.81,0,0,0,245.89,252.31Zm56-50.4,2.83,2.91a49.74,49.74,0,0,1,0,68.95l-22.08,22.68-2.83-2.91a49.68,49.68,0,0,1,0-68.95Z"/><path class="cls-3" d="M344,300.12l-45.32,45.32,21.17,21.17,21.09-21.09,18.42-18.42,18.42,18.42,21.09,21.09,114.3-114.3L359.34,98.5l-21.17,21.17,5.81,5.81A123.5,123.5,0,0,1,344,300.12Z"/><path class="cls-1" d="M204.71,530.23v7.72h-4.58v-7.72H186.94V526.4h13.19v-3.07h-9.87V507.67h24.38v15.66h-9.94v3.07H217.9v3.82Zm5.61-19H194.59v2.4h15.73Zm0,5.83H194.59v2.61h15.73Z"/><path class="cls-1" d="M237.61,522.11a.92.92,0,0,0-.36.68v14.94h-3.93V525.51l-2.25,2.22a10,10,0,0,1-1.54-1.82v11.9h-3.82V527a15.46,15.46,0,0,1-2.4,3.75l-3.15-2.25a24.2,24.2,0,0,0,4.93-9.15h-3.79v-4h4.4V512c-1.43.18-2.22.25-3.36.32l-1.54-3.54a27.3,27.3,0,0,0,10.51-1.86l2.18,3a1.07,1.07,0,0,1,.29.68c0,.32-.36.32-.39.32-.25,0-1.29-.25-1.54-.25a5.72,5.72,0,0,0-1.54.36,4.6,4.6,0,0,1-.79.21v4.18H233v4h-3.5a13.1,13.1,0,0,0,3.79,5v-3.65l3.79.36c.64.07.82.25.82.54S237.9,521.9,237.61,522.11Zm13.12-11.51c-.14,0-.89-.18-1.07-.18s-1.61.32-1.89.39a66,66,0,0,1-11,1c-1,0-1.54,0-2.18-.07L233,507.81a24.81,24.81,0,0,0,4.47.32,36.09,36.09,0,0,0,11.4-1.47l2,2.79a1.13,1.13,0,0,1,.25.64A.43.43,0,0,1,250.73,510.6Zm-15.48,9.9a21.7,21.7,0,0,0-2.18-6.4l3.61-1.11a21.66,21.66,0,0,1,2.36,6.43Zm5.4-1a19.72,19.72,0,0,0-1.89-6l3.86-1a22.38,22.38,0,0,1,1.89,6.51Zm7,18.27v-1.36h-5.11v1.36h-3.75V521.25h12.58v16.55Zm0-13.23h-5.11V527h5.11Zm0,6h-5.11v2.54h5.11Zm4.86-17.05c-.61.25-.64.25-.79.5a59.64,59.64,0,0,1-3.68,7.18l-3.5-1.64a68.45,68.45,0,0,0,3.86-8.19l3.72,1.25c.29.11.64.25.64.54A.37.37,0,0,1,252.52,513.53Z"/><path class="cls-1" d="M282.06,536.48v-1.25H261.54v1.5h-4v-28h28.63v27.74Zm-12.37-24.09h-8.12v7.36h8.12Zm0,11h-8.12v8.26h8.12Zm12.4-11H274v7.36h8.11Zm0,11H274v8.26h8.11Z"/><path class="cls-1" d="M319.14,524.51a22.7,22.7,0,0,1-5.68-4.08v1.82H299.87v-1.72a26.41,26.41,0,0,1-4.79,4.11h26.74v3.58H308.88v6c0,2.79-1.22,4.15-3.93,4.15h-2.4L300.48,534a18,18,0,0,0,2.72.25c1.07,0,1.32-.29,1.32-1.5v-4.54H291.44v-3.58h2.22l-2.86-2.18a15.24,15.24,0,0,0,5.15-3.11,16.77,16.77,0,0,0-1.75-2.43c-.36.39-.75.72-1.14,1.07l-3-2.11a28.24,28.24,0,0,0,6.26-9.08l3.54.54c.64.11.93.22.93.5s-.11.25-.46.43-.54.25-.61.39h5.54L306,510a25.68,25.68,0,0,1-4.54,8.69h10.3a24.73,24.73,0,0,1-5.72-10.58l3.57-1.29a27.54,27.54,0,0,0,1.89,4.83v-3h8.19l1.72,1.82c-1.36,2.07-3.68,5.25-5.29,7.26a25.25,25.25,0,0,0,5.86,3.86Zm-16.77,7c-.11.07-.82.11-.93.22a27,27,0,0,1-6.36,5.9l-3.4-2.61a23.67,23.67,0,0,0,6.79-6l3.36,1.68c.25.11.75.36.75.61A.27.27,0,0,1,302.38,531.48Zm-5.79-17.3c-.07.07-.61.79-.64.86a15.69,15.69,0,0,1,2,2.36c.14-.11.5-.54.82-.89A17.57,17.57,0,0,0,296.58,514.18Zm1.64-2.54c-.07.11-.25.39-.32.54a11.57,11.57,0,0,1,2.43,2.18,10.31,10.31,0,0,0,1.25-2.72Zm19.05,26.31a43.58,43.58,0,0,0-6.51-6.72l3.07-2.43a50.71,50.71,0,0,1,6.79,6.08Zm-5.68-26.13a21.47,21.47,0,0,0,2,3.22,21.74,21.74,0,0,0,2.11-3.22Z"/><path class="cls-1" d="M326.68,537c.7-5.09,2.47-8.15,8.93-12.89,4.19-3.06,5.44-4.62,5.44-7.13a4.48,4.48,0,0,0-4.46-4.74c-4,0-4.07,4.11-4.11,6.23h-5c.08-2.55.39-10.57,9.24-10.57,5.87,0,9.67,4.07,9.67,9.09,0,4.58-3.25,7.17-7,9.75s-4.82,3.76-6,6.15h13.24V537Z"/><path class="cls-1" d="M360.79,537.5c-9.09,0-9.95-10.65-9.95-14.33,0-4.7.82-15.31,9.95-15.31a8.45,8.45,0,0,1,7.52,4.19c2,3.13,2.43,6.93,2.43,10.61S370.15,537.5,360.79,537.5Zm-.08-25.42c-2.62,0-4.5,1.92-4.5,10.57,0,9,2,10.61,4.58,10.61,2.86,0,4.54-2.19,4.54-10.61C365.34,513.61,363.3,512.08,360.72,512.08Z"/><path class="cls-1" d="M381.78,537v-19.9H374v-3.72h2.27a6.39,6.39,0,0,0,6.23-5h4.23V537Z"/><path class="cls-1" d="M403.11,537.66c-6.42,0-9.95-4-9.95-8.81,0-4.39,2.94-6.31,4.54-7.32a6,6,0,0,1-3.72-5.87c0-4,3.21-7.64,9.13-7.64s9.09,3.68,9.09,7.64a6,6,0,0,1-3.72,5.87c1.64,1,4.58,2.94,4.58,7.32C413.06,533.67,409.5,537.66,403.11,537.66Zm0-13.71a4.74,4.74,0,0,0,0,9.48,4.74,4.74,0,0,0,0-9.48Zm0-11.51a3.76,3.76,0,0,0-4,3.88,3.94,3.94,0,0,0,7.87,0A3.72,3.72,0,0,0,403.11,512.44Z"/></svg>