<svg id="レイヤー_1" data-name="レイヤー 1" xmlns="http://www.w3.org/2000/svg" xmlns:xlink="http://www.w3.org/1999/xlink" viewBox="0 0 535.89 492.6"><defs><style>.cls-1{fill:none;}.cls-2{clip-path:url(#clip-path);}.cls-3{fill:#8e84b1;}.cls-4{fill:#f4d723;}.cls-5{fill:#092738;}</style><clipPath id="clip-path" transform="translate(-55.81 -138.12)"><circle class="cls-1" cx="310.56" cy="376.14" r="226.68"/></clipPath></defs><title>名称未設定-2</title><g class="cls-2"><path class="cls-3" d="M83.88,536.75v-388a10.71,10.71,0,0,1,10.82-10.6H490.64c9.64,0,14.47,11.42,7.65,18.1l-395.94,388C95.54,550.93,83.88,546.19,83.88,536.75Z" transform="translate(-55.81 -138.12)"/><path class="cls-3" d="M591.7,271.11v345.5c0,7.79-9.37,14.1-20.93,14.1H331.52c-15.32,0-25.45-10.72-19-20.07l193.26-395C515.28,202,591.7,256,591.7,271.11Z" transform="translate(-55.81 -138.12)"/><ellipse class="cls-4" cx="213.84" cy="359.2" rx="71.29" ry="28.68"/><line class="cls-1" x1="81.95" y1="371.43" x2="81.95" y2="371.43"/><polygon class="cls-4" points="119.42 334.92 21.99 112.96 190.96 264.81 119.42 334.92"/><polygon class="cls-5" points="41.7 157.85 0 261.5 73.17 379.98 119.42 334.92 41.7 157.85"/></g></svg>