<svg id="レイヤー_1" data-name="レイヤー 1" xmlns="http://www.w3.org/2000/svg" viewBox="0 0 970.01 328.45" width="1000" height="500"><defs><style>.cls-1{fill:#fff;}.cls-2{fill:none;}.cls-3{fill:#dbd849;}</style></defs><title>logo</title><path class="cls-1" d="M239.24,0,208.62,30.62,194.38,44.86,159.32,79.91a95.51,95.51,0,0,0,0,135.07l4.49,4.49,14.25,14.24,30.62,30.62,30.56-30.56,30.56,30.56L386.68,147.45Zm14.25,219.53-14.25-14.24L225,219.53l-16.31,16.31-16.37-16.37-14.24-14.25-4.49-4.49a75.36,75.36,0,0,1,0-106.58l35.05-35.05,14.24-14.24,16.37-16.37,119,119-88.4,88.4Z"/><path class="cls-2" d="M227.36,184.42l-35.05,35.05,16.37,16.37L225,219.53l14.24-14.24,14.25,14.24,16.31,16.31,88.4-88.4-119-119L222.87,44.86l4.49,4.49A95.51,95.51,0,0,1,227.36,184.42Z"/><path class="cls-2" d="M151.5,147.45a74.87,74.87,0,0,0,22.07,53.29l4.49,4.49,35.05-35.05a75.45,75.45,0,0,0,0-106.58l-4.49-4.49L173.57,94.16A74.87,74.87,0,0,0,151.5,147.45Zm43.32-39,2.19,2.25A38.47,38.47,0,0,1,197,164l-17.08,17.54-2.19-2.25a38.42,38.42,0,0,1,0-53.32Z"/><path class="cls-3" d="M177.74,179.32l2.19,2.25L197,164a38.47,38.47,0,0,0,0-53.32l-2.19-2.25L177.74,126a38.42,38.42,0,0,0,0,53.32Z"/><path class="cls-2" d="M227.36,184.42l-35.05,35.05,16.37,16.37L225,219.53l14.24-14.24,14.25,14.24,16.31,16.31,88.4-88.4-119-119L222.87,44.86l4.49,4.49A95.51,95.51,0,0,1,227.36,184.42Z"/><path class="cls-1" d="M227.36,184.42a95.51,95.51,0,0,0,0-135.07l-4.49-4.49L208.62,30.62,178,0,147.45,30.56,116.89,0,30.51,86.38l14.25,14.25,72.14-72.14L133.2,44.8,147.45,59,161.69,44.8,178,28.49l16.37,16.37,14.25,14.25,4.49,4.49a75.45,75.45,0,0,1,0,106.58l-35.05,35.05-14.25,14.25-16.37,16.37L14.32,102.57,0,116.89,147.45,264.34l30.62-30.62,14.24-14.24Z"/><path class="cls-1" d="M12.11,295l4.3,18.65.94,5.19.94-5.08L22,295h7.18L33,313.69l1,5.19,1-5L39.35,295h6.93l-9.16,32.56H30.6l-3.93-19-1.15-6.3-1.15,6.3-3.93,19H14.12L4.88,295Z"/><path class="cls-1" d="M55.21,295h7.7l11.52,32.56H67.05l-2.15-6.69h-12l-2.21,6.69H43.59Zm-.45,20.26H63.1L59,302.49Z"/><path class="cls-1" d="M83.48,317.56a6.61,6.61,0,0,0,1.24,3.34q1.69,2,5.8,2a12.47,12.47,0,0,0,4-.53,3.79,3.79,0,0,0,2.91-3.78A2.78,2.78,0,0,0,96,316.1a15.49,15.49,0,0,0-4.52-1.52l-3.53-.77q-5.2-1.15-7.14-2.5-3.29-2.25-3.29-7A9.36,9.36,0,0,1,80.74,297Q84,294.1,90.2,294.1a14.51,14.51,0,0,1,8.89,2.73,9.7,9.7,0,0,1,3.86,7.92H96.4a4.66,4.66,0,0,0-2.63-4.17,9,9,0,0,0-4.05-.82,7.71,7.71,0,0,0-4.3,1.06,3.35,3.35,0,0,0-1.61,3,2.79,2.79,0,0,0,1.59,2.61,19.59,19.59,0,0,0,4.33,1.35l5.71,1.35a14.56,14.56,0,0,1,5.63,2.36,8,8,0,0,1,2.91,6.65,9.34,9.34,0,0,1-3.45,7.41q-3.45,2.95-9.75,2.95t-10.12-2.91a9.61,9.61,0,0,1-3.68-8Z"/><path class="cls-1" d="M133.06,300.82H115.83v6.91h15.82v5.66H115.83v8.37h18v5.85H109.18V295h23.88Z"/><path class="cls-1" d="M158.24,295.76a10.76,10.76,0,0,1,5.55,4.13,14.49,14.49,0,0,1,2.32,5.26,25.19,25.19,0,0,1,.62,5.39,21.64,21.64,0,0,1-2.61,11q-3.54,6.08-10.92,6.08h-14V295h14A17.18,17.18,0,0,1,158.24,295.76Zm-12.47,4.95V322H152q4.82,0,6.73-4.75a16.72,16.72,0,0,0,1-6.21q0-5-1.56-7.63T152,300.7Z"/><path class="cls-1" d="M179.87,295h7.7l11.52,32.56h-7.38l-2.15-6.69h-12l-2.21,6.69h-7.12Zm-.45,20.26h8.34l-4.11-12.81Z"/><path class="cls-1" d="M208,317.56a6.61,6.61,0,0,0,1.24,3.34q1.69,2,5.8,2a12.47,12.47,0,0,0,4-.53,3.79,3.79,0,0,0,2.91-3.78,2.78,2.78,0,0,0-1.42-2.5,15.49,15.49,0,0,0-4.52-1.52l-3.53-.77q-5.2-1.15-7.14-2.5-3.29-2.25-3.29-7a9.36,9.36,0,0,1,3.22-7.27q3.22-2.89,9.46-2.89a14.51,14.51,0,0,1,8.89,2.73,9.7,9.7,0,0,1,3.86,7.92h-6.54a4.66,4.66,0,0,0-2.63-4.17,9,9,0,0,0-4.05-.82,7.71,7.71,0,0,0-4.3,1.06,3.35,3.35,0,0,0-1.61,3,2.79,2.79,0,0,0,1.59,2.61,19.59,19.59,0,0,0,4.33,1.35l5.71,1.35a14.56,14.56,0,0,1,5.63,2.36,8,8,0,0,1,2.91,6.65A9.34,9.34,0,0,1,225,325.5q-3.45,2.95-9.75,2.95t-10.12-2.91a9.61,9.61,0,0,1-3.68-8Z"/><path class="cls-1" d="M242.54,295h7.7l11.52,32.56h-7.38l-2.15-6.69h-12L238,327.61h-7.12Zm-.45,20.26h8.34l-4.11-12.81Z"/><path class="cls-1" d="M273.61,327.61h-6.76V295h6.76Z"/><path class="cls-1" d="M282.49,320.76q1.39-3.3,6.55-7a48.08,48.08,0,0,0,5.8-4.6,6.79,6.79,0,0,0,2-4.73,5.25,5.25,0,0,0-1.16-3.48,4.73,4.73,0,0,0-7.35.82,11,11,0,0,0-.73,4.05h-6.3a15.94,15.94,0,0,1,1.53-6.8q2.6-4.94,9.23-4.94a11.71,11.71,0,0,1,8.34,2.9,10,10,0,0,1,3.1,7.68,10.39,10.39,0,0,1-2.19,6.51,21.77,21.77,0,0,1-4.72,4.21l-2.6,1.84q-2.44,1.73-3.34,2.5a7.32,7.32,0,0,0-1.51,1.8h14.41v5.71H281A15.5,15.5,0,0,1,282.49,320.76Z"/><path class="cls-1" d="M328.74,298.45q2.54,4.44,2.54,12.61t-2.54,12.58q-2.54,4.42-8.84,4.42t-8.84-4.42q-2.54-4.42-2.54-12.58t2.54-12.61q2.54-4.44,8.84-4.44T328.74,298.45Zm-12.67,21.31a3.75,3.75,0,0,0,3.82,3,3.7,3.7,0,0,0,3.79-3,32.23,32.23,0,0,0,.9-8.7,31.89,31.89,0,0,0-.9-8.83,3.67,3.67,0,0,0-3.79-2.87,3.72,3.72,0,0,0-3.82,2.87,30.7,30.7,0,0,0-.93,8.83A31,31,0,0,0,316.07,319.77Z"/><path class="cls-1" d="M336.21,304.72V300.3a28.64,28.64,0,0,0,4.29-.41,6.05,6.05,0,0,0,3.18-1.73A5.71,5.71,0,0,0,345,295.8a5.47,5.47,0,0,0,.25-1.32h5.42v33H344V304.72Z"/><path class="cls-1" d="M361.39,313.3a8,8,0,0,1,3.68-3.39,7.7,7.7,0,0,1-3.12-3.45,9.61,9.61,0,0,1-.72-3.47,8.09,8.09,0,0,1,2.71-6.13q2.71-2.54,7.66-2.54t7.66,2.54A8.09,8.09,0,0,1,382,303a9.66,9.66,0,0,1-.72,3.47,6.63,6.63,0,0,1-3.11,3.22,9.17,9.17,0,0,1,3.68,3.62,10.29,10.29,0,0,1,1.23,5,9.4,9.4,0,0,1-3.09,7.09q-3.09,2.92-8.62,2.92T363,325.42a9.79,9.79,0,0,1-2.85-7.09A10.17,10.17,0,0,1,361.39,313.3Zm6.75,8.38a5.22,5.22,0,0,0,7,0,6.32,6.32,0,0,0,0-7.61,5.26,5.26,0,0,0-6.94,0,6.32,6.32,0,0,0,0,7.61Zm.41-15a4.09,4.09,0,0,0,3.07,1.14,4,4,0,0,0,3.07-1.14,4.08,4.08,0,0,0,1.08-2.94,4.18,4.18,0,0,0-1.08-3.06,4.1,4.1,0,0,0-3.07-1.1,3.83,3.83,0,0,0-4.18,4.17A4,4,0,0,0,368.55,306.65Z"/><polygon class="cls-1" points="428.8 7.91 428.8 136.97 445.25 136.97 445.25 24.5 478.91 24.5 478.91 7.91 428.8 7.91"/><path class="cls-1" d="M540.56,120.73a115.31,115.31,0,0,0-10.69-14.83,96.4,96.4,0,0,1-19.77,24.58l-14.16-8.68c7.61-5.61,15.49-12.69,23.51-26.58a59.37,59.37,0,0,0-8.55-6.41c-.53,1.74-.67,2.14-1.6,4.67L493.67,90.4a234.84,234.84,0,0,0,11.75-41h-9.88V36H507.7c1.47-10.82,1.87-15.49,2-20.71l16.7,1.2c.53,0,2.54.27,2.54,1.74,0,.53-.13.93-1.34,1.34-1.34.67-1.47,1.07-1.74,1.87-.67,4.27-1.74,9.88-2.67,14.56H544c.53,28.18-1.87,39.14-7.08,54.63a116,116,0,0,1,15.49,18.17Zm-20-71.33c-2.94,13.76-4,18.43-5.34,23.91a108.44,108.44,0,0,1,10.15,7.21,106.47,106.47,0,0,0,4.81-31.12Zm63.18,28.05v40.74c0,8.68-7.61,12.16-15.36,12.16H560.2l-7.35-17.9c.8.13,4.68.93,5.61,1.2a23.09,23.09,0,0,0,4.27.4c3.61,0,5.08-.93,5.08-6.41V77.45H545.5V62.89h22.31V44.05l6.81,1.87a60.18,60.18,0,0,0,10-11.75H547.51V20.54h52.9l8.41,8.15c-9.35,11-21,23.38-25.11,27.65v6.55h26.58V77.45Z"/><path class="cls-1" d="M693,65.29c8.28,15.76,12.56,21.51,17.63,27.78l-8.15,10.15c-6.41-3.47-19.64-10.15-35-10.15-8.82,0-16.16,3.74-16.16,11,0,11.35,17.37,11.35,21.91,11.35a97.45,97.45,0,0,0,26.72-3.61l-1.34,15.76a134.25,134.25,0,0,1-21.11,1.6c-24,0-40.61-7.61-40.61-25.25,0-18.3,14.43-23.24,29.52-23.24a102,102,0,0,1,19.1,2.14c-3.21-5.74-4.41-8.15-6.95-13.09-14,3.47-25.51,5.61-42.88,5.88L631,62.09c19-.13,27.65-.93,42.08-4-2-4.54-3.47-7.88-4.81-11-13.49,2.67-21,3.47-31.79,3.61l-4.14-12.82c12.82-.13,19.64-.67,31.12-2.67-3.07-8.28-4.54-12.56-6.68-18.83L672,14.67c1.07-.13,4.41-.53,4.41,1.07,0,.67-.4,1.07-1.07,1.74-1.07,1.07-1.2,1.47-1.2,1.87,0,.93,2.27,7.48,4,12.29A128.94,128.94,0,0,0,701,21.35l2.94,13c-7.61,4.81-15,7.08-21.11,9.08,1.74,4.14,2.27,5.48,4.41,10.15a152.24,152.24,0,0,0,24.31-12L714,54.87C706.61,59.68,701.26,62.09,693,65.29Z"/><polygon class="cls-1" points="764.11 14.16 764.11 126.63 730.45 126.63 730.45 143.21 731.86 143.21 780.56 143.21 780.56 14.16 764.11 14.16"/><path class="cls-1" d="M824.61,123.09l-7.82,3.07a30.26,30.26,0,0,1-3.66-7.82,86.21,86.21,0,0,1-4.06-26,175,175,0,0,1,1.48-19.49,195.09,195.09,0,0,1,4.16-22.56l10.09,3.66c.69.3,2.57,1,2.57,1.78a1.18,1.18,0,0,1-.49.89c-.2.1-1.48.59-1.68.69-1.48.89-5.74,18.8-5.74,33.74,0,1.68,0,9.3,1.39,13.56,1.19-2.08,1.78-3.07,4-6.93l5.84,3.17A87.82,87.82,0,0,0,824.61,123.09ZM860,120.22c-18,0-21.77-4.85-22.07-21.57l10.79-1.49c.1,9.4,1.09,12.07,11.08,12.07a80.79,80.79,0,0,0,22.56-3.07v12.27A135.33,135.33,0,0,1,860,120.22Zm-7.92-50.86c-.79,0-5.34,0-10.59-.5V58a87.09,87.09,0,0,0,12.67,1.09A69.1,69.1,0,0,0,877.65,55V66.49A132.88,132.88,0,0,1,852.12,69.36Z"/><path class="cls-1" d="M447.88,208.27a175,175,0,0,1-7.37,37.93l-16.9-4.85a168.45,168.45,0,0,0,8.27-41.89l16.72,3.06c3.42.54,3.6,1.62,3.6,2.52C452.19,207,450,207.73,447.88,208.27Zm35.78,27.15V220.85c-2.34-4.13-4.49-7.37-10.79-14.2V323.33h-20V168.71l22.65,2.52c1.26.18,3.06.54,3.06,2.16,0,1.8-1.44,2.34-2.52,2.88-1.44.72-3.24,1.62-3.24,3.6V201.8l7.37-7.55a67,67,0,0,1,16.18,17.08l-11.69,9.35h38.65v-7H497.32V200.18h26.07V193H486.71V179.32h36.68V168.89l21.94,1.62c.9,0,2.34.72,2.34,1.44,0,.9-.72,1.44-1.26,2-2.34,1.8-2.7,2.52-2.7,5.39h41.53V193H543.7v7.19h29.85v13.48H543.7v7H586v14.74Zm63.65,89.72-8.45-18.7c6.83,1.26,9.71,1.44,11,1.44,4,0,5.21-1.8,5.21-4.68v-5H512.42v25.17h-19.6V242.61h82v68.14C574.81,324.05,562.4,325,547.3,325.13Zm7.73-68H512.42v6.65H555Zm0,19.78H512.42v7.55H555Z"/><path class="cls-1" d="M653.23,297.89c-5.57,9.35-12.77,19.6-24.27,28.23l-16.18-13.66A83.56,83.56,0,0,0,638.49,284l17.44,8.09c1.08.54,2.88,1.62,2.88,3.42S655.75,297.71,653.23,297.89ZM758,284.59c-.9,0-16.18-1.8-20.86-28l-5.75,7a122.45,122.45,0,0,0-9-9.53c-7,16.9-12.58,24.09-18,30.56l-16-10.25,2-1.62c-12.76,2-25.71,3.78-38.65,5.21-2.7.36-15.28,1.26-18.16,1.62-2.88.18-7,.54-8.09,2-1.8,2-2,2.34-2.7,2.34-1.62,0-2.34-3.06-2.52-4.13l-2.7-15.1c7.19,0,14.56-.36,30.38-1.44V256.9H623.39V243.24h6.11l-11.33-11.33c10.07-4.14,15.64-8.09,18.34-16.72h-18v-14h30v-6.47H623.93V181.21h24.63v-11l18.16,1.08c.72,0,5.39.18,5.39,2.34,0,1.26-1.8,1.8-3.59,3.24v4.31h24.63v13.48H668.51v6.47h28.23l-.54-5.57,18.16-1.26c-.36-9-.54-14.38-1.8-26.61l17.62,2.16c3.24.36,5,1.26,5,3.06a2.68,2.68,0,0,1-.72,1.62c-2,1.8-2.16,1.8-2.34,2.52,0,.18-.18,13.66-.18,16.18l27.33-2.16c-5.39,16.72-5.75,34.7-5.75,42.43,0,4.31,0,22.12,4.31,22.12,1.62,0,2.7-5.93,3.24-9.35l13.12,10.43C772.07,266.79,767.22,284.59,758,284.59Zm-97.8-55.92V215.19h-20L651.79,220c.72.36,2.7,1.08,2.7,2.88,0,1.26-1.62,1.62-3.78,1.8-5.39,11.87-13.3,16-18.34,18.52H648v-8.81l15.28.9A8.23,8.23,0,0,1,660.24,228.67Zm8.09,93.49c-.72-8.63-2-19.78-6.47-32.18l19.24-3.06c3.78,10.25,6.47,23.55,7.73,31.82Zm28.23-88.81c-2,2.34-4,4.13-11.15,4.13H672.83a27.47,27.47,0,0,1-4.14-.36v6.11h21.4V256.9h-21.4v5c6.83-.54,12.94-1.08,22.65-2.34l.9,11.33c10.25-11.33,14-21.75,16.54-28.94A97.12,97.12,0,0,0,696.56,233.35Zm1.08-21v2.88H677.32V220c0,3.24,1.08,3.78,4.31,3.78,4.31,0,4.5-1.08,5.57-5.39L700.34,222a44.58,44.58,0,0,1-1.62,7l7.73-9.17c1.26.9,4.49,3.42,6.83,5a78.25,78.25,0,0,0,1.08-13.66Zm7.37,109a108.46,108.46,0,0,0-8.27-29.84l17.44-4.85a121.21,121.21,0,0,1,10.07,29.49Zm26.25-111.11a191.57,191.57,0,0,1-3.42,26.61c2.52,2.34,5.39,4.85,8.45,8.09-.18-9.89.18-17.44.9-35.06Zm22.65,113.63c-4.68-7.55-12.59-19.6-24.63-30.92l16.18-11.15A142.57,142.57,0,0,1,770.09,311Z"/><path class="cls-1" d="M870.12,273.37c0,5.19.27,21.71.27,26.24H854.93c.4-7.59.53-14.12.67-20-5.06,2.53-18.91,9.46-18.91,18.78,0,8.66,10.25,10.39,20,10.39a154,154,0,0,0,34-4.26v15.05c-12.65,2-27.44,2-31.7,2-7.46,0-22.91,0-31.3-8.92a18.21,18.21,0,0,1-5.06-13.05c0-16.51,12.25-22.78,32.23-33-.8-4-2.4-8.79-10.12-8.79-13.05,0-21,12.12-28.37,24.11l-13.05-8.12c10.52-11.32,17.18-20.78,26.24-36.63-7.59.4-11.72.53-17.31.53l-1.6-13.85a187.46,187.46,0,0,0,25.44.53,103.2,103.2,0,0,0,6.66-17.71l16.65,2.93c.4.13,2.66.4,2.66,1.33s-.53,1.2-1.33,1.46c-.27.13-2.93,1.33-3.06,1.33s-3.46,7.59-4.13,9.06c12.25-2,18.25-3.73,26.11-6.79l-.93,14.92a280.22,280.22,0,0,1-31.83,5.06c-4.26,7.86-5.33,9.72-7.59,13.18a25.74,25.74,0,0,1,11.45-2.8c9.19,0,15.05,4.66,18.11,13.45,15.58-7.33,17.31-8.12,23.57-10.92l4.53,15.18C886.36,267.38,880,269.64,870.12,273.37Z"/><path class="cls-1" d="M970,303.39a20.58,20.58,0,1,1-20.51-20.51A20.72,20.72,0,0,1,970,303.39Zm-34.76,0a14.18,14.18,0,1,0,14.25-14.12A14.24,14.24,0,0,0,935.25,303.39Z"/></svg>