<svg xmlns="http://www.w3.org/2000/svg" xmlns:xlink="http://www.w3.org/1999/xlink" viewBox="0 0 1886.98 391.95"><defs><style>.cls-1,.cls-2{fill:#fff;}.cls-1,.cls-4,.cls-5,.cls-6,.cls-7{stroke:#fff;stroke-miterlimit:10;}.cls-1,.cls-7{stroke-width:10px;}.cls-3{clip-path:url(#clip-path);}.cls-4{fill:#8e84b1;}.cls-5{fill:#f4d723;}.cls-5,.cls-6{stroke-width:0;}.cls-6{fill:#092738;}.cls-7{fill:none;}</style><clipPath id="clip-path"><circle class="cls-1" cx="202.18" cy="189.41" r="179.91"/></clipPath></defs><title>アセット 5</title><g id="レイヤー_2" data-name="レイヤー 2"><g id="レイヤー_1-2" data-name="レイヤー 1"><path class="cls-2" d="M464.71,79.81q12.23,1.47,19,4.91c1.61.73,2.42,1.64,2.42,2.71a12.23,12.23,0,0,1-1.25,4.18q-1.32,4.1-1.32,14.72a199.14,199.14,0,0,0,2.71,34.2q3.88,22,12.31,22.05,3.79,0,7.25-5.27,3.08-4.69,7.1-15.61a62.62,62.62,0,0,0,9.6,11.58,4.23,4.23,0,0,1,1.53,3.22,7.58,7.58,0,0,1-.43,2.34Q519.13,170.93,511.8,177a20.77,20.77,0,0,1-13.62,5.2q-10,0-17.95-11.43-7.39-10.69-10.1-27.68a262.59,262.59,0,0,1-3.59-43.66A92.7,92.7,0,0,0,464.71,79.81Zm76.83,21.25q7.4-4.69,11.79-6.89a5.23,5.23,0,0,1,1.68-.59,2.45,2.45,0,0,1,1.61.88q11.07,9.6,19.41,24.91a91.29,91.29,0,0,1,10,26.44,3.17,3.17,0,0,1,.15.88c0,.87-.59,1.68-1.76,2.41a55.62,55.62,0,0,1-11.72,6,4.78,4.78,0,0,1-1.31.22c-1,0-1.59-.64-1.84-1.91q-4.17-17.64-11-30.17A101,101,0,0,0,541.54,101.06Z"/><path class="cls-2" d="M657,151.08q-.59-14.07-.73-17.87c-4.2.1-8,.14-11.35.14q-10.54,0-19.56-.8c-1.46,0-2.27-.83-2.41-2.49a75.25,75.25,0,0,1-.88-12.75,200.65,200.65,0,0,0,24.17,1.4c3.12,0,6.32-.08,9.59-.22l-.29-17.22q-8.94.3-15.09.3a185.68,185.68,0,0,1-20.8-1c-1.56,0-2.42-.7-2.56-2.12q-.66-5.49-1-13.48,13,1.47,39.33,1.47,0-4.32-.29-14.58a47.2,47.2,0,0,0-1.83-10q12.22.73,18.9,2.71a2.74,2.74,0,0,1,2.12,2.85,3.13,3.13,0,0,1-.44,1.62,18.46,18.46,0,0,0-2.27,7.25c0,1.12-.1,2.63-.15,4.54,0,2.19-.1,3.88-.14,5a270.87,270.87,0,0,0,32.81-4.54,5.17,5.17,0,0,1,1.1-.15c.88,0,1.36.66,1.46,2A79,79,0,0,1,707.37,94c0,1.47-.54,2.27-1.62,2.42a318.66,318.66,0,0,1-34.64,3.88l.15,17q6.81-.44,29.37-3.88a5.4,5.4,0,0,1,1.24-.22c.69,0,1.08.47,1.17,1.39q.45,8.58.44,12.31c0,1.27-.75,2-2.27,2.12q-15.75,2.57-29.37,3.59.66,15.16,1,21.17a136.68,136.68,0,0,1,39.77,18.09A3.15,3.15,0,0,1,714,174a6,6,0,0,1-.3,1.47,33.54,33.54,0,0,1-6.59,11.13,2.21,2.21,0,0,1-3.59.44A120.65,120.65,0,0,0,673.67,170q-.13,12.74-8.64,18.16-7.24,4.62-21.82,4.61-15.39,0-23.66-6.59a17.54,17.54,0,0,1-7-14.35q0-10,9.3-16,8.21-5.34,20.73-5.35Q649.94,150.49,657,151.08Zm.3,14.21a60.43,60.43,0,0,0-13.92-1.76q-16.19,0-16.18,7.91,0,6.74,14.86,6.74,10.11,0,13.63-4.47Q657.27,171.45,657.27,165.29Z"/><path class="cls-2" d="M795,76.76a73.45,73.45,0,0,1,14.79,3.68,2.2,2.2,0,0,1,1.59,2.23,2.29,2.29,0,0,1-.89,1.9,9.58,9.58,0,0,0-2.22,3.11c-.17.42-.45,1.06-.83,1.91q-1.14,2.73-2.22,5.14a210.73,210.73,0,0,0,23.68-4.07,5.61,5.61,0,0,1,.76-.06c.67,0,1.12.47,1.33,1.4a44.66,44.66,0,0,1,1.33,9.33v.38q0,1.4-2.22,1.71-15.17,2.22-30.47,3.94a168.53,168.53,0,0,1-9.71,14.41l.13.25a23.53,23.53,0,0,1,13-4q14,0,15.81,14,13.32-6.15,19.17-9.14a38.5,38.5,0,0,0,9.83-7A72.17,72.17,0,0,1,857,127.35a5.51,5.51,0,0,1,1,2.86c0,1-.66,1.59-2,1.84a42.55,42.55,0,0,0-7.93,2q-19.11,6.73-27.93,10.35v20.94c0,1.32-.83,2.1-2.48,2.35a61.43,61.43,0,0,1-9.2.64q-1.71,0-1.71-2.1,0-11.17.12-15.8-9,4.64-12.63,9.07a12.57,12.57,0,0,0-3.05,8.19q0,9,18,9a232.35,232.35,0,0,0,32.37-2.6h.38c.85,0,1.32.49,1.4,1.46a49,49,0,0,1,1.21,10.66v.45c0,1.31-.49,2-1.46,2A256.24,256.24,0,0,1,811,190.26q-32.62,0-32.62-21.46a25.24,25.24,0,0,1,7.23-17.71q6.42-6.85,20.19-14-.31-5.26-2-7.17c-1-1.23-2.71-1.84-5.08-1.84H798q-7.54.31-18,9.39-6,5.91-13,14.16-1,1.14-1.59,1.14c-.34,0-.81-.3-1.4-.89a55.29,55.29,0,0,1-7.42-8.57,2.17,2.17,0,0,1-.51-1.21,1.86,1.86,0,0,1,.89-1.39q17.7-15.81,27.23-32.25-9.08.39-20.82.38c-1,0-1.59-.7-1.84-2.09q-.45-2.48-1.27-10.73,6.21.25,13.07.25,8.25,0,16.82-.44a106.54,106.54,0,0,0,3.88-11.17A33.37,33.37,0,0,0,795,76.76Z"/><path class="cls-2" d="M940.11,177.89a2.35,2.35,0,0,1-.26,1.42c-.17.18-.62.26-1.36.26H927.65c-1,0-1.46-.56-1.46-1.68v-6.6H912.35v11.87c0,1.07-.49,1.61-1.47,1.61H899.75c-.78,0-1.25-.1-1.39-.29a2.51,2.51,0,0,1-.22-1.32l.29-46.22V104.28l-.29-36c0-.78.1-1.24.29-1.39a2.7,2.7,0,0,1,1.39-.22l12.82.29h13l12.89-.29c.78,0,1.25.1,1.4.29a2.62,2.62,0,0,1,.22,1.32l-.3,30.32v34.36ZM926.19,80.55H912.35V111.6h13.84Zm-13.84,77.12h13.84V125.23H912.35Zm53.76-39.92-20.15.3c-.87,0-1.39-.12-1.53-.37a2.68,2.68,0,0,1-.22-1.39v-10.4c0-.78.09-1.25.29-1.39a2.88,2.88,0,0,1,1.46-.22l20.15.29h10.76V89.12h-7L951,89.41a2.76,2.76,0,0,1-1.62-.29,2.82,2.82,0,0,1-.22-1.39V77.25c0-.83.13-1.34.37-1.54a3,3,0,0,1,1.47-.22l18.89.3h7a157.41,157.41,0,0,0-1-17q7.54.23,15.45,1.1c1.61.15,2.42.64,2.42,1.47a11.9,11.9,0,0,1-1,3.15Q992,66.19,992,75.79h10l19-.3q1.25,0,1.47.3a3,3,0,0,1,.22,1.46V87.73c0,.83-.1,1.31-.3,1.46a2.68,2.68,0,0,1-1.39.22l-19-.29H992v15.45h15.9l20.14-.29a2.55,2.55,0,0,1,1.54.29,2.62,2.62,0,0,1,.22,1.32v10.4a2.46,2.46,0,0,1-.3,1.54,3,3,0,0,1-1.46.22l-20.14-.3Zm.58,28.2-20,.3c-.88,0-1.39-.1-1.54-.3a2.46,2.46,0,0,1-.22-1.32V134.09c0-.78.1-1.25.29-1.39a3,3,0,0,1,1.47-.22l20,.29h29.52a127.18,127.18,0,0,0-1-13.18q9.38.51,15.09,1.31c1.71.35,2.57.91,2.57,1.69a6.26,6.26,0,0,1-.74,2.56q-.74,1.47-.73,7.62l15-.29c.83,0,1.35.09,1.54.29a2.46,2.46,0,0,1,.22,1.32v10.54a2.22,2.22,0,0,1-.25,1.36,2.63,2.63,0,0,1-1.51.26l-2-.08q-5.87-.15-13-.22v14.87l.15,18.46q0,9-5.28,12.74-4.83,3.3-19.48,3.3-3.59,0-4.32-.66c-.44-.44-.9-1.73-1.39-3.88a35.09,35.09,0,0,0-4.47-10.92q7,.6,14.65.59,5,0,5-4.69V146Zm.59,4.32a119.63,119.63,0,0,1,13.77,17.29,2.46,2.46,0,0,1,.58,1.24c0,.44-.44,1-1.31,1.62l-9.16,6.29a4.44,4.44,0,0,1-1.76.88c-.39,0-.8-.34-1.24-1A130.4,130.4,0,0,0,955,158.11a2.33,2.33,0,0,1-.73-1.24q0-.59,1.47-1.47l8.42-5.27a3.72,3.72,0,0,1,1.68-.66A2.51,2.51,0,0,1,967.28,150.27Z"/><path class="cls-2" d="M1118.08,94.83a125.14,125.14,0,0,0,4.32-18.31,53.91,53.91,0,0,0,.52-6.67,27.73,27.73,0,0,0-.22-3.58,63.52,63.52,0,0,1,17.72,6c1.61.73,2.42,1.64,2.42,2.71a4.9,4.9,0,0,1-1,2.56,23.7,23.7,0,0,0-3,5.57q-2.34,6.15-4.25,12,19.41,3.07,30.32,15.68,9.75,11.42,9.74,27.83,0,38.75-46.07,50.1a12.77,12.77,0,0,1-2.27.29c-1.36,0-2.66-1-3.88-2.86a28.66,28.66,0,0,0-9.74-9.89q44.89-9.22,44.9-39.62,0-12.3-8.28-20.21-7.32-7-18.75-8.13-11.05,26.73-21.9,43.79a52.07,52.07,0,0,0,6.45,7.62q-5.86,7-9.3,9.23a3.63,3.63,0,0,1-2.13.73,3.36,3.36,0,0,1-2.05-.88q-2.41-2.42-4.1-4.39-13.41,14.21-25,14.21a17.29,17.29,0,0,1-14.72-7.4q-4.9-6.58-4.91-16.92,0-23.73,21.32-43-.73-2.41-4.69-19.78-2.64-10.47-4.47-14.13,11.13.43,16.92,2.41c1.9.49,2.86,1.93,2.86,4.33a57.85,57.85,0,0,0,.58,8.57q1.25,7.25,2.13,10.62Q1100.58,96.37,1118.08,94.83Zm-39.33,31.93q-10.47,12.39-10.47,26.08a12.86,12.86,0,0,0,1.61,6.81,4.26,4.26,0,0,0,3.66,2.34q6.59,0,15.6-10.91A154.18,154.18,0,0,1,1078.75,126.76Zm12.3-9.88a105.5,105.5,0,0,0,8.43,21.89q6.81-11.06,14.21-30.32A54.32,54.32,0,0,0,1091.05,116.88Z"/><path class="cls-2" d="M1260.55,62.24a116.08,116.08,0,0,1,16.55,11.42,3,3,0,0,1-.95,5.2,32.92,32.92,0,0,0-7.18,5.28q-24.67,22.11-40.94,39-2,2.41-2,3.3c0,.78.66,1.68,2,2.71q34.42,24.9,55.81,47.24a3.91,3.91,0,0,1,1,2,2.78,2.78,0,0,1-1,1.75,144.24,144.24,0,0,1-10.4,10.4,4.13,4.13,0,0,1-2,1.18q-.66,0-1.83-1.32A390.53,390.53,0,0,0,1215,139.65q-8-6.08-8-12.67a12.56,12.56,0,0,1,2.2-7,49.16,49.16,0,0,1,5.13-6.22q5.78-6.15,20.28-21.39,11.2-11.64,17.88-18.89A46.36,46.36,0,0,0,1260.55,62.24Z"/><path class="cls-2" d="M1320.11,143.54q35.81-11.73,60.35-26.15h-37.28l-18.61.29c-.78,0-1.24-.1-1.39-.29a2.62,2.62,0,0,1-.22-1.32V105.23c0-1,.54-1.46,1.61-1.46l18.61.29H1375V89.7h-13.7l-19,.3a2.3,2.3,0,0,1-1.47-.3,2.57,2.57,0,0,1-.22-1.32V77.69c0-.78.1-1.24.3-1.39a2.68,2.68,0,0,1,1.39-.22l19,.29H1375V74.25a78.59,78.59,0,0,0-1.17-15.46q9.38.3,16.18,1.1c1.61.15,2.42.64,2.42,1.47a8.21,8.21,0,0,1-.73,3c-.74,1.51-1.1,5-1.1,10.33v1.68h4.47l18.89-.29c.88,0,1.39.1,1.54.29a2,2,0,0,1,.29,1.32V89.12A151.9,151.9,0,0,0,1426.6,77a48.23,48.23,0,0,0,6.74-11.13,87.19,87.19,0,0,1,12.89,7.54,3.28,3.28,0,0,1,1.83,2.71c0,.83-.56,1.51-1.68,2q-2.57,1.17-6.16,5.57a222.45,222.45,0,0,1-20.5,20.36h16.91l18.75-.29a1.29,1.29,0,0,1,1.47,1.46v10.84c0,1.07-.49,1.61-1.47,1.61l-18.75-.29h-32.22q-9.09,6.38-18.24,11.86h29.15l20.14-.29c.83,0,1.35.12,1.54.37a2.88,2.88,0,0,1,.22,1.46l-.29,20.22v15l.29,27.39c0,.74-.12,1.18-.37,1.32a2.65,2.65,0,0,1-1.39.22H1423c-1.12,0-1.68-.51-1.68-1.54v-4.76h-50.17v5.42c0,.78-.13,1.25-.37,1.39a2.28,2.28,0,0,1-1.32.22H1357c-.83,0-1.32-.09-1.46-.29a2.46,2.46,0,0,1-.22-1.32l.29-28.2V145.29q-14.87,6.75-22.34,9.67a22.1,22.1,0,0,1-3.3,1q-1.24,0-3.29-3.74A32.89,32.89,0,0,0,1320.11,143.54Zm101.22-1.84h-50.17v11h50.17Zm-50.17,34.5h50.17V164.85h-50.17ZM1414,90l-18.89-.3h-4.47v14.36h8.42A137.77,137.77,0,0,0,1414.88,90Z"/><path class="cls-2" d="M1533.53,90.29q9.3-1.68,21.31-5.06a2.87,2.87,0,0,1,.81-.14c.93,0,1.44.54,1.54,1.61q.87,6,1.1,10.77v.66c0,1.12-.76,1.85-2.27,2.19a238.3,238.3,0,0,1-26.08,5.72q-14.87,48.48-27.46,81.15c-.44,1.17-1,1.76-1.83,1.76a6,6,0,0,1-1.47-.3,97.3,97.3,0,0,1-12-5.56,2.41,2.41,0,0,1-1.39-2.13,3,3,0,0,1,.14-.88,594.15,594.15,0,0,0,26-71,258.3,258.3,0,0,1-26.22,1.68c-1.85,0-2.9-.8-3.15-2.41q-.79-4-2.12-13.7a81.12,81.12,0,0,0,11.13.51,197.07,197.07,0,0,0,24.25-1.54q1.76-6.87,3.81-18.75a107.39,107.39,0,0,0,.87-13.77q13.63,2.05,18.83,4.18a2.34,2.34,0,0,1,1.68,2.42,4.22,4.22,0,0,1-.73,2.41,44.74,44.74,0,0,0-3.15,5.94q-.81,2.92-2,8.27C1534.38,87.11,1533.87,89.12,1533.53,90.29Zm2.71,68.85q8.71-2.28,12.75-2.27a2.07,2.07,0,0,1,2.27,2.12q.87,8.41,7.32,11.57,5.13,2.56,15.6,2.57a219.39,219.39,0,0,0,25.2-2.13,2,2,0,0,1,.51-.07c.78,0,1.22.46,1.32,1.39a91.59,91.59,0,0,1,1.17,13.11,5.6,5.6,0,0,1,.07.73c0,1-.8,1.52-2.41,1.61a138.71,138.71,0,0,1-20.44,1.69q-15.67,0-24.32-2.56a28,28,0,0,1-12.3-7.18Q1536.76,173.42,1536.24,159.14ZM1548,130.79q-.66-10.62-.66-13.62a3,3,0,0,1,.59-2.2,4.19,4.19,0,0,1,2.12-.8,146.86,146.86,0,0,1,29.22-3.45,106.41,106.41,0,0,1,17.58,1.47,4.68,4.68,0,0,1,2.13.66,2.12,2.12,0,0,1,.44,1.61c.14,2.05.22,4.35.22,6.88,0,1.52,0,3.2-.08,5.06s-.58,2.85-1.76,2.85a4.35,4.35,0,0,1-1.09-.14,97.15,97.15,0,0,0-18.61-1.76A156.48,156.48,0,0,0,1548,130.79Z"/><path class="cls-2" d="M1657.13,90.44q.66-4.18,1.83-13.77c.24-2.74.37-5.11.37-7.11a41.19,41.19,0,0,0-.66-7.47,101.86,101.86,0,0,1,18,3.15c2,.63,3,1.54,3,2.71a4.38,4.38,0,0,1-1,2.42,12,12,0,0,0-2.56,5.49q-1.55,8.36-2.13,12.3a238.7,238.7,0,0,0,28.2-5.56,6.75,6.75,0,0,1,1.61-.29c.83,0,1.35.61,1.54,1.83a66.45,66.45,0,0,1,1,11.06,2.16,2.16,0,0,1-1.83,2.41q-19.41,4.32-33.55,6.16-3,17.94-6.88,33,18.23-15.9,43-15.9,15.75,0,25.34,9.45a25.46,25.46,0,0,1,8.13,18.9q0,19.41-17.14,30.32-12.15,7.91-38.23,12a72.32,72.32,0,0,1-11.06,1q-2.26,0-3.74-3.59a30.8,30.8,0,0,0-8.13-10.69q17.07-1,26.52-3a97.78,97.78,0,0,0,16.55-5.2q17.07-7.1,17.07-21.16a13,13,0,0,0-4.84-10.62q-4.6-3.68-12.23-3.67a51.58,51.58,0,0,0-24,5.79,45.42,45.42,0,0,0-15.46,12.82l-4.17,5.71c-.93,1.51-1.76,2.27-2.49,2.27h-.37a35.94,35.94,0,0,1-11.28-3.3q-3.29-1.46-3.29-3a9.74,9.74,0,0,1,.58-3q.73-2.57,2-7.11,4-15.73,8-39.25-18.3,1.32-25.19,1.31a2.56,2.56,0,0,1-2.86-2.12,115.85,115.85,0,0,1-2.12-13Q1639.84,91.75,1657.13,90.44Z"/><path class="cls-2" d="M1769.36,139.86a49.17,49.17,0,0,0,11.43-7.05q7.86-6.21,23.29-20.12,6-5.46,11.3-5.46a13.68,13.68,0,0,1,6,1.21,27.55,27.55,0,0,1,5.33,3.62q26.6,21.25,28.06,22.34a341.25,341.25,0,0,0,30.72,19.11c1,.42,1.52,1,1.52,1.84a1.8,1.8,0,0,1-.25.89,51.49,51.49,0,0,1-6.35,12.25c-.63.84-1.2,1.27-1.71,1.27a3.49,3.49,0,0,1-1.84-.64q-9.46-5.52-28.06-20-9.64-7.31-27.29-23c-2.08-2-4-3-5.72-3q-1.46,0-4.44,2.73l-21.84,21.39a42.18,42.18,0,0,0-4.63,5.72,2.86,2.86,0,0,1-2.35,1.58,3.44,3.44,0,0,1-2.47-1.14A98.38,98.38,0,0,1,1769.36,139.86Z"/><path class="cls-2" d="M837.3,298.56l-11.19.18c-.59,0-.88-.33-.88-1V291a1.69,1.69,0,0,1,.17-1,1.17,1.17,0,0,1,.71-.13l11.19.18h23v-8.82H848.67l-12.65.18c-.47,0-.75-.06-.83-.18a1.55,1.55,0,0,1-.14-.83l.18-9.52V251.63l-.18-9.52c0-.49.06-.79.18-.88a1.61,1.61,0,0,1,.79-.13l12.65.18h33.88l12.61-.18c.49,0,.79.06.88.18a1.72,1.72,0,0,1,.13.83l-.18,9.52v19.26l.18,9.52a1.49,1.49,0,0,1-.15.86,1.51,1.51,0,0,1-.86.15l-12.61-.18H870v8.82h24.19l11.19-.18c.44,0,.7.07.79.22a1.76,1.76,0,0,1,.13.88v6.79c0,.64-.31,1-.92,1l-11.19-.18H870v8.2l.17,12.29c0,.47-.06.75-.17.84a1.54,1.54,0,0,1-.8.13h-8.15q-.7,0-.84-.18a1.58,1.58,0,0,1-.13-.79l.18-12.29v-8.2Zm49.31-49.09H844.53v7.67h42.08Zm0,23.67v-8.07H844.53v8.07Z"/><path class="cls-2" d="M946.09,238a50.49,50.49,0,0,1,5.15,5.42,2.8,2.8,0,0,1,.79,1.63c0,.73-.51,1.1-1.54,1.1a11.77,11.77,0,0,0-2.77.79l-2.38.93c-.83.32-1.55.59-2.16.79v13.44l7.58-.18a1.37,1.37,0,0,1,.88.18,1.65,1.65,0,0,1,.13.84v6.3c0,.5-.07.79-.22.88s-.35.13-.79.13l-2.07-.09-4.81-.08A44.76,44.76,0,0,0,953,281.64a26.86,26.86,0,0,0-3.13,6.57c-.38,1-.69,1.54-.92,1.54s-.69-.49-1.37-1.46a59.38,59.38,0,0,1-4.67-8.1q0,14.19.36,28.37c.05,2.06.13,4.7.22,7.93,0,1.44,0,2.28,0,2.52,0,.47-.07.74-.22.83a1.62,1.62,0,0,1-.84.14h-7.36c-.47,0-.75-.06-.83-.18a1.47,1.47,0,0,1-.14-.79c0-.15.05-2.05.14-5.69q.44-16,.48-30.53a68.22,68.22,0,0,1-8.94,18.68c-.68,1-1.15,1.45-1.41,1.45s-.64-.51-.93-1.54a30.27,30.27,0,0,0-3-7.05,66.53,66.53,0,0,0,12.6-24.23H932l-8.76.17c-.47,0-.75-.06-.84-.17a1.65,1.65,0,0,1-.13-.84V263c0-.5.06-.8.17-.88a1.37,1.37,0,0,1,.8-.14l8.76.18h2.43V251.41q-1.45.41-5.6,1.41a11.65,11.65,0,0,1-1.89.31,1.16,1.16,0,0,1-1.1-.62,8.87,8.87,0,0,1-.8-1.85,26.41,26.41,0,0,0-2.77-5.15,88.88,88.88,0,0,0,20-5.38A21.92,21.92,0,0,0,946.09,238Zm48.6-.71a37.48,37.48,0,0,1,6.08,5.42,2.81,2.81,0,0,1,.79,1.81c0,.7-.48,1.06-1.45,1.06a30.51,30.51,0,0,0-4.67.88,204.83,204.83,0,0,1-37.37,6c-.68,0-1.12.08-1.32.08a1.61,1.61,0,0,1-1.46-.61,10.62,10.62,0,0,1-.74-2.16,35.31,35.31,0,0,0-2.43-5.29,181.69,181.69,0,0,0,35.3-4.54A26,26,0,0,0,994.69,237.31Zm-33.36,17.5a46.91,46.91,0,0,1,5.38,10.75,3.09,3.09,0,0,1,.22.75c0,.26-.37.55-1.1.88l-5.42,2.07a5.06,5.06,0,0,1-1.15.31c-.24,0-.43-.24-.57-.71a56,56,0,0,0-5.07-11.15,1.52,1.52,0,0,1-.31-.7c0-.24.35-.49,1.06-.75l5-1.81a4.52,4.52,0,0,1,1.1-.31C960.74,254.14,961,254.36,961.33,254.81Zm-8,17a59.92,59.92,0,0,1,8.68.75c1,.09,1.46.41,1.46,1a3.74,3.74,0,0,1-.27,1.1,10,10,0,0,0-.39,1.06,58.54,58.54,0,0,0-.36,8.59V307.5l.18,11.37c0,.47-.06.77-.18.88a2,2,0,0,1-.92.14h-6.79q-.71,0-.84-.18a1.77,1.77,0,0,1-.13-.84l.18-11.37V284.33A104.82,104.82,0,0,0,953.31,271.77Zm22.74,48.12h-6.44c-.46,0-.74-.06-.83-.18a1.5,1.5,0,0,1-.13-.79l.17-19.7v-11.1l-.17-14.72c0-.47.05-.75.17-.84a1.65,1.65,0,0,1,.84-.13l9.43.18H990.5l9.48-.18c.46,0,.74.06.83.18a1.48,1.48,0,0,1,.13.79l-.17,13.09v12.38l.17,19.65a.84.84,0,0,1-1,.93h-6.62c-.58,0-.88-.31-.88-.93v-2.78H977v3.18c0,.47-.06.75-.18.83A1.47,1.47,0,0,1,976.05,319.89Zm2.33-66.71a51.85,51.85,0,0,1,4.41,10.75,1.63,1.63,0,0,1,.18.61c0,.33-.39.61-1.15.84l-5.51,2a4.3,4.3,0,0,1-1,.27c-.24,0-.43-.31-.58-.93a55,55,0,0,0-4-10.71,1.45,1.45,0,0,1-.27-.7c0-.29.36-.54,1.06-.75l5.07-1.72a4.54,4.54,0,0,1,1.06-.26C977.81,252.56,978.09,252.76,978.38,253.18ZM977,280.54V290h15.46v-9.47Zm0,27.27h15.46v-10H977Zm8.28-40a62.3,62.3,0,0,0,7-13.44,47.79,47.79,0,0,0,1.28-5.15,48,48,0,0,1,7.84,2.82c.91.44,1.37.91,1.37,1.41a1.71,1.71,0,0,1-.79,1.45,8,8,0,0,0-2,2.69,84.45,84.45,0,0,1-6,10.75c-.88,1.32-1.51,2-1.89,2a11.08,11.08,0,0,1-2.25-.89A21.16,21.16,0,0,0,985.3,267.8Z"/><path class="cls-2" d="M1033.54,318h-7.8a1.33,1.33,0,0,1-.81-.15,1.37,1.37,0,0,1-.16-.82l.18-32.12V267.54l-.18-23.66q0-.7.18-.84a1.65,1.65,0,0,1,.84-.13l12.25.17h45.47l12.3-.17c.46,0,.74.06.83.17a1.54,1.54,0,0,1,.13.8l-.17,21v20l.17,32c0,.47,0,.75-.17.84a1.5,1.5,0,0,1-.79.13h-7.76c-.5,0-.79-.06-.88-.17a1.52,1.52,0,0,1-.13-.8v-5h-52.53V317c0,.47-.06.75-.17.84A1.54,1.54,0,0,1,1033.54,318Zm1-66.31V273h21.2V251.68Zm0,51.68h21.2v-21.9h-21.2ZM1087,251.68h-22V273h22Zm-22,51.68h22v-21.9h-22Z"/><path class="cls-2" d="M1201.15,276.62a22.47,22.47,0,0,0-3.39,6.25c-.53,1.62-1,2.43-1.54,2.43a12.1,12.1,0,0,1-2-.62A65.17,65.17,0,0,1,1174.89,271v6.35c0,.47-.06.74-.17.83a1.78,1.78,0,0,1-.89.14l-9-.18h-12.38l-9,.18a1.37,1.37,0,0,1-.88-.18,1.5,1.5,0,0,1-.13-.79v-3.88a82.84,82.84,0,0,1-19.48,12.56,9.06,9.06,0,0,1-2.16.7c-.41,0-1-.72-1.63-2.16a21.84,21.84,0,0,0-3.35-5,71.8,71.8,0,0,0,13.88-6.87,46.48,46.48,0,0,0-4.84-5.29,1.17,1.17,0,0,1-.44-.7c0-.24.26-.55.79-.93l3.26-2.42a2.15,2.15,0,0,1,.88-.53,1.66,1.66,0,0,1,.93.53,34.65,34.65,0,0,1,5.11,5,39.88,39.88,0,0,0,4.18-3.88,63.64,63.64,0,0,0-5-5c-.29-.26-.44-.48-.44-.66s.27-.53.8-1l2.9-2.47a1.89,1.89,0,0,1,1-.57,1.77,1.77,0,0,1,.88.4,31.56,31.56,0,0,1,4.49,4,57.68,57.68,0,0,0,5.16-8H1138a77.85,77.85,0,0,1-14.54,13.79,8.25,8.25,0,0,1-2.07,1.19c-.35,0-.93-.66-1.72-2a17.55,17.55,0,0,0-3.53-4,53,53,0,0,0,18.6-17.94,30.73,30.73,0,0,0,2.51-5.68q4,.66,7.76,1.67c.85.27,1.27.63,1.27,1.1,0,.24-.32.69-1,1.37a17.49,17.49,0,0,0-2.15,3.26h7.49a5.2,5.2,0,0,0,2.42-.31,7.89,7.89,0,0,1,1.23-.35c.74,0,1.91.81,3.53,2.42.79.8,1.31,1.34,1.54,1.63a64.32,64.32,0,0,1-2.07-6.21,2.4,2.4,0,0,1-.13-.66c0-.35.28-.59.84-.71l5.9-1.32a3.4,3.4,0,0,1,.75-.13q.52,0,.75.84a57.47,57.47,0,0,0,11.45,21.1,52.49,52.49,0,0,0,8.07-9.91h-4.63l-7.75.18q-.7,0-.84-.18a1.65,1.65,0,0,1-.13-.84V244a1.69,1.69,0,0,1,.17-1,1.52,1.52,0,0,1,.8-.13l7.75.17h6.52a6.86,6.86,0,0,0,2.25-.26,2.86,2.86,0,0,1,1.19-.35q1.32,0,3.88,2.51t2.51,3.52a2.13,2.13,0,0,1-1.1,1.63,48.32,48.32,0,0,0-3,4,95,95,0,0,1-9.83,12A60.67,60.67,0,0,0,1201.15,276.62ZM1137.09,296a68.89,68.89,0,0,1,7.49,4,1.61,1.61,0,0,1,1.1,1.45c0,.5-.4,1-1.19,1.45a8.55,8.55,0,0,0-2.25,2,48.72,48.72,0,0,1-14.36,10.92,4.58,4.58,0,0,1-2,.8q-.8,0-2-2a17.87,17.87,0,0,0-4.14-4.9,47.49,47.49,0,0,0,14.45-9.47A13.53,13.53,0,0,0,1137.09,296Zm1.54-2.6-12.38.18c-.48,0-.75-.06-.84-.18a1.5,1.5,0,0,1-.13-.79v-6.35c0-.47,0-.75.17-.83a1.49,1.49,0,0,1,.8-.14l12.38.18h40.58l12.38-.18q.71,0,.84.18a1.5,1.5,0,0,1,.13.79v6.35a1.33,1.33,0,0,1-.15.81,1.3,1.3,0,0,1-.82.16l-12.38-.18h-15.69v7.05l.27,10.36q0,4.85-2.91,6.87-2.34,1.64-12.52,1.63a5.63,5.63,0,0,1-2.59-.31,3.85,3.85,0,0,1-.66-2,26.39,26.39,0,0,0-2.16-7,54.45,54.45,0,0,0,7.75.53q2.21,0,2.91-.75a3.27,3.27,0,0,0,.53-2.11V293.36Zm20.75-42.52a56.33,56.33,0,0,0-3.7,6.21,58.18,58.18,0,0,1-9.91,13.18q1.44.09,6.65.09h12.38l9.21-.18a69.49,69.49,0,0,1-13.62-20.58A1.88,1.88,0,0,1,1159.38,250.84Zm38.47,57.85a25.31,25.31,0,0,0-4.28,5.69c-.64,1.26-1.23,1.89-1.76,1.89a4.73,4.73,0,0,1-2-.79,53,53,0,0,1-17.36-14.72,1.31,1.31,0,0,1-.35-.66c0-.23.28-.53.84-.88l4.8-3a2.58,2.58,0,0,1,1.1-.45c.18,0,.44.18.8.53Q1186,303.15,1197.85,308.69Z"/><path class="cls-2" d="M1228.17,301.81l28.17-27.25c.82-.82,1.67-1.69,2.56-2.61a24.57,24.57,0,0,0,2.41-2.92,18.25,18.25,0,0,0,1.79-3.23,9.33,9.33,0,0,0-.15-7.53,9.37,9.37,0,0,0-2.31-3,10.09,10.09,0,0,0-3.33-1.89,11.93,11.93,0,0,0-4-.67,10.94,10.94,0,0,0-7.58,2.66,11.29,11.29,0,0,0-3.59,7.17l-12.91-1a23.22,23.22,0,0,1,2.41-8.86,19.88,19.88,0,0,1,5.17-6.4,22.26,22.26,0,0,1,7.38-3.89,30,30,0,0,1,9.12-1.34,31.86,31.86,0,0,1,9.17,1.28,22.34,22.34,0,0,1,7.42,3.79,17.66,17.66,0,0,1,5,6.41,21,21,0,0,1,1.84,9.11,21.77,21.77,0,0,1-3.12,11.83,46.32,46.32,0,0,1-8,9.48l-22.43,20.79h33.59v11.07h-48.55Z"/><path class="cls-2" d="M1309.71,278.55a67.61,67.61,0,0,1,1.38-14.7,40.22,40.22,0,0,1,3.64-10.24,24.52,24.52,0,0,1,5.07-6.66,22.29,22.29,0,0,1,5.73-3.79,22.91,22.91,0,0,1,5.64-1.69,27.84,27.84,0,0,1,9.52,0,22.91,22.91,0,0,1,5.64,1.69,22.17,22.17,0,0,1,5.74,3.79,24.92,24.92,0,0,1,5.07,6.66,40.23,40.23,0,0,1,3.63,10.24,78.43,78.43,0,0,1,0,29.4,40.17,40.17,0,0,1-3.63,10.25,24.92,24.92,0,0,1-5.07,6.66,22.17,22.17,0,0,1-5.74,3.79,22.91,22.91,0,0,1-5.64,1.69,27.84,27.84,0,0,1-9.52,0,22.91,22.91,0,0,1-5.64-1.69,22.29,22.29,0,0,1-5.73-3.79,24.52,24.52,0,0,1-5.07-6.66,40.16,40.16,0,0,1-3.64-10.25A67.49,67.49,0,0,1,1309.71,278.55Zm12.29,0a76.43,76.43,0,0,0,.46,7.84,35.73,35.73,0,0,0,1.9,8.45,17.77,17.77,0,0,0,4.2,6.76,11.2,11.2,0,0,0,14.75,0,18,18,0,0,0,4.2-6.76,35.73,35.73,0,0,0,1.89-8.45,67,67,0,0,0,0-15.67,35.73,35.73,0,0,0-1.89-8.45,18,18,0,0,0-4.2-6.76,11.2,11.2,0,0,0-14.75,0,17.77,17.77,0,0,0-4.2,6.76,35.73,35.73,0,0,0-1.9,8.45A76.41,76.41,0,0,0,1322,278.55Z"/><path class="cls-2" d="M1416.55,256.43,1402.92,269l-7.17-8.5,21.93-18.24h11.16v72.53h-12.29Z"/><path class="cls-2" d="M1486.2,314.82,1503.62,288l-.21-.21a9.72,9.72,0,0,1-3,.93,23.86,23.86,0,0,1-3.74.3,20.78,20.78,0,0,1-8.81-1.84,21.59,21.59,0,0,1-6.91-5,22.59,22.59,0,0,1-4.51-7.38,24.91,24.91,0,0,1-1.59-8.91,26,26,0,0,1,2-10.24,22.79,22.79,0,0,1,5.38-7.84,23.87,23.87,0,0,1,8.19-5,29.82,29.82,0,0,1,10.3-1.74,31.12,31.12,0,0,1,10.4,1.69,23.5,23.5,0,0,1,8.19,4.87,21.76,21.76,0,0,1,5.33,7.78,27.11,27.11,0,0,1,1.89,10.35,27.44,27.44,0,0,1-1.89,10.4,64.6,64.6,0,0,1-4.87,9.47l-18.54,29.2ZM1513.56,266a13.1,13.1,0,0,0-8-12.18,13.49,13.49,0,0,0-10.34,0,13.26,13.26,0,0,0-4.2,21.56,13.26,13.26,0,0,0,4.2,2.82,13.61,13.61,0,0,0,10.34,0,13.15,13.15,0,0,0,8-12.2Z"/><circle class="cls-2" cx="202.18" cy="189.41" r="179.91"/><g class="cls-3"><path class="cls-4" d="M22.27,316.87V8.92A8.51,8.51,0,0,1,30.86.5H345.1a8.4,8.4,0,0,1,6.07,14.37l-314.23,308C31.53,328.13,22.27,324.37,22.27,316.87Z"/><path class="cls-4" d="M425.31,106.05v274.2c0,6.19-7.44,11.2-16.62,11.2H218.81c-12.15,0-20.19-8.51-15.05-15.93L357.14,62C364.65,51.17,425.31,94.07,425.31,106.05Z"/><ellipse class="cls-5" cx="169.71" cy="285.57" rx="56.58" ry="22.76"/><polygon class="cls-5" points="94.78 266.31 17.45 90.15 151.56 210.66 94.78 266.31"/><polygon class="cls-6" points="33.09 125.78 0 208.04 58.07 302.07 94.78 266.31 33.09 125.78"/></g><circle class="cls-7" cx="202.18" cy="189.41" r="179.91"/></g></g></svg>