<svg xmlns="http://www.w3.org/2000/svg" xmlns:xlink="http://www.w3.org/1999/xlink" viewBox="0 0 522.16 108.18"><defs><style>.cls-1{fill:none;}.cls-2,.cls-3{fill:#fff;}.cls-2{stroke:#fff;stroke-miterlimit:10;stroke-width:2px;}.cls-4{clip-path:url(#clip-path);}.cls-5{fill:#8c82af;}.cls-6{fill:#f3d623;}.cls-7{fill:#092738;}</style><clipPath id="clip-path"><circle class="cls-1" cx="55.95" cy="52.27" r="49.78"/></clipPath></defs><title>アセット 2</title><g id="レイヤー_2" data-name="レイヤー 2"><g id="レイヤー_1-2" data-name="レイヤー 1"><circle class="cls-2" cx="55.95" cy="52.27" r="49.78"/><path class="cls-3" d="M128.59,22.41a16.37,16.37,0,0,1,5.27,1.36c.45.2.67.45.67.75a3.45,3.45,0,0,1-.35,1.16,15.41,15.41,0,0,0-.36,4.07,55.15,55.15,0,0,0,.75,9.46q1.08,6.1,3.4,6.1c.71,0,1.38-.48,2-1.46a23.13,23.13,0,0,0,2-4.31,17.17,17.17,0,0,0,2.65,3.2,1.15,1.15,0,0,1,.43.89,2.09,2.09,0,0,1-.12.65,11.76,11.76,0,0,1-3.29,5,5.75,5.75,0,0,1-3.77,1.44c-1.83,0-3.49-1.06-5-3.17a18.32,18.32,0,0,1-2.8-7.66,73,73,0,0,1-1-12.08A25.31,25.31,0,0,0,128.59,22.41Zm21.26,5.88c1.37-.86,2.45-1.5,3.26-1.91a1.66,1.66,0,0,1,.47-.16.67.67,0,0,1,.45.25,24.46,24.46,0,0,1,5.37,6.89,25.27,25.27,0,0,1,2.75,7.31.85.85,0,0,1,0,.25c0,.24-.16.46-.48.67a15.89,15.89,0,0,1-3.25,1.66,1.23,1.23,0,0,1-.36.06c-.27,0-.44-.18-.51-.53a33.13,33.13,0,0,0-3.06-8.35A28.1,28.1,0,0,0,149.85,28.29Z"/><path class="cls-3" d="M181.79,42.13c-.1-2.59-.17-4.24-.2-4.94-1.16,0-2.21,0-3.14,0-1.95,0-3.75-.08-5.41-.23-.41,0-.63-.23-.67-.68a21.28,21.28,0,0,1-.24-3.53,55,55,0,0,0,6.69.38c.86,0,1.75,0,2.65-.06l-.08-4.76c-1.65,0-3,.08-4.18.08a51.55,51.55,0,0,1-5.75-.28.62.62,0,0,1-.71-.59c-.12-1-.22-2.26-.28-3.73a106.13,106.13,0,0,0,10.88.41c0-.8,0-2.14-.08-4a13.6,13.6,0,0,0-.51-2.77,23.85,23.85,0,0,1,5.23.75.76.76,0,0,1,.59.79.83.83,0,0,1-.12.44,4.89,4.89,0,0,0-.63,2c0,.31,0,.73,0,1.26s0,1.07,0,1.39a75.48,75.48,0,0,0,9.08-1.25,1.24,1.24,0,0,1,.3,0c.24,0,.38.18.41.54a22.86,22.86,0,0,1,.2,3c0,.41-.15.63-.45.67a88.94,88.94,0,0,1-9.58,1.08l0,4.7q1.88-.12,8.12-1.08a1.49,1.49,0,0,1,.35-.06c.19,0,.3.13.32.39.08,1.58.12,2.72.12,3.4,0,.36-.21.55-.62.59q-4.36.72-8.13,1,.18,4.2.28,5.86a38,38,0,0,1,11,5,.86.86,0,0,1,.36.59,1.42,1.42,0,0,1-.08.4A9.44,9.44,0,0,1,195.66,52a.61.61,0,0,1-1,.12,33.56,33.56,0,0,0-8.24-4.72q0,3.53-2.4,5a11.41,11.41,0,0,1-6,1.27c-2.83,0-5-.6-6.54-1.82a4.85,4.85,0,0,1-1.93-4,5.05,5.05,0,0,1,2.58-4.42A10.25,10.25,0,0,1,177.82,42C179.17,42,180.5,42,181.79,42.13Zm.09,3.93a17,17,0,0,0-3.85-.48q-4.49,0-4.48,2.19,0,1.86,4.11,1.86c1.86,0,3.12-.41,3.77-1.24A4.24,4.24,0,0,0,181.88,46.06Z"/><path class="cls-3" d="M220,21.57a20.32,20.32,0,0,1,4.1,1,.6.6,0,0,1,.44.61.66.66,0,0,1-.25.53,2.61,2.61,0,0,0-.62.86c0,.12-.12.29-.22.53-.21.5-.42,1-.62,1.42a58.25,58.25,0,0,0,6.55-1.13h.21c.19,0,.31.13.37.38a12.26,12.26,0,0,1,.37,2.59v.1c0,.26-.2.42-.61.48q-4.2.61-8.43,1.08a47.47,47.47,0,0,1-2.69,4l0,.07a6.5,6.5,0,0,1,3.6-1.1q3.89,0,4.38,3.88,3.69-1.71,5.3-2.53a11,11,0,0,0,2.73-1.93,19.41,19.41,0,0,1,2.52,3.16,1.48,1.48,0,0,1,.29.79c0,.27-.19.44-.55.51a10.94,10.94,0,0,0-2.19.54c-3.53,1.24-6.11,2.2-7.73,2.86v5.8c0,.36-.23.58-.69.65a16.81,16.81,0,0,1-2.55.18c-.31,0-.47-.2-.47-.58,0-2.06,0-3.52,0-4.38a11.27,11.27,0,0,0-3.5,2.51,3.49,3.49,0,0,0-.84,2.27q0,2.47,5,2.48a64,64,0,0,0,9-.72H233c.23,0,.36.13.39.4a13.68,13.68,0,0,1,.33,2.95V52c0,.36-.14.54-.4.54a70.22,70.22,0,0,1-8.91.47q-9,0-9-5.93a7,7,0,0,1,2-4.9A20.76,20.76,0,0,1,223,38.27a3.5,3.5,0,0,0-.54-2,1.74,1.74,0,0,0-1.41-.51h-.21c-1.39.06-3,.92-5,2.6q-1.66,1.63-3.6,3.91c-.18.22-.32.32-.44.32s-.22-.08-.39-.25a14.49,14.49,0,0,1-2-2.37.56.56,0,0,1-.14-.33.53.53,0,0,1,.24-.39A37.06,37.06,0,0,0,217,30.35c-1.68.07-3.6.11-5.76.11-.27,0-.44-.2-.51-.58s-.2-1.45-.35-3c1.14,0,2.35.07,3.61.07,1.53,0,3.08,0,4.66-.13a29.2,29.2,0,0,0,1.07-3.09A8.87,8.87,0,0,0,220,21.57Z"/><path class="cls-3" d="M260.14,49.55c0,.22,0,.35-.07.4a.66.66,0,0,1-.37.07h-3c-.27,0-.41-.16-.41-.47V47.73h-3.83V51c0,.3-.14.45-.41.45H249c-.21,0-.34,0-.38-.09a.67.67,0,0,1-.06-.36l.08-12.79v-9l-.08-10c0-.22,0-.34.08-.39a.74.74,0,0,1,.38-.06l3.55.09h3.59l3.57-.09c.21,0,.34,0,.38.09a.67.67,0,0,1,.06.36l-.08,8.39v9.51Zm-3.85-26.94h-3.83v8.6h3.83ZM252.46,44h3.83V35h-3.83Zm14.88-11.05-5.58.08c-.24,0-.38,0-.42-.1a.74.74,0,0,1-.06-.38V29.63c0-.22,0-.35.08-.39a.81.81,0,0,1,.4-.06l5.58.08h3V25h-1.95l-5.23.08a.81.81,0,0,1-.45-.08.81.81,0,0,1-.06-.39V21.7c0-.23,0-.37.11-.42a.78.78,0,0,1,.4-.06l5.23.08h1.95a45.07,45.07,0,0,0-.29-4.7c1.39,0,2.82.14,4.28.3.44,0,.67.18.67.4a3.22,3.22,0,0,1-.27.88,12.89,12.89,0,0,0-.2,3.12h2.78l5.27-.08c.23,0,.36,0,.4.08a.81.81,0,0,1,.06.4v2.9c0,.23,0,.37-.08.41a.74.74,0,0,1-.38.06L277.29,25h-2.78v4.27h4.4l5.57-.08a.75.75,0,0,1,.43.08.74.74,0,0,1,.06.37v2.88a.69.69,0,0,1-.08.42.86.86,0,0,1-.41.06l-5.57-.08Zm.16,7.8-5.53.08c-.25,0-.39,0-.43-.08a.67.67,0,0,1-.06-.36V37.43c0-.22,0-.34.08-.38A.7.7,0,0,1,262,37l5.53.09h8.17c0-1.17-.13-2.38-.29-3.65,1.73.09,3.12.21,4.18.36.47.1.71.25.71.47a1.71,1.71,0,0,1-.21.71,6.48,6.48,0,0,0-.2,2.11L284,37q.35,0,.42.09a.67.67,0,0,1,.06.36v2.92c0,.2,0,.33-.07.37s-.18.07-.41.07l-.55,0-3.61-.06v4.12l0,5.11a4,4,0,0,1-1.46,3.52q-1.33.91-5.39.91a2.24,2.24,0,0,1-1.19-.18,2.64,2.64,0,0,1-.39-1.07,9.45,9.45,0,0,0-1.24-3c1.29.11,2.64.16,4.06.16.92,0,1.38-.43,1.38-1.3V40.71Zm.16,1.2a33.31,33.31,0,0,1,3.81,4.78.68.68,0,0,1,.16.35c0,.12-.12.27-.36.44l-2.54,1.75a1.24,1.24,0,0,1-.48.24c-.11,0-.22-.1-.35-.28a35.88,35.88,0,0,0-3.64-5.11.64.64,0,0,1-.21-.35c0-.1.14-.24.41-.4l2.33-1.46a1,1,0,0,1,.47-.18A.67.67,0,0,1,267.66,41.91Z"/><path class="cls-3" d="M309.39,26.57a35.41,35.41,0,0,0,1.2-5.07,15.57,15.57,0,0,0,.14-1.84,7.57,7.57,0,0,0-.06-1,17.84,17.84,0,0,1,4.9,1.66c.45.21.67.46.67.75a1.35,1.35,0,0,1-.28.71,6.23,6.23,0,0,0-.83,1.54c-.44,1.14-.83,2.25-1.18,3.33A13.42,13.42,0,0,1,322.34,31a11.43,11.43,0,0,1,2.7,7.7q0,10.71-12.75,13.86a3.82,3.82,0,0,1-.63.08c-.38,0-.74-.26-1.07-.79a8,8,0,0,0-2.7-2.74q12.42-2.55,12.42-11A7.38,7.38,0,0,0,318,32.55a8.48,8.48,0,0,0-5.18-2.25,81.93,81.93,0,0,1-6.06,12.12,14.22,14.22,0,0,0,1.78,2.1A13.23,13.23,0,0,1,306,47.08a1,1,0,0,1-.58.2.93.93,0,0,1-.57-.24c-.45-.45-.82-.85-1.14-1.22q-3.7,3.93-6.93,3.93a4.79,4.79,0,0,1-4.07-2A7.63,7.63,0,0,1,291.33,43q0-6.56,5.9-11.89-.21-.68-1.3-5.47a22.84,22.84,0,0,0-1.23-3.92,17.6,17.6,0,0,1,4.68.67,1.09,1.09,0,0,1,.79,1.2,15.78,15.78,0,0,0,.16,2.37c.23,1.34.43,2.32.59,2.94A21.83,21.83,0,0,1,309.39,26.57ZM298.51,35.4a11,11,0,0,0-2.9,7.22,3.61,3.61,0,0,0,.44,1.88,1.17,1.17,0,0,0,1,.65c1.21,0,2.65-1,4.31-3A42.23,42.23,0,0,1,298.51,35.4Zm3.4-2.73a29.48,29.48,0,0,0,2.33,6.06,51.45,51.45,0,0,0,3.93-8.39A14.94,14.94,0,0,0,301.91,32.67Z"/><path class="cls-3" d="M348.81,17.55a31,31,0,0,1,4.58,3.16.81.81,0,0,1,.33.65.83.83,0,0,1-.59.79,9.07,9.07,0,0,0-2,1.46q-6.83,6.12-11.33,10.78a2.13,2.13,0,0,0-.54.91q0,.33.54.75a114.21,114.21,0,0,1,15.45,13.07,1.1,1.1,0,0,1,.28.55.76.76,0,0,1-.28.49Q353.6,52,352.38,53a1.18,1.18,0,0,1-.57.32c-.12,0-.29-.12-.5-.36a108,108,0,0,0-15.1-14c-1.48-1.12-2.21-2.29-2.21-3.51a3.43,3.43,0,0,1,.61-1.92A13,13,0,0,1,336,31.82q1.61-1.71,5.62-5.92c2.07-2.15,3.71-3.89,4.94-5.23A12.8,12.8,0,0,0,348.81,17.55Z"/><path class="cls-3" d="M365.29,40A85.44,85.44,0,0,0,382,32.81H371.68l-5.15.08c-.22,0-.35,0-.39-.08a.72.72,0,0,1-.06-.37v-3c0-.28.15-.41.45-.41l5.15.08h8.81v-4H376.7l-5.27.08a.66.66,0,0,1-.4-.08.74.74,0,0,1-.06-.37v-3c0-.21,0-.34.08-.38a.74.74,0,0,1,.38-.06l5.27.08h3.79v-.59a21.33,21.33,0,0,0-.32-4.27c1.73,0,3.22.15,4.48.3.44,0,.67.18.67.4a2.23,2.23,0,0,1-.21.84,8.22,8.22,0,0,0-.3,2.85v.47h1.24l5.23-.08c.24,0,.38,0,.42.08s.08.18.08.36V25a41.92,41.92,0,0,0,3-3.37,13.59,13.59,0,0,0,1.87-3.08,23.63,23.63,0,0,1,3.56,2.09.89.89,0,0,1,.51.75c0,.23-.16.42-.47.57a5.42,5.42,0,0,0-1.7,1.54,63.31,63.31,0,0,1-5.67,5.63h4.68l5.19-.08c.27,0,.4.13.4.41v3c0,.3-.13.45-.4.45l-5.19-.08h-8.92c-1.67,1.17-3.36,2.27-5.05,3.28h8.07l5.57-.08a.63.63,0,0,1,.43.1.86.86,0,0,1,.06.41l-.08,5.59v4.16l.08,7.58c0,.2,0,.32-.1.36a.76.76,0,0,1-.39.06h-3.44c-.31,0-.47-.14-.47-.42V52.53H379.42V54c0,.22,0,.34-.1.38a.62.62,0,0,1-.37.07h-3.44c-.23,0-.37,0-.41-.09A.67.67,0,0,1,375,54l.08-7.8v-5.7c-2.74,1.24-4.8,2.14-6.18,2.68a5.87,5.87,0,0,1-.91.28c-.23,0-.53-.34-.91-1A9.12,9.12,0,0,0,365.29,40Zm28-.5H379.42v3H393.3Zm-13.88,9.54H393.3V45.94H379.42Zm11.86-23.85-5.23-.08h-1.24v4h2.33a38,38,0,0,0,4.38-3.89Z"/><path class="cls-3" d="M424.35,25.31c1.72-.31,3.68-.78,5.9-1.4a.93.93,0,0,1,.22,0c.26,0,.4.15.43.45.16,1.11.26,2.1.3,3v.18c0,.31-.21.51-.63.61a66.22,66.22,0,0,1-7.21,1.58q-4.12,13.41-7.6,22.45c-.12.33-.29.49-.51.49a1.82,1.82,0,0,1-.4-.08A27.57,27.57,0,0,1,411.52,51a.68.68,0,0,1-.38-.59.67.67,0,0,1,0-.24,165.48,165.48,0,0,0,7.19-19.66,71.69,71.69,0,0,1-7.25.47c-.52,0-.81-.23-.87-.67-.15-.73-.35-2-.59-3.79a23.21,23.21,0,0,0,3.08.14,53.65,53.65,0,0,0,6.71-.43q.48-1.91,1.05-5.19a29.75,29.75,0,0,0,.24-3.81A26.06,26.06,0,0,1,426,18.38a.65.65,0,0,1,.47.67,1.25,1.25,0,0,1-.2.67,13,13,0,0,0-.88,1.64c-.14.54-.33,1.3-.56,2.29C424.59,24.43,424.45,25,424.35,25.31Zm.75,19.05a15.78,15.78,0,0,1,3.53-.63.58.58,0,0,1,.63.59,3.69,3.69,0,0,0,2,3.2,10,10,0,0,0,4.32.71,59,59,0,0,0,7-.59l.14,0c.22,0,.34.13.37.39a26.13,26.13,0,0,1,.32,3.63.87.87,0,0,1,0,.2c0,.27-.22.42-.67.45a38.56,38.56,0,0,1-5.65.46,24.52,24.52,0,0,1-6.73-.71,7.74,7.74,0,0,1-3.4-2C425.82,48.89,425.2,47,425.1,44.36Zm3.24-7.84c-.12-2-.18-3.22-.18-3.77a.87.87,0,0,1,.16-.61,1.2,1.2,0,0,1,.59-.22A40.38,40.38,0,0,1,437,31a29.51,29.51,0,0,1,4.86.4,1.37,1.37,0,0,1,.59.18.61.61,0,0,1,.12.45c0,.57.06,1.2.06,1.9,0,.42,0,.89,0,1.4s-.16.79-.48.79a1.15,1.15,0,0,1-.31,0,27.18,27.18,0,0,0-5.15-.48A42.9,42.9,0,0,0,428.34,36.52Z"/><path class="cls-3" d="M458.55,25.35q.18-1.16.51-3.81c.07-.76.1-1.41.1-2a11.53,11.53,0,0,0-.18-2.06,28.44,28.44,0,0,1,5,.87c.56.17.83.42.83.75a1.19,1.19,0,0,1-.28.67,3.36,3.36,0,0,0-.71,1.52c-.28,1.54-.48,2.67-.59,3.4A65.46,65.46,0,0,0,471,23.18a2.18,2.18,0,0,1,.44-.08c.23,0,.37.17.43.51a18.2,18.2,0,0,1,.28,3.06.6.6,0,0,1-.51.67q-5.37,1.18-9.28,1.7c-.55,3.31-1.19,6.36-1.9,9.14a17.52,17.52,0,0,1,11.89-4.4,9.55,9.55,0,0,1,7,2.62,7,7,0,0,1,2.25,5.23A9.44,9.44,0,0,1,476.89,50q-3.36,2.19-10.58,3.32a20,20,0,0,1-3.06.28c-.41,0-.76-.33-1-1a8.45,8.45,0,0,0-2.25-3,53.12,53.12,0,0,0,7.34-.83,27.23,27.23,0,0,0,4.58-1.44q4.73-2,4.72-5.86a3.6,3.6,0,0,0-1.34-2.93,5.26,5.26,0,0,0-3.38-1,14.37,14.37,0,0,0-6.65,1.6A12.58,12.58,0,0,0,461,42.74l-1.15,1.58q-.39.63-.69.63H459A10.06,10.06,0,0,1,455.9,44c-.61-.27-.91-.55-.91-.83a2.61,2.61,0,0,1,.16-.83l.54-2q1.1-4.36,2.21-10.86c-3.37.24-5.7.36-7,.36a.7.7,0,0,1-.79-.59,33.19,33.19,0,0,1-.59-3.6C452.36,25.72,455.36,25.59,458.55,25.35Z"/><path class="cls-3" d="M489.61,39a13.78,13.78,0,0,0,3.16-2q2.18-1.72,6.45-5.57A4.77,4.77,0,0,1,502.34,30a3.79,3.79,0,0,1,1.65.33,7.82,7.82,0,0,1,1.48,1q7.37,5.89,7.76,6.19a97.59,97.59,0,0,0,8.5,5.28c.29.12.43.29.43.51a.55.55,0,0,1-.07.25A14.22,14.22,0,0,1,520.33,47c-.18.23-.33.35-.47.35a.93.93,0,0,1-.51-.18,77.53,77.53,0,0,1-7.77-5.53q-2.67-2-7.55-6.37a2.43,2.43,0,0,0-1.58-.83c-.27,0-.68.25-1.23.76l-6,5.91a12.14,12.14,0,0,0-1.29,1.59.77.77,0,0,1-.65.43,1,1,0,0,1-.68-.31A27.81,27.81,0,0,1,489.61,39Z"/><path class="cls-3" d="M182.32,67.37h3.91L190,81.83h.05l4.51-14.46h3.52l4.42,14.46h.05l3.94-14.46h3.63l-5.84,20.07h-3.4l-4.65-15.28h0l-4.65,15.28h-3.29Z"/><path class="cls-3" d="M221.69,67.37h3.09l8.64,20.07h-4.08l-1.87-4.59h-8.7L217,87.44h-4Zm4.53,12.42-3.09-8.17L220,79.79Z"/><path class="cls-3" d="M249.47,71.68a3.28,3.28,0,0,0-1.52-1.2,5.2,5.2,0,0,0-2-.39,4.7,4.7,0,0,0-1.2.15,3.09,3.09,0,0,0-1.05.45,2.24,2.24,0,0,0-.75.81,2.31,2.31,0,0,0-.29,1.17,1.85,1.85,0,0,0,.71,1.56,7.08,7.08,0,0,0,1.76.94c.7.26,1.46.52,2.29.76a9.57,9.57,0,0,1,2.3,1,5.69,5.69,0,0,1,1.76,1.73,5.15,5.15,0,0,1,.71,2.86,6.31,6.31,0,0,1-.6,2.83,5.8,5.8,0,0,1-1.6,2,6.81,6.81,0,0,1-2.34,1.19,9.59,9.59,0,0,1-2.81.4,10.73,10.73,0,0,1-3.6-.62,7,7,0,0,1-3-2.1L241,82.62a4.58,4.58,0,0,0,1.72,1.55,4.77,4.77,0,0,0,2.25.55,4.89,4.89,0,0,0,1.25-.17,3.73,3.73,0,0,0,1.13-.51,2.73,2.73,0,0,0,.82-.87,2.26,2.26,0,0,0,.31-1.2,2.1,2.1,0,0,0-.7-1.7,6.45,6.45,0,0,0-1.76-1c-.7-.27-1.47-.53-2.3-.78a9.63,9.63,0,0,1-2.29-1,5.59,5.59,0,0,1-1.76-1.7,5.09,5.09,0,0,1-.71-2.85,5.33,5.33,0,0,1,.64-2.69,5.73,5.73,0,0,1,1.67-1.89,7.41,7.41,0,0,1,2.37-1.12,10.37,10.37,0,0,1,2.72-.37,9.9,9.9,0,0,1,3.07.48,7.13,7.13,0,0,1,2.68,1.59Z"/><path class="cls-3" d="M260.43,67.37h13.3V70.6H264v4.94h9.21v3.23H264v5.44h10.23v3.23H260.43Z"/><path class="cls-3" d="M282.86,67.37h7.9a12.28,12.28,0,0,1,3.83.61,9.33,9.33,0,0,1,3.26,1.86A9,9,0,0,1,300.12,73a10.85,10.85,0,0,1,.85,4.44,9.59,9.59,0,0,1-1,4.46A9.48,9.48,0,0,1,297.47,85,10.74,10.74,0,0,1,294,86.83a11.89,11.89,0,0,1-3.7.61h-7.48Zm6.23,16.84a12.85,12.85,0,0,0,3.16-.38,7.86,7.86,0,0,0,2.6-1.19,5.78,5.78,0,0,0,1.74-2.1,7.07,7.07,0,0,0,.64-3.13,7.76,7.76,0,0,0-.57-3.12,5.44,5.44,0,0,0-1.57-2.11A6.5,6.5,0,0,0,292.71,71a11.09,11.09,0,0,0-3-.39h-3.26V84.21Z"/><path class="cls-3" d="M312,67.37h3.09l8.65,20.07h-4.08l-1.87-4.59h-8.71l-1.81,4.59h-4Zm4.54,12.42-3.09-8.17-3.15,8.17Z"/><path class="cls-3" d="M339.77,71.68a3.25,3.25,0,0,0-1.51-1.2,5.24,5.24,0,0,0-2-.39,4.83,4.83,0,0,0-1.21.15,3.27,3.27,0,0,0-1.05.45,2.43,2.43,0,0,0-.75.81,2.3,2.3,0,0,0-.28,1.17,1.85,1.85,0,0,0,.71,1.56,7.08,7.08,0,0,0,1.76.94c.69.26,1.46.52,2.29.76a9.75,9.75,0,0,1,2.3,1,5.8,5.8,0,0,1,1.76,1.73,5.15,5.15,0,0,1,.7,2.86,6.31,6.31,0,0,1-.59,2.83,5.8,5.8,0,0,1-1.6,2A6.81,6.81,0,0,1,338,87.55a9.64,9.64,0,0,1-2.81.4,10.69,10.69,0,0,1-3.6-.62,7,7,0,0,1-3-2.1l2.69-2.61A4.56,4.56,0,0,0,333,84.17a4.81,4.81,0,0,0,3.5.38,3.68,3.68,0,0,0,1.14-.51,2.73,2.73,0,0,0,.82-.87,2.26,2.26,0,0,0,.31-1.2,2.07,2.07,0,0,0-.71-1.7,6.24,6.24,0,0,0-1.75-1c-.7-.27-1.47-.53-2.3-.78a9.7,9.7,0,0,1-2.3-1,5.56,5.56,0,0,1-1.75-1.7,5,5,0,0,1-.71-2.85,5.33,5.33,0,0,1,.64-2.69,5.73,5.73,0,0,1,1.67-1.89,7.41,7.41,0,0,1,2.37-1.12,10.32,10.32,0,0,1,2.72-.37,10,10,0,0,1,3.07.48,7.2,7.2,0,0,1,2.68,1.59Z"/><path class="cls-3" d="M356.1,67.37h3.09l8.64,20.07h-4.08l-1.87-4.59h-8.7l-1.81,4.59h-4Zm4.53,12.42-3.08-8.17-3.15,8.17Z"/><path class="cls-3" d="M376.22,67.37h3.58V87.44h-3.58Z"/><path class="cls-3" d="M391,83.84l7.8-7.54.71-.72a8.35,8.35,0,0,0,.66-.81,4.6,4.6,0,0,0,.5-.89,2.53,2.53,0,0,0,.2-1,2.48,2.48,0,0,0-.24-1.11A2.88,2.88,0,0,0,400,71a3,3,0,0,0-.92-.52,3.46,3.46,0,0,0-1.12-.19,3,3,0,0,0-2.1.74,3.09,3.09,0,0,0-1,2l-3.57-.28a6.29,6.29,0,0,1,.66-2.45,5.55,5.55,0,0,1,1.43-1.77,6.42,6.42,0,0,1,2-1.08,9,9,0,0,1,5.06,0,5.9,5.9,0,0,1,2.06,1,4.9,4.9,0,0,1,1.39,1.77,5.84,5.84,0,0,1,.51,2.52,6,6,0,0,1-.87,3.27,12.72,12.72,0,0,1-2.22,2.63l-6.21,5.75h9.3v3.06H391Z"/><path class="cls-3" d="M412.42,77.41a19,19,0,0,1,.38-4.07,11.16,11.16,0,0,1,1-2.84,7,7,0,0,1,1.4-1.84,6,6,0,0,1,3.15-1.51,7.32,7.32,0,0,1,2.64,0,6.22,6.22,0,0,1,1.56.46,6.38,6.38,0,0,1,1.58,1,7,7,0,0,1,1.41,1.84,11.17,11.17,0,0,1,1,2.84,21.93,21.93,0,0,1,0,8.13,11.17,11.17,0,0,1-1,2.84,6.87,6.87,0,0,1-1.41,1.84,6.38,6.38,0,0,1-1.58,1,6.26,6.26,0,0,1-1.56.47,8,8,0,0,1-2.64,0,6.1,6.1,0,0,1-3.15-1.52,6.85,6.85,0,0,1-1.4-1.84,11.16,11.16,0,0,1-1-2.84A18.93,18.93,0,0,1,412.42,77.41Zm3.4,0c0,.62.05,1.34.13,2.16a10.24,10.24,0,0,0,.52,2.34,5,5,0,0,0,1.17,1.87,3.09,3.09,0,0,0,4.08,0,4.9,4.9,0,0,0,1.16-1.87,9.74,9.74,0,0,0,.53-2.34q.12-1.23.12-2.16c0-.63,0-1.35-.12-2.17a10,10,0,0,0-.53-2.34A4.9,4.9,0,0,0,421.72,71a3.09,3.09,0,0,0-4.08,0,5,5,0,0,0-1.17,1.87,10.48,10.48,0,0,0-.52,2.34C415.87,76.06,415.82,76.78,415.82,77.41Z"/><path class="cls-3" d="M440.29,71.28l-3.77,3.49-2-2.35,6.07-5h3.09V87.44h-3.4Z"/><path class="cls-3" d="M457.29,87.44,462.11,80l-.06-.05a2.48,2.48,0,0,1-.83.25,6.18,6.18,0,0,1-1,.09,5.69,5.69,0,0,1-2.43-.51,6.07,6.07,0,0,1-1.92-1.39,6.24,6.24,0,0,1-1.24-2,6.8,6.8,0,0,1-.44-2.47,7.35,7.35,0,0,1,.53-2.83,6.31,6.31,0,0,1,1.49-2.17,6.68,6.68,0,0,1,2.27-1.38,8.28,8.28,0,0,1,2.85-.48,8.61,8.61,0,0,1,2.88.47,6.42,6.42,0,0,1,2.26,1.35A5.87,5.87,0,0,1,467.91,71a7.47,7.47,0,0,1,.52,2.86,7.58,7.58,0,0,1-.52,2.88,17.67,17.67,0,0,1-1.35,2.62l-5.13,8.08Zm7.57-13.52a3.61,3.61,0,0,0-1.06-2.59,3.67,3.67,0,0,0-2.6-1.07,3.62,3.62,0,0,0-1.43.29,3.7,3.7,0,0,0-1.16.78,3.67,3.67,0,0,0,0,5.18,3.7,3.7,0,0,0,1.16.78,3.62,3.62,0,0,0,1.43.29,3.67,3.67,0,0,0,2.6-1.07,3.61,3.61,0,0,0,1.06-2.59Z"/><g class="cls-4"><path class="cls-5" d="M6.16,87.54V2.33A2.36,2.36,0,0,1,8.54,0H95.49a2.32,2.32,0,0,1,1.68,4L10.22,89.19A2.38,2.38,0,0,1,6.16,87.54Z"/><path class="cls-5" d="M117.69,29.21v75.87c0,1.71-2.06,3.1-4.6,3.1H60.55c-3.36,0-5.59-2.35-4.17-4.41L98.82,17C100.9,14,117.69,25.89,117.69,29.21Z"/><ellipse class="cls-6" cx="46.96" cy="78.88" rx="15.66" ry="6.3"/><polygon class="cls-6" points="26.23 73.55 4.83 24.81 41.94 58.16 26.23 73.55"/><polygon class="cls-7" points="9.16 34.67 0 57.43 16.07 83.45 26.23 73.55 9.16 34.67"/></g></g></g></svg>