<svg id="レイヤー_1" data-name="レイヤー 1" xmlns="http://www.w3.org/2000/svg" viewBox="0 0 1209.15 264.34"><defs><style>.cls-1{fill:#fff;}.cls-2{fill:none;}.cls-3{fill:#e5e144;}</style></defs><title>logo-white</title><path class="cls-1" d="M239.24,0,208.62,30.62,194.38,44.86,159.32,79.91a95.51,95.51,0,0,0,0,135.07l4.49,4.49,14.25,14.24,30.62,30.62,30.56-30.56,30.56,30.56L386.68,147.45Zm14.25,219.53-14.25-14.24L225,219.53l-16.31,16.31-16.37-16.37-14.24-14.25-4.49-4.49a75.36,75.36,0,0,1,0-106.58l35.05-35.05,14.24-14.24,16.37-16.37,119,119-88.4,88.4Z"/><path class="cls-2" d="M227.36,184.42l-35.05,35.05,16.37,16.37L225,219.53l14.24-14.24,14.25,14.24,16.31,16.31,88.4-88.4-119-119L222.87,44.86l4.49,4.49A95.51,95.51,0,0,1,227.36,184.42Z"/><path class="cls-2" d="M151.5,147.45a74.87,74.87,0,0,0,22.07,53.29l4.49,4.49,35.05-35.05a75.45,75.45,0,0,0,0-106.58l-4.49-4.49L173.57,94.16A74.87,74.87,0,0,0,151.5,147.45Zm43.32-39,2.19,2.25A38.47,38.47,0,0,1,197,164l-17.08,17.54-2.19-2.25a38.42,38.42,0,0,1,0-53.32Z"/><path class="cls-3" d="M177.74,179.32l2.19,2.25L197,164a38.47,38.47,0,0,0,0-53.32l-2.19-2.25L177.74,126a38.42,38.42,0,0,0,0,53.32Z"/><path class="cls-1" d="M227.36,184.42a95.51,95.51,0,0,0,0-135.07l-4.49-4.49L208.62,30.62,178,0,147.45,30.56,116.89,0,30.51,86.38l14.25,14.25,72.14-72.14L133.2,44.8,147.45,59,161.69,44.8,178,28.49l16.37,16.37,14.25,14.25,4.49,4.49a75.45,75.45,0,0,1,0,106.58l-35.05,35.05-14.25,14.25-16.37,16.37L14.32,102.57,0,116.89,147.45,264.34l30.62-30.62,14.24-14.24Z"/><polygon class="cls-1" points="421.54 30.95 421.54 148.62 436.54 148.62 436.54 46.08 467.23 46.08 467.23 30.95 421.54 30.95"/><path class="cls-1" d="M523.43,133.81a105.13,105.13,0,0,0-9.74-13.52,87.88,87.88,0,0,1-18,22.41l-12.91-7.92c6.94-5.11,14.13-11.57,21.43-24.23a54.13,54.13,0,0,0-7.79-5.85c-.49,1.58-.61,1.95-1.46,4.26l-14.25-2.8A214.1,214.1,0,0,0,491.4,68.78h-9V56.6h11.08a159.54,159.54,0,0,0,1.83-18.88l15.22,1.1c.49,0,2.31.24,2.31,1.58,0,.49-.12.85-1.22,1.22-1.22.61-1.34,1-1.58,1.71-.61,3.9-1.58,9-2.44,13.27h19c.49,25.7-1.71,35.68-6.45,49.81A105.73,105.73,0,0,1,534.27,123Zm-18.27-65c-2.68,12.54-3.65,16.81-4.87,21.8a98.87,98.87,0,0,1,9.26,6.58,97.07,97.07,0,0,0,4.38-28.37Zm57.6,25.57v37.14c0,7.92-6.94,11.08-14,11.08h-7.43l-6.7-16.32c.73.12,4.26.85,5.12,1.1a21.05,21.05,0,0,0,3.9.37c3.29,0,4.63-.85,4.63-5.85V94.35H527.93V81.08h20.34V63.91l6.21,1.7a54.86,54.86,0,0,0,9.13-10.72H529.76V42.47H578l7.67,7.43c-8.53,10-19.12,21.31-22.89,25.21v6H587V94.35Z"/><path class="cls-1" d="M662.39,83.27c7.55,14.37,11.45,19.61,16.08,25.33L671,117.85c-5.85-3.17-17.9-9.26-31.91-9.26-8,0-14.74,3.41-14.74,10,0,10.35,15.83,10.35,20,10.35a88.85,88.85,0,0,0,24.36-3.29L667.5,140a122.4,122.4,0,0,1-19.24,1.46c-21.92,0-37-6.94-37-23,0-16.68,13.15-21.19,26.91-21.19a93,93,0,0,1,17.41,1.95c-2.92-5.24-4-7.43-6.33-11.93-12.79,3.17-23.26,5.11-39.09,5.36l-4.26-12.3c17.29-.12,25.21-.85,38.36-3.65-1.83-4.14-3.17-7.18-4.38-10-12.3,2.44-19.12,3.17-29,3.29L607.1,58.3a150.11,150.11,0,0,0,28.37-2.44c-2.8-7.55-4.14-11.45-6.09-17.17l13.88-1.58c1-.12,4-.49,4,1,0,.61-.37,1-1,1.58-1,1-1.1,1.34-1.1,1.71,0,.85,2.07,6.82,3.65,11.2A117.55,117.55,0,0,0,669.7,43.2L672.38,55c-6.94,4.38-13.64,6.45-19.24,8.28,1.58,3.77,2.07,5,4,9.26a138.79,138.79,0,0,0,22.16-11l2.19,12.18A90.24,90.24,0,0,1,662.39,83.27Z"/><polygon class="cls-1" points="727.24 36.65 727.24 139.19 696.55 139.19 696.55 154.31 697.84 154.31 742.24 154.31 742.24 36.65 727.24 36.65"/><path class="cls-1" d="M782.4,136l-7.13,2.8a27.59,27.59,0,0,1-3.34-7.13,78.6,78.6,0,0,1-3.7-23.73,159.51,159.51,0,0,1,1.35-17.77,177.86,177.86,0,0,1,3.79-20.57l9.2,3.34c.63.27,2.34.9,2.34,1.62a1.07,1.07,0,0,1-.45.81c-.18.09-1.35.54-1.53.63-1.35.81-5.23,17.14-5.23,30.76,0,1.53,0,8.48,1.26,12.36,1.08-1.89,1.62-2.8,3.61-6.31l5.32,2.89A80.07,80.07,0,0,0,782.4,136Zm32.3-2.62c-16.42,0-19.85-4.42-20.12-19.67l9.83-1.35c.09,8.57,1,11,10.1,11a73.65,73.65,0,0,0,20.57-2.8v11.19A123.38,123.38,0,0,1,814.69,133.34ZM807.48,87c-.72,0-4.87,0-9.65-.45V76.6a79.4,79.4,0,0,0,11.55,1,63,63,0,0,0,21.38-3.7V84.36A121.14,121.14,0,0,1,807.48,87Z"/><path class="cls-1" d="M867.92,64.27a118.53,118.53,0,0,1-5,25.7l-11.45-3.29a114.1,114.1,0,0,0,5.6-28.38l11.33,2.07c2.31.37,2.44,1.1,2.44,1.7C870.84,63.42,869.38,63.91,867.92,64.27Zm24.23,18.39V72.8c-1.58-2.8-3-5-7.31-9.62v79H871.33V37.48l15.34,1.71c.85.12,2.07.37,2.07,1.46s-1,1.58-1.71,1.95c-1,.49-2.19,1.1-2.19,2.44V59.89l5-5.11a45.35,45.35,0,0,1,11,11.57l-7.92,6.33h26.18V67.92H901.41V58.79h17.66V53.92H894.23V44.66h24.84V37.6l14.86,1.1c.61,0,1.58.49,1.58,1s-.49,1-.85,1.34c-1.58,1.22-1.83,1.7-1.83,3.65H961v9.26H932.83v4.87H953v9.13H932.83v4.75h28.62v10Zm43.11,60.77-5.72-12.67a45.07,45.07,0,0,0,7.43,1c2.68,0,3.53-1.22,3.53-3.17v-3.41H911.64v17H898.37V87.53H953.9v46.16C953.9,142.7,945.5,143.31,935.27,143.43Zm5.24-46H911.64v4.51H940.5Zm0,13.4H911.64v5.12H940.5Z"/><path class="cls-1" d="M1006.52,125.16c-3.78,6.33-8.65,13.27-16.44,19.12l-11-9.26a56.6,56.6,0,0,0,17.41-19.24l11.81,5.48c.73.37,1.95,1.1,1.95,2.31S1008.22,125,1006.52,125.16Zm71-9c-.61,0-11-1.22-14.13-19l-3.9,4.75a82.94,82.94,0,0,0-6.09-6.45c-4.75,11.45-8.52,16.32-12.18,20.7l-10.84-6.94,1.34-1.1c-8.65,1.34-17.41,2.56-26.18,3.53-1.83.24-10.35.85-12.3,1.1s-4.75.37-5.48,1.34c-1.22,1.34-1.34,1.58-1.83,1.58-1.1,0-1.58-2.07-1.71-2.8l-1.83-10.23c4.87,0,9.86-.24,20.58-1V97.4H986.3V88.14h4.14l-7.67-7.67c6.82-2.8,10.59-5.48,12.42-11.33H983v-9.5h20.34V55.26H986.67V46.13h16.68V38.7l12.3.73c.49,0,3.65.12,3.65,1.58,0,.85-1.22,1.22-2.43,2.19v2.92h16.68v9.13h-16.68v4.39H1036l-.37-3.78,12.3-.85c-.24-6.09-.37-9.74-1.22-18l11.94,1.46c2.19.24,3.41.85,3.41,2.07a1.81,1.81,0,0,1-.49,1.1c-1.34,1.22-1.46,1.22-1.58,1.71,0,.12-.12,9.26-.12,11l18.51-1.46c-3.65,11.32-3.9,23.5-3.9,28.74,0,2.92,0,15,2.92,15,1.1,0,1.83-4,2.19-6.33l8.89,7.06C1087,104.09,1083.73,116.15,1077.51,116.15Zm-66.25-37.87V69.14H997.75l7.79,3.29c.49.24,1.83.73,1.83,1.95,0,.85-1.1,1.1-2.56,1.22a24.17,24.17,0,0,1-12.42,12.54H1003v-6l10.35.61A5.58,5.58,0,0,1,1011.27,78.28Zm5.48,63.33a81.85,81.85,0,0,0-4.38-21.8l13-2.07a122.16,122.16,0,0,1,5.24,21.56Zm19.12-60.16c-1.34,1.58-2.68,2.8-7.55,2.8h-8.52A18.61,18.61,0,0,1,1017,84v4.14h14.49V97.4H1017v3.41c4.63-.37,8.77-.73,15.34-1.58l.61,7.67a53,53,0,0,0,11.21-19.61A65.78,65.78,0,0,0,1035.87,81.44Zm.73-14.25v1.95h-13.76v3.29c0,2.19.73,2.56,2.92,2.56,2.92,0,3-.73,3.78-3.65l8.89,2.43a30.19,30.19,0,0,1-1.1,4.75l5.24-6.21c.85.61,3,2.31,4.63,3.41a53,53,0,0,0,.73-9.25Zm5,73.8a73.47,73.47,0,0,0-5.6-20.21l11.81-3.29a82.1,82.1,0,0,1,6.82,20Zm17.78-75.26a129.76,129.76,0,0,1-2.31,18c1.71,1.58,3.65,3.29,5.72,5.48-.12-6.7.12-11.81.61-23.75Zm15.34,77A101.76,101.76,0,0,0,1058,121.75l11-7.55a96.57,96.57,0,0,1,16.68,19.85Z"/><path class="cls-1" d="M1151.33,107.6c0,3.52.18,14.7.18,17.77H1141c.27-5.14.36-9.56.45-13.53-3.43,1.71-12.81,6.41-12.81,12.72,0,5.86,6.95,7,13.53,7a104.3,104.3,0,0,0,23-2.89V138.9a149.32,149.32,0,0,1-21.47,1.35c-5.05,0-15.52,0-21.2-6a12.34,12.34,0,0,1-3.43-8.84c0-11.19,8.3-15.43,21.83-22.37-.54-2.71-1.62-6-6.86-6-8.84,0-14.25,8.21-19.22,16.33l-8.84-5.5c7.13-7.67,11.64-14.07,17.77-24.81-5.14.27-7.94.36-11.73.36L1111,74a127,127,0,0,0,17.23.36,69.91,69.91,0,0,0,4.51-12l11.28,2c.27.09,1.8.27,1.8.9s-.36.81-.9,1c-.18.09-2,.9-2.08.9s-2.34,5.14-2.8,6.13a76.14,76.14,0,0,0,17.68-4.6l-.63,10.1a189.81,189.81,0,0,1-21.56,3.43c-2.89,5.32-3.61,6.59-5.14,8.93a17.44,17.44,0,0,1,7.76-1.89c6.23,0,10.19,3.16,12.27,9.11,10.55-5,11.73-5.5,16-7.4l3.07,10.28C1162.33,103.54,1158,105.07,1151.33,107.6Z"/><path class="cls-1" d="M1209.15,127.63a13.94,13.94,0,1,1-13.89-13.89A14,14,0,0,1,1209.15,127.63Zm-23.55,0a9.61,9.61,0,1,0,9.65-9.56A9.64,9.64,0,0,0,1185.6,127.63Z"/><path class="cls-1" d="M638.77,226.56v13.2h-7.82v-13.2H608.4V220h22.55v-5.26H614.08V188h41.67v26.77h-17V220h22.55v6.54Zm9.59-32.45H621.47v4.09h26.89Zm0,10H621.47v4.46h26.89Z"/><path class="cls-1" d="M695,212.69a1.56,1.56,0,0,0-.61,1.16v25.54h-6.72v-20.9l-3.85,3.79a17,17,0,0,1-2.63-3.12v20.35h-6.54V221.06a26.43,26.43,0,0,1-4.09,6.42l-5.38-3.85A41.36,41.36,0,0,0,673.63,208h-6.48v-6.84h7.52v-5.81c-2.44.31-3.79.43-5.74.55l-2.63-6c7.09-.12,11.18-.67,18-3.18l3.73,5.07a1.84,1.84,0,0,1,.49,1.16c0,.55-.61.55-.67.55-.43,0-2.2-.43-2.63-.43a9.77,9.77,0,0,0-2.63.61,7.86,7.86,0,0,1-1.34.37v7.15h6V208h-6a22.39,22.39,0,0,0,6.48,8.62v-6.23l6.48.61c1.1.12,1.41.43,1.41.92C695.57,212.14,695.5,212.32,695,212.69ZM717.44,193c-.24,0-1.53-.31-1.83-.31s-2.75.55-3.24.67a112.75,112.75,0,0,1-18.88,1.71c-1.77,0-2.63-.06-3.73-.12l-2.63-6.72a42.4,42.4,0,0,0,7.64.55c6.6,0,13.2-.43,19.49-2.5l3.48,4.77a1.93,1.93,0,0,1,.43,1.1A.73.73,0,0,1,717.44,193ZM691,209.94A37.09,37.09,0,0,0,687.25,199l6.17-1.89a37,37,0,0,1,4,11Zm9.23-1.65A33.7,33.7,0,0,0,697,198l6.6-1.65a38.26,38.26,0,0,1,3.24,11.12Zm12,31.22v-2.32h-8.74v2.32H697V211.22h21.51v28.29Zm0-22.61h-8.74v4.22h8.74Zm0,10.27h-8.74v4.34h8.74ZM720.5,198c-1,.43-1.1.43-1.34.86a101.94,101.94,0,0,1-6.29,12.28l-6-2.81a117,117,0,0,0,6.6-14l6.36,2.14c.49.18,1.1.43,1.1.92A.63.63,0,0,1,720.5,198Z"/><path class="cls-1" d="M771,237.25v-2.14H735.92v2.57h-6.84V189.84H778v47.42Zm-21.14-41.19H736v12.59h13.87Zm0,18.88H736v14.12h13.87Zm21.2-18.88H757.18v12.59h13.87Zm0,18.88H757.18v14.12h13.87Z"/><path class="cls-1" d="M834.38,216.78a38.8,38.8,0,0,1-9.72-7v3.12H801.44V210a45.14,45.14,0,0,1-8.19,7H839v6.11H816.84v10.2c0,4.77-2.08,7.09-6.72,7.09H806L802.48,233a30.81,30.81,0,0,0,4.64.43c1.83,0,2.26-.49,2.26-2.57v-7.76H787V217h3.79l-4.89-3.73c2-.67,4.34-1.65,8.8-5.32a28.67,28.67,0,0,0-3-4.16c-.61.67-1.28,1.22-2,1.83l-5.13-3.6a48.27,48.27,0,0,0,10.69-15.52l6.05.92c1.1.18,1.59.37,1.59.86s-.18.43-.79.73c-.79.37-.92.43-1,.67h9.47l1.34,2.26a43.89,43.89,0,0,1-7.76,14.85h17.6c-4.52-5.32-8.31-11.31-9.78-18.09l6.11-2.2a47.07,47.07,0,0,0,3.24,8.25v-5.13h14l2.93,3.12c-2.32,3.54-6.29,9-9,12.4a43.16,43.16,0,0,0,10,6.6ZM805.72,228.7c-.18.12-1.4.18-1.59.37-.73,1-5.74,7.09-10.88,10.08l-5.81-4.46a40.46,40.46,0,0,0,11.61-10.33l5.74,2.87c.43.18,1.28.61,1.28,1A.46.46,0,0,1,805.72,228.7Zm-9.9-29.57c-.12.12-1,1.34-1.1,1.47a26.82,26.82,0,0,1,3.42,4c.24-.18.85-.92,1.4-1.53A30,30,0,0,0,795.82,199.12Zm2.81-4.34c-.12.18-.43.67-.55.92a19.78,19.78,0,0,1,4.16,3.73,17.62,17.62,0,0,0,2.14-4.64Zm32.57,45a74.49,74.49,0,0,0-11.12-11.49l5.26-4.16a86.67,86.67,0,0,1,11.61,10.39Zm-9.72-44.67a36.69,36.69,0,0,0,3.48,5.5,37.16,37.16,0,0,0,3.6-5.5Z"/><path class="cls-1" d="M847.27,238.06c1.2-8.7,4.22-13.93,15.26-22,7.16-5.22,9.31-7.9,9.31-12.18,0-4.62-3.21-8.1-7.63-8.1-6.76,0-7,7-7,10.64h-8.5c.13-4.35.67-18.07,15.8-18.07,10,0,16.54,7,16.54,15.53,0,7.83-5.56,12.25-11.92,16.67-6.56,4.55-8.23,6.43-10.31,10.51h22.63v7Z"/><path class="cls-1" d="M905.58,239c-15.53,0-17-18.21-17-24.5,0-8,1.41-26.18,17-26.18a14.45,14.45,0,0,1,12.85,7.16c3.35,5.36,4.15,11.85,4.15,18.14S921.58,239,905.58,239Zm-.13-43.45c-4.49,0-7.7,3.28-7.7,18.07-.07,15.47,3.48,18.14,7.83,18.14,4.89,0,7.77-3.75,7.77-18.14C913.34,198.16,909.86,195.55,905.44,195.55Z"/><path class="cls-1" d="M941.45,238.06V204H928.19v-6.36h3.88a10.92,10.92,0,0,0,10.64-8.5H950v48.87Z"/><path class="cls-1" d="M977.91,239.27c-11,.07-17-6.83-17-15.06,0-7.5,5-10.78,7.77-12.52a10.33,10.33,0,0,1-6.36-10c0-6.76,5.49-13.05,15.6-13.05s15.53,6.29,15.53,13.05a10.24,10.24,0,0,1-6.36,10c2.81,1.74,7.83,5,7.83,12.52C994.92,232.44,988.82,239.27,977.91,239.27Zm0-23.43c-6.09,0-8,4.89-8,8.1,0,3.82,2.48,8.1,8,8.1s8-4.28,8-8.1C985.88,220.73,983.94,215.84,977.91,215.84Zm0-19.68a6.42,6.42,0,0,0-6.76,6.63c0,3.15,1.87,6.56,6.76,6.56s6.7-3.41,6.7-6.56A6.37,6.37,0,0,0,977.91,196.16Z"/></svg>