<svg xmlns="http://www.w3.org/2000/svg" viewBox="0 0 601.46 196.13"><defs><style>.cls-1{fill:#ca4161;}.cls-2{fill:#fff;}</style></defs><title>play</title><g id="レイヤー_2" data-name="レイヤー 2"><g id="label"><rect class="cls-1" width="601.46" height="196.13" rx="98.06" ry="98.06"/><circle class="cls-2" cx="102.98" cy="98.06" r="74.53"/><polygon class="cls-1" points="140.25 98.06 79.71 63.12 79.71 133.01 140.25 98.06"/><path class="cls-2" d="M278.22,106.71H261.68V128.1H250.57V68h27.65c13.08,0,20.49,8.8,20.49,19C298.71,99.13,289.41,106.71,278.22,106.71Zm-1.65-29.3H261.68V97.32h14.89C282.75,97.32,287,94,287,87,287,79.71,282.42,77.41,276.57,77.41Z"/><path class="cls-2" d="M308.17,128.1V68h11.11v50.69h33.33v9.38Z"/><path class="cls-2" d="M407.42,128.1,403,115.18H377.71l-4.44,12.92H361L384.05,68h12.59l23,60.07ZM391.7,82.76l-1.32-5.27L389,82.76l-8,23.12h18.76Z"/><path class="cls-2" d="M453.66,105V128.1H442.55V105L421.32,68h12.51l12.35,23.53,2,4.12L450,91.56,462.39,68h12.5Z"/></g></g></svg>